<?xml version="1.0" standalone="no"?>
 <!DOCTYPE svg PUBLIC "-//W3C//DTD SVG 1.1//EN" 
 "http://www.w3.org/Graphics/SVG/1.1/DTD/svg11.dtd"> 
<svg
  xmlns:svg="http://www.w3.org/2000/svg"
  xmlns="http://www.w3.org/2000/svg"
  xmlns:xlink="http://www.w3.org/1999/xlink"
  version="1.1"
  width="311.2262mm" height="128.9304mm" viewBox="0.0000 0.0000 311.2262 128.9304">
<title>SVG Image created as picoclock-B_Cu.svg date 2024/06/08 21:34:51 </title>
  <desc>Image generated by PCBNEW </desc>
<g style="fill:#000000; fill-opacity:1.0000;stroke:#000000; stroke-opacity:1.0000;
stroke-linecap:round; stroke-linejoin:round;"
 transform="translate(0 0) scale(1 1)">
</g>
<g style="fill:#000000; fill-opacity:0.0; 
stroke:#000000; stroke-width:0.0000; stroke-opacity:1; 
stroke-linecap:round; stroke-linejoin:round;">
</g>
<g style="fill:#000000; fill-opacity:1.0000; 
stroke:#000000; stroke-width:0.0212; stroke-opacity:1; 
stroke-linecap:round; stroke-linejoin:round;">
<rect x="-5.000000" y="-5.000000" width="321.237060" height="138.953250" rx="0.000000" />
</g>
<g style="fill:#FFFFFF; fill-opacity:1.0000; 
stroke:#FFFFFF; stroke-width:0.0212; stroke-opacity:1; 
stroke-linecap:round; stroke-linejoin:round;">
<g >
</g>
<g style="fill:#B2803A; fill-opacity:1.0000; 
stroke:#B2803A; stroke-width:0.0212; stroke-opacity:1; 
stroke-linecap:round; stroke-linejoin:round;">
</g>
<g style="fill:#B2803A; fill-opacity:1.0000; 
stroke:#B2803A; stroke-width:0.0000; stroke-opacity:1; 
stroke-linecap:round; stroke-linejoin:round;">
<path style="fill:#B2803A; fill-opacity:1.0000; 
stroke:#B2803A; stroke-width:0.0000; stroke-opacity:1; 
stroke-linecap:round; stroke-linejoin:round;fill-rule:evenodd;"
d="M 31.4582,12.8750
29.7583,12.8750
29.7583,11.1750
31.4582,11.1750
Z" /> 
<circle cx="33.1482" cy="12.0250" r="0.8500" /> 
<circle cx="35.6882" cy="12.0250" r="0.8500" /> 
<circle cx="38.2282" cy="12.0250" r="0.8500" /> 
<circle cx="40.7682" cy="12.0250" r="0.8500" /> 
<circle cx="43.3083" cy="12.0250" r="0.8500" /> 
<circle cx="45.8483" cy="12.0250" r="0.8500" /> 
<circle cx="48.3882" cy="12.0250" r="0.8500" /> 
</g>
<g >
</g>
<g style="fill:#B2803A; fill-opacity:1.0000; 
stroke:#B2803A; stroke-width:0.0000; stroke-opacity:1; 
stroke-linecap:round; stroke-linejoin:round;">
<path style="fill:#B2803A; fill-opacity:1.0000; 
stroke:#B2803A; stroke-width:0.0000; stroke-opacity:1; 
stroke-linecap:round; stroke-linejoin:round;fill-rule:evenodd;"
d="M 31.4582,52.8750
29.7583,52.8750
29.7583,51.1750
31.4582,51.1750
Z" /> 
<circle cx="33.1482" cy="52.0250" r="0.8500" /> 
<circle cx="35.6882" cy="52.0250" r="0.8500" /> 
<circle cx="38.2282" cy="52.0250" r="0.8500" /> 
<circle cx="40.7682" cy="52.0250" r="0.8500" /> 
<circle cx="43.3083" cy="52.0250" r="0.8500" /> 
<circle cx="45.8483" cy="52.0250" r="0.8500" /> 
<circle cx="48.3882" cy="52.0250" r="0.8500" /> 
</g>
<g >
</g>
<g style="fill:#B2803A; fill-opacity:1.0000; 
stroke:#B2803A; stroke-width:0.0000; stroke-opacity:1; 
stroke-linecap:round; stroke-linejoin:round;">
<path style="fill:#B2803A; fill-opacity:1.0000; 
stroke:#B2803A; stroke-width:0.0000; stroke-opacity:1; 
stroke-linecap:round; stroke-linejoin:round;fill-rule:evenodd;"
d="M 136.9183,52.8750
135.2182,52.8750
135.2182,51.1750
136.9183,51.1750
Z" /> 
<circle cx="138.6082" cy="52.0250" r="0.8500" /> 
<circle cx="141.1482" cy="52.0250" r="0.8500" /> 
<circle cx="143.6882" cy="52.0250" r="0.8500" /> 
<circle cx="146.2283" cy="52.0250" r="0.8500" /> 
<circle cx="148.7682" cy="52.0250" r="0.8500" /> 
<circle cx="151.3082" cy="52.0250" r="0.8500" /> 
<circle cx="153.8482" cy="52.0250" r="0.8500" /> 
</g>
<g >
</g>
<g style="fill:#B2803A; fill-opacity:1.0000; 
stroke:#B2803A; stroke-width:0.0000; stroke-opacity:1; 
stroke-linecap:round; stroke-linejoin:round;">
<path style="fill:#B2803A; fill-opacity:1.0000; 
stroke:#B2803A; stroke-width:0.0000; stroke-opacity:1; 
stroke-linecap:round; stroke-linejoin:round;fill-rule:evenodd;"
d="M 136.9982,12.8750
135.2982,12.8750
135.2982,11.1750
136.9982,11.1750
Z" /> 
<circle cx="138.6882" cy="12.0250" r="0.8500" /> 
<circle cx="141.2283" cy="12.0250" r="0.8500" /> 
<circle cx="143.7682" cy="12.0250" r="0.8500" /> 
<circle cx="146.3082" cy="12.0250" r="0.8500" /> 
<circle cx="148.8483" cy="12.0250" r="0.8500" /> 
<circle cx="151.3882" cy="12.0250" r="0.8500" /> 
<circle cx="153.9282" cy="12.0250" r="0.8500" /> 
</g>
<g >
</g>
<g style="fill:#B2803A; fill-opacity:1.0000; 
stroke:#B2803A; stroke-width:0.0000; stroke-opacity:1; 
stroke-linecap:round; stroke-linejoin:round;">
</g>
<g style="fill:#B2803A; fill-opacity:1.0000; 
stroke:#B2803A; stroke-width:0.9000; stroke-opacity:1; 
stroke-linecap:round; stroke-linejoin:round;">
</g>
<g style="fill:#B2803A; fill-opacity:0.0; 
stroke:#B2803A; stroke-width:0.9000; stroke-opacity:1; 
stroke-linecap:round; stroke-linejoin:round;">
<path d="M8.4682 35.3850
L9.5682 35.3850
" />
<path d="M4.4482 35.3850
L5.2482 35.3850
" />
<path d="M8.4682 44.0250
L9.5682 44.0250
" />
<path d="M4.4482 44.0250
L5.2482 44.0250
" />
</g>
<g >
</g>
<g style="fill:#B2803A; fill-opacity:0.0; 
stroke:#B2803A; stroke-width:0.9000; stroke-opacity:1; 
stroke-linecap:round; stroke-linejoin:round;">
</g>
<g style="fill:#B2803A; fill-opacity:1.0000; 
stroke:#B2803A; stroke-width:0.0000; stroke-opacity:1; 
stroke-linecap:round; stroke-linejoin:round;">
<circle cx="107.8482" cy="8.6250" r="0.8500" /> 
<path style="fill:#B2803A; fill-opacity:1.0000; 
stroke:#B2803A; stroke-width:0.0000; stroke-opacity:1; 
stroke-linecap:round; stroke-linejoin:round;fill-rule:evenodd;"
d="M 110.4982,7.7750
110.4982,9.4750
106.9982,9.4750
106.9982,7.7750
Z" /> 
<circle cx="107.8482" cy="11.1650" r="0.8500" /> 
<path style="fill:#B2803A; fill-opacity:1.0000; 
stroke:#B2803A; stroke-width:0.0000; stroke-opacity:1; 
stroke-linecap:round; stroke-linejoin:round;fill-rule:evenodd;"
d="M 110.4982,10.3150
110.4982,12.0150
106.9982,12.0150
106.9982,10.3150
Z" /> 
<path style="fill:#B2803A; fill-opacity:1.0000; 
stroke:#B2803A; stroke-width:0.0000; stroke-opacity:1; 
stroke-linecap:round; stroke-linejoin:round;fill-rule:evenodd;"
d="M 110.4982,12.8550
110.4982,14.5550
106.9982,14.5550
106.9982,12.8550
Z" /> 
<path style="fill:#B2803A; fill-opacity:1.0000; 
stroke:#B2803A; stroke-width:0.0000; stroke-opacity:1; 
stroke-linecap:round; stroke-linejoin:round;fill-rule:evenodd;"
d="M 108.6983,12.8550
108.6983,14.5550
106.9982,14.5550
106.9982,12.8550
Z" /> 
<circle cx="107.8482" cy="16.2450" r="0.8500" /> 
<path style="fill:#B2803A; fill-opacity:1.0000; 
stroke:#B2803A; stroke-width:0.0000; stroke-opacity:1; 
stroke-linecap:round; stroke-linejoin:round;fill-rule:evenodd;"
d="M 110.4982,15.3950
110.4982,17.0950
106.9982,17.0950
106.9982,15.3950
Z" /> 
<circle cx="107.8482" cy="18.7850" r="0.8500" /> 
<path style="fill:#B2803A; fill-opacity:1.0000; 
stroke:#B2803A; stroke-width:0.0000; stroke-opacity:1; 
stroke-linecap:round; stroke-linejoin:round;fill-rule:evenodd;"
d="M 110.4982,17.9350
110.4982,19.6350
106.9982,19.6350
106.9982,17.9350
Z" /> 
<circle cx="107.8482" cy="21.3250" r="0.8500" /> 
<path style="fill:#B2803A; fill-opacity:1.0000; 
stroke:#B2803A; stroke-width:0.0000; stroke-opacity:1; 
stroke-linecap:round; stroke-linejoin:round;fill-rule:evenodd;"
d="M 110.4982,20.4750
110.4982,22.1750
106.9982,22.1750
106.9982,20.4750
Z" /> 
<path style="fill:#B2803A; fill-opacity:1.0000; 
stroke:#B2803A; stroke-width:0.0000; stroke-opacity:1; 
stroke-linecap:round; stroke-linejoin:round;fill-rule:evenodd;"
d="M 110.4982,23.0150
110.4982,24.7150
106.9982,24.7150
106.9982,23.0150
Z" /> 
<circle cx="107.8482" cy="23.8650" r="0.8500" /> 
<path style="fill:#B2803A; fill-opacity:1.0000; 
stroke:#B2803A; stroke-width:0.0000; stroke-opacity:1; 
stroke-linecap:round; stroke-linejoin:round;fill-rule:evenodd;"
d="M 108.6983,25.5550
108.6983,27.2550
106.9982,27.2550
106.9982,25.5550
Z" /> 
<path style="fill:#B2803A; fill-opacity:1.0000; 
stroke:#B2803A; stroke-width:0.0000; stroke-opacity:1; 
stroke-linecap:round; stroke-linejoin:round;fill-rule:evenodd;"
d="M 110.4982,25.5550
110.4982,27.2550
106.9982,27.2550
106.9982,25.5550
Z" /> 
<path style="fill:#B2803A; fill-opacity:1.0000; 
stroke:#B2803A; stroke-width:0.0000; stroke-opacity:1; 
stroke-linecap:round; stroke-linejoin:round;fill-rule:evenodd;"
d="M 110.4982,28.0950
110.4982,29.7950
106.9982,29.7950
106.9982,28.0950
Z" /> 
<circle cx="107.8482" cy="28.9450" r="0.8500" /> 
<circle cx="107.8482" cy="31.4850" r="0.8500" /> 
<path style="fill:#B2803A; fill-opacity:1.0000; 
stroke:#B2803A; stroke-width:0.0000; stroke-opacity:1; 
stroke-linecap:round; stroke-linejoin:round;fill-rule:evenodd;"
d="M 110.4982,30.6350
110.4982,32.3350
106.9982,32.3350
106.9982,30.6350
Z" /> 
<path style="fill:#B2803A; fill-opacity:1.0000; 
stroke:#B2803A; stroke-width:0.0000; stroke-opacity:1; 
stroke-linecap:round; stroke-linejoin:round;fill-rule:evenodd;"
d="M 110.4982,33.1750
110.4982,34.8750
106.9982,34.8750
106.9982,33.1750
Z" /> 
<circle cx="107.8482" cy="34.0250" r="0.8500" /> 
<circle cx="107.8482" cy="36.5650" r="0.8500" /> 
<path style="fill:#B2803A; fill-opacity:1.0000; 
stroke:#B2803A; stroke-width:0.0000; stroke-opacity:1; 
stroke-linecap:round; stroke-linejoin:round;fill-rule:evenodd;"
d="M 110.4982,35.7150
110.4982,37.4150
106.9982,37.4150
106.9982,35.7150
Z" /> 
<path style="fill:#B2803A; fill-opacity:1.0000; 
stroke:#B2803A; stroke-width:0.0000; stroke-opacity:1; 
stroke-linecap:round; stroke-linejoin:round;fill-rule:evenodd;"
d="M 108.6983,38.2550
108.6983,39.9550
106.9982,39.9550
106.9982,38.2550
Z" /> 
<path style="fill:#B2803A; fill-opacity:1.0000; 
stroke:#B2803A; stroke-width:0.0000; stroke-opacity:1; 
stroke-linecap:round; stroke-linejoin:round;fill-rule:evenodd;"
d="M 110.4982,38.2550
110.4982,39.9550
106.9982,39.9550
106.9982,38.2550
Z" /> 
<path style="fill:#B2803A; fill-opacity:1.0000; 
stroke:#B2803A; stroke-width:0.0000; stroke-opacity:1; 
stroke-linecap:round; stroke-linejoin:round;fill-rule:evenodd;"
d="M 110.4982,40.7950
110.4982,42.4950
106.9982,42.4950
106.9982,40.7950
Z" /> 
<circle cx="107.8482" cy="41.6450" r="0.8500" /> 
<circle cx="107.8482" cy="44.1850" r="0.8500" /> 
<path style="fill:#B2803A; fill-opacity:1.0000; 
stroke:#B2803A; stroke-width:0.0000; stroke-opacity:1; 
stroke-linecap:round; stroke-linejoin:round;fill-rule:evenodd;"
d="M 110.4982,43.3350
110.4982,45.0350
106.9982,45.0350
106.9982,43.3350
Z" /> 
<path style="fill:#B2803A; fill-opacity:1.0000; 
stroke:#B2803A; stroke-width:0.0000; stroke-opacity:1; 
stroke-linecap:round; stroke-linejoin:round;fill-rule:evenodd;"
d="M 110.4982,45.8750
110.4982,47.5750
106.9982,47.5750
106.9982,45.8750
Z" /> 
<circle cx="107.8482" cy="46.7250" r="0.8500" /> 
<path style="fill:#B2803A; fill-opacity:1.0000; 
stroke:#B2803A; stroke-width:0.0000; stroke-opacity:1; 
stroke-linecap:round; stroke-linejoin:round;fill-rule:evenodd;"
d="M 110.4982,48.4150
110.4982,50.1150
106.9982,50.1150
106.9982,48.4150
Z" /> 
<circle cx="107.8482" cy="49.2650" r="0.8500" /> 
<path style="fill:#B2803A; fill-opacity:1.0000; 
stroke:#B2803A; stroke-width:0.0000; stroke-opacity:1; 
stroke-linecap:round; stroke-linejoin:round;fill-rule:evenodd;"
d="M 110.4982,50.9550
110.4982,52.6550
106.9982,52.6550
106.9982,50.9550
Z" /> 
<path style="fill:#B2803A; fill-opacity:1.0000; 
stroke:#B2803A; stroke-width:0.0000; stroke-opacity:1; 
stroke-linecap:round; stroke-linejoin:round;fill-rule:evenodd;"
d="M 108.6983,50.9550
108.6983,52.6550
106.9982,52.6550
106.9982,50.9550
Z" /> 
<circle cx="107.8482" cy="54.3450" r="0.8500" /> 
<path style="fill:#B2803A; fill-opacity:1.0000; 
stroke:#B2803A; stroke-width:0.0000; stroke-opacity:1; 
stroke-linecap:round; stroke-linejoin:round;fill-rule:evenodd;"
d="M 110.4982,53.4950
110.4982,55.1950
106.9982,55.1950
106.9982,53.4950
Z" /> 
<path style="fill:#B2803A; fill-opacity:1.0000; 
stroke:#B2803A; stroke-width:0.0000; stroke-opacity:1; 
stroke-linecap:round; stroke-linejoin:round;fill-rule:evenodd;"
d="M 110.4982,56.0350
110.4982,57.7350
106.9982,57.7350
106.9982,56.0350
Z" /> 
<circle cx="107.8482" cy="56.8850" r="0.8500" /> 
<path style="fill:#B2803A; fill-opacity:1.0000; 
stroke:#B2803A; stroke-width:0.0000; stroke-opacity:1; 
stroke-linecap:round; stroke-linejoin:round;fill-rule:evenodd;"
d="M 90.9183,56.0350
90.9183,57.7350
87.4183,57.7350
87.4183,56.0350
Z" /> 
<circle cx="90.0682" cy="56.8850" r="0.8500" /> 
<path style="fill:#B2803A; fill-opacity:1.0000; 
stroke:#B2803A; stroke-width:0.0000; stroke-opacity:1; 
stroke-linecap:round; stroke-linejoin:round;fill-rule:evenodd;"
d="M 90.9183,53.4950
90.9183,55.1950
87.4183,55.1950
87.4183,53.4950
Z" /> 
<circle cx="90.0682" cy="54.3450" r="0.8500" /> 
<path style="fill:#B2803A; fill-opacity:1.0000; 
stroke:#B2803A; stroke-width:0.0000; stroke-opacity:1; 
stroke-linecap:round; stroke-linejoin:round;fill-rule:evenodd;"
d="M 90.9183,50.9550
90.9183,52.6550
87.4183,52.6550
87.4183,50.9550
Z" /> 
<path style="fill:#B2803A; fill-opacity:1.0000; 
stroke:#B2803A; stroke-width:0.0000; stroke-opacity:1; 
stroke-linecap:round; stroke-linejoin:round;fill-rule:evenodd;"
d="M 90.9183,50.9550
90.9183,52.6550
89.2182,52.6550
89.2182,50.9550
Z" /> 
<circle cx="90.0682" cy="49.2650" r="0.8500" /> 
<path style="fill:#B2803A; fill-opacity:1.0000; 
stroke:#B2803A; stroke-width:0.0000; stroke-opacity:1; 
stroke-linecap:round; stroke-linejoin:round;fill-rule:evenodd;"
d="M 90.9183,48.4150
90.9183,50.1150
87.4183,50.1150
87.4183,48.4150
Z" /> 
<path style="fill:#B2803A; fill-opacity:1.0000; 
stroke:#B2803A; stroke-width:0.0000; stroke-opacity:1; 
stroke-linecap:round; stroke-linejoin:round;fill-rule:evenodd;"
d="M 90.9183,45.8750
90.9183,47.5750
87.4183,47.5750
87.4183,45.8750
Z" /> 
<circle cx="90.0682" cy="46.7250" r="0.8500" /> 
<path style="fill:#B2803A; fill-opacity:1.0000; 
stroke:#B2803A; stroke-width:0.0000; stroke-opacity:1; 
stroke-linecap:round; stroke-linejoin:round;fill-rule:evenodd;"
d="M 90.9183,43.3350
90.9183,45.0350
87.4183,45.0350
87.4183,43.3350
Z" /> 
<circle cx="90.0682" cy="44.1850" r="0.8500" /> 
<circle cx="90.0682" cy="41.6450" r="0.8500" /> 
<path style="fill:#B2803A; fill-opacity:1.0000; 
stroke:#B2803A; stroke-width:0.0000; stroke-opacity:1; 
stroke-linecap:round; stroke-linejoin:round;fill-rule:evenodd;"
d="M 90.9183,40.7950
90.9183,42.4950
87.4183,42.4950
87.4183,40.7950
Z" /> 
<path style="fill:#B2803A; fill-opacity:1.0000; 
stroke:#B2803A; stroke-width:0.0000; stroke-opacity:1; 
stroke-linecap:round; stroke-linejoin:round;fill-rule:evenodd;"
d="M 90.9183,38.2550
90.9183,39.9550
89.2182,39.9550
89.2182,38.2550
Z" /> 
<path style="fill:#B2803A; fill-opacity:1.0000; 
stroke:#B2803A; stroke-width:0.0000; stroke-opacity:1; 
stroke-linecap:round; stroke-linejoin:round;fill-rule:evenodd;"
d="M 90.9183,38.2550
90.9183,39.9550
87.4183,39.9550
87.4183,38.2550
Z" /> 
<circle cx="90.0682" cy="36.5650" r="0.8500" /> 
<path style="fill:#B2803A; fill-opacity:1.0000; 
stroke:#B2803A; stroke-width:0.0000; stroke-opacity:1; 
stroke-linecap:round; stroke-linejoin:round;fill-rule:evenodd;"
d="M 90.9183,35.7150
90.9183,37.4150
87.4183,37.4150
87.4183,35.7150
Z" /> 
<path style="fill:#B2803A; fill-opacity:1.0000; 
stroke:#B2803A; stroke-width:0.0000; stroke-opacity:1; 
stroke-linecap:round; stroke-linejoin:round;fill-rule:evenodd;"
d="M 90.9183,33.1750
90.9183,34.8750
87.4183,34.8750
87.4183,33.1750
Z" /> 
<circle cx="90.0682" cy="34.0250" r="0.8500" /> 
<circle cx="90.0682" cy="31.4850" r="0.8500" /> 
<path style="fill:#B2803A; fill-opacity:1.0000; 
stroke:#B2803A; stroke-width:0.0000; stroke-opacity:1; 
stroke-linecap:round; stroke-linejoin:round;fill-rule:evenodd;"
d="M 90.9183,30.6350
90.9183,32.3350
87.4183,32.3350
87.4183,30.6350
Z" /> 
<circle cx="90.0682" cy="28.9450" r="0.8500" /> 
<path style="fill:#B2803A; fill-opacity:1.0000; 
stroke:#B2803A; stroke-width:0.0000; stroke-opacity:1; 
stroke-linecap:round; stroke-linejoin:round;fill-rule:evenodd;"
d="M 90.9183,28.0950
90.9183,29.7950
87.4183,29.7950
87.4183,28.0950
Z" /> 
<path style="fill:#B2803A; fill-opacity:1.0000; 
stroke:#B2803A; stroke-width:0.0000; stroke-opacity:1; 
stroke-linecap:round; stroke-linejoin:round;fill-rule:evenodd;"
d="M 90.9183,25.5550
90.9183,27.2550
87.4183,27.2550
87.4183,25.5550
Z" /> 
<path style="fill:#B2803A; fill-opacity:1.0000; 
stroke:#B2803A; stroke-width:0.0000; stroke-opacity:1; 
stroke-linecap:round; stroke-linejoin:round;fill-rule:evenodd;"
d="M 90.9183,25.5550
90.9183,27.2550
89.2182,27.2550
89.2182,25.5550
Z" /> 
<path style="fill:#B2803A; fill-opacity:1.0000; 
stroke:#B2803A; stroke-width:0.0000; stroke-opacity:1; 
stroke-linecap:round; stroke-linejoin:round;fill-rule:evenodd;"
d="M 90.9183,23.0150
90.9183,24.7150
87.4183,24.7150
87.4183,23.0150
Z" /> 
<circle cx="90.0682" cy="23.8650" r="0.8500" /> 
<path style="fill:#B2803A; fill-opacity:1.0000; 
stroke:#B2803A; stroke-width:0.0000; stroke-opacity:1; 
stroke-linecap:round; stroke-linejoin:round;fill-rule:evenodd;"
d="M 90.9183,20.4750
90.9183,22.1750
87.4183,22.1750
87.4183,20.4750
Z" /> 
<circle cx="90.0682" cy="21.3250" r="0.8500" /> 
<circle cx="90.0682" cy="18.7850" r="0.8500" /> 
<path style="fill:#B2803A; fill-opacity:1.0000; 
stroke:#B2803A; stroke-width:0.0000; stroke-opacity:1; 
stroke-linecap:round; stroke-linejoin:round;fill-rule:evenodd;"
d="M 90.9183,17.9350
90.9183,19.6350
87.4183,19.6350
87.4183,17.9350
Z" /> 
<path style="fill:#B2803A; fill-opacity:1.0000; 
stroke:#B2803A; stroke-width:0.0000; stroke-opacity:1; 
stroke-linecap:round; stroke-linejoin:round;fill-rule:evenodd;"
d="M 90.9183,15.3950
90.9183,17.0950
87.4183,17.0950
87.4183,15.3950
Z" /> 
<circle cx="90.0682" cy="16.2450" r="0.8500" /> 
<path style="fill:#B2803A; fill-opacity:1.0000; 
stroke:#B2803A; stroke-width:0.0000; stroke-opacity:1; 
stroke-linecap:round; stroke-linejoin:round;fill-rule:evenodd;"
d="M 90.9183,12.8550
90.9183,14.5550
87.4183,14.5550
87.4183,12.8550
Z" /> 
<path style="fill:#B2803A; fill-opacity:1.0000; 
stroke:#B2803A; stroke-width:0.0000; stroke-opacity:1; 
stroke-linecap:round; stroke-linejoin:round;fill-rule:evenodd;"
d="M 90.9183,12.8550
90.9183,14.5550
89.2182,14.5550
89.2182,12.8550
Z" /> 
<path style="fill:#B2803A; fill-opacity:1.0000; 
stroke:#B2803A; stroke-width:0.0000; stroke-opacity:1; 
stroke-linecap:round; stroke-linejoin:round;fill-rule:evenodd;"
d="M 90.9183,10.3150
90.9183,12.0150
87.4183,12.0150
87.4183,10.3150
Z" /> 
<circle cx="90.0682" cy="11.1650" r="0.8500" /> 
<circle cx="90.0682" cy="8.6250" r="0.8500" /> 
<path style="fill:#B2803A; fill-opacity:1.0000; 
stroke:#B2803A; stroke-width:0.0000; stroke-opacity:1; 
stroke-linecap:round; stroke-linejoin:round;fill-rule:evenodd;"
d="M 90.9183,7.7750
90.9183,9.4750
87.4183,9.4750
87.4183,7.7750
Z" /> 
<path style="fill:#B2803A; fill-opacity:1.0000; 
stroke:#B2803A; stroke-width:0.0000; stroke-opacity:1; 
stroke-linecap:round; stroke-linejoin:round;fill-rule:evenodd;"
d="M 102.3482,59.3050
100.6482,59.3050
100.6482,55.8050
102.3482,55.8050
Z" /> 
<circle cx="101.4982" cy="56.6550" r="0.8500" /> 
<path style="fill:#B2803A; fill-opacity:1.0000; 
stroke:#B2803A; stroke-width:0.0000; stroke-opacity:1; 
stroke-linecap:round; stroke-linejoin:round;fill-rule:evenodd;"
d="M 99.8083,55.8050
99.8083,57.5050
98.1082,57.5050
98.1082,55.8050
Z" /> 
<path style="fill:#B2803A; fill-opacity:1.0000; 
stroke:#B2803A; stroke-width:0.0000; stroke-opacity:1; 
stroke-linecap:round; stroke-linejoin:round;fill-rule:evenodd;"
d="M 99.8083,59.3050
98.1082,59.3050
98.1082,55.8050
99.8083,55.8050
Z" /> 
<circle cx="96.4183" cy="56.6550" r="0.8500" /> 
<path style="fill:#B2803A; fill-opacity:1.0000; 
stroke:#B2803A; stroke-width:0.0000; stroke-opacity:1; 
stroke-linecap:round; stroke-linejoin:round;fill-rule:evenodd;"
d="M 97.2682,59.3050
95.5682,59.3050
95.5682,55.8050
97.2682,55.8050
Z" /> 
</g>
<g >
</g>
<g style="fill:#B2803A; fill-opacity:1.0000; 
stroke:#B2803A; stroke-width:0.0000; stroke-opacity:1; 
stroke-linecap:round; stroke-linejoin:round;">
<path style="fill:#B2803A; fill-opacity:1.0000; 
stroke:#B2803A; stroke-width:0.0000; stroke-opacity:1; 
stroke-linecap:round; stroke-linejoin:round;fill-rule:evenodd;"
d="M 130.9483,40.2750
132.7482,40.2750
132.7482,41.2750
130.9483,41.2750
Z" /> 
<path style="fill:#B2803A; fill-opacity:1.0000; 
stroke:#B2803A; stroke-width:0.0000; stroke-opacity:1; 
stroke-linecap:round; stroke-linejoin:round;fill-rule:evenodd;"
d="M 130.9483,37.7750
132.7482,37.7750
132.7482,38.7750
130.9483,38.7750
Z" /> 
</g>
<g >
</g>
<g style="fill:#B2803A; fill-opacity:1.0000; 
stroke:#B2803A; stroke-width:0.0000; stroke-opacity:1; 
stroke-linecap:round; stroke-linejoin:round;">
<path style="fill:#B2803A; fill-opacity:1.0000; 
stroke:#B2803A; stroke-width:0.0000; stroke-opacity:1; 
stroke-linecap:round; stroke-linejoin:round;fill-rule:evenodd;"
d="M 74.5857,40.6550
74.5781,40.6933
74.5565,40.7257
74.5240,40.7474
74.4857,40.7550
73.2107,40.7550
73.1725,40.7474
73.1400,40.7257
73.1184,40.6933
73.1107,40.6550
73.1107,40.4550
73.1184,40.4167
73.1400,40.3843
73.1725,40.3626
73.2107,40.3550
74.4857,40.3550
74.5240,40.3626
74.5565,40.3843
74.5781,40.4167
74.5857,40.4550
Z" /> 
<path style="fill:#B2803A; fill-opacity:1.0000; 
stroke:#B2803A; stroke-width:0.0000; stroke-opacity:1; 
stroke-linecap:round; stroke-linejoin:round;fill-rule:evenodd;"
d="M 74.5857,41.3050
74.5781,41.3433
74.5565,41.3757
74.5240,41.3974
74.4857,41.4050
73.2107,41.4050
73.1725,41.3974
73.1400,41.3757
73.1184,41.3433
73.1107,41.3050
73.1107,41.1050
73.1184,41.0667
73.1400,41.0343
73.1725,41.0126
73.2107,41.0050
74.4857,41.0050
74.5240,41.0126
74.5565,41.0343
74.5781,41.0667
74.5857,41.1050
Z" /> 
<path style="fill:#B2803A; fill-opacity:1.0000; 
stroke:#B2803A; stroke-width:0.0000; stroke-opacity:1; 
stroke-linecap:round; stroke-linejoin:round;fill-rule:evenodd;"
d="M 74.5857,41.9550
74.5781,41.9933
74.5565,42.0257
74.5240,42.0474
74.4857,42.0550
73.2107,42.0550
73.1725,42.0474
73.1400,42.0257
73.1184,41.9933
73.1107,41.9550
73.1107,41.7550
73.1184,41.7167
73.1400,41.6843
73.1725,41.6626
73.2107,41.6550
74.4857,41.6550
74.5240,41.6626
74.5565,41.6843
74.5781,41.7167
74.5857,41.7550
Z" /> 
<path style="fill:#B2803A; fill-opacity:1.0000; 
stroke:#B2803A; stroke-width:0.0000; stroke-opacity:1; 
stroke-linecap:round; stroke-linejoin:round;fill-rule:evenodd;"
d="M 74.5857,42.6050
74.5781,42.6433
74.5565,42.6757
74.5240,42.6974
74.4857,42.7050
73.2107,42.7050
73.1725,42.6974
73.1400,42.6757
73.1184,42.6433
73.1107,42.6050
73.1107,42.4050
73.1184,42.3667
73.1400,42.3343
73.1725,42.3126
73.2107,42.3050
74.4857,42.3050
74.5240,42.3126
74.5565,42.3343
74.5781,42.3667
74.5857,42.4050
Z" /> 
<path style="fill:#B2803A; fill-opacity:1.0000; 
stroke:#B2803A; stroke-width:0.0000; stroke-opacity:1; 
stroke-linecap:round; stroke-linejoin:round;fill-rule:evenodd;"
d="M 74.5857,43.2550
74.5781,43.2933
74.5565,43.3257
74.5240,43.3474
74.4857,43.3550
73.2107,43.3550
73.1725,43.3474
73.1400,43.3257
73.1184,43.2933
73.1107,43.2550
73.1107,43.0550
73.1184,43.0167
73.1400,42.9843
73.1725,42.9626
73.2107,42.9550
74.4857,42.9550
74.5240,42.9626
74.5565,42.9843
74.5781,43.0167
74.5857,43.0550
Z" /> 
<path style="fill:#B2803A; fill-opacity:1.0000; 
stroke:#B2803A; stroke-width:0.0000; stroke-opacity:1; 
stroke-linecap:round; stroke-linejoin:round;fill-rule:evenodd;"
d="M 74.5857,43.9050
74.5781,43.9433
74.5565,43.9757
74.5240,43.9974
74.4857,44.0050
73.2107,44.0050
73.1725,43.9974
73.1400,43.9757
73.1184,43.9433
73.1107,43.9050
73.1107,43.7050
73.1184,43.6667
73.1400,43.6343
73.1725,43.6126
73.2107,43.6050
74.4857,43.6050
74.5240,43.6126
74.5565,43.6343
74.5781,43.6667
74.5857,43.7050
Z" /> 
<path style="fill:#B2803A; fill-opacity:1.0000; 
stroke:#B2803A; stroke-width:0.0000; stroke-opacity:1; 
stroke-linecap:round; stroke-linejoin:round;fill-rule:evenodd;"
d="M 74.5857,44.5550
74.5781,44.5933
74.5565,44.6257
74.5240,44.6474
74.4857,44.6550
73.2107,44.6550
73.1725,44.6474
73.1400,44.6257
73.1184,44.5933
73.1107,44.5550
73.1107,44.3550
73.1184,44.3167
73.1400,44.2843
73.1725,44.2626
73.2107,44.2550
74.4857,44.2550
74.5240,44.2626
74.5565,44.2843
74.5781,44.3167
74.5857,44.3550
Z" /> 
<path style="fill:#B2803A; fill-opacity:1.0000; 
stroke:#B2803A; stroke-width:0.0000; stroke-opacity:1; 
stroke-linecap:round; stroke-linejoin:round;fill-rule:evenodd;"
d="M 74.5857,45.2050
74.5781,45.2433
74.5565,45.2757
74.5240,45.2974
74.4857,45.3050
73.2107,45.3050
73.1725,45.2974
73.1400,45.2757
73.1184,45.2433
73.1107,45.2050
73.1107,45.0050
73.1184,44.9667
73.1400,44.9343
73.1725,44.9126
73.2107,44.9050
74.4857,44.9050
74.5240,44.9126
74.5565,44.9343
74.5781,44.9667
74.5857,45.0050
Z" /> 
<path style="fill:#B2803A; fill-opacity:1.0000; 
stroke:#B2803A; stroke-width:0.0000; stroke-opacity:1; 
stroke-linecap:round; stroke-linejoin:round;fill-rule:evenodd;"
d="M 74.5857,45.8550
74.5781,45.8933
74.5565,45.9257
74.5240,45.9474
74.4857,45.9550
73.2107,45.9550
73.1725,45.9474
73.1400,45.9257
73.1184,45.8933
73.1107,45.8550
73.1107,45.6550
73.1184,45.6167
73.1400,45.5843
73.1725,45.5626
73.2107,45.5550
74.4857,45.5550
74.5240,45.5626
74.5565,45.5843
74.5781,45.6167
74.5857,45.6550
Z" /> 
<path style="fill:#B2803A; fill-opacity:1.0000; 
stroke:#B2803A; stroke-width:0.0000; stroke-opacity:1; 
stroke-linecap:round; stroke-linejoin:round;fill-rule:evenodd;"
d="M 74.5857,46.5050
74.5781,46.5433
74.5565,46.5757
74.5240,46.5974
74.4857,46.6050
73.2107,46.6050
73.1725,46.5974
73.1400,46.5757
73.1184,46.5433
73.1107,46.5050
73.1107,46.3050
73.1184,46.2667
73.1400,46.2343
73.1725,46.2126
73.2107,46.2050
74.4857,46.2050
74.5240,46.2126
74.5565,46.2343
74.5781,46.2667
74.5857,46.3050
Z" /> 
<path style="fill:#B2803A; fill-opacity:1.0000; 
stroke:#B2803A; stroke-width:0.0000; stroke-opacity:1; 
stroke-linecap:round; stroke-linejoin:round;fill-rule:evenodd;"
d="M 68.8607,46.5050
68.8531,46.5433
68.8315,46.5757
68.7990,46.5974
68.7608,46.6050
67.4857,46.6050
67.4475,46.5974
67.4150,46.5757
67.3934,46.5433
67.3858,46.5050
67.3858,46.3050
67.3934,46.2667
67.4150,46.2343
67.4475,46.2126
67.4857,46.2050
68.7608,46.2050
68.7990,46.2126
68.8315,46.2343
68.8531,46.2667
68.8607,46.3050
Z" /> 
<path style="fill:#B2803A; fill-opacity:1.0000; 
stroke:#B2803A; stroke-width:0.0000; stroke-opacity:1; 
stroke-linecap:round; stroke-linejoin:round;fill-rule:evenodd;"
d="M 68.8607,45.8550
68.8531,45.8933
68.8315,45.9257
68.7990,45.9474
68.7608,45.9550
67.4857,45.9550
67.4475,45.9474
67.4150,45.9257
67.3934,45.8933
67.3858,45.8550
67.3858,45.6550
67.3934,45.6167
67.4150,45.5843
67.4475,45.5626
67.4857,45.5550
68.7608,45.5550
68.7990,45.5626
68.8315,45.5843
68.8531,45.6167
68.8607,45.6550
Z" /> 
<path style="fill:#B2803A; fill-opacity:1.0000; 
stroke:#B2803A; stroke-width:0.0000; stroke-opacity:1; 
stroke-linecap:round; stroke-linejoin:round;fill-rule:evenodd;"
d="M 68.8607,45.2050
68.8531,45.2433
68.8315,45.2757
68.7990,45.2974
68.7608,45.3050
67.4857,45.3050
67.4475,45.2974
67.4150,45.2757
67.3934,45.2433
67.3858,45.2050
67.3858,45.0050
67.3934,44.9667
67.4150,44.9343
67.4475,44.9126
67.4857,44.9050
68.7608,44.9050
68.7990,44.9126
68.8315,44.9343
68.8531,44.9667
68.8607,45.0050
Z" /> 
<path style="fill:#B2803A; fill-opacity:1.0000; 
stroke:#B2803A; stroke-width:0.0000; stroke-opacity:1; 
stroke-linecap:round; stroke-linejoin:round;fill-rule:evenodd;"
d="M 68.8607,44.5550
68.8531,44.5933
68.8315,44.6257
68.7990,44.6474
68.7608,44.6550
67.4857,44.6550
67.4475,44.6474
67.4150,44.6257
67.3934,44.5933
67.3858,44.5550
67.3858,44.3550
67.3934,44.3167
67.4150,44.2843
67.4475,44.2626
67.4857,44.2550
68.7608,44.2550
68.7990,44.2626
68.8315,44.2843
68.8531,44.3167
68.8607,44.3550
Z" /> 
<path style="fill:#B2803A; fill-opacity:1.0000; 
stroke:#B2803A; stroke-width:0.0000; stroke-opacity:1; 
stroke-linecap:round; stroke-linejoin:round;fill-rule:evenodd;"
d="M 68.8607,43.9050
68.8531,43.9433
68.8315,43.9757
68.7990,43.9974
68.7608,44.0050
67.4857,44.0050
67.4475,43.9974
67.4150,43.9757
67.3934,43.9433
67.3858,43.9050
67.3858,43.7050
67.3934,43.6667
67.4150,43.6343
67.4475,43.6126
67.4857,43.6050
68.7608,43.6050
68.7990,43.6126
68.8315,43.6343
68.8531,43.6667
68.8607,43.7050
Z" /> 
<path style="fill:#B2803A; fill-opacity:1.0000; 
stroke:#B2803A; stroke-width:0.0000; stroke-opacity:1; 
stroke-linecap:round; stroke-linejoin:round;fill-rule:evenodd;"
d="M 68.8607,43.2550
68.8531,43.2933
68.8315,43.3257
68.7990,43.3474
68.7608,43.3550
67.4857,43.3550
67.4475,43.3474
67.4150,43.3257
67.3934,43.2933
67.3858,43.2550
67.3858,43.0550
67.3934,43.0167
67.4150,42.9843
67.4475,42.9626
67.4857,42.9550
68.7608,42.9550
68.7990,42.9626
68.8315,42.9843
68.8531,43.0167
68.8607,43.0550
Z" /> 
<path style="fill:#B2803A; fill-opacity:1.0000; 
stroke:#B2803A; stroke-width:0.0000; stroke-opacity:1; 
stroke-linecap:round; stroke-linejoin:round;fill-rule:evenodd;"
d="M 68.8607,42.6050
68.8531,42.6433
68.8315,42.6757
68.7990,42.6974
68.7608,42.7050
67.4857,42.7050
67.4475,42.6974
67.4150,42.6757
67.3934,42.6433
67.3858,42.6050
67.3858,42.4050
67.3934,42.3667
67.4150,42.3343
67.4475,42.3126
67.4857,42.3050
68.7608,42.3050
68.7990,42.3126
68.8315,42.3343
68.8531,42.3667
68.8607,42.4050
Z" /> 
<path style="fill:#B2803A; fill-opacity:1.0000; 
stroke:#B2803A; stroke-width:0.0000; stroke-opacity:1; 
stroke-linecap:round; stroke-linejoin:round;fill-rule:evenodd;"
d="M 68.8607,41.9550
68.8531,41.9933
68.8315,42.0257
68.7990,42.0474
68.7608,42.0550
67.4857,42.0550
67.4475,42.0474
67.4150,42.0257
67.3934,41.9933
67.3858,41.9550
67.3858,41.7550
67.3934,41.7167
67.4150,41.6843
67.4475,41.6626
67.4857,41.6550
68.7608,41.6550
68.7990,41.6626
68.8315,41.6843
68.8531,41.7167
68.8607,41.7550
Z" /> 
<path style="fill:#B2803A; fill-opacity:1.0000; 
stroke:#B2803A; stroke-width:0.0000; stroke-opacity:1; 
stroke-linecap:round; stroke-linejoin:round;fill-rule:evenodd;"
d="M 68.8607,41.3050
68.8531,41.3433
68.8315,41.3757
68.7990,41.3974
68.7608,41.4050
67.4857,41.4050
67.4475,41.3974
67.4150,41.3757
67.3934,41.3433
67.3858,41.3050
67.3858,41.1050
67.3934,41.0667
67.4150,41.0343
67.4475,41.0126
67.4857,41.0050
68.7608,41.0050
68.7990,41.0126
68.8315,41.0343
68.8531,41.0667
68.8607,41.1050
Z" /> 
<path style="fill:#B2803A; fill-opacity:1.0000; 
stroke:#B2803A; stroke-width:0.0000; stroke-opacity:1; 
stroke-linecap:round; stroke-linejoin:round;fill-rule:evenodd;"
d="M 68.8607,40.6550
68.8531,40.6933
68.8315,40.7257
68.7990,40.7474
68.7608,40.7550
67.4857,40.7550
67.4475,40.7474
67.4150,40.7257
67.3934,40.6933
67.3858,40.6550
67.3858,40.4550
67.3934,40.4167
67.4150,40.3843
67.4475,40.3626
67.4857,40.3550
68.7608,40.3550
68.7990,40.3626
68.8315,40.3843
68.8531,40.4167
68.8607,40.4550
Z" /> 
</g>
<g >
</g>
<g style="fill:#B2803A; fill-opacity:1.0000; 
stroke:#B2803A; stroke-width:0.0000; stroke-opacity:1; 
stroke-linecap:round; stroke-linejoin:round;">
<path style="fill:#B2803A; fill-opacity:1.0000; 
stroke:#B2803A; stroke-width:0.0000; stroke-opacity:1; 
stroke-linecap:round; stroke-linejoin:round;fill-rule:evenodd;"
d="M 119.9232,25.7400
119.9309,25.7017
119.9525,25.6693
119.9850,25.6476
120.0232,25.6400
121.4483,25.6400
121.4865,25.6476
121.5190,25.6693
121.5406,25.7017
121.5482,25.7400
121.5482,25.9400
121.5406,25.9783
121.5190,26.0107
121.4865,26.0324
121.4483,26.0400
120.0232,26.0400
119.9850,26.0324
119.9525,26.0107
119.9309,25.9783
119.9232,25.9400
Z" /> 
<path style="fill:#B2803A; fill-opacity:1.0000; 
stroke:#B2803A; stroke-width:0.0000; stroke-opacity:1; 
stroke-linecap:round; stroke-linejoin:round;fill-rule:evenodd;"
d="M 119.9232,25.0900
119.9309,25.0517
119.9525,25.0193
119.9850,24.9976
120.0232,24.9900
121.4483,24.9900
121.4865,24.9976
121.5190,25.0193
121.5406,25.0517
121.5482,25.0900
121.5482,25.2900
121.5406,25.3283
121.5190,25.3607
121.4865,25.3824
121.4483,25.3900
120.0232,25.3900
119.9850,25.3824
119.9525,25.3607
119.9309,25.3283
119.9232,25.2900
Z" /> 
<path style="fill:#B2803A; fill-opacity:1.0000; 
stroke:#B2803A; stroke-width:0.0000; stroke-opacity:1; 
stroke-linecap:round; stroke-linejoin:round;fill-rule:evenodd;"
d="M 119.9232,24.4400
119.9309,24.4017
119.9525,24.3693
119.9850,24.3476
120.0232,24.3400
121.4483,24.3400
121.4865,24.3476
121.5190,24.3693
121.5406,24.4017
121.5482,24.4400
121.5482,24.6400
121.5406,24.6783
121.5190,24.7107
121.4865,24.7324
121.4483,24.7400
120.0232,24.7400
119.9850,24.7324
119.9525,24.7107
119.9309,24.6783
119.9232,24.6400
Z" /> 
<path style="fill:#B2803A; fill-opacity:1.0000; 
stroke:#B2803A; stroke-width:0.0000; stroke-opacity:1; 
stroke-linecap:round; stroke-linejoin:round;fill-rule:evenodd;"
d="M 119.9232,23.7900
119.9309,23.7517
119.9525,23.7193
119.9850,23.6976
120.0232,23.6900
121.4483,23.6900
121.4865,23.6976
121.5190,23.7193
121.5406,23.7517
121.5482,23.7900
121.5482,23.9900
121.5406,24.0283
121.5190,24.0607
121.4865,24.0824
121.4483,24.0900
120.0232,24.0900
119.9850,24.0824
119.9525,24.0607
119.9309,24.0283
119.9232,23.9900
Z" /> 
<path style="fill:#B2803A; fill-opacity:1.0000; 
stroke:#B2803A; stroke-width:0.0000; stroke-opacity:1; 
stroke-linecap:round; stroke-linejoin:round;fill-rule:evenodd;"
d="M 124.1482,23.7900
124.1559,23.7517
124.1775,23.7193
124.2100,23.6976
124.2482,23.6900
125.6732,23.6900
125.7115,23.6976
125.7440,23.7193
125.7656,23.7517
125.7732,23.7900
125.7732,23.9900
125.7656,24.0283
125.7440,24.0607
125.7115,24.0824
125.6732,24.0900
124.2482,24.0900
124.2100,24.0824
124.1775,24.0607
124.1559,24.0283
124.1482,23.9900
Z" /> 
<path style="fill:#B2803A; fill-opacity:1.0000; 
stroke:#B2803A; stroke-width:0.0000; stroke-opacity:1; 
stroke-linecap:round; stroke-linejoin:round;fill-rule:evenodd;"
d="M 124.1482,24.4400
124.1559,24.4017
124.1775,24.3693
124.2100,24.3476
124.2482,24.3400
125.6732,24.3400
125.7115,24.3476
125.7440,24.3693
125.7656,24.4017
125.7732,24.4400
125.7732,24.6400
125.7656,24.6783
125.7440,24.7107
125.7115,24.7324
125.6732,24.7400
124.2482,24.7400
124.2100,24.7324
124.1775,24.7107
124.1559,24.6783
124.1482,24.6400
Z" /> 
<path style="fill:#B2803A; fill-opacity:1.0000; 
stroke:#B2803A; stroke-width:0.0000; stroke-opacity:1; 
stroke-linecap:round; stroke-linejoin:round;fill-rule:evenodd;"
d="M 124.1482,25.0900
124.1559,25.0517
124.1775,25.0193
124.2100,24.9976
124.2482,24.9900
125.6732,24.9900
125.7115,24.9976
125.7440,25.0193
125.7656,25.0517
125.7732,25.0900
125.7732,25.2900
125.7656,25.3283
125.7440,25.3607
125.7115,25.3824
125.6732,25.3900
124.2482,25.3900
124.2100,25.3824
124.1775,25.3607
124.1559,25.3283
124.1482,25.2900
Z" /> 
<path style="fill:#B2803A; fill-opacity:1.0000; 
stroke:#B2803A; stroke-width:0.0000; stroke-opacity:1; 
stroke-linecap:round; stroke-linejoin:round;fill-rule:evenodd;"
d="M 124.1482,25.7400
124.1559,25.7017
124.1775,25.6693
124.2100,25.6476
124.2482,25.6400
125.6732,25.6400
125.7115,25.6476
125.7440,25.6693
125.7656,25.7017
125.7732,25.7400
125.7732,25.9400
125.7656,25.9783
125.7440,26.0107
125.7115,26.0324
125.6732,26.0400
124.2482,26.0400
124.2100,26.0324
124.1775,26.0107
124.1559,25.9783
124.1482,25.9400
Z" /> 
</g>
<g >
</g>
<g style="fill:#B2803A; fill-opacity:1.0000; 
stroke:#B2803A; stroke-width:0.0000; stroke-opacity:1; 
stroke-linecap:round; stroke-linejoin:round;">
<path style="fill:#B2803A; fill-opacity:1.0000; 
stroke:#B2803A; stroke-width:0.0000; stroke-opacity:1; 
stroke-linecap:round; stroke-linejoin:round;fill-rule:evenodd;"
d="M 127.2982,39.1100
127.2868,39.1674
127.2543,39.2161
127.2057,39.2486
127.1482,39.2600
125.4982,39.2600
125.4408,39.2486
125.3922,39.2161
125.3597,39.1674
125.3482,39.1100
125.3482,38.8100
125.3597,38.7526
125.3922,38.7039
125.4408,38.6714
125.4982,38.6600
127.1482,38.6600
127.2057,38.6714
127.2543,38.7039
127.2868,38.7526
127.2982,38.8100
Z" /> 
<path style="fill:#B2803A; fill-opacity:1.0000; 
stroke:#B2803A; stroke-width:0.0000; stroke-opacity:1; 
stroke-linecap:round; stroke-linejoin:round;fill-rule:evenodd;"
d="M 127.2982,40.3800
127.2868,40.4374
127.2543,40.4861
127.2057,40.5186
127.1482,40.5300
125.4982,40.5300
125.4408,40.5186
125.3922,40.4861
125.3597,40.4374
125.3482,40.3800
125.3482,40.0800
125.3597,40.0226
125.3922,39.9739
125.4408,39.9414
125.4982,39.9300
127.1482,39.9300
127.2057,39.9414
127.2543,39.9739
127.2868,40.0226
127.2982,40.0800
Z" /> 
<path style="fill:#B2803A; fill-opacity:1.0000; 
stroke:#B2803A; stroke-width:0.0000; stroke-opacity:1; 
stroke-linecap:round; stroke-linejoin:round;fill-rule:evenodd;"
d="M 127.2982,41.6500
127.2868,41.7074
127.2543,41.7561
127.2057,41.7886
127.1482,41.8000
125.4982,41.8000
125.4408,41.7886
125.3922,41.7561
125.3597,41.7074
125.3482,41.6500
125.3482,41.3500
125.3597,41.2926
125.3922,41.2439
125.4408,41.2114
125.4982,41.2000
127.1482,41.2000
127.2057,41.2114
127.2543,41.2439
127.2868,41.2926
127.2982,41.3500
Z" /> 
<path style="fill:#B2803A; fill-opacity:1.0000; 
stroke:#B2803A; stroke-width:0.0000; stroke-opacity:1; 
stroke-linecap:round; stroke-linejoin:round;fill-rule:evenodd;"
d="M 127.2982,42.9200
127.2868,42.9774
127.2543,43.0261
127.2057,43.0586
127.1482,43.0700
125.4982,43.0700
125.4408,43.0586
125.3922,43.0261
125.3597,42.9774
125.3482,42.9200
125.3482,42.6200
125.3597,42.5626
125.3922,42.5139
125.4408,42.4814
125.4982,42.4700
127.1482,42.4700
127.2057,42.4814
127.2543,42.5139
127.2868,42.5626
127.2982,42.6200
Z" /> 
<path style="fill:#B2803A; fill-opacity:1.0000; 
stroke:#B2803A; stroke-width:0.0000; stroke-opacity:1; 
stroke-linecap:round; stroke-linejoin:round;fill-rule:evenodd;"
d="M 122.3482,42.9200
122.3368,42.9774
122.3043,43.0261
122.2557,43.0586
122.1982,43.0700
120.5482,43.0700
120.4908,43.0586
120.4422,43.0261
120.4097,42.9774
120.3982,42.9200
120.3982,42.6200
120.4097,42.5626
120.4422,42.5139
120.4908,42.4814
120.5482,42.4700
122.1982,42.4700
122.2557,42.4814
122.3043,42.5139
122.3368,42.5626
122.3482,42.6200
Z" /> 
<path style="fill:#B2803A; fill-opacity:1.0000; 
stroke:#B2803A; stroke-width:0.0000; stroke-opacity:1; 
stroke-linecap:round; stroke-linejoin:round;fill-rule:evenodd;"
d="M 122.3482,41.6500
122.3368,41.7074
122.3043,41.7561
122.2557,41.7886
122.1982,41.8000
120.5482,41.8000
120.4908,41.7886
120.4422,41.7561
120.4097,41.7074
120.3982,41.6500
120.3982,41.3500
120.4097,41.2926
120.4422,41.2439
120.4908,41.2114
120.5482,41.2000
122.1982,41.2000
122.2557,41.2114
122.3043,41.2439
122.3368,41.2926
122.3482,41.3500
Z" /> 
<path style="fill:#B2803A; fill-opacity:1.0000; 
stroke:#B2803A; stroke-width:0.0000; stroke-opacity:1; 
stroke-linecap:round; stroke-linejoin:round;fill-rule:evenodd;"
d="M 122.3482,40.3800
122.3368,40.4374
122.3043,40.4861
122.2557,40.5186
122.1982,40.5300
120.5482,40.5300
120.4908,40.5186
120.4422,40.4861
120.4097,40.4374
120.3982,40.3800
120.3982,40.0800
120.4097,40.0226
120.4422,39.9739
120.4908,39.9414
120.5482,39.9300
122.1982,39.9300
122.2557,39.9414
122.3043,39.9739
122.3368,40.0226
122.3482,40.0800
Z" /> 
<path style="fill:#B2803A; fill-opacity:1.0000; 
stroke:#B2803A; stroke-width:0.0000; stroke-opacity:1; 
stroke-linecap:round; stroke-linejoin:round;fill-rule:evenodd;"
d="M 122.3482,39.1100
122.3368,39.1674
122.3043,39.2161
122.2557,39.2486
122.1982,39.2600
120.5482,39.2600
120.4908,39.2486
120.4422,39.2161
120.4097,39.1674
120.3982,39.1100
120.3982,38.8100
120.4097,38.7526
120.4422,38.7039
120.4908,38.6714
120.5482,38.6600
122.1982,38.6600
122.2557,38.6714
122.3043,38.7039
122.3368,38.7526
122.3482,38.8100
Z" /> 
</g>
<g >
</g>
<g style="fill:#B2803A; fill-opacity:1.0000; 
stroke:#B2803A; stroke-width:0.0000; stroke-opacity:1; 
stroke-linecap:round; stroke-linejoin:round;">
<path style="fill:#B2803A; fill-opacity:1.0000; 
stroke:#B2803A; stroke-width:0.0000; stroke-opacity:1; 
stroke-linecap:round; stroke-linejoin:round;fill-rule:evenodd;"
d="M 118.0182,23.7650
118.0718,23.7757
118.1172,23.8060
118.1476,23.8514
118.1582,23.9050
118.1582,24.1850
118.1476,24.2386
118.1172,24.2840
118.0718,24.3143
118.0182,24.3250
117.6782,24.3250
117.6247,24.3143
117.5793,24.2840
117.5489,24.2386
117.5382,24.1850
117.5382,23.9050
117.5489,23.8514
117.5793,23.8060
117.6247,23.7757
117.6782,23.7650
Z" /> 
<path style="fill:#B2803A; fill-opacity:1.0000; 
stroke:#B2803A; stroke-width:0.0000; stroke-opacity:1; 
stroke-linecap:round; stroke-linejoin:round;fill-rule:evenodd;"
d="M 118.0182,24.7250
118.0718,24.7357
118.1172,24.7660
118.1476,24.8114
118.1582,24.8650
118.1582,25.1450
118.1476,25.1986
118.1172,25.2440
118.0718,25.2743
118.0182,25.2850
117.6782,25.2850
117.6247,25.2743
117.5793,25.2440
117.5489,25.1986
117.5382,25.1450
117.5382,24.8650
117.5489,24.8114
117.5793,24.7660
117.6247,24.7357
117.6782,24.7250
Z" /> 
</g>
<g >
</g>
<g style="fill:#B2803A; fill-opacity:1.0000; 
stroke:#B2803A; stroke-width:0.0000; stroke-opacity:1; 
stroke-linecap:round; stroke-linejoin:round;">
<path style="fill:#B2803A; fill-opacity:1.0000; 
stroke:#B2803A; stroke-width:0.0000; stroke-opacity:1; 
stroke-linecap:round; stroke-linejoin:round;fill-rule:evenodd;"
d="M 117.6782,28.2850
117.6247,28.2743
117.5793,28.2440
117.5489,28.1986
117.5382,28.1450
117.5382,27.8650
117.5489,27.8114
117.5793,27.7660
117.6247,27.7357
117.6782,27.7250
118.0182,27.7250
118.0718,27.7357
118.1172,27.7660
118.1476,27.8114
118.1582,27.8650
118.1582,28.1450
118.1476,28.1986
118.1172,28.2440
118.0718,28.2743
118.0182,28.2850
Z" /> 
<path style="fill:#B2803A; fill-opacity:1.0000; 
stroke:#B2803A; stroke-width:0.0000; stroke-opacity:1; 
stroke-linecap:round; stroke-linejoin:round;fill-rule:evenodd;"
d="M 117.6782,27.3250
117.6247,27.3143
117.5793,27.2840
117.5489,27.2386
117.5382,27.1850
117.5382,26.9050
117.5489,26.8514
117.5793,26.8060
117.6247,26.7757
117.6782,26.7650
118.0182,26.7650
118.0718,26.7757
118.1172,26.8060
118.1476,26.8514
118.1582,26.9050
118.1582,27.1850
118.1476,27.2386
118.1172,27.2840
118.0718,27.3143
118.0182,27.3250
Z" /> 
</g>
<g >
</g>
<g style="fill:#B2803A; fill-opacity:1.0000; 
stroke:#B2803A; stroke-width:0.0000; stroke-opacity:1; 
stroke-linecap:round; stroke-linejoin:round;">
<path style="fill:#B2803A; fill-opacity:1.0000; 
stroke:#B2803A; stroke-width:0.0000; stroke-opacity:1; 
stroke-linecap:round; stroke-linejoin:round;fill-rule:evenodd;"
d="M 82.1382,47.2100
82.1280,47.2617
82.0987,47.3055
82.0549,47.3347
82.0032,47.3450
81.7332,47.3450
81.6816,47.3347
81.6378,47.3055
81.6085,47.2617
81.5982,47.2100
81.5982,46.8400
81.6085,46.7883
81.6378,46.7445
81.6816,46.7153
81.7332,46.7050
82.0032,46.7050
82.0549,46.7153
82.0987,46.7445
82.1280,46.7883
82.1382,46.8400
Z" /> 
<path style="fill:#B2803A; fill-opacity:1.0000; 
stroke:#B2803A; stroke-width:0.0000; stroke-opacity:1; 
stroke-linecap:round; stroke-linejoin:round;fill-rule:evenodd;"
d="M 81.1183,47.2100
81.1080,47.2617
81.0787,47.3055
81.0349,47.3347
80.9832,47.3450
80.7133,47.3450
80.6616,47.3347
80.6178,47.3055
80.5885,47.2617
80.5782,47.2100
80.5782,46.8400
80.5885,46.7883
80.6178,46.7445
80.6616,46.7153
80.7133,46.7050
80.9832,46.7050
81.0349,46.7153
81.0787,46.7445
81.1080,46.7883
81.1183,46.8400
Z" /> 
</g>
<g >
</g>
<g style="fill:#B2803A; fill-opacity:1.0000; 
stroke:#B2803A; stroke-width:0.0000; stroke-opacity:1; 
stroke-linecap:round; stroke-linejoin:round;">
<path style="fill:#B2803A; fill-opacity:1.0000; 
stroke:#B2803A; stroke-width:0.0000; stroke-opacity:1; 
stroke-linecap:round; stroke-linejoin:round;fill-rule:evenodd;"
d="M 115.6282,43.2950
115.5766,43.2847
115.5328,43.2555
115.5035,43.2117
115.4932,43.1600
115.4932,42.8900
115.5035,42.8383
115.5328,42.7945
115.5766,42.7653
115.6282,42.7550
115.9982,42.7550
116.0499,42.7653
116.0937,42.7945
116.1230,42.8383
116.1332,42.8900
116.1332,43.1600
116.1230,43.2117
116.0937,43.2555
116.0499,43.2847
115.9982,43.2950
Z" /> 
<path style="fill:#B2803A; fill-opacity:1.0000; 
stroke:#B2803A; stroke-width:0.0000; stroke-opacity:1; 
stroke-linecap:round; stroke-linejoin:round;fill-rule:evenodd;"
d="M 115.6282,42.2750
115.5766,42.2647
115.5328,42.2355
115.5035,42.1917
115.4932,42.1400
115.4932,41.8700
115.5035,41.8183
115.5328,41.7745
115.5766,41.7453
115.6282,41.7350
115.9982,41.7350
116.0499,41.7453
116.0937,41.7745
116.1230,41.8183
116.1332,41.8700
116.1332,42.1400
116.1230,42.1917
116.0937,42.2355
116.0499,42.2647
115.9982,42.2750
Z" /> 
</g>
<g >
</g>
<g style="fill:#B2803A; fill-opacity:1.0000; 
stroke:#B2803A; stroke-width:0.0000; stroke-opacity:1; 
stroke-linecap:round; stroke-linejoin:round;">
<path style="fill:#B2803A; fill-opacity:1.0000; 
stroke:#B2803A; stroke-width:0.0000; stroke-opacity:1; 
stroke-linecap:round; stroke-linejoin:round;fill-rule:evenodd;"
d="M 65.6282,46.2100
65.6180,46.2617
65.5887,46.3055
65.5449,46.3347
65.4933,46.3450
65.2232,46.3450
65.1716,46.3347
65.1278,46.3055
65.0985,46.2617
65.0883,46.2100
65.0883,45.8400
65.0985,45.7883
65.1278,45.7445
65.1716,45.7153
65.2232,45.7050
65.4933,45.7050
65.5449,45.7153
65.5887,45.7445
65.6180,45.7883
65.6282,45.8400
Z" /> 
<path style="fill:#B2803A; fill-opacity:1.0000; 
stroke:#B2803A; stroke-width:0.0000; stroke-opacity:1; 
stroke-linecap:round; stroke-linejoin:round;fill-rule:evenodd;"
d="M 64.6082,46.2100
64.5980,46.2617
64.5687,46.3055
64.5249,46.3347
64.4732,46.3450
64.2032,46.3450
64.1516,46.3347
64.1078,46.3055
64.0785,46.2617
64.0682,46.2100
64.0682,45.8400
64.0785,45.7883
64.1078,45.7445
64.1516,45.7153
64.2032,45.7050
64.4732,45.7050
64.5249,45.7153
64.5687,45.7445
64.5980,45.7883
64.6082,45.8400
Z" /> 
</g>
<g >
</g>
<g style="fill:#B2803A; fill-opacity:1.0000; 
stroke:#B2803A; stroke-width:0.0000; stroke-opacity:1; 
stroke-linecap:round; stroke-linejoin:round;">
<path style="fill:#B2803A; fill-opacity:1.0000; 
stroke:#B2803A; stroke-width:0.0000; stroke-opacity:1; 
stroke-linecap:round; stroke-linejoin:round;fill-rule:evenodd;"
d="M 117.6632,41.8050
117.6116,41.7947
117.5678,41.7655
117.5385,41.7217
117.5282,41.6700
117.5282,41.4000
117.5385,41.3483
117.5678,41.3045
117.6116,41.2753
117.6632,41.2650
118.0332,41.2650
118.0849,41.2753
118.1287,41.3045
118.1580,41.3483
118.1683,41.4000
118.1683,41.6700
118.1580,41.7217
118.1287,41.7655
118.0849,41.7947
118.0332,41.8050
Z" /> 
<path style="fill:#B2803A; fill-opacity:1.0000; 
stroke:#B2803A; stroke-width:0.0000; stroke-opacity:1; 
stroke-linecap:round; stroke-linejoin:round;fill-rule:evenodd;"
d="M 117.6632,40.7850
117.6116,40.7747
117.5678,40.7455
117.5385,40.7017
117.5282,40.6500
117.5282,40.3800
117.5385,40.3283
117.5678,40.2845
117.6116,40.2553
117.6632,40.2450
118.0332,40.2450
118.0849,40.2553
118.1287,40.2845
118.1580,40.3283
118.1683,40.3800
118.1683,40.6500
118.1580,40.7017
118.1287,40.7455
118.0849,40.7747
118.0332,40.7850
Z" /> 
</g>
<g >
</g>
<g style="fill:#B2803A; fill-opacity:1.0000; 
stroke:#B2803A; stroke-width:0.0000; stroke-opacity:1; 
stroke-linecap:round; stroke-linejoin:round;">
<path style="fill:#B2803A; fill-opacity:1.0000; 
stroke:#B2803A; stroke-width:0.0000; stroke-opacity:1; 
stroke-linecap:round; stroke-linejoin:round;fill-rule:evenodd;"
d="M 14.7482,21.9750
17.3483,21.9750
17.3483,24.5750
14.7482,24.5750
Z" /> 
<circle cx="10.0482" cy="23.2750" r="1.3000" /> 
</g>
<g style="fill:#B2803A; fill-opacity:1.0000; 
stroke:#B2803A; stroke-width:0.0212; stroke-opacity:1; 
stroke-linecap:round; stroke-linejoin:round;">
</g>
<g style="fill:#B2803A; fill-opacity:1.0000; 
stroke:#B2803A; stroke-width:0.0000; stroke-opacity:1; 
stroke-linecap:round; stroke-linejoin:round;">
<circle cx="13.0482" cy="27.9750" r="1.3000" /> 
</g>
<g style="fill:#B2803A; fill-opacity:1.0000; 
stroke:#B2803A; stroke-width:0.0212; stroke-opacity:1; 
stroke-linecap:round; stroke-linejoin:round;">
</g>
<g >
</g>
<g style="fill:#B2803A; fill-opacity:1.0000; 
stroke:#B2803A; stroke-width:0.0212; stroke-opacity:1; 
stroke-linecap:round; stroke-linejoin:round;">
</g>
<g style="fill:#B2803A; fill-opacity:1.0000; 
stroke:#B2803A; stroke-width:0.0000; stroke-opacity:1; 
stroke-linecap:round; stroke-linejoin:round;">
<path style="fill:#B2803A; fill-opacity:1.0000; 
stroke:#B2803A; stroke-width:0.0000; stroke-opacity:1; 
stroke-linecap:round; stroke-linejoin:round;fill-rule:evenodd;"
d="M 57.6982,39.1750
57.6982,40.8750
55.9982,40.8750
55.9982,39.1750
Z" /> 
<circle cx="56.8483" cy="42.5650" r="0.8500" /> 
</g>
<g >
</g>
<g style="fill:#B2803A; fill-opacity:1.0000; 
stroke:#B2803A; stroke-width:0.0000; stroke-opacity:1; 
stroke-linecap:round; stroke-linejoin:round;">
<path style="fill:#B2803A; fill-opacity:1.0000; 
stroke:#B2803A; stroke-width:0.0000; stroke-opacity:1; 
stroke-linecap:round; stroke-linejoin:round;fill-rule:evenodd;"
d="M 117.6983,49.9350
117.6983,51.6350
115.9982,51.6350
115.9982,49.9350
Z" /> 
<circle cx="116.8482" cy="53.3250" r="0.8500" /> 
<circle cx="116.8482" cy="55.8650" r="0.8500" /> 
</g>
<g >
</g>
<g >
</g>
<g >
</g>
<g >
</g>
<g >
</g>
<g style="fill:#B2803A; fill-opacity:1.0000; 
stroke:#B2803A; stroke-width:0.0000; stroke-opacity:1; 
stroke-linecap:round; stroke-linejoin:round;">
<path style="fill:#B2803A; fill-opacity:1.0000; 
stroke:#B2803A; stroke-width:0.0000; stroke-opacity:1; 
stroke-linecap:round; stroke-linejoin:round;fill-rule:evenodd;"
d="M 81.2982,11.3250
81.2792,11.4207
81.2250,11.5018
81.1439,11.5560
81.0482,11.5750
80.4483,11.5750
80.3526,11.5560
80.2715,11.5018
80.2173,11.4207
80.1983,11.3250
80.1983,10.7250
80.2173,10.6293
80.2715,10.5482
80.3526,10.4940
80.4483,10.4750
81.0482,10.4750
81.1439,10.4940
81.2250,10.5482
81.2792,10.6293
81.2982,10.7250
Z" /> 
<path style="fill:#B2803A; fill-opacity:1.0000; 
stroke:#B2803A; stroke-width:0.0000; stroke-opacity:1; 
stroke-linecap:round; stroke-linejoin:round;fill-rule:evenodd;"
d="M 78.4982,11.3250
78.4792,11.4207
78.4250,11.5018
78.3439,11.5560
78.2482,11.5750
77.6482,11.5750
77.5526,11.5560
77.4715,11.5018
77.4173,11.4207
77.3982,11.3250
77.3982,10.7250
77.4173,10.6293
77.4715,10.5482
77.5526,10.4940
77.6482,10.4750
78.2482,10.4750
78.3439,10.4940
78.4250,10.5482
78.4792,10.6293
78.4982,10.7250
Z" /> 
</g>
<g >
</g>
<g style="fill:#B2803A; fill-opacity:1.0000; 
stroke:#B2803A; stroke-width:0.0000; stroke-opacity:1; 
stroke-linecap:round; stroke-linejoin:round;">
<path style="fill:#B2803A; fill-opacity:1.0000; 
stroke:#B2803A; stroke-width:0.0000; stroke-opacity:1; 
stroke-linecap:round; stroke-linejoin:round;fill-rule:evenodd;"
d="M 79.0733,49.6550
79.0561,49.7411
79.0073,49.8141
78.9344,49.8629
78.8482,49.8800
78.3982,49.8800
78.3121,49.8629
78.2392,49.8141
78.1904,49.7411
78.1732,49.6550
78.1732,49.1550
78.1904,49.0689
78.2392,48.9959
78.3121,48.9471
78.3982,48.9300
78.8482,48.9300
78.9344,48.9471
79.0073,48.9959
79.0561,49.0689
79.0733,49.1550
Z" /> 
<path style="fill:#B2803A; fill-opacity:1.0000; 
stroke:#B2803A; stroke-width:0.0000; stroke-opacity:1; 
stroke-linecap:round; stroke-linejoin:round;fill-rule:evenodd;"
d="M 77.5232,49.6550
77.5061,49.7411
77.4573,49.8141
77.3844,49.8629
77.2982,49.8800
76.8482,49.8800
76.7621,49.8629
76.6892,49.8141
76.6404,49.7411
76.6232,49.6550
76.6232,49.1550
76.6404,49.0689
76.6892,48.9959
76.7621,48.9471
76.8482,48.9300
77.2982,48.9300
77.3844,48.9471
77.4573,48.9959
77.5061,49.0689
77.5232,49.1550
Z" /> 
</g>
<g >
</g>
<g style="fill:#B2803A; fill-opacity:1.0000; 
stroke:#B2803A; stroke-width:0.0000; stroke-opacity:1; 
stroke-linecap:round; stroke-linejoin:round;">
<path style="fill:#B2803A; fill-opacity:1.0000; 
stroke:#B2803A; stroke-width:0.0000; stroke-opacity:1; 
stroke-linecap:round; stroke-linejoin:round;fill-rule:evenodd;"
d="M 62.0732,46.6550
62.0561,46.7411
62.0073,46.8141
61.9344,46.8629
61.8483,46.8800
61.3982,46.8800
61.3121,46.8629
61.2392,46.8141
61.1904,46.7411
61.1732,46.6550
61.1732,46.1550
61.1904,46.0689
61.2392,45.9959
61.3121,45.9471
61.3982,45.9300
61.8483,45.9300
61.9344,45.9471
62.0073,45.9959
62.0561,46.0689
62.0732,46.1550
Z" /> 
<path style="fill:#B2803A; fill-opacity:1.0000; 
stroke:#B2803A; stroke-width:0.0000; stroke-opacity:1; 
stroke-linecap:round; stroke-linejoin:round;fill-rule:evenodd;"
d="M 60.5232,46.6550
60.5061,46.7411
60.4573,46.8141
60.3844,46.8629
60.2982,46.8800
59.8483,46.8800
59.7621,46.8629
59.6892,46.8141
59.6404,46.7411
59.6232,46.6550
59.6232,46.1550
59.6404,46.0689
59.6892,45.9959
59.7621,45.9471
59.8483,45.9300
60.2982,45.9300
60.3844,45.9471
60.4573,45.9959
60.5061,46.0689
60.5232,46.1550
Z" /> 
</g>
<g >
</g>
<g style="fill:#B2803A; fill-opacity:1.0000; 
stroke:#B2803A; stroke-width:0.0000; stroke-opacity:1; 
stroke-linecap:round; stroke-linejoin:round;">
<path style="fill:#B2803A; fill-opacity:1.0000; 
stroke:#B2803A; stroke-width:0.0000; stroke-opacity:1; 
stroke-linecap:round; stroke-linejoin:round;fill-rule:evenodd;"
d="M 64.0182,41.6450
64.0718,41.6557
64.1172,41.6860
64.1476,41.7314
64.1582,41.7850
64.1582,42.0650
64.1476,42.1186
64.1172,42.1640
64.0718,42.1943
64.0182,42.2050
63.6782,42.2050
63.6247,42.1943
63.5793,42.1640
63.5489,42.1186
63.5382,42.0650
63.5382,41.7850
63.5489,41.7314
63.5793,41.6860
63.6247,41.6557
63.6782,41.6450
Z" /> 
<path style="fill:#B2803A; fill-opacity:1.0000; 
stroke:#B2803A; stroke-width:0.0000; stroke-opacity:1; 
stroke-linecap:round; stroke-linejoin:round;fill-rule:evenodd;"
d="M 64.0182,42.6050
64.0718,42.6157
64.1172,42.6460
64.1476,42.6914
64.1582,42.7450
64.1582,43.0250
64.1476,43.0786
64.1172,43.1240
64.0718,43.1543
64.0182,43.1650
63.6782,43.1650
63.6247,43.1543
63.5793,43.1240
63.5489,43.0786
63.5382,43.0250
63.5382,42.7450
63.5489,42.6914
63.5793,42.6460
63.6247,42.6157
63.6782,42.6050
Z" /> 
</g>
<g >
</g>
<g style="fill:#B2803A; fill-opacity:1.0000; 
stroke:#B2803A; stroke-width:0.0000; stroke-opacity:1; 
stroke-linecap:round; stroke-linejoin:round;">
<path style="fill:#B2803A; fill-opacity:1.0000; 
stroke:#B2803A; stroke-width:0.0000; stroke-opacity:1; 
stroke-linecap:round; stroke-linejoin:round;fill-rule:evenodd;"
d="M 77.1983,45.1650
77.1447,45.1543
77.0993,45.1240
77.0689,45.0786
77.0583,45.0250
77.0583,44.7450
77.0689,44.6914
77.0993,44.6460
77.1447,44.6157
77.1983,44.6050
77.5382,44.6050
77.5918,44.6157
77.6372,44.6460
77.6676,44.6914
77.6782,44.7450
77.6782,45.0250
77.6676,45.0786
77.6372,45.1240
77.5918,45.1543
77.5382,45.1650
Z" /> 
<path style="fill:#B2803A; fill-opacity:1.0000; 
stroke:#B2803A; stroke-width:0.0000; stroke-opacity:1; 
stroke-linecap:round; stroke-linejoin:round;fill-rule:evenodd;"
d="M 77.1983,44.2050
77.1447,44.1943
77.0993,44.1640
77.0689,44.1186
77.0583,44.0650
77.0583,43.7850
77.0689,43.7314
77.0993,43.6860
77.1447,43.6557
77.1983,43.6450
77.5382,43.6450
77.5918,43.6557
77.6372,43.6860
77.6676,43.7314
77.6782,43.7850
77.6782,44.0650
77.6676,44.1186
77.6372,44.1640
77.5918,44.1943
77.5382,44.2050
Z" /> 
</g>
<g >
</g>
<g style="fill:#B2803A; fill-opacity:1.0000; 
stroke:#B2803A; stroke-width:0.0000; stroke-opacity:1; 
stroke-linecap:round; stroke-linejoin:round;">
<path style="fill:#B2803A; fill-opacity:1.0000; 
stroke:#B2803A; stroke-width:0.0000; stroke-opacity:1; 
stroke-linecap:round; stroke-linejoin:round;fill-rule:evenodd;"
d="M 77.5382,39.6450
77.5918,39.6557
77.6372,39.6860
77.6676,39.7314
77.6782,39.7850
77.6782,40.0650
77.6676,40.1186
77.6372,40.1640
77.5918,40.1943
77.5382,40.2050
77.1983,40.2050
77.1447,40.1943
77.0993,40.1640
77.0689,40.1186
77.0583,40.0650
77.0583,39.7850
77.0689,39.7314
77.0993,39.6860
77.1447,39.6557
77.1983,39.6450
Z" /> 
<path style="fill:#B2803A; fill-opacity:1.0000; 
stroke:#B2803A; stroke-width:0.0000; stroke-opacity:1; 
stroke-linecap:round; stroke-linejoin:round;fill-rule:evenodd;"
d="M 77.5382,40.6050
77.5918,40.6157
77.6372,40.6460
77.6676,40.6914
77.6782,40.7450
77.6782,41.0250
77.6676,41.0786
77.6372,41.1240
77.5918,41.1543
77.5382,41.1650
77.1983,41.1650
77.1447,41.1543
77.0993,41.1240
77.0689,41.0786
77.0583,41.0250
77.0583,40.7450
77.0689,40.6914
77.0993,40.6460
77.1447,40.6157
77.1983,40.6050
Z" /> 
</g>
<g >
</g>
<g style="fill:#B2803A; fill-opacity:1.0000; 
stroke:#B2803A; stroke-width:0.0000; stroke-opacity:1; 
stroke-linecap:round; stroke-linejoin:round;">
<path style="fill:#B2803A; fill-opacity:1.0000; 
stroke:#B2803A; stroke-width:0.0000; stroke-opacity:1; 
stroke-linecap:round; stroke-linejoin:round;fill-rule:evenodd;"
d="M 74.2482,35.8800
74.2292,35.9757
74.1750,36.0568
74.0939,36.1110
73.9982,36.1300
73.4982,36.1300
73.4026,36.1110
73.3215,36.0568
73.2673,35.9757
73.2482,35.8800
73.2482,34.9300
73.2673,34.8343
73.3215,34.7532
73.4026,34.6990
73.4982,34.6800
73.9982,34.6800
74.0939,34.6990
74.1750,34.7532
74.2292,34.8343
74.2482,34.9300
Z" /> 
<path style="fill:#B2803A; fill-opacity:1.0000; 
stroke:#B2803A; stroke-width:0.0000; stroke-opacity:1; 
stroke-linecap:round; stroke-linejoin:round;fill-rule:evenodd;"
d="M 72.3482,35.8800
72.3292,35.9757
72.2750,36.0568
72.1939,36.1110
72.0982,36.1300
71.5982,36.1300
71.5026,36.1110
71.4215,36.0568
71.3673,35.9757
71.3482,35.8800
71.3482,34.9300
71.3673,34.8343
71.4215,34.7532
71.5026,34.6990
71.5982,34.6800
72.0982,34.6800
72.1939,34.6990
72.2750,34.7532
72.3292,34.8343
72.3482,34.9300
Z" /> 
</g>
<g >
</g>
<g style="fill:#B2803A; fill-opacity:1.0000; 
stroke:#B2803A; stroke-width:0.0000; stroke-opacity:1; 
stroke-linecap:round; stroke-linejoin:round;">
<path style="fill:#B2803A; fill-opacity:1.0000; 
stroke:#B2803A; stroke-width:0.0000; stroke-opacity:1; 
stroke-linecap:round; stroke-linejoin:round;fill-rule:evenodd;"
d="M 71.1282,49.5750
71.1176,49.6286
71.0872,49.6740
71.0418,49.7043
70.9882,49.7150
70.7082,49.7150
70.6547,49.7043
70.6093,49.6740
70.5789,49.6286
70.5682,49.5750
70.5682,49.2350
70.5789,49.1814
70.6093,49.1360
70.6547,49.1057
70.7082,49.0950
70.9882,49.0950
71.0418,49.1057
71.0872,49.1360
71.1176,49.1814
71.1282,49.2350
Z" /> 
<path style="fill:#B2803A; fill-opacity:1.0000; 
stroke:#B2803A; stroke-width:0.0000; stroke-opacity:1; 
stroke-linecap:round; stroke-linejoin:round;fill-rule:evenodd;"
d="M 70.1683,49.5750
70.1576,49.6286
70.1272,49.6740
70.0818,49.7043
70.0282,49.7150
69.7482,49.7150
69.6947,49.7043
69.6493,49.6740
69.6189,49.6286
69.6082,49.5750
69.6082,49.2350
69.6189,49.1814
69.6493,49.1360
69.6947,49.1057
69.7482,49.0950
70.0282,49.0950
70.0818,49.1057
70.1272,49.1360
70.1576,49.1814
70.1683,49.2350
Z" /> 
</g>
<g >
</g>
<g style="fill:#B2803A; fill-opacity:1.0000; 
stroke:#B2803A; stroke-width:0.0000; stroke-opacity:1; 
stroke-linecap:round; stroke-linejoin:round;">
<path style="fill:#B2803A; fill-opacity:1.0000; 
stroke:#B2803A; stroke-width:0.0000; stroke-opacity:1; 
stroke-linecap:round; stroke-linejoin:round;fill-rule:evenodd;"
d="M 74.1282,49.5750
74.1176,49.6286
74.0872,49.6740
74.0418,49.7043
73.9882,49.7150
73.7082,49.7150
73.6547,49.7043
73.6093,49.6740
73.5789,49.6286
73.5682,49.5750
73.5682,49.2350
73.5789,49.1814
73.6093,49.1360
73.6547,49.1057
73.7082,49.0950
73.9882,49.0950
74.0418,49.1057
74.0872,49.1360
74.1176,49.1814
74.1282,49.2350
Z" /> 
<path style="fill:#B2803A; fill-opacity:1.0000; 
stroke:#B2803A; stroke-width:0.0000; stroke-opacity:1; 
stroke-linecap:round; stroke-linejoin:round;fill-rule:evenodd;"
d="M 73.1683,49.5750
73.1576,49.6286
73.1272,49.6740
73.0818,49.7043
73.0282,49.7150
72.7482,49.7150
72.6947,49.7043
72.6493,49.6740
72.6189,49.6286
72.6082,49.5750
72.6082,49.2350
72.6189,49.1814
72.6493,49.1360
72.6947,49.1057
72.7482,49.0950
73.0282,49.0950
73.0818,49.1057
73.1272,49.1360
73.1576,49.1814
73.1683,49.2350
Z" /> 
</g>
<g >
</g>
<g style="fill:#B2803A; fill-opacity:1.0000; 
stroke:#B2803A; stroke-width:0.0000; stroke-opacity:1; 
stroke-linecap:round; stroke-linejoin:round;">
<path style="fill:#B2803A; fill-opacity:1.0000; 
stroke:#B2803A; stroke-width:0.0000; stroke-opacity:1; 
stroke-linecap:round; stroke-linejoin:round;fill-rule:evenodd;"
d="M 67.0883,49.5750
67.0776,49.6286
67.0472,49.6740
67.0018,49.7043
66.9483,49.7150
66.6683,49.7150
66.6147,49.7043
66.5693,49.6740
66.5389,49.6286
66.5282,49.5750
66.5282,49.2350
66.5389,49.1814
66.5693,49.1360
66.6147,49.1057
66.6683,49.0950
66.9483,49.0950
67.0018,49.1057
67.0472,49.1360
67.0776,49.1814
67.0883,49.2350
Z" /> 
<path style="fill:#B2803A; fill-opacity:1.0000; 
stroke:#B2803A; stroke-width:0.0000; stroke-opacity:1; 
stroke-linecap:round; stroke-linejoin:round;fill-rule:evenodd;"
d="M 66.1282,49.5750
66.1176,49.6286
66.0872,49.6740
66.0418,49.7043
65.9882,49.7150
65.7082,49.7150
65.6547,49.7043
65.6093,49.6740
65.5789,49.6286
65.5682,49.5750
65.5682,49.2350
65.5789,49.1814
65.6093,49.1360
65.6547,49.1057
65.7082,49.0950
65.9882,49.0950
66.0418,49.1057
66.0872,49.1360
66.1176,49.1814
66.1282,49.2350
Z" /> 
</g>
<g >
</g>
<g style="fill:#B2803A; fill-opacity:1.0000; 
stroke:#B2803A; stroke-width:0.0000; stroke-opacity:1; 
stroke-linecap:round; stroke-linejoin:round;">
<path style="fill:#B2803A; fill-opacity:1.0000; 
stroke:#B2803A; stroke-width:0.0000; stroke-opacity:1; 
stroke-linecap:round; stroke-linejoin:round;fill-rule:evenodd;"
d="M 121.6082,36.1950
121.5976,36.2486
121.5672,36.2940
121.5218,36.3243
121.4682,36.3350
121.1882,36.3350
121.1347,36.3243
121.0893,36.2940
121.0589,36.2486
121.0482,36.1950
121.0482,35.8550
121.0589,35.8014
121.0893,35.7560
121.1347,35.7257
121.1882,35.7150
121.4682,35.7150
121.5218,35.7257
121.5672,35.7560
121.5976,35.8014
121.6082,35.8550
Z" /> 
<path style="fill:#B2803A; fill-opacity:1.0000; 
stroke:#B2803A; stroke-width:0.0000; stroke-opacity:1; 
stroke-linecap:round; stroke-linejoin:round;fill-rule:evenodd;"
d="M 120.6482,36.1950
120.6376,36.2486
120.6072,36.2940
120.5618,36.3243
120.5082,36.3350
120.2282,36.3350
120.1747,36.3243
120.1293,36.2940
120.0989,36.2486
120.0882,36.1950
120.0882,35.8550
120.0989,35.8014
120.1293,35.7560
120.1747,35.7257
120.2282,35.7150
120.5082,35.7150
120.5618,35.7257
120.6072,35.7560
120.6376,35.8014
120.6482,35.8550
Z" /> 
</g>
<g >
</g>
<g style="fill:#B2803A; fill-opacity:1.0000; 
stroke:#B2803A; stroke-width:0.0000; stroke-opacity:1; 
stroke-linecap:round; stroke-linejoin:round;">
<path style="fill:#B2803A; fill-opacity:1.0000; 
stroke:#B2803A; stroke-width:0.0000; stroke-opacity:1; 
stroke-linecap:round; stroke-linejoin:round;fill-rule:evenodd;"
d="M 129.0182,35.7650
129.0718,35.7757
129.1172,35.8060
129.1476,35.8514
129.1582,35.9050
129.1582,36.1850
129.1476,36.2386
129.1172,36.2840
129.0718,36.3143
129.0182,36.3250
128.6782,36.3250
128.6247,36.3143
128.5793,36.2840
128.5489,36.2386
128.5383,36.1850
128.5383,35.9050
128.5489,35.8514
128.5793,35.8060
128.6247,35.7757
128.6782,35.7650
Z" /> 
<path style="fill:#B2803A; fill-opacity:1.0000; 
stroke:#B2803A; stroke-width:0.0000; stroke-opacity:1; 
stroke-linecap:round; stroke-linejoin:round;fill-rule:evenodd;"
d="M 129.0182,36.7250
129.0718,36.7357
129.1172,36.7660
129.1476,36.8114
129.1582,36.8650
129.1582,37.1450
129.1476,37.1986
129.1172,37.2440
129.0718,37.2743
129.0182,37.2850
128.6782,37.2850
128.6247,37.2743
128.5793,37.2440
128.5489,37.1986
128.5383,37.1450
128.5383,36.8650
128.5489,36.8114
128.5793,36.7660
128.6247,36.7357
128.6782,36.7250
Z" /> 
</g>
<g >
</g>
<g >
</g>
<g >
</g>
</g>
<g style="fill:#FFFFFF; fill-opacity:1.0000; 
stroke:#FFFFFF; stroke-width:0.0000; stroke-opacity:1; 
stroke-linecap:round; stroke-linejoin:round;">
</g>
<g style="fill:#2F2D31; fill-opacity:1.0000; 
stroke:#2F2D31; stroke-width:0.0000; stroke-opacity:1; 
stroke-linecap:round; stroke-linejoin:round;">
</g>
<g style="fill:#2F2D31; fill-opacity:1.0000; 
stroke:#2F2D31; stroke-width:0.0500; stroke-opacity:1; 
stroke-linecap:round; stroke-linejoin:round;">
</g>
<g style="fill:#2F2D31; fill-opacity:0.0; 
stroke:#2F2D31; stroke-width:0.0500; stroke-opacity:1; 
stroke-linecap:round; stroke-linejoin:round;">
<path d="M3.6282 15.0250
L3.6282 49.0250
" />
<path d="M164.6282 0.0250
L18.6282 0.0250
" />
<path d="M179.6282 15.0250
L179.6282 49.0250
" />
<path d="M164.6282 64.0250
L18.6282 64.0250
" />
<path d="M3.6282 49.0250 A15.0000 15.0000 0.0 0 0 18.6282 64.0250" />
<path d="M164.6282 64.0250 A15.0000 15.0000 0.0 0 0 179.6282 49.0250" />
<path d="M179.6282 15.0250 A15.0000 15.0000 0.0 0 0 164.6282 0.0250" />
<path d="M18.6282 0.0250 A15.0000 15.0000 0.0 0 0 3.6282 15.0250" />
<g >
</g>
<g >
</g>
<g >
</g>
<g >
</g>
<g >
</g>
<g >
</g>
<g >
</g>
<g >
</g>
<g >
</g>
<g >
</g>
<g >
</g>
<g >
</g>
<g >
</g>
<g >
</g>
<g >
</g>
<g >
</g>
<g >
</g>
<g >
</g>
<g >
</g>
<g >
</g>
<g >
</g>
<g >
</g>
<g >
</g>
<g >
</g>
<g >
</g>
<g >
</g>
<g >
</g>
<g >
</g>
<g >
</g>
<g >
</g>
<g >
</g>
<g >
</g>
<g >
</g>
<g >
</g>
<g >
</g>
<g >
</g>
<g >
</g>
<g >
</g>
</g> 
</svg>
