solid OpenSCAD_Model
  facet normal 1 0 0
    outer loop
      vertex 35.2 31.5 2
      vertex 35.2 25.5 -2
      vertex 35.2 31.5 -4.5
    endloop
  endfacet
  facet normal 1 0 0
    outer loop
      vertex 35.2 31.5 2
      vertex 35.2 -25.5 -2
      vertex 35.2 25.5 -2
    endloop
  endfacet
  facet normal 1 -0 0
    outer loop
      vertex 35.2 -31.5 2
      vertex 35.2 -25.5 -2
      vertex 35.2 31.5 2
    endloop
  endfacet
  facet normal 1 0 0
    outer loop
      vertex 35.2 -31.5 -4.5
      vertex 35.2 -25.5 -2
      vertex 35.2 -31.5 2
    endloop
  endfacet
  facet normal 1 0 0
    outer loop
      vertex 35.2 -25.5 -2
      vertex 35.2 -31.5 -4.5
      vertex 35.2 -25.5 -4.5
    endloop
  endfacet
  facet normal 1 0 0
    outer loop
      vertex 35.2 31.5 -4.5
      vertex 35.2 25.5 -2
      vertex 35.2 25.5 -4.5
    endloop
  endfacet
  facet normal -0 0 1
    outer loop
      vertex -31.0244 26.882 2
      vertex -29.2 19.6 2
      vertex -30.582 27.3244 2
    endloop
  endfacet
  facet normal 0 0 1
    outer loop
      vertex -29.2 -19.6 2
      vertex -30.2979 -27.882 2
      vertex -30.2 -28.5 2
    endloop
  endfacet
  facet normal -0 0 1
    outer loop
      vertex -31.582 26.5979 2
      vertex -29.2 19.6 2
      vertex -31.0244 26.882 2
    endloop
  endfacet
  facet normal 0 0 1
    outer loop
      vertex -29.2 -19.6 2
      vertex -30.582 -27.3244 2
      vertex -30.2979 -27.882 2
    endloop
  endfacet
  facet normal -0 0 1
    outer loop
      vertex -32.2 26.5 2
      vertex -29.2 19.6 2
      vertex -31.582 26.5979 2
    endloop
  endfacet
  facet normal 0 0 1
    outer loop
      vertex -29.2 -19.6 2
      vertex -31.0244 -26.882 2
      vertex -30.582 -27.3244 2
    endloop
  endfacet
  facet normal 0 0 1
    outer loop
      vertex -32.818 26.5979 2
      vertex -29.2 19.6 2
      vertex -32.2 26.5 2
    endloop
  endfacet
  facet normal 0 0 1
    outer loop
      vertex -29.2 -19.6 2
      vertex -31.582 -26.5979 2
      vertex -31.0244 -26.882 2
    endloop
  endfacet
  facet normal 0 0 1
    outer loop
      vertex -33.3756 26.882 2
      vertex -29.2 19.6 2
      vertex -32.818 26.5979 2
    endloop
  endfacet
  facet normal 0 0 1
    outer loop
      vertex -29.2 -19.6 2
      vertex -32.2 -26.5 2
      vertex -31.582 -26.5979 2
    endloop
  endfacet
  facet normal 0 0 1
    outer loop
      vertex -33.818 27.3244 2
      vertex -29.2 19.6 2
      vertex -33.3756 26.882 2
    endloop
  endfacet
  facet normal 0 0 1
    outer loop
      vertex -29.2 -19.6 2
      vertex -32.818 -26.5979 2
      vertex -32.2 -26.5 2
    endloop
  endfacet
  facet normal 0 0 1
    outer loop
      vertex -29.2 19.6 2
      vertex -33.818 27.3244 2
      vertex -29.2 -19.6 2
    endloop
  endfacet
  facet normal 0 0 1
    outer loop
      vertex -29.2 -19.6 2
      vertex -33.3756 -26.882 2
      vertex -32.818 -26.5979 2
    endloop
  endfacet
  facet normal 0 0 1
    outer loop
      vertex -33.818 -27.3244 2
      vertex -29.2 -19.6 2
      vertex -33.818 27.3244 2
    endloop
  endfacet
  facet normal 0 0 1
    outer loop
      vertex -29.2 -19.6 2
      vertex -33.818 -27.3244 2
      vertex -33.3756 -26.882 2
    endloop
  endfacet
  facet normal 0 0 1
    outer loop
      vertex -34.1021 27.882 2
      vertex -33.818 -27.3244 2
      vertex -33.818 27.3244 2
    endloop
  endfacet
  facet normal 0 0 1
    outer loop
      vertex -34.1021 27.882 2
      vertex -34.1021 -27.882 2
      vertex -33.818 -27.3244 2
    endloop
  endfacet
  facet normal 0 0 1
    outer loop
      vertex -35.2 31.5 2
      vertex -34.1021 27.882 2
      vertex -34.2 28.5 2
    endloop
  endfacet
  facet normal 0 0 1
    outer loop
      vertex -34.1021 27.882 2
      vertex -35.2 31.5 2
      vertex -34.1021 -27.882 2
    endloop
  endfacet
  facet normal 0 0 1
    outer loop
      vertex -30.2979 27.882 2
      vertex -29.2 31.5 2
      vertex -30.2 28.5 2
    endloop
  endfacet
  facet normal 0 0 1
    outer loop
      vertex -29.2 31.5 2
      vertex -30.2979 27.882 2
      vertex -29.2 19.6 2
    endloop
  endfacet
  facet normal -0 0 1
    outer loop
      vertex -30.582 27.3244 2
      vertex -29.2 19.6 2
      vertex -30.2979 27.882 2
    endloop
  endfacet
  facet normal 0 0 1
    outer loop
      vertex -29.2 31.5 2
      vertex -30.2979 29.118 2
      vertex -30.2 28.5 2
    endloop
  endfacet
  facet normal 0 0 1
    outer loop
      vertex -29.2 31.5 2
      vertex -30.582 29.6756 2
      vertex -30.2979 29.118 2
    endloop
  endfacet
  facet normal 0 0 1
    outer loop
      vertex -29.2 31.5 2
      vertex -31.0244 30.118 2
      vertex -30.582 29.6756 2
    endloop
  endfacet
  facet normal 0 0 1
    outer loop
      vertex -29.2 31.5 2
      vertex -31.582 30.4021 2
      vertex -31.0244 30.118 2
    endloop
  endfacet
  facet normal 0 0 1
    outer loop
      vertex -29.2 31.5 2
      vertex -32.2 30.5 2
      vertex -31.582 30.4021 2
    endloop
  endfacet
  facet normal -0 0 1
    outer loop
      vertex -35.2 31.5 2
      vertex -32.2 30.5 2
      vertex -29.2 31.5 2
    endloop
  endfacet
  facet normal 0 0 1
    outer loop
      vertex -35.2 -31.5 2
      vertex -34.1021 -27.882 2
      vertex -35.2 31.5 2
    endloop
  endfacet
  facet normal 0 0 1
    outer loop
      vertex -34.1021 29.118 2
      vertex -35.2 31.5 2
      vertex -34.2 28.5 2
    endloop
  endfacet
  facet normal 0 0 1
    outer loop
      vertex -33.818 29.6756 2
      vertex -35.2 31.5 2
      vertex -34.1021 29.118 2
    endloop
  endfacet
  facet normal 0 0 1
    outer loop
      vertex -33.3756 30.118 2
      vertex -35.2 31.5 2
      vertex -33.818 29.6756 2
    endloop
  endfacet
  facet normal 0 0 1
    outer loop
      vertex -32.818 30.4021 2
      vertex -35.2 31.5 2
      vertex -33.3756 30.118 2
    endloop
  endfacet
  facet normal 0 0 1
    outer loop
      vertex -32.2 30.5 2
      vertex -35.2 31.5 2
      vertex -32.818 30.4021 2
    endloop
  endfacet
  facet normal 0 0 1
    outer loop
      vertex -29.2 -19.6 2
      vertex -30.2 -28.5 2
      vertex -29.2 -31.5 2
    endloop
  endfacet
  facet normal -0 0 1
    outer loop
      vertex -30.2979 -29.118 2
      vertex -29.2 -31.5 2
      vertex -30.2 -28.5 2
    endloop
  endfacet
  facet normal -0 0 1
    outer loop
      vertex -30.582 -29.6756 2
      vertex -29.2 -31.5 2
      vertex -30.2979 -29.118 2
    endloop
  endfacet
  facet normal -0 0 1
    outer loop
      vertex -31.0244 -30.118 2
      vertex -29.2 -31.5 2
      vertex -30.582 -29.6756 2
    endloop
  endfacet
  facet normal -0 0 1
    outer loop
      vertex -31.582 -30.4021 2
      vertex -29.2 -31.5 2
      vertex -31.0244 -30.118 2
    endloop
  endfacet
  facet normal -0 0 1
    outer loop
      vertex -32.2 -30.5 2
      vertex -29.2 -31.5 2
      vertex -31.582 -30.4021 2
    endloop
  endfacet
  facet normal 0 0 1
    outer loop
      vertex -35.2 -31.5 2
      vertex -32.2 -30.5 2
      vertex -32.818 -30.4021 2
    endloop
  endfacet
  facet normal 0 0 1
    outer loop
      vertex -32.2 -30.5 2
      vertex -35.2 -31.5 2
      vertex -29.2 -31.5 2
    endloop
  endfacet
  facet normal 0 0 1
    outer loop
      vertex -33.3756 -30.118 2
      vertex -35.2 -31.5 2
      vertex -32.818 -30.4021 2
    endloop
  endfacet
  facet normal 0 0 1
    outer loop
      vertex -33.818 -29.6756 2
      vertex -35.2 -31.5 2
      vertex -33.3756 -30.118 2
    endloop
  endfacet
  facet normal 0 0 1
    outer loop
      vertex -34.1021 -29.118 2
      vertex -35.2 -31.5 2
      vertex -33.818 -29.6756 2
    endloop
  endfacet
  facet normal 0 0 1
    outer loop
      vertex -34.2 -28.5 2
      vertex -35.2 -31.5 2
      vertex -34.1021 -29.118 2
    endloop
  endfacet
  facet normal 0 0 1
    outer loop
      vertex -34.1021 -27.882 2
      vertex -35.2 -31.5 2
      vertex -34.2 -28.5 2
    endloop
  endfacet
  facet normal 0 0 1
    outer loop
      vertex 29.2 19.6 2
      vertex 24.3 11.9 2
      vertex 29.2 -19.6 2
    endloop
  endfacet
  facet normal 0 0 1
    outer loop
      vertex 29.2 19.6 2
      vertex -24.3 11.9 2
      vertex 24.3 11.9 2
    endloop
  endfacet
  facet normal 0 0 1
    outer loop
      vertex -24.3 11.9 2
      vertex -29.2 19.6 2
      vertex -24.3 -11.9 2
    endloop
  endfacet
  facet normal -0 0 1
    outer loop
      vertex -29.2 19.6 2
      vertex -24.3 11.9 2
      vertex 29.2 19.6 2
    endloop
  endfacet
  facet normal -0 0 1
    outer loop
      vertex 24.3 -11.9 2
      vertex 29.2 -19.6 2
      vertex 24.3 11.9 2
    endloop
  endfacet
  facet normal -0 0 1
    outer loop
      vertex -24.3 -11.9 2
      vertex 29.2 -19.6 2
      vertex 24.3 -11.9 2
    endloop
  endfacet
  facet normal 0 0 1
    outer loop
      vertex -24.3 -11.9 2
      vertex -29.2 -19.6 2
      vertex 29.2 -19.6 2
    endloop
  endfacet
  facet normal 0 0 1
    outer loop
      vertex -29.2 -19.6 2
      vertex -24.3 -11.9 2
      vertex -29.2 19.6 2
    endloop
  endfacet
  facet normal -0 0 1
    outer loop
      vertex 34.1021 -27.882 2
      vertex 35.2 -31.5 2
      vertex 34.1021 27.882 2
    endloop
  endfacet
  facet normal 0 0 1
    outer loop
      vertex 35.2 -31.5 2
      vertex 34.1021 -27.882 2
      vertex 34.2 -28.5 2
    endloop
  endfacet
  facet normal -0 0 1
    outer loop
      vertex 33.818 27.3244 2
      vertex 34.1021 -27.882 2
      vertex 34.1021 27.882 2
    endloop
  endfacet
  facet normal 0 0 1
    outer loop
      vertex 33.818 27.3244 2
      vertex 33.818 -27.3244 2
      vertex 34.1021 -27.882 2
    endloop
  endfacet
  facet normal 0 0 1
    outer loop
      vertex 29.2 19.6 2
      vertex 33.818 27.3244 2
      vertex 33.3756 26.882 2
    endloop
  endfacet
  facet normal 0 0 1
    outer loop
      vertex 33.818 27.3244 2
      vertex 29.2 19.6 2
      vertex 33.818 -27.3244 2
    endloop
  endfacet
  facet normal 0 0 1
    outer loop
      vertex 29.2 19.6 2
      vertex 33.3756 26.882 2
      vertex 32.818 26.5979 2
    endloop
  endfacet
  facet normal -0 0 1
    outer loop
      vertex 29.2 -19.6 2
      vertex 33.818 -27.3244 2
      vertex 29.2 19.6 2
    endloop
  endfacet
  facet normal 0 0 1
    outer loop
      vertex 29.2 19.6 2
      vertex 32.818 26.5979 2
      vertex 32.2 26.5 2
    endloop
  endfacet
  facet normal 0 0 1
    outer loop
      vertex 33.818 -27.3244 2
      vertex 29.2 -19.6 2
      vertex 33.3756 -26.882 2
    endloop
  endfacet
  facet normal 0 0 1
    outer loop
      vertex 29.2 19.6 2
      vertex 32.2 26.5 2
      vertex 31.582 26.5979 2
    endloop
  endfacet
  facet normal 0 0 1
    outer loop
      vertex 33.3756 -26.882 2
      vertex 29.2 -19.6 2
      vertex 32.818 -26.5979 2
    endloop
  endfacet
  facet normal 0 0 1
    outer loop
      vertex 29.2 19.6 2
      vertex 31.582 26.5979 2
      vertex 31.0244 26.882 2
    endloop
  endfacet
  facet normal 0 0 1
    outer loop
      vertex 32.818 -26.5979 2
      vertex 29.2 -19.6 2
      vertex 32.2 -26.5 2
    endloop
  endfacet
  facet normal 0 0 1
    outer loop
      vertex 29.2 19.6 2
      vertex 31.0244 26.882 2
      vertex 30.582 27.3244 2
    endloop
  endfacet
  facet normal 0 0 1
    outer loop
      vertex 32.2 -26.5 2
      vertex 29.2 -19.6 2
      vertex 31.582 -26.5979 2
    endloop
  endfacet
  facet normal 0 0 1
    outer loop
      vertex 29.2 19.6 2
      vertex 30.582 27.3244 2
      vertex 30.2979 27.882 2
    endloop
  endfacet
  facet normal 0 0 1
    outer loop
      vertex 31.582 -26.5979 2
      vertex 29.2 -19.6 2
      vertex 31.0244 -26.882 2
    endloop
  endfacet
  facet normal 0 0 1
    outer loop
      vertex 29.2 31.5 2
      vertex 30.2979 27.882 2
      vertex 30.2 28.5 2
    endloop
  endfacet
  facet normal 0 0 1
    outer loop
      vertex 31.0244 -26.882 2
      vertex 29.2 -19.6 2
      vertex 30.582 -27.3244 2
    endloop
  endfacet
  facet normal 0 0 1
    outer loop
      vertex 34.1021 27.882 2
      vertex 35.2 31.5 2
      vertex 34.2 28.5 2
    endloop
  endfacet
  facet normal 0 0 1
    outer loop
      vertex 35.2 31.5 2
      vertex 34.1021 29.118 2
      vertex 34.2 28.5 2
    endloop
  endfacet
  facet normal 0 0 1
    outer loop
      vertex 35.2 31.5 2
      vertex 33.818 29.6756 2
      vertex 34.1021 29.118 2
    endloop
  endfacet
  facet normal 0 0 1
    outer loop
      vertex 35.2 31.5 2
      vertex 33.3756 30.118 2
      vertex 33.818 29.6756 2
    endloop
  endfacet
  facet normal 0 0 1
    outer loop
      vertex 35.2 31.5 2
      vertex 32.818 30.4021 2
      vertex 33.3756 30.118 2
    endloop
  endfacet
  facet normal 0 0 1
    outer loop
      vertex 35.2 31.5 2
      vertex 32.2 30.5 2
      vertex 32.818 30.4021 2
    endloop
  endfacet
  facet normal -0 0 1
    outer loop
      vertex 29.2 31.5 2
      vertex 32.2 30.5 2
      vertex 35.2 31.5 2
    endloop
  endfacet
  facet normal 0 0 1
    outer loop
      vertex 30.2979 27.882 2
      vertex 29.2 31.5 2
      vertex 29.2 19.6 2
    endloop
  endfacet
  facet normal 0 0 1
    outer loop
      vertex 30.2979 29.118 2
      vertex 29.2 31.5 2
      vertex 30.2 28.5 2
    endloop
  endfacet
  facet normal 0 0 1
    outer loop
      vertex 30.582 29.6756 2
      vertex 29.2 31.5 2
      vertex 30.2979 29.118 2
    endloop
  endfacet
  facet normal 0 0 1
    outer loop
      vertex 31.0244 30.118 2
      vertex 29.2 31.5 2
      vertex 30.582 29.6756 2
    endloop
  endfacet
  facet normal 0 0 1
    outer loop
      vertex 31.582 30.4021 2
      vertex 29.2 31.5 2
      vertex 31.0244 30.118 2
    endloop
  endfacet
  facet normal 0 0 1
    outer loop
      vertex 32.2 30.5 2
      vertex 29.2 31.5 2
      vertex 31.582 30.4021 2
    endloop
  endfacet
  facet normal 0 0 1
    outer loop
      vertex 35.2 31.5 2
      vertex 34.1021 27.882 2
      vertex 35.2 -31.5 2
    endloop
  endfacet
  facet normal -0 0 1
    outer loop
      vertex 34.1021 -29.118 2
      vertex 35.2 -31.5 2
      vertex 34.2 -28.5 2
    endloop
  endfacet
  facet normal -0 0 1
    outer loop
      vertex 33.818 -29.6756 2
      vertex 35.2 -31.5 2
      vertex 34.1021 -29.118 2
    endloop
  endfacet
  facet normal -0 0 1
    outer loop
      vertex 33.3756 -30.118 2
      vertex 35.2 -31.5 2
      vertex 33.818 -29.6756 2
    endloop
  endfacet
  facet normal -0 0 1
    outer loop
      vertex 32.818 -30.4021 2
      vertex 35.2 -31.5 2
      vertex 33.3756 -30.118 2
    endloop
  endfacet
  facet normal -0 0 1
    outer loop
      vertex 32.2 -30.5 2
      vertex 35.2 -31.5 2
      vertex 32.818 -30.4021 2
    endloop
  endfacet
  facet normal 0 0 1
    outer loop
      vertex 29.2 -31.5 2
      vertex 32.2 -30.5 2
      vertex 31.582 -30.4021 2
    endloop
  endfacet
  facet normal 0 0 1
    outer loop
      vertex 30.582 -27.3244 2
      vertex 29.2 -19.6 2
      vertex 30.2979 -27.882 2
    endloop
  endfacet
  facet normal 0 0 1
    outer loop
      vertex 29.2 -31.5 2
      vertex 30.2979 -27.882 2
      vertex 29.2 -19.6 2
    endloop
  endfacet
  facet normal 0 0 1
    outer loop
      vertex 32.2 -30.5 2
      vertex 29.2 -31.5 2
      vertex 35.2 -31.5 2
    endloop
  endfacet
  facet normal 0 0 1
    outer loop
      vertex 31.0244 -30.118 2
      vertex 29.2 -31.5 2
      vertex 31.582 -30.4021 2
    endloop
  endfacet
  facet normal 0 0 1
    outer loop
      vertex 30.582 -29.6756 2
      vertex 29.2 -31.5 2
      vertex 31.0244 -30.118 2
    endloop
  endfacet
  facet normal 0 0 1
    outer loop
      vertex 30.2979 -29.118 2
      vertex 29.2 -31.5 2
      vertex 30.582 -29.6756 2
    endloop
  endfacet
  facet normal 0 0 1
    outer loop
      vertex 30.2 -28.5 2
      vertex 29.2 -31.5 2
      vertex 30.2979 -29.118 2
    endloop
  endfacet
  facet normal 0 0 1
    outer loop
      vertex 30.2979 -27.882 2
      vertex 29.2 -31.5 2
      vertex 30.2 -28.5 2
    endloop
  endfacet
  facet normal 0 0 -1
    outer loop
      vertex -35.2 -25.5 -2
      vertex -29.2 -19.6 -2
      vertex -29.2 -25.5 -2
    endloop
  endfacet
  facet normal 0 0 -1
    outer loop
      vertex -29.2 -19.6 -2
      vertex -29.6 -14.6 -2
      vertex -29.2 19.6 -2
    endloop
  endfacet
  facet normal 0 0 -1
    outer loop
      vertex -29.6 14.6 -2
      vertex -29.2 19.6 -2
      vertex -29.6 -14.6 -2
    endloop
  endfacet
  facet normal 0 0 -1
    outer loop
      vertex -35.2 -14.6 -2
      vertex -29.2 -19.6 -2
      vertex -35.2 -25.5 -2
    endloop
  endfacet
  facet normal 0 0 -1
    outer loop
      vertex -29.2 -19.6 -2
      vertex -35.2 -14.6 -2
      vertex -29.6 -14.6 -2
    endloop
  endfacet
  facet normal 0 0 -1
    outer loop
      vertex -29.2 -19.6 -2
      vertex 29.2 19.6 -2
      vertex 29.2 -19.6 -2
    endloop
  endfacet
  facet normal -0 0 -1
    outer loop
      vertex 29.2 19.6 -2
      vertex -29.2 -19.6 -2
      vertex -29.2 19.6 -2
    endloop
  endfacet
  facet normal 0 0 -1
    outer loop
      vertex 29.2 -19.6 -2
      vertex 35.2 -25.5 -2
      vertex 29.2 -25.5 -2
    endloop
  endfacet
  facet normal 0 0 -1
    outer loop
      vertex 35.2 -25.5 -2
      vertex 29.2 -19.6 -2
      vertex 35.2 25.5 -2
    endloop
  endfacet
  facet normal 0 0 -1
    outer loop
      vertex 29.2 19.6 -2
      vertex 35.2 25.5 -2
      vertex 29.2 -19.6 -2
    endloop
  endfacet
  facet normal -0 0 -1
    outer loop
      vertex 35.2 25.5 -2
      vertex 29.2 19.6 -2
      vertex 29.2 25.5 -2
    endloop
  endfacet
  facet normal 0 0 -1
    outer loop
      vertex -35.2 14.6 -2
      vertex -29.2 19.6 -2
      vertex -29.6 14.6 -2
    endloop
  endfacet
  facet normal -0 0 -1
    outer loop
      vertex -29.2 19.6 -2
      vertex -35.2 14.6 -2
      vertex -35.2 25.5 -2
    endloop
  endfacet
  facet normal 0 0 -1
    outer loop
      vertex -29.2 19.6 -2
      vertex -35.2 25.5 -2
      vertex -29.2 25.5 -2
    endloop
  endfacet
  facet normal -1 0 0
    outer loop
      vertex -35.2 -25.5 -4.5
      vertex -35.2 -31.5 -4.5
      vertex -35.2 -25.5 -2
    endloop
  endfacet
  facet normal -1 0 0
    outer loop
      vertex -35.2 -14.6 -2
      vertex -35.2 -25.5 -2
      vertex -35.2 -14.6 0.75
    endloop
  endfacet
  facet normal -1 0 0
    outer loop
      vertex -35.2 25.5 -2
      vertex -35.2 31.5 -4.5
      vertex -35.2 25.5 -4.5
    endloop
  endfacet
  facet normal -1 0 0
    outer loop
      vertex -35.2 31.5 -4.5
      vertex -35.2 25.5 -2
      vertex -35.2 31.5 2
    endloop
  endfacet
  facet normal -1 0 0
    outer loop
      vertex -35.2 14.6 0.75
      vertex -35.2 25.5 -2
      vertex -35.2 14.6 -2
    endloop
  endfacet
  facet normal -1 0 0
    outer loop
      vertex -35.2 25.5 -2
      vertex -35.2 14.6 0.75
      vertex -35.2 31.5 2
    endloop
  endfacet
  facet normal -1 0 0
    outer loop
      vertex -35.2 -14.6 0.75
      vertex -35.2 31.5 2
      vertex -35.2 14.6 0.75
    endloop
  endfacet
  facet normal -1 0 0
    outer loop
      vertex -35.2 -14.6 0.75
      vertex -35.2 -31.5 2
      vertex -35.2 31.5 2
    endloop
  endfacet
  facet normal -1 0 0
    outer loop
      vertex -35.2 -25.5 -2
      vertex -35.2 -31.5 2
      vertex -35.2 -14.6 0.75
    endloop
  endfacet
  facet normal -1 0 0
    outer loop
      vertex -35.2 -31.5 2
      vertex -35.2 -25.5 -2
      vertex -35.2 -31.5 -4.5
    endloop
  endfacet
  facet normal 0 1 -0
    outer loop
      vertex 29.2 19.6 -2
      vertex -29.2 19.6 2
      vertex 29.2 19.6 2
    endloop
  endfacet
  facet normal 0 1 0
    outer loop
      vertex -29.2 19.6 2
      vertex 29.2 19.6 -2
      vertex -29.2 19.6 -2
    endloop
  endfacet
  facet normal 0 -1 0
    outer loop
      vertex -29.2 -19.6 -2
      vertex 29.2 -19.6 2
      vertex -29.2 -19.6 2
    endloop
  endfacet
  facet normal 0 -1 -0
    outer loop
      vertex 29.2 -19.6 2
      vertex -29.2 -19.6 -2
      vertex 29.2 -19.6 -2
    endloop
  endfacet
  facet normal 1 0 0
    outer loop
      vertex -29.2 31.5 2
      vertex -29.2 25.5 -2
      vertex -29.2 31.5 -4.5
    endloop
  endfacet
  facet normal 1 -0 0
    outer loop
      vertex -29.2 19.6 2
      vertex -29.2 25.5 -2
      vertex -29.2 31.5 2
    endloop
  endfacet
  facet normal 1 0 0
    outer loop
      vertex -29.2 25.5 -2
      vertex -29.2 19.6 2
      vertex -29.2 19.6 -2
    endloop
  endfacet
  facet normal 1 0 0
    outer loop
      vertex -29.2 31.5 -4.5
      vertex -29.2 25.5 -2
      vertex -29.2 25.5 -4.5
    endloop
  endfacet
  facet normal 1 0 0
    outer loop
      vertex -29.2 -19.6 2
      vertex -29.2 -25.5 -2
      vertex -29.2 -19.6 -2
    endloop
  endfacet
  facet normal 1 -0 0
    outer loop
      vertex -29.2 -31.5 2
      vertex -29.2 -25.5 -2
      vertex -29.2 -19.6 2
    endloop
  endfacet
  facet normal 1 0 0
    outer loop
      vertex -29.2 -31.5 -4.5
      vertex -29.2 -25.5 -2
      vertex -29.2 -31.5 2
    endloop
  endfacet
  facet normal 1 0 0
    outer loop
      vertex -29.2 -25.5 -2
      vertex -29.2 -31.5 -4.5
      vertex -29.2 -25.5 -4.5
    endloop
  endfacet
  facet normal 0 1 -0
    outer loop
      vertex -29.2 31.5 -4.5
      vertex -35.2 31.5 2
      vertex -29.2 31.5 2
    endloop
  endfacet
  facet normal 0 1 0
    outer loop
      vertex -35.2 31.5 2
      vertex -29.2 31.5 -4.5
      vertex -35.2 31.5 -4.5
    endloop
  endfacet
  facet normal 0 -1 0
    outer loop
      vertex -35.2 -31.5 -4.5
      vertex -29.2 -31.5 2
      vertex -35.2 -31.5 2
    endloop
  endfacet
  facet normal 0 -1 -0
    outer loop
      vertex -29.2 -31.5 2
      vertex -35.2 -31.5 -4.5
      vertex -29.2 -31.5 -4.5
    endloop
  endfacet
  facet normal -1 0 0
    outer loop
      vertex 29.2 25.5 -2
      vertex 29.2 31.5 -4.5
      vertex 29.2 25.5 -4.5
    endloop
  endfacet
  facet normal -1 0 0
    outer loop
      vertex 29.2 31.5 -4.5
      vertex 29.2 25.5 -2
      vertex 29.2 31.5 2
    endloop
  endfacet
  facet normal -1 0 0
    outer loop
      vertex 29.2 19.6 2
      vertex 29.2 25.5 -2
      vertex 29.2 19.6 -2
    endloop
  endfacet
  facet normal -1 0 0
    outer loop
      vertex 29.2 25.5 -2
      vertex 29.2 19.6 2
      vertex 29.2 31.5 2
    endloop
  endfacet
  facet normal -1 0 0
    outer loop
      vertex 29.2 -25.5 -4.5
      vertex 29.2 -31.5 -4.5
      vertex 29.2 -25.5 -2
    endloop
  endfacet
  facet normal -1 0 0
    outer loop
      vertex 29.2 -25.5 -2
      vertex 29.2 -19.6 2
      vertex 29.2 -19.6 -2
    endloop
  endfacet
  facet normal -1 0 0
    outer loop
      vertex 29.2 -31.5 2
      vertex 29.2 -25.5 -2
      vertex 29.2 -31.5 -4.5
    endloop
  endfacet
  facet normal -1 0 0
    outer loop
      vertex 29.2 -25.5 -2
      vertex 29.2 -31.5 2
      vertex 29.2 -19.6 2
    endloop
  endfacet
  facet normal 0 1 -0
    outer loop
      vertex 35.2 31.5 -4.5
      vertex 29.2 31.5 2
      vertex 35.2 31.5 2
    endloop
  endfacet
  facet normal 0 1 0
    outer loop
      vertex 29.2 31.5 2
      vertex 35.2 31.5 -4.5
      vertex 29.2 31.5 -4.5
    endloop
  endfacet
  facet normal 0 -1 0
    outer loop
      vertex 29.2 -31.5 -4.5
      vertex 35.2 -31.5 2
      vertex 29.2 -31.5 2
    endloop
  endfacet
  facet normal 0 -1 -0
    outer loop
      vertex 35.2 -31.5 2
      vertex 29.2 -31.5 -4.5
      vertex 35.2 -31.5 -4.5
    endloop
  endfacet
  facet normal 0 0 -1
    outer loop
      vertex 35.2 -31.5 -4.5
      vertex 34.2 -28.5 -4.5
      vertex 35.2 -25.5 -4.5
    endloop
  endfacet
  facet normal 0 0 -1
    outer loop
      vertex 35.2 -31.5 -4.5
      vertex 34.1021 -29.118 -4.5
      vertex 34.2 -28.5 -4.5
    endloop
  endfacet
  facet normal 0 0 -1
    outer loop
      vertex 35.2 -31.5 -4.5
      vertex 33.818 -29.6756 -4.5
      vertex 34.1021 -29.118 -4.5
    endloop
  endfacet
  facet normal 0 0 -1
    outer loop
      vertex 35.2 -31.5 -4.5
      vertex 33.3756 -30.118 -4.5
      vertex 33.818 -29.6756 -4.5
    endloop
  endfacet
  facet normal 0 0 -1
    outer loop
      vertex 35.2 -31.5 -4.5
      vertex 32.818 -30.4021 -4.5
      vertex 33.3756 -30.118 -4.5
    endloop
  endfacet
  facet normal 0 0 -1
    outer loop
      vertex 35.2 -31.5 -4.5
      vertex 32.2 -30.5 -4.5
      vertex 32.818 -30.4021 -4.5
    endloop
  endfacet
  facet normal 0 0 -1
    outer loop
      vertex 29.2 -31.5 -4.5
      vertex 32.2 -30.5 -4.5
      vertex 35.2 -31.5 -4.5
    endloop
  endfacet
  facet normal -0 0 -1
    outer loop
      vertex 30.2979 -29.118 -4.5
      vertex 29.2 -31.5 -4.5
      vertex 30.2 -28.5 -4.5
    endloop
  endfacet
  facet normal -0 0 -1
    outer loop
      vertex 30.582 -29.6756 -4.5
      vertex 29.2 -31.5 -4.5
      vertex 30.2979 -29.118 -4.5
    endloop
  endfacet
  facet normal -0 0 -1
    outer loop
      vertex 31.0244 -30.118 -4.5
      vertex 29.2 -31.5 -4.5
      vertex 30.582 -29.6756 -4.5
    endloop
  endfacet
  facet normal -0 0 -1
    outer loop
      vertex 31.582 -30.4021 -4.5
      vertex 29.2 -31.5 -4.5
      vertex 31.0244 -30.118 -4.5
    endloop
  endfacet
  facet normal -0 0 -1
    outer loop
      vertex 32.2 -30.5 -4.5
      vertex 29.2 -31.5 -4.5
      vertex 31.582 -30.4021 -4.5
    endloop
  endfacet
  facet normal 0 0 -1
    outer loop
      vertex 34.1021 -27.882 -4.5
      vertex 35.2 -25.5 -4.5
      vertex 34.2 -28.5 -4.5
    endloop
  endfacet
  facet normal 0 0 -1
    outer loop
      vertex 33.818 -27.3244 -4.5
      vertex 35.2 -25.5 -4.5
      vertex 34.1021 -27.882 -4.5
    endloop
  endfacet
  facet normal 0 0 -1
    outer loop
      vertex 33.3756 -26.882 -4.5
      vertex 35.2 -25.5 -4.5
      vertex 33.818 -27.3244 -4.5
    endloop
  endfacet
  facet normal 0 0 -1
    outer loop
      vertex 32.818 -26.5979 -4.5
      vertex 35.2 -25.5 -4.5
      vertex 33.3756 -26.882 -4.5
    endloop
  endfacet
  facet normal 0 0 -1
    outer loop
      vertex 32.2 -26.5 -4.5
      vertex 35.2 -25.5 -4.5
      vertex 32.818 -26.5979 -4.5
    endloop
  endfacet
  facet normal 0 0 -1
    outer loop
      vertex 29.2 -25.5 -4.5
      vertex 32.2 -26.5 -4.5
      vertex 31.582 -26.5979 -4.5
    endloop
  endfacet
  facet normal 0 0 -1
    outer loop
      vertex 29.2 -25.5 -4.5
      vertex 30.2 -28.5 -4.5
      vertex 29.2 -31.5 -4.5
    endloop
  endfacet
  facet normal 0 0 -1
    outer loop
      vertex 32.2 -26.5 -4.5
      vertex 29.2 -25.5 -4.5
      vertex 35.2 -25.5 -4.5
    endloop
  endfacet
  facet normal 0 0 -1
    outer loop
      vertex 31.0244 -26.882 -4.5
      vertex 29.2 -25.5 -4.5
      vertex 31.582 -26.5979 -4.5
    endloop
  endfacet
  facet normal 0 0 -1
    outer loop
      vertex 30.582 -27.3244 -4.5
      vertex 29.2 -25.5 -4.5
      vertex 31.0244 -26.882 -4.5
    endloop
  endfacet
  facet normal 0 0 -1
    outer loop
      vertex 30.2979 -27.882 -4.5
      vertex 29.2 -25.5 -4.5
      vertex 30.582 -27.3244 -4.5
    endloop
  endfacet
  facet normal 0 0 -1
    outer loop
      vertex 30.2 -28.5 -4.5
      vertex 29.2 -25.5 -4.5
      vertex 30.2979 -27.882 -4.5
    endloop
  endfacet
  facet normal 0 1 -0
    outer loop
      vertex 35.2 -25.5 -4.5
      vertex 29.2 -25.5 -2
      vertex 35.2 -25.5 -2
    endloop
  endfacet
  facet normal 0 1 0
    outer loop
      vertex 29.2 -25.5 -2
      vertex 35.2 -25.5 -4.5
      vertex 29.2 -25.5 -4.5
    endloop
  endfacet
  facet normal 0 0 -1
    outer loop
      vertex 35.2 25.5 -4.5
      vertex 34.2 28.5 -4.5
      vertex 35.2 31.5 -4.5
    endloop
  endfacet
  facet normal 0 0 -1
    outer loop
      vertex 35.2 25.5 -4.5
      vertex 34.1021 27.882 -4.5
      vertex 34.2 28.5 -4.5
    endloop
  endfacet
  facet normal 0 0 -1
    outer loop
      vertex 35.2 25.5 -4.5
      vertex 33.818 27.3244 -4.5
      vertex 34.1021 27.882 -4.5
    endloop
  endfacet
  facet normal 0 0 -1
    outer loop
      vertex 35.2 25.5 -4.5
      vertex 33.3756 26.882 -4.5
      vertex 33.818 27.3244 -4.5
    endloop
  endfacet
  facet normal 0 0 -1
    outer loop
      vertex 35.2 25.5 -4.5
      vertex 32.818 26.5979 -4.5
      vertex 33.3756 26.882 -4.5
    endloop
  endfacet
  facet normal 0 0 -1
    outer loop
      vertex 35.2 25.5 -4.5
      vertex 32.2 26.5 -4.5
      vertex 32.818 26.5979 -4.5
    endloop
  endfacet
  facet normal 0 0 -1
    outer loop
      vertex 29.2 25.5 -4.5
      vertex 32.2 26.5 -4.5
      vertex 35.2 25.5 -4.5
    endloop
  endfacet
  facet normal -0 0 -1
    outer loop
      vertex 30.2979 27.882 -4.5
      vertex 29.2 25.5 -4.5
      vertex 30.2 28.5 -4.5
    endloop
  endfacet
  facet normal -0 0 -1
    outer loop
      vertex 30.582 27.3244 -4.5
      vertex 29.2 25.5 -4.5
      vertex 30.2979 27.882 -4.5
    endloop
  endfacet
  facet normal -0 0 -1
    outer loop
      vertex 31.0244 26.882 -4.5
      vertex 29.2 25.5 -4.5
      vertex 30.582 27.3244 -4.5
    endloop
  endfacet
  facet normal -0 0 -1
    outer loop
      vertex 31.582 26.5979 -4.5
      vertex 29.2 25.5 -4.5
      vertex 31.0244 26.882 -4.5
    endloop
  endfacet
  facet normal -0 0 -1
    outer loop
      vertex 32.2 26.5 -4.5
      vertex 29.2 25.5 -4.5
      vertex 31.582 26.5979 -4.5
    endloop
  endfacet
  facet normal 0 0 -1
    outer loop
      vertex 34.1021 29.118 -4.5
      vertex 35.2 31.5 -4.5
      vertex 34.2 28.5 -4.5
    endloop
  endfacet
  facet normal 0 0 -1
    outer loop
      vertex 33.818 29.6756 -4.5
      vertex 35.2 31.5 -4.5
      vertex 34.1021 29.118 -4.5
    endloop
  endfacet
  facet normal 0 0 -1
    outer loop
      vertex 33.3756 30.118 -4.5
      vertex 35.2 31.5 -4.5
      vertex 33.818 29.6756 -4.5
    endloop
  endfacet
  facet normal 0 0 -1
    outer loop
      vertex 32.818 30.4021 -4.5
      vertex 35.2 31.5 -4.5
      vertex 33.3756 30.118 -4.5
    endloop
  endfacet
  facet normal 0 0 -1
    outer loop
      vertex 32.2 30.5 -4.5
      vertex 35.2 31.5 -4.5
      vertex 32.818 30.4021 -4.5
    endloop
  endfacet
  facet normal 0 0 -1
    outer loop
      vertex 29.2 31.5 -4.5
      vertex 32.2 30.5 -4.5
      vertex 31.582 30.4021 -4.5
    endloop
  endfacet
  facet normal 0 0 -1
    outer loop
      vertex 29.2 31.5 -4.5
      vertex 30.2 28.5 -4.5
      vertex 29.2 25.5 -4.5
    endloop
  endfacet
  facet normal 0 0 -1
    outer loop
      vertex 32.2 30.5 -4.5
      vertex 29.2 31.5 -4.5
      vertex 35.2 31.5 -4.5
    endloop
  endfacet
  facet normal 0 0 -1
    outer loop
      vertex 31.0244 30.118 -4.5
      vertex 29.2 31.5 -4.5
      vertex 31.582 30.4021 -4.5
    endloop
  endfacet
  facet normal 0 0 -1
    outer loop
      vertex 30.582 29.6756 -4.5
      vertex 29.2 31.5 -4.5
      vertex 31.0244 30.118 -4.5
    endloop
  endfacet
  facet normal 0 0 -1
    outer loop
      vertex 30.2979 29.118 -4.5
      vertex 29.2 31.5 -4.5
      vertex 30.582 29.6756 -4.5
    endloop
  endfacet
  facet normal 0 0 -1
    outer loop
      vertex 30.2 28.5 -4.5
      vertex 29.2 31.5 -4.5
      vertex 30.2979 29.118 -4.5
    endloop
  endfacet
  facet normal 0 -1 0
    outer loop
      vertex 29.2 25.5 -4.5
      vertex 35.2 25.5 -2
      vertex 29.2 25.5 -2
    endloop
  endfacet
  facet normal 0 -1 -0
    outer loop
      vertex 35.2 25.5 -2
      vertex 29.2 25.5 -4.5
      vertex 35.2 25.5 -4.5
    endloop
  endfacet
  facet normal 0 0 -1
    outer loop
      vertex -29.2 -31.5 -4.5
      vertex -30.2 -28.5 -4.5
      vertex -29.2 -25.5 -4.5
    endloop
  endfacet
  facet normal 0 0 -1
    outer loop
      vertex -29.2 -31.5 -4.5
      vertex -30.2979 -29.118 -4.5
      vertex -30.2 -28.5 -4.5
    endloop
  endfacet
  facet normal 0 0 -1
    outer loop
      vertex -29.2 -31.5 -4.5
      vertex -30.582 -29.6756 -4.5
      vertex -30.2979 -29.118 -4.5
    endloop
  endfacet
  facet normal 0 0 -1
    outer loop
      vertex -29.2 -31.5 -4.5
      vertex -31.0244 -30.118 -4.5
      vertex -30.582 -29.6756 -4.5
    endloop
  endfacet
  facet normal 0 0 -1
    outer loop
      vertex -29.2 -31.5 -4.5
      vertex -31.582 -30.4021 -4.5
      vertex -31.0244 -30.118 -4.5
    endloop
  endfacet
  facet normal 0 0 -1
    outer loop
      vertex -29.2 -31.5 -4.5
      vertex -32.2 -30.5 -4.5
      vertex -31.582 -30.4021 -4.5
    endloop
  endfacet
  facet normal 0 0 -1
    outer loop
      vertex -35.2 -31.5 -4.5
      vertex -32.2 -30.5 -4.5
      vertex -29.2 -31.5 -4.5
    endloop
  endfacet
  facet normal -0 0 -1
    outer loop
      vertex -34.1021 -29.118 -4.5
      vertex -35.2 -31.5 -4.5
      vertex -34.2 -28.5 -4.5
    endloop
  endfacet
  facet normal -0 0 -1
    outer loop
      vertex -33.818 -29.6756 -4.5
      vertex -35.2 -31.5 -4.5
      vertex -34.1021 -29.118 -4.5
    endloop
  endfacet
  facet normal -0 0 -1
    outer loop
      vertex -33.3756 -30.118 -4.5
      vertex -35.2 -31.5 -4.5
      vertex -33.818 -29.6756 -4.5
    endloop
  endfacet
  facet normal -0 0 -1
    outer loop
      vertex -32.818 -30.4021 -4.5
      vertex -35.2 -31.5 -4.5
      vertex -33.3756 -30.118 -4.5
    endloop
  endfacet
  facet normal -0 0 -1
    outer loop
      vertex -32.2 -30.5 -4.5
      vertex -35.2 -31.5 -4.5
      vertex -32.818 -30.4021 -4.5
    endloop
  endfacet
  facet normal 0 0 -1
    outer loop
      vertex -30.2979 -27.882 -4.5
      vertex -29.2 -25.5 -4.5
      vertex -30.2 -28.5 -4.5
    endloop
  endfacet
  facet normal 0 0 -1
    outer loop
      vertex -30.582 -27.3244 -4.5
      vertex -29.2 -25.5 -4.5
      vertex -30.2979 -27.882 -4.5
    endloop
  endfacet
  facet normal 0 0 -1
    outer loop
      vertex -31.0244 -26.882 -4.5
      vertex -29.2 -25.5 -4.5
      vertex -30.582 -27.3244 -4.5
    endloop
  endfacet
  facet normal 0 0 -1
    outer loop
      vertex -31.582 -26.5979 -4.5
      vertex -29.2 -25.5 -4.5
      vertex -31.0244 -26.882 -4.5
    endloop
  endfacet
  facet normal 0 0 -1
    outer loop
      vertex -32.2 -26.5 -4.5
      vertex -29.2 -25.5 -4.5
      vertex -31.582 -26.5979 -4.5
    endloop
  endfacet
  facet normal 0 0 -1
    outer loop
      vertex -35.2 -25.5 -4.5
      vertex -32.2 -26.5 -4.5
      vertex -32.818 -26.5979 -4.5
    endloop
  endfacet
  facet normal 0 0 -1
    outer loop
      vertex -35.2 -25.5 -4.5
      vertex -34.2 -28.5 -4.5
      vertex -35.2 -31.5 -4.5
    endloop
  endfacet
  facet normal 0 0 -1
    outer loop
      vertex -32.2 -26.5 -4.5
      vertex -35.2 -25.5 -4.5
      vertex -29.2 -25.5 -4.5
    endloop
  endfacet
  facet normal 0 0 -1
    outer loop
      vertex -33.3756 -26.882 -4.5
      vertex -35.2 -25.5 -4.5
      vertex -32.818 -26.5979 -4.5
    endloop
  endfacet
  facet normal 0 0 -1
    outer loop
      vertex -33.818 -27.3244 -4.5
      vertex -35.2 -25.5 -4.5
      vertex -33.3756 -26.882 -4.5
    endloop
  endfacet
  facet normal 0 0 -1
    outer loop
      vertex -34.1021 -27.882 -4.5
      vertex -35.2 -25.5 -4.5
      vertex -33.818 -27.3244 -4.5
    endloop
  endfacet
  facet normal 0 0 -1
    outer loop
      vertex -34.2 -28.5 -4.5
      vertex -35.2 -25.5 -4.5
      vertex -34.1021 -27.882 -4.5
    endloop
  endfacet
  facet normal 0 1 -0
    outer loop
      vertex -29.2 -25.5 -4.5
      vertex -35.2 -25.5 -2
      vertex -29.2 -25.5 -2
    endloop
  endfacet
  facet normal 0 1 0
    outer loop
      vertex -35.2 -25.5 -2
      vertex -29.2 -25.5 -4.5
      vertex -35.2 -25.5 -4.5
    endloop
  endfacet
  facet normal 0 0 -1
    outer loop
      vertex -29.2 25.5 -4.5
      vertex -30.2 28.5 -4.5
      vertex -29.2 31.5 -4.5
    endloop
  endfacet
  facet normal 0 0 -1
    outer loop
      vertex -29.2 25.5 -4.5
      vertex -30.2979 27.882 -4.5
      vertex -30.2 28.5 -4.5
    endloop
  endfacet
  facet normal 0 0 -1
    outer loop
      vertex -29.2 25.5 -4.5
      vertex -30.582 27.3244 -4.5
      vertex -30.2979 27.882 -4.5
    endloop
  endfacet
  facet normal 0 0 -1
    outer loop
      vertex -29.2 25.5 -4.5
      vertex -31.0244 26.882 -4.5
      vertex -30.582 27.3244 -4.5
    endloop
  endfacet
  facet normal 0 0 -1
    outer loop
      vertex -29.2 25.5 -4.5
      vertex -31.582 26.5979 -4.5
      vertex -31.0244 26.882 -4.5
    endloop
  endfacet
  facet normal 0 0 -1
    outer loop
      vertex -29.2 25.5 -4.5
      vertex -32.2 26.5 -4.5
      vertex -31.582 26.5979 -4.5
    endloop
  endfacet
  facet normal 0 0 -1
    outer loop
      vertex -35.2 25.5 -4.5
      vertex -32.2 26.5 -4.5
      vertex -29.2 25.5 -4.5
    endloop
  endfacet
  facet normal -0 0 -1
    outer loop
      vertex -34.1021 27.882 -4.5
      vertex -35.2 25.5 -4.5
      vertex -34.2 28.5 -4.5
    endloop
  endfacet
  facet normal -0 0 -1
    outer loop
      vertex -33.818 27.3244 -4.5
      vertex -35.2 25.5 -4.5
      vertex -34.1021 27.882 -4.5
    endloop
  endfacet
  facet normal -0 0 -1
    outer loop
      vertex -33.3756 26.882 -4.5
      vertex -35.2 25.5 -4.5
      vertex -33.818 27.3244 -4.5
    endloop
  endfacet
  facet normal -0 0 -1
    outer loop
      vertex -32.818 26.5979 -4.5
      vertex -35.2 25.5 -4.5
      vertex -33.3756 26.882 -4.5
    endloop
  endfacet
  facet normal -0 0 -1
    outer loop
      vertex -32.2 26.5 -4.5
      vertex -35.2 25.5 -4.5
      vertex -32.818 26.5979 -4.5
    endloop
  endfacet
  facet normal 0 0 -1
    outer loop
      vertex -30.2979 29.118 -4.5
      vertex -29.2 31.5 -4.5
      vertex -30.2 28.5 -4.5
    endloop
  endfacet
  facet normal 0 0 -1
    outer loop
      vertex -30.582 29.6756 -4.5
      vertex -29.2 31.5 -4.5
      vertex -30.2979 29.118 -4.5
    endloop
  endfacet
  facet normal 0 0 -1
    outer loop
      vertex -31.0244 30.118 -4.5
      vertex -29.2 31.5 -4.5
      vertex -30.582 29.6756 -4.5
    endloop
  endfacet
  facet normal 0 0 -1
    outer loop
      vertex -31.582 30.4021 -4.5
      vertex -29.2 31.5 -4.5
      vertex -31.0244 30.118 -4.5
    endloop
  endfacet
  facet normal 0 0 -1
    outer loop
      vertex -32.2 30.5 -4.5
      vertex -29.2 31.5 -4.5
      vertex -31.582 30.4021 -4.5
    endloop
  endfacet
  facet normal 0 0 -1
    outer loop
      vertex -35.2 31.5 -4.5
      vertex -32.2 30.5 -4.5
      vertex -32.818 30.4021 -4.5
    endloop
  endfacet
  facet normal 0 0 -1
    outer loop
      vertex -35.2 31.5 -4.5
      vertex -34.2 28.5 -4.5
      vertex -35.2 25.5 -4.5
    endloop
  endfacet
  facet normal 0 0 -1
    outer loop
      vertex -32.2 30.5 -4.5
      vertex -35.2 31.5 -4.5
      vertex -29.2 31.5 -4.5
    endloop
  endfacet
  facet normal 0 0 -1
    outer loop
      vertex -33.3756 30.118 -4.5
      vertex -35.2 31.5 -4.5
      vertex -32.818 30.4021 -4.5
    endloop
  endfacet
  facet normal 0 0 -1
    outer loop
      vertex -33.818 29.6756 -4.5
      vertex -35.2 31.5 -4.5
      vertex -33.3756 30.118 -4.5
    endloop
  endfacet
  facet normal 0 0 -1
    outer loop
      vertex -34.1021 29.118 -4.5
      vertex -35.2 31.5 -4.5
      vertex -33.818 29.6756 -4.5
    endloop
  endfacet
  facet normal 0 0 -1
    outer loop
      vertex -34.2 28.5 -4.5
      vertex -35.2 31.5 -4.5
      vertex -34.1021 29.118 -4.5
    endloop
  endfacet
  facet normal 0 -1 0
    outer loop
      vertex -35.2 25.5 -4.5
      vertex -29.2 25.5 -2
      vertex -35.2 25.5 -2
    endloop
  endfacet
  facet normal 0 -1 -0
    outer loop
      vertex -29.2 25.5 -2
      vertex -35.2 25.5 -4.5
      vertex -29.2 25.5 -4.5
    endloop
  endfacet
  facet normal -1 0 0
    outer loop
      vertex 29.6 -14.6 -0.75
      vertex 29.6 14.6 0.75
      vertex 29.6 14.6 -0.75
    endloop
  endfacet
  facet normal -1 -0 0
    outer loop
      vertex 29.6 14.6 0.75
      vertex 29.6 -14.6 -0.75
      vertex 29.6 -14.6 0.75
    endloop
  endfacet
  facet normal 0 0 -1
    outer loop
      vertex 29.6 -14.6 0.75
      vertex 24.3 -11.9 0.75
      vertex 29.6 14.6 0.75
    endloop
  endfacet
  facet normal 0 0 -1
    outer loop
      vertex 29.6 -14.6 0.75
      vertex -24.3 -11.9 0.75
      vertex 24.3 -11.9 0.75
    endloop
  endfacet
  facet normal -0 0 -1
    outer loop
      vertex -24.3 -11.9 0.75
      vertex -35.2 -14.6 0.75
      vertex -24.3 11.9 0.75
    endloop
  endfacet
  facet normal 0 0 -1
    outer loop
      vertex -35.2 -14.6 0.75
      vertex -24.3 -11.9 0.75
      vertex 29.6 -14.6 0.75
    endloop
  endfacet
  facet normal 0 0 -1
    outer loop
      vertex 24.3 11.9 0.75
      vertex 29.6 14.6 0.75
      vertex 24.3 -11.9 0.75
    endloop
  endfacet
  facet normal 0 0 -1
    outer loop
      vertex -24.3 11.9 0.75
      vertex 29.6 14.6 0.75
      vertex 24.3 11.9 0.75
    endloop
  endfacet
  facet normal 0 0 -1
    outer loop
      vertex -24.3 11.9 0.75
      vertex -35.2 14.6 0.75
      vertex 29.6 14.6 0.75
    endloop
  endfacet
  facet normal 0 0 -1
    outer loop
      vertex -35.2 14.6 0.75
      vertex -24.3 11.9 0.75
      vertex -35.2 -14.6 0.75
    endloop
  endfacet
  facet normal -0 0 1
    outer loop
      vertex -29.6 14.6 -0.75
      vertex 29.6 -14.6 -0.75
      vertex 29.6 14.6 -0.75
    endloop
  endfacet
  facet normal 0 0 1
    outer loop
      vertex 29.6 -14.6 -0.75
      vertex -29.6 14.6 -0.75
      vertex -29.6 -14.6 -0.75
    endloop
  endfacet
  facet normal 0 -1 0
    outer loop
      vertex -35.2 14.6 0.75
      vertex -29.6 14.6 -0.75
      vertex 29.6 14.6 0.75
    endloop
  endfacet
  facet normal 0 -1 0
    outer loop
      vertex -35.2 14.6 -2
      vertex -29.6 14.6 -0.75
      vertex -35.2 14.6 0.75
    endloop
  endfacet
  facet normal 0 -1 -0
    outer loop
      vertex -29.6 14.6 -0.75
      vertex -35.2 14.6 -2
      vertex -29.6 14.6 -2
    endloop
  endfacet
  facet normal 0 -1 -0
    outer loop
      vertex 29.6 14.6 0.75
      vertex -29.6 14.6 -0.75
      vertex 29.6 14.6 -0.75
    endloop
  endfacet
  facet normal 0 1 0
    outer loop
      vertex -29.6 -14.6 -0.75
      vertex 29.6 -14.6 0.75
      vertex 29.6 -14.6 -0.75
    endloop
  endfacet
  facet normal 0 1 0
    outer loop
      vertex 29.6 -14.6 0.75
      vertex -29.6 -14.6 -0.75
      vertex -35.2 -14.6 0.75
    endloop
  endfacet
  facet normal 0 1 0
    outer loop
      vertex -35.2 -14.6 -2
      vertex -29.6 -14.6 -0.75
      vertex -29.6 -14.6 -2
    endloop
  endfacet
  facet normal 0 1 0
    outer loop
      vertex -29.6 -14.6 -0.75
      vertex -35.2 -14.6 -2
      vertex -35.2 -14.6 0.75
    endloop
  endfacet
  facet normal -1 0 0
    outer loop
      vertex -29.6 -14.6 -2
      vertex -29.6 14.6 -0.75
      vertex -29.6 14.6 -2
    endloop
  endfacet
  facet normal -1 -0 0
    outer loop
      vertex -29.6 14.6 -0.75
      vertex -29.6 -14.6 -2
      vertex -29.6 -14.6 -0.75
    endloop
  endfacet
  facet normal -1 0 0
    outer loop
      vertex 24.3 -11.9 0.75
      vertex 24.3 11.9 2
      vertex 24.3 11.9 0.75
    endloop
  endfacet
  facet normal -1 -0 0
    outer loop
      vertex 24.3 11.9 2
      vertex 24.3 -11.9 0.75
      vertex 24.3 -11.9 2
    endloop
  endfacet
  facet normal 1 -0 0
    outer loop
      vertex -24.3 -11.9 2
      vertex -24.3 11.9 0.75
      vertex -24.3 11.9 2
    endloop
  endfacet
  facet normal 1 0 0
    outer loop
      vertex -24.3 11.9 0.75
      vertex -24.3 -11.9 2
      vertex -24.3 -11.9 0.75
    endloop
  endfacet
  facet normal 0 -1 0
    outer loop
      vertex -24.3 11.9 0.75
      vertex 24.3 11.9 2
      vertex -24.3 11.9 2
    endloop
  endfacet
  facet normal 0 -1 -0
    outer loop
      vertex 24.3 11.9 2
      vertex -24.3 11.9 0.75
      vertex 24.3 11.9 0.75
    endloop
  endfacet
  facet normal 0 1 -0
    outer loop
      vertex 24.3 -11.9 0.75
      vertex -24.3 -11.9 2
      vertex 24.3 -11.9 2
    endloop
  endfacet
  facet normal 0 1 0
    outer loop
      vertex -24.3 -11.9 2
      vertex 24.3 -11.9 0.75
      vertex -24.3 -11.9 0.75
    endloop
  endfacet
  facet normal -0.891014 -0.453976 0
    outer loop
      vertex 34.1021 -27.882 -4.5
      vertex 33.818 -27.3244 2
      vertex 33.818 -27.3244 -4.5
    endloop
  endfacet
  facet normal -0.891014 -0.453976 0
    outer loop
      vertex 33.818 -27.3244 2
      vertex 34.1021 -27.882 -4.5
      vertex 34.1021 -27.882 2
    endloop
  endfacet
  facet normal -0.987684 -0.156463 0
    outer loop
      vertex 34.2 -28.5 -4.5
      vertex 34.1021 -27.882 2
      vertex 34.1021 -27.882 -4.5
    endloop
  endfacet
  facet normal -0.987684 -0.156463 0
    outer loop
      vertex 34.1021 -27.882 2
      vertex 34.2 -28.5 -4.5
      vertex 34.2 -28.5 2
    endloop
  endfacet
  facet normal -0.156463 0.987684 0
    outer loop
      vertex 32.818 -30.4021 -4.5
      vertex 32.2 -30.5 2
      vertex 32.818 -30.4021 2
    endloop
  endfacet
  facet normal -0.156463 0.987684 0
    outer loop
      vertex 32.2 -30.5 2
      vertex 32.818 -30.4021 -4.5
      vertex 32.2 -30.5 -4.5
    endloop
  endfacet
  facet normal -0.156463 -0.987684 0
    outer loop
      vertex 32.2 -26.5 -4.5
      vertex 32.818 -26.5979 2
      vertex 32.2 -26.5 2
    endloop
  endfacet
  facet normal -0.156463 -0.987684 -0
    outer loop
      vertex 32.818 -26.5979 2
      vertex 32.2 -26.5 -4.5
      vertex 32.818 -26.5979 -4.5
    endloop
  endfacet
  facet normal 0.707107 -0.707107 0
    outer loop
      vertex 30.582 -27.3244 2
      vertex 31.0244 -26.882 -4.5
      vertex 31.0244 -26.882 2
    endloop
  endfacet
  facet normal 0.707107 -0.707107 0
    outer loop
      vertex 31.0244 -26.882 -4.5
      vertex 30.582 -27.3244 2
      vertex 30.582 -27.3244 -4.5
    endloop
  endfacet
  facet normal -0.891014 0.453976 0
    outer loop
      vertex 33.818 -29.6756 -4.5
      vertex 34.1021 -29.118 2
      vertex 34.1021 -29.118 -4.5
    endloop
  endfacet
  facet normal -0.891014 0.453976 0
    outer loop
      vertex 34.1021 -29.118 2
      vertex 33.818 -29.6756 -4.5
      vertex 33.818 -29.6756 2
    endloop
  endfacet
  facet normal 0.453976 0.891014 -0
    outer loop
      vertex 31.582 -30.4021 -4.5
      vertex 31.0244 -30.118 2
      vertex 31.582 -30.4021 2
    endloop
  endfacet
  facet normal 0.453976 0.891014 0
    outer loop
      vertex 31.0244 -30.118 2
      vertex 31.582 -30.4021 -4.5
      vertex 31.0244 -30.118 -4.5
    endloop
  endfacet
  facet normal 0.156463 0.987684 -0
    outer loop
      vertex 32.2 -30.5 -4.5
      vertex 31.582 -30.4021 2
      vertex 32.2 -30.5 2
    endloop
  endfacet
  facet normal 0.156463 0.987684 0
    outer loop
      vertex 31.582 -30.4021 2
      vertex 32.2 -30.5 -4.5
      vertex 31.582 -30.4021 -4.5
    endloop
  endfacet
  facet normal 0.987684 -0.156463 0
    outer loop
      vertex 30.2 -28.5 2
      vertex 30.2979 -27.882 -4.5
      vertex 30.2979 -27.882 2
    endloop
  endfacet
  facet normal 0.987684 -0.156463 0
    outer loop
      vertex 30.2979 -27.882 -4.5
      vertex 30.2 -28.5 2
      vertex 30.2 -28.5 -4.5
    endloop
  endfacet
  facet normal 0.707107 0.707107 0
    outer loop
      vertex 31.0244 -30.118 2
      vertex 30.582 -29.6756 -4.5
      vertex 30.582 -29.6756 2
    endloop
  endfacet
  facet normal 0.707107 0.707107 0
    outer loop
      vertex 30.582 -29.6756 -4.5
      vertex 31.0244 -30.118 2
      vertex 31.0244 -30.118 -4.5
    endloop
  endfacet
  facet normal -0.987684 0.156463 0
    outer loop
      vertex 34.1021 -29.118 -4.5
      vertex 34.2 -28.5 2
      vertex 34.2 -28.5 -4.5
    endloop
  endfacet
  facet normal -0.987684 0.156463 0
    outer loop
      vertex 34.2 -28.5 2
      vertex 34.1021 -29.118 -4.5
      vertex 34.1021 -29.118 2
    endloop
  endfacet
  facet normal 0.156463 -0.987684 0
    outer loop
      vertex 31.582 -26.5979 -4.5
      vertex 32.2 -26.5 2
      vertex 31.582 -26.5979 2
    endloop
  endfacet
  facet normal 0.156463 -0.987684 0
    outer loop
      vertex 32.2 -26.5 2
      vertex 31.582 -26.5979 -4.5
      vertex 32.2 -26.5 -4.5
    endloop
  endfacet
  facet normal 0.891014 0.453976 0
    outer loop
      vertex 30.582 -29.6756 2
      vertex 30.2979 -29.118 -4.5
      vertex 30.2979 -29.118 2
    endloop
  endfacet
  facet normal 0.891014 0.453976 0
    outer loop
      vertex 30.2979 -29.118 -4.5
      vertex 30.582 -29.6756 2
      vertex 30.582 -29.6756 -4.5
    endloop
  endfacet
  facet normal 0.453976 -0.891014 0
    outer loop
      vertex 31.0244 -26.882 -4.5
      vertex 31.582 -26.5979 2
      vertex 31.0244 -26.882 2
    endloop
  endfacet
  facet normal 0.453976 -0.891014 0
    outer loop
      vertex 31.582 -26.5979 2
      vertex 31.0244 -26.882 -4.5
      vertex 31.582 -26.5979 -4.5
    endloop
  endfacet
  facet normal 0.891014 -0.453976 0
    outer loop
      vertex 30.2979 -27.882 2
      vertex 30.582 -27.3244 -4.5
      vertex 30.582 -27.3244 2
    endloop
  endfacet
  facet normal 0.891014 -0.453976 0
    outer loop
      vertex 30.582 -27.3244 -4.5
      vertex 30.2979 -27.882 2
      vertex 30.2979 -27.882 -4.5
    endloop
  endfacet
  facet normal -0.453976 0.891014 0
    outer loop
      vertex 33.3756 -30.118 -4.5
      vertex 32.818 -30.4021 2
      vertex 33.3756 -30.118 2
    endloop
  endfacet
  facet normal -0.453976 0.891014 0
    outer loop
      vertex 32.818 -30.4021 2
      vertex 33.3756 -30.118 -4.5
      vertex 32.818 -30.4021 -4.5
    endloop
  endfacet
  facet normal 0.987684 0.156463 0
    outer loop
      vertex 30.2979 -29.118 2
      vertex 30.2 -28.5 -4.5
      vertex 30.2 -28.5 2
    endloop
  endfacet
  facet normal 0.987684 0.156463 0
    outer loop
      vertex 30.2 -28.5 -4.5
      vertex 30.2979 -29.118 2
      vertex 30.2979 -29.118 -4.5
    endloop
  endfacet
  facet normal -0.453976 -0.891014 0
    outer loop
      vertex 32.818 -26.5979 -4.5
      vertex 33.3756 -26.882 2
      vertex 32.818 -26.5979 2
    endloop
  endfacet
  facet normal -0.453976 -0.891014 -0
    outer loop
      vertex 33.3756 -26.882 2
      vertex 32.818 -26.5979 -4.5
      vertex 33.3756 -26.882 -4.5
    endloop
  endfacet
  facet normal -0.707107 0.707107 0
    outer loop
      vertex 33.3756 -30.118 -4.5
      vertex 33.818 -29.6756 2
      vertex 33.818 -29.6756 -4.5
    endloop
  endfacet
  facet normal -0.707107 0.707107 0
    outer loop
      vertex 33.818 -29.6756 2
      vertex 33.3756 -30.118 -4.5
      vertex 33.3756 -30.118 2
    endloop
  endfacet
  facet normal -0.707107 -0.707107 0
    outer loop
      vertex 33.818 -27.3244 -4.5
      vertex 33.3756 -26.882 2
      vertex 33.3756 -26.882 -4.5
    endloop
  endfacet
  facet normal -0.707107 -0.707107 0
    outer loop
      vertex 33.3756 -26.882 2
      vertex 33.818 -27.3244 -4.5
      vertex 33.818 -27.3244 2
    endloop
  endfacet
  facet normal -0.891014 -0.453976 0
    outer loop
      vertex 34.1021 29.118 -4.5
      vertex 33.818 29.6756 2
      vertex 33.818 29.6756 -4.5
    endloop
  endfacet
  facet normal -0.891014 -0.453976 0
    outer loop
      vertex 33.818 29.6756 2
      vertex 34.1021 29.118 -4.5
      vertex 34.1021 29.118 2
    endloop
  endfacet
  facet normal -0.987684 -0.156463 0
    outer loop
      vertex 34.2 28.5 -4.5
      vertex 34.1021 29.118 2
      vertex 34.1021 29.118 -4.5
    endloop
  endfacet
  facet normal -0.987684 -0.156463 0
    outer loop
      vertex 34.1021 29.118 2
      vertex 34.2 28.5 -4.5
      vertex 34.2 28.5 2
    endloop
  endfacet
  facet normal -0.891014 0.453976 0
    outer loop
      vertex 33.818 27.3244 -4.5
      vertex 34.1021 27.882 2
      vertex 34.1021 27.882 -4.5
    endloop
  endfacet
  facet normal -0.891014 0.453976 0
    outer loop
      vertex 34.1021 27.882 2
      vertex 33.818 27.3244 -4.5
      vertex 33.818 27.3244 2
    endloop
  endfacet
  facet normal 0.156463 -0.987684 0
    outer loop
      vertex 31.582 30.4021 -4.5
      vertex 32.2 30.5 2
      vertex 31.582 30.4021 2
    endloop
  endfacet
  facet normal 0.156463 -0.987684 0
    outer loop
      vertex 32.2 30.5 2
      vertex 31.582 30.4021 -4.5
      vertex 32.2 30.5 -4.5
    endloop
  endfacet
  facet normal 0.707107 -0.707107 0
    outer loop
      vertex 30.582 29.6756 2
      vertex 31.0244 30.118 -4.5
      vertex 31.0244 30.118 2
    endloop
  endfacet
  facet normal 0.707107 -0.707107 0
    outer loop
      vertex 31.0244 30.118 -4.5
      vertex 30.582 29.6756 2
      vertex 30.582 29.6756 -4.5
    endloop
  endfacet
  facet normal -0.453976 -0.891014 0
    outer loop
      vertex 32.818 30.4021 -4.5
      vertex 33.3756 30.118 2
      vertex 32.818 30.4021 2
    endloop
  endfacet
  facet normal -0.453976 -0.891014 -0
    outer loop
      vertex 33.3756 30.118 2
      vertex 32.818 30.4021 -4.5
      vertex 33.3756 30.118 -4.5
    endloop
  endfacet
  facet normal -0.156463 0.987684 0
    outer loop
      vertex 32.818 26.5979 -4.5
      vertex 32.2 26.5 2
      vertex 32.818 26.5979 2
    endloop
  endfacet
  facet normal -0.156463 0.987684 0
    outer loop
      vertex 32.2 26.5 2
      vertex 32.818 26.5979 -4.5
      vertex 32.2 26.5 -4.5
    endloop
  endfacet
  facet normal 0.156463 0.987684 -0
    outer loop
      vertex 32.2 26.5 -4.5
      vertex 31.582 26.5979 2
      vertex 32.2 26.5 2
    endloop
  endfacet
  facet normal 0.156463 0.987684 0
    outer loop
      vertex 31.582 26.5979 2
      vertex 32.2 26.5 -4.5
      vertex 31.582 26.5979 -4.5
    endloop
  endfacet
  facet normal -0.987684 0.156463 0
    outer loop
      vertex 34.1021 27.882 -4.5
      vertex 34.2 28.5 2
      vertex 34.2 28.5 -4.5
    endloop
  endfacet
  facet normal -0.987684 0.156463 0
    outer loop
      vertex 34.2 28.5 2
      vertex 34.1021 27.882 -4.5
      vertex 34.1021 27.882 2
    endloop
  endfacet
  facet normal -0.156463 -0.987684 0
    outer loop
      vertex 32.2 30.5 -4.5
      vertex 32.818 30.4021 2
      vertex 32.2 30.5 2
    endloop
  endfacet
  facet normal -0.156463 -0.987684 -0
    outer loop
      vertex 32.818 30.4021 2
      vertex 32.2 30.5 -4.5
      vertex 32.818 30.4021 -4.5
    endloop
  endfacet
  facet normal 0.453976 0.891014 -0
    outer loop
      vertex 31.582 26.5979 -4.5
      vertex 31.0244 26.882 2
      vertex 31.582 26.5979 2
    endloop
  endfacet
  facet normal 0.453976 0.891014 0
    outer loop
      vertex 31.0244 26.882 2
      vertex 31.582 26.5979 -4.5
      vertex 31.0244 26.882 -4.5
    endloop
  endfacet
  facet normal 0.891014 0.453976 0
    outer loop
      vertex 30.582 27.3244 2
      vertex 30.2979 27.882 -4.5
      vertex 30.2979 27.882 2
    endloop
  endfacet
  facet normal 0.891014 0.453976 0
    outer loop
      vertex 30.2979 27.882 -4.5
      vertex 30.582 27.3244 2
      vertex 30.582 27.3244 -4.5
    endloop
  endfacet
  facet normal 0.453976 -0.891014 0
    outer loop
      vertex 31.0244 30.118 -4.5
      vertex 31.582 30.4021 2
      vertex 31.0244 30.118 2
    endloop
  endfacet
  facet normal 0.453976 -0.891014 0
    outer loop
      vertex 31.582 30.4021 2
      vertex 31.0244 30.118 -4.5
      vertex 31.582 30.4021 -4.5
    endloop
  endfacet
  facet normal -0.453976 0.891014 0
    outer loop
      vertex 33.3756 26.882 -4.5
      vertex 32.818 26.5979 2
      vertex 33.3756 26.882 2
    endloop
  endfacet
  facet normal -0.453976 0.891014 0
    outer loop
      vertex 32.818 26.5979 2
      vertex 33.3756 26.882 -4.5
      vertex 32.818 26.5979 -4.5
    endloop
  endfacet
  facet normal 0.707107 0.707107 0
    outer loop
      vertex 31.0244 26.882 2
      vertex 30.582 27.3244 -4.5
      vertex 30.582 27.3244 2
    endloop
  endfacet
  facet normal 0.707107 0.707107 0
    outer loop
      vertex 30.582 27.3244 -4.5
      vertex 31.0244 26.882 2
      vertex 31.0244 26.882 -4.5
    endloop
  endfacet
  facet normal -0.707107 0.707107 0
    outer loop
      vertex 33.3756 26.882 -4.5
      vertex 33.818 27.3244 2
      vertex 33.818 27.3244 -4.5
    endloop
  endfacet
  facet normal -0.707107 0.707107 0
    outer loop
      vertex 33.818 27.3244 2
      vertex 33.3756 26.882 -4.5
      vertex 33.3756 26.882 2
    endloop
  endfacet
  facet normal 0.891014 -0.453976 0
    outer loop
      vertex 30.2979 29.118 2
      vertex 30.582 29.6756 -4.5
      vertex 30.582 29.6756 2
    endloop
  endfacet
  facet normal 0.891014 -0.453976 0
    outer loop
      vertex 30.582 29.6756 -4.5
      vertex 30.2979 29.118 2
      vertex 30.2979 29.118 -4.5
    endloop
  endfacet
  facet normal 0.987684 0.156463 0
    outer loop
      vertex 30.2979 27.882 2
      vertex 30.2 28.5 -4.5
      vertex 30.2 28.5 2
    endloop
  endfacet
  facet normal 0.987684 0.156463 0
    outer loop
      vertex 30.2 28.5 -4.5
      vertex 30.2979 27.882 2
      vertex 30.2979 27.882 -4.5
    endloop
  endfacet
  facet normal -0.707107 -0.707107 0
    outer loop
      vertex 33.818 29.6756 -4.5
      vertex 33.3756 30.118 2
      vertex 33.3756 30.118 -4.5
    endloop
  endfacet
  facet normal -0.707107 -0.707107 0
    outer loop
      vertex 33.3756 30.118 2
      vertex 33.818 29.6756 -4.5
      vertex 33.818 29.6756 2
    endloop
  endfacet
  facet normal 0.987684 -0.156463 0
    outer loop
      vertex 30.2 28.5 2
      vertex 30.2979 29.118 -4.5
      vertex 30.2979 29.118 2
    endloop
  endfacet
  facet normal 0.987684 -0.156463 0
    outer loop
      vertex 30.2979 29.118 -4.5
      vertex 30.2 28.5 2
      vertex 30.2 28.5 -4.5
    endloop
  endfacet
  facet normal -0.891014 -0.453976 0
    outer loop
      vertex -30.2979 -27.882 -4.5
      vertex -30.582 -27.3244 2
      vertex -30.582 -27.3244 -4.5
    endloop
  endfacet
  facet normal -0.891014 -0.453976 0
    outer loop
      vertex -30.582 -27.3244 2
      vertex -30.2979 -27.882 -4.5
      vertex -30.2979 -27.882 2
    endloop
  endfacet
  facet normal -0.987684 -0.156463 0
    outer loop
      vertex -30.2 -28.5 -4.5
      vertex -30.2979 -27.882 2
      vertex -30.2979 -27.882 -4.5
    endloop
  endfacet
  facet normal -0.987684 -0.156463 0
    outer loop
      vertex -30.2979 -27.882 2
      vertex -30.2 -28.5 -4.5
      vertex -30.2 -28.5 2
    endloop
  endfacet
  facet normal -0.707107 0.707107 0
    outer loop
      vertex -31.0244 -30.118 -4.5
      vertex -30.582 -29.6756 2
      vertex -30.582 -29.6756 -4.5
    endloop
  endfacet
  facet normal -0.707107 0.707107 0
    outer loop
      vertex -30.582 -29.6756 2
      vertex -31.0244 -30.118 -4.5
      vertex -31.0244 -30.118 2
    endloop
  endfacet
  facet normal -0.453976 0.891014 0
    outer loop
      vertex -31.0244 -30.118 -4.5
      vertex -31.582 -30.4021 2
      vertex -31.0244 -30.118 2
    endloop
  endfacet
  facet normal -0.453976 0.891014 0
    outer loop
      vertex -31.582 -30.4021 2
      vertex -31.0244 -30.118 -4.5
      vertex -31.582 -30.4021 -4.5
    endloop
  endfacet
  facet normal -0.156463 -0.987684 0
    outer loop
      vertex -32.2 -26.5 -4.5
      vertex -31.582 -26.5979 2
      vertex -32.2 -26.5 2
    endloop
  endfacet
  facet normal -0.156463 -0.987684 -0
    outer loop
      vertex -31.582 -26.5979 2
      vertex -32.2 -26.5 -4.5
      vertex -31.582 -26.5979 -4.5
    endloop
  endfacet
  facet normal -0.156463 0.987684 0
    outer loop
      vertex -31.582 -30.4021 -4.5
      vertex -32.2 -30.5 2
      vertex -31.582 -30.4021 2
    endloop
  endfacet
  facet normal -0.156463 0.987684 0
    outer loop
      vertex -32.2 -30.5 2
      vertex -31.582 -30.4021 -4.5
      vertex -32.2 -30.5 -4.5
    endloop
  endfacet
  facet normal 0.707107 -0.707107 0
    outer loop
      vertex -33.818 -27.3244 2
      vertex -33.3756 -26.882 -4.5
      vertex -33.3756 -26.882 2
    endloop
  endfacet
  facet normal 0.707107 -0.707107 0
    outer loop
      vertex -33.3756 -26.882 -4.5
      vertex -33.818 -27.3244 2
      vertex -33.818 -27.3244 -4.5
    endloop
  endfacet
  facet normal 0.891014 -0.453976 0
    outer loop
      vertex -34.1021 -27.882 2
      vertex -33.818 -27.3244 -4.5
      vertex -33.818 -27.3244 2
    endloop
  endfacet
  facet normal 0.891014 -0.453976 0
    outer loop
      vertex -33.818 -27.3244 -4.5
      vertex -34.1021 -27.882 2
      vertex -34.1021 -27.882 -4.5
    endloop
  endfacet
  facet normal -0.891014 0.453976 0
    outer loop
      vertex -30.582 -29.6756 -4.5
      vertex -30.2979 -29.118 2
      vertex -30.2979 -29.118 -4.5
    endloop
  endfacet
  facet normal -0.891014 0.453976 0
    outer loop
      vertex -30.2979 -29.118 2
      vertex -30.582 -29.6756 -4.5
      vertex -30.582 -29.6756 2
    endloop
  endfacet
  facet normal 0.156463 -0.987684 0
    outer loop
      vertex -32.818 -26.5979 -4.5
      vertex -32.2 -26.5 2
      vertex -32.818 -26.5979 2
    endloop
  endfacet
  facet normal 0.156463 -0.987684 0
    outer loop
      vertex -32.2 -26.5 2
      vertex -32.818 -26.5979 -4.5
      vertex -32.2 -26.5 -4.5
    endloop
  endfacet
  facet normal 0.453976 -0.891014 0
    outer loop
      vertex -33.3756 -26.882 -4.5
      vertex -32.818 -26.5979 2
      vertex -33.3756 -26.882 2
    endloop
  endfacet
  facet normal 0.453976 -0.891014 0
    outer loop
      vertex -32.818 -26.5979 2
      vertex -33.3756 -26.882 -4.5
      vertex -32.818 -26.5979 -4.5
    endloop
  endfacet
  facet normal -0.987684 0.156463 0
    outer loop
      vertex -30.2979 -29.118 -4.5
      vertex -30.2 -28.5 2
      vertex -30.2 -28.5 -4.5
    endloop
  endfacet
  facet normal -0.987684 0.156463 0
    outer loop
      vertex -30.2 -28.5 2
      vertex -30.2979 -29.118 -4.5
      vertex -30.2979 -29.118 2
    endloop
  endfacet
  facet normal -0.453976 -0.891014 0
    outer loop
      vertex -31.582 -26.5979 -4.5
      vertex -31.0244 -26.882 2
      vertex -31.582 -26.5979 2
    endloop
  endfacet
  facet normal -0.453976 -0.891014 -0
    outer loop
      vertex -31.0244 -26.882 2
      vertex -31.582 -26.5979 -4.5
      vertex -31.0244 -26.882 -4.5
    endloop
  endfacet
  facet normal 0.987684 -0.156463 0
    outer loop
      vertex -34.2 -28.5 2
      vertex -34.1021 -27.882 -4.5
      vertex -34.1021 -27.882 2
    endloop
  endfacet
  facet normal 0.987684 -0.156463 0
    outer loop
      vertex -34.1021 -27.882 -4.5
      vertex -34.2 -28.5 2
      vertex -34.2 -28.5 -4.5
    endloop
  endfacet
  facet normal 0.453976 0.891014 -0
    outer loop
      vertex -32.818 -30.4021 -4.5
      vertex -33.3756 -30.118 2
      vertex -32.818 -30.4021 2
    endloop
  endfacet
  facet normal 0.453976 0.891014 0
    outer loop
      vertex -33.3756 -30.118 2
      vertex -32.818 -30.4021 -4.5
      vertex -33.3756 -30.118 -4.5
    endloop
  endfacet
  facet normal 0.156463 0.987684 -0
    outer loop
      vertex -32.2 -30.5 -4.5
      vertex -32.818 -30.4021 2
      vertex -32.2 -30.5 2
    endloop
  endfacet
  facet normal 0.156463 0.987684 0
    outer loop
      vertex -32.818 -30.4021 2
      vertex -32.2 -30.5 -4.5
      vertex -32.818 -30.4021 -4.5
    endloop
  endfacet
  facet normal -0.707107 -0.707107 0
    outer loop
      vertex -30.582 -27.3244 -4.5
      vertex -31.0244 -26.882 2
      vertex -31.0244 -26.882 -4.5
    endloop
  endfacet
  facet normal -0.707107 -0.707107 0
    outer loop
      vertex -31.0244 -26.882 2
      vertex -30.582 -27.3244 -4.5
      vertex -30.582 -27.3244 2
    endloop
  endfacet
  facet normal 0.891014 0.453976 0
    outer loop
      vertex -33.818 -29.6756 2
      vertex -34.1021 -29.118 -4.5
      vertex -34.1021 -29.118 2
    endloop
  endfacet
  facet normal 0.891014 0.453976 0
    outer loop
      vertex -34.1021 -29.118 -4.5
      vertex -33.818 -29.6756 2
      vertex -33.818 -29.6756 -4.5
    endloop
  endfacet
  facet normal 0.707107 0.707107 0
    outer loop
      vertex -33.3756 -30.118 2
      vertex -33.818 -29.6756 -4.5
      vertex -33.818 -29.6756 2
    endloop
  endfacet
  facet normal 0.707107 0.707107 0
    outer loop
      vertex -33.818 -29.6756 -4.5
      vertex -33.3756 -30.118 2
      vertex -33.3756 -30.118 -4.5
    endloop
  endfacet
  facet normal 0.987684 0.156463 0
    outer loop
      vertex -34.1021 -29.118 2
      vertex -34.2 -28.5 -4.5
      vertex -34.2 -28.5 2
    endloop
  endfacet
  facet normal 0.987684 0.156463 0
    outer loop
      vertex -34.2 -28.5 -4.5
      vertex -34.1021 -29.118 2
      vertex -34.1021 -29.118 -4.5
    endloop
  endfacet
  facet normal -0.891014 -0.453976 0
    outer loop
      vertex -30.2979 29.118 -4.5
      vertex -30.582 29.6756 2
      vertex -30.582 29.6756 -4.5
    endloop
  endfacet
  facet normal -0.891014 -0.453976 0
    outer loop
      vertex -30.582 29.6756 2
      vertex -30.2979 29.118 -4.5
      vertex -30.2979 29.118 2
    endloop
  endfacet
  facet normal -0.987684 -0.156463 0
    outer loop
      vertex -30.2 28.5 -4.5
      vertex -30.2979 29.118 2
      vertex -30.2979 29.118 -4.5
    endloop
  endfacet
  facet normal -0.987684 -0.156463 0
    outer loop
      vertex -30.2979 29.118 2
      vertex -30.2 28.5 -4.5
      vertex -30.2 28.5 2
    endloop
  endfacet
  facet normal -0.891014 0.453976 0
    outer loop
      vertex -30.582 27.3244 -4.5
      vertex -30.2979 27.882 2
      vertex -30.2979 27.882 -4.5
    endloop
  endfacet
  facet normal -0.891014 0.453976 0
    outer loop
      vertex -30.2979 27.882 2
      vertex -30.582 27.3244 -4.5
      vertex -30.582 27.3244 2
    endloop
  endfacet
  facet normal 0.987684 0.156463 0
    outer loop
      vertex -34.1021 27.882 2
      vertex -34.2 28.5 -4.5
      vertex -34.2 28.5 2
    endloop
  endfacet
  facet normal 0.987684 0.156463 0
    outer loop
      vertex -34.2 28.5 -4.5
      vertex -34.1021 27.882 2
      vertex -34.1021 27.882 -4.5
    endloop
  endfacet
  facet normal -0.453976 0.891014 0
    outer loop
      vertex -31.0244 26.882 -4.5
      vertex -31.582 26.5979 2
      vertex -31.0244 26.882 2
    endloop
  endfacet
  facet normal -0.453976 0.891014 0
    outer loop
      vertex -31.582 26.5979 2
      vertex -31.0244 26.882 -4.5
      vertex -31.582 26.5979 -4.5
    endloop
  endfacet
  facet normal -0.156463 -0.987684 0
    outer loop
      vertex -32.2 30.5 -4.5
      vertex -31.582 30.4021 2
      vertex -32.2 30.5 2
    endloop
  endfacet
  facet normal -0.156463 -0.987684 -0
    outer loop
      vertex -31.582 30.4021 2
      vertex -32.2 30.5 -4.5
      vertex -31.582 30.4021 -4.5
    endloop
  endfacet
  facet normal -0.707107 -0.707107 0
    outer loop
      vertex -30.582 29.6756 -4.5
      vertex -31.0244 30.118 2
      vertex -31.0244 30.118 -4.5
    endloop
  endfacet
  facet normal -0.707107 -0.707107 0
    outer loop
      vertex -31.0244 30.118 2
      vertex -30.582 29.6756 -4.5
      vertex -30.582 29.6756 2
    endloop
  endfacet
  facet normal 0.891014 0.453976 0
    outer loop
      vertex -33.818 27.3244 2
      vertex -34.1021 27.882 -4.5
      vertex -34.1021 27.882 2
    endloop
  endfacet
  facet normal 0.891014 0.453976 0
    outer loop
      vertex -34.1021 27.882 -4.5
      vertex -33.818 27.3244 2
      vertex -33.818 27.3244 -4.5
    endloop
  endfacet
  facet normal 0.891014 -0.453976 0
    outer loop
      vertex -34.1021 29.118 2
      vertex -33.818 29.6756 -4.5
      vertex -33.818 29.6756 2
    endloop
  endfacet
  facet normal 0.891014 -0.453976 0
    outer loop
      vertex -33.818 29.6756 -4.5
      vertex -34.1021 29.118 2
      vertex -34.1021 29.118 -4.5
    endloop
  endfacet
  facet normal 0.453976 -0.891014 0
    outer loop
      vertex -33.3756 30.118 -4.5
      vertex -32.818 30.4021 2
      vertex -33.3756 30.118 2
    endloop
  endfacet
  facet normal 0.453976 -0.891014 0
    outer loop
      vertex -32.818 30.4021 2
      vertex -33.3756 30.118 -4.5
      vertex -32.818 30.4021 -4.5
    endloop
  endfacet
  facet normal 0.987684 -0.156463 0
    outer loop
      vertex -34.2 28.5 2
      vertex -34.1021 29.118 -4.5
      vertex -34.1021 29.118 2
    endloop
  endfacet
  facet normal 0.987684 -0.156463 0
    outer loop
      vertex -34.1021 29.118 -4.5
      vertex -34.2 28.5 2
      vertex -34.2 28.5 -4.5
    endloop
  endfacet
  facet normal 0.707107 -0.707107 0
    outer loop
      vertex -33.818 29.6756 2
      vertex -33.3756 30.118 -4.5
      vertex -33.3756 30.118 2
    endloop
  endfacet
  facet normal 0.707107 -0.707107 0
    outer loop
      vertex -33.3756 30.118 -4.5
      vertex -33.818 29.6756 2
      vertex -33.818 29.6756 -4.5
    endloop
  endfacet
  facet normal -0.156463 0.987684 0
    outer loop
      vertex -31.582 26.5979 -4.5
      vertex -32.2 26.5 2
      vertex -31.582 26.5979 2
    endloop
  endfacet
  facet normal -0.156463 0.987684 0
    outer loop
      vertex -32.2 26.5 2
      vertex -31.582 26.5979 -4.5
      vertex -32.2 26.5 -4.5
    endloop
  endfacet
  facet normal 0.156463 0.987684 -0
    outer loop
      vertex -32.2 26.5 -4.5
      vertex -32.818 26.5979 2
      vertex -32.2 26.5 2
    endloop
  endfacet
  facet normal 0.156463 0.987684 0
    outer loop
      vertex -32.818 26.5979 2
      vertex -32.2 26.5 -4.5
      vertex -32.818 26.5979 -4.5
    endloop
  endfacet
  facet normal -0.707107 0.707107 0
    outer loop
      vertex -31.0244 26.882 -4.5
      vertex -30.582 27.3244 2
      vertex -30.582 27.3244 -4.5
    endloop
  endfacet
  facet normal -0.707107 0.707107 0
    outer loop
      vertex -30.582 27.3244 2
      vertex -31.0244 26.882 -4.5
      vertex -31.0244 26.882 2
    endloop
  endfacet
  facet normal 0.156463 -0.987684 0
    outer loop
      vertex -32.818 30.4021 -4.5
      vertex -32.2 30.5 2
      vertex -32.818 30.4021 2
    endloop
  endfacet
  facet normal 0.156463 -0.987684 0
    outer loop
      vertex -32.2 30.5 2
      vertex -32.818 30.4021 -4.5
      vertex -32.2 30.5 -4.5
    endloop
  endfacet
  facet normal 0.453976 0.891014 -0
    outer loop
      vertex -32.818 26.5979 -4.5
      vertex -33.3756 26.882 2
      vertex -32.818 26.5979 2
    endloop
  endfacet
  facet normal 0.453976 0.891014 0
    outer loop
      vertex -33.3756 26.882 2
      vertex -32.818 26.5979 -4.5
      vertex -33.3756 26.882 -4.5
    endloop
  endfacet
  facet normal -0.453976 -0.891014 0
    outer loop
      vertex -31.582 30.4021 -4.5
      vertex -31.0244 30.118 2
      vertex -31.582 30.4021 2
    endloop
  endfacet
  facet normal -0.453976 -0.891014 -0
    outer loop
      vertex -31.0244 30.118 2
      vertex -31.582 30.4021 -4.5
      vertex -31.0244 30.118 -4.5
    endloop
  endfacet
  facet normal -0.987684 0.156463 0
    outer loop
      vertex -30.2979 27.882 -4.5
      vertex -30.2 28.5 2
      vertex -30.2 28.5 -4.5
    endloop
  endfacet
  facet normal -0.987684 0.156463 0
    outer loop
      vertex -30.2 28.5 2
      vertex -30.2979 27.882 -4.5
      vertex -30.2979 27.882 2
    endloop
  endfacet
  facet normal 0.707107 0.707107 0
    outer loop
      vertex -33.3756 26.882 2
      vertex -33.818 27.3244 -4.5
      vertex -33.818 27.3244 2
    endloop
  endfacet
  facet normal 0.707107 0.707107 0
    outer loop
      vertex -33.818 27.3244 -4.5
      vertex -33.3756 26.882 2
      vertex -33.3756 26.882 -4.5
    endloop
  endfacet
endsolid OpenSCAD_Model
