%TF.GenerationSoftware,KiCad,Pcbnew,9.0.4*%
%TF.CreationDate,2025-08-31T12:09:40+02:00*%
%TF.ProjectId,CYW43439,43595734-3334-4333-992e-6b696361645f,rev?*%
%TF.SameCoordinates,Original*%
%TF.FileFunction,Copper,L2,Inr*%
%TF.FilePolarity,Positive*%
%FSLAX46Y46*%
G04 Gerber Fmt 4.6, Leading zero omitted, Abs format (unit mm)*
G04 Created by KiCad (PCBNEW 9.0.4) date 2025-08-31 12:09:40*
%MOMM*%
%LPD*%
G01*
G04 APERTURE LIST*
%TA.AperFunction,ComponentPad*%
%ADD10R,1.700000X1.700000*%
%TD*%
%TA.AperFunction,ComponentPad*%
%ADD11O,1.700000X1.700000*%
%TD*%
%TA.AperFunction,ComponentPad*%
%ADD12C,1.440000*%
%TD*%
%TA.AperFunction,ComponentPad*%
%ADD13C,2.250000*%
%TD*%
%TA.AperFunction,ViaPad*%
%ADD14C,0.400000*%
%TD*%
G04 APERTURE END LIST*
D10*
%TO.N,GND*%
%TO.C,J3*%
X153300000Y-96975000D03*
D11*
%TO.N,+3.3V*%
X153300000Y-99515000D03*
%TD*%
D10*
%TO.N,WL_CLK*%
%TO.C,J2*%
X144450000Y-84100000D03*
D11*
%TO.N,WL_D*%
X141910000Y-84100000D03*
%TO.N,WL_CS*%
X139370000Y-84100000D03*
%TO.N,WL_ON*%
X136830000Y-84100000D03*
%TD*%
D10*
%TO.N,WL_GPIO2*%
%TO.C,J1*%
X152125000Y-87800000D03*
D11*
%TO.N,WL_GPIO0*%
X149585000Y-87800000D03*
%TO.N,WL_GPIO1*%
X147045000Y-87800000D03*
%TD*%
D12*
%TO.N,Net-(J4-In)*%
%TO.C,J4*%
X151290000Y-108085000D03*
D13*
%TO.N,GND*%
X148750000Y-105545000D03*
X148750000Y-110625000D03*
X153830000Y-105545000D03*
X153830000Y-110625000D03*
%TD*%
D14*
%TO.N,GND*%
X147800000Y-93500000D03*
X149675000Y-85275000D03*
X146225000Y-109250000D03*
X144700000Y-102625000D03*
X150300000Y-92550000D03*
X142350000Y-88450000D03*
X149120000Y-102820000D03*
X132575000Y-111825000D03*
X144725000Y-109300000D03*
X154925000Y-111450000D03*
X145575000Y-103725000D03*
X145150000Y-107250000D03*
X145300000Y-98150000D03*
X137250000Y-98050000D03*
X126100000Y-99075000D03*
X146125000Y-104300000D03*
X135575000Y-86400000D03*
X133475000Y-89925000D03*
X126425000Y-107275000D03*
X141900000Y-100750000D03*
X150760000Y-106375000D03*
X139700000Y-99000000D03*
X138500000Y-102200000D03*
X139900000Y-102200000D03*
X144075000Y-109925000D03*
X134925000Y-96600000D03*
X137050000Y-108025000D03*
X141000000Y-99300000D03*
X135975000Y-97970000D03*
X149770000Y-103470000D03*
X145500000Y-110050000D03*
X134100000Y-94500000D03*
X154925000Y-106900000D03*
X134925000Y-98780000D03*
X148540000Y-102210000D03*
X144700000Y-108675000D03*
X142325000Y-86700000D03*
X139240000Y-88550000D03*
X126175000Y-94600000D03*
X143690000Y-111870000D03*
X144320000Y-111230000D03*
X143275000Y-103350000D03*
X143225000Y-100350000D03*
X154875000Y-102875000D03*
X137075000Y-110450000D03*
X150275000Y-102025000D03*
X141900000Y-99650000D03*
X142900000Y-111100000D03*
X151800000Y-105500000D03*
X140368753Y-108019975D03*
X134090000Y-95050000D03*
X155175000Y-90275000D03*
X147800000Y-94650000D03*
X138000000Y-101800000D03*
X143275000Y-102000000D03*
X144075000Y-94975000D03*
X128925000Y-99175000D03*
X140175000Y-104950000D03*
X127075000Y-95500000D03*
X144675000Y-104475000D03*
X135625000Y-96600000D03*
X126425000Y-102700000D03*
X143475000Y-110500000D03*
X145000000Y-90150000D03*
X138000000Y-101200000D03*
X143525000Y-108025000D03*
X146350000Y-106300000D03*
X133275000Y-102025000D03*
X133450000Y-94500000D03*
X138000000Y-100000000D03*
X130775000Y-98400000D03*
X145425000Y-102625000D03*
X130675000Y-86500000D03*
X140300000Y-99300000D03*
X142300000Y-92800000D03*
X145075000Y-103225000D03*
X137025000Y-98775000D03*
X144250000Y-93475000D03*
X136000000Y-108675000D03*
X139200000Y-102200000D03*
X143800000Y-88300000D03*
X139230000Y-86775000D03*
X144125000Y-103975000D03*
X146350000Y-108125000D03*
X141425000Y-108025000D03*
X139200000Y-96700000D03*
X146350000Y-105350000D03*
X150875000Y-90000000D03*
X151090000Y-104760000D03*
X144675000Y-108025000D03*
X135975000Y-109350000D03*
X147750000Y-102950000D03*
X134950000Y-95050000D03*
X149200000Y-91825000D03*
X147890000Y-101580000D03*
X126350000Y-86450000D03*
X142600000Y-99675000D03*
X138025000Y-86975000D03*
X141150000Y-88425000D03*
X149625000Y-111950000D03*
X144900000Y-110650000D03*
X150340000Y-105575000D03*
X144500000Y-101275000D03*
X146350000Y-107225000D03*
X140975000Y-94100000D03*
X143275000Y-102650000D03*
X138150000Y-108025000D03*
X131850000Y-89900000D03*
X146225000Y-102625000D03*
X145150000Y-105375000D03*
X141800000Y-94900000D03*
X141150000Y-86775000D03*
X155200000Y-95200000D03*
X146050000Y-101275000D03*
X142425000Y-108025000D03*
X138000000Y-100600000D03*
X133825000Y-97300000D03*
X136475000Y-109925000D03*
X126225000Y-90475000D03*
X148425000Y-103625000D03*
X126500000Y-111700000D03*
X141300000Y-102200000D03*
X141900000Y-101900000D03*
X150250000Y-94875000D03*
X137675000Y-111075000D03*
X141900000Y-101350000D03*
X136000000Y-108025000D03*
X143750000Y-100850000D03*
X145375000Y-95800000D03*
X143150000Y-93475000D03*
X151820000Y-106375000D03*
X143900000Y-86700000D03*
X139275000Y-108025000D03*
X134925000Y-97970000D03*
X140600000Y-102200000D03*
X147000000Y-102625000D03*
X147200000Y-98175000D03*
X150430000Y-104110000D03*
X145275000Y-101275000D03*
X143275000Y-103975000D03*
X146925000Y-101250000D03*
X145150000Y-106325000D03*
X138300000Y-99000000D03*
X131175000Y-107075000D03*
X155225000Y-99950000D03*
X142550000Y-101325000D03*
%TO.N,WL_GPIO2*%
X139175000Y-96125000D03*
X140725000Y-96300000D03*
%TO.N,WL_GPIO1*%
X140600000Y-93075000D03*
X138200000Y-93091608D03*
%TO.N,WL_GPIO0*%
X139220000Y-93510000D03*
X140550000Y-93700000D03*
%TO.N,VOUT_3P3*%
X134500000Y-95925000D03*
X137025000Y-94000000D03*
X140710000Y-97590000D03*
%TO.N,VDDBAT*%
X137950000Y-90450000D03*
%TO.N,Net-(U1-BTFM_PLL_VDD)*%
X139750000Y-98075000D03*
X138000000Y-98010000D03*
%TD*%
%TA.AperFunction,Conductor*%
%TO.N,GND*%
G36*
X155517539Y-82220185D02*
G01*
X155563294Y-82272989D01*
X155574500Y-82324500D01*
X155574500Y-104873742D01*
X155554815Y-104940781D01*
X155502011Y-104986536D01*
X155432853Y-104996480D01*
X155369297Y-104967455D01*
X155338834Y-104925212D01*
X155338159Y-104925557D01*
X155219824Y-104693313D01*
X155142148Y-104586403D01*
X155142148Y-104586402D01*
X154584114Y-105144436D01*
X154583260Y-105142374D01*
X154490238Y-105003156D01*
X154371844Y-104884762D01*
X154232626Y-104791740D01*
X154230560Y-104790884D01*
X154788596Y-104232850D01*
X154681686Y-104155175D01*
X154453784Y-104039052D01*
X154453781Y-104039051D01*
X154210523Y-103960013D01*
X153957889Y-103920000D01*
X153702111Y-103920000D01*
X153449476Y-103960013D01*
X153206218Y-104039051D01*
X153206215Y-104039052D01*
X152978310Y-104155177D01*
X152871403Y-104232849D01*
X152871402Y-104232850D01*
X153429437Y-104790885D01*
X153427374Y-104791740D01*
X153288156Y-104884762D01*
X153169762Y-105003156D01*
X153076740Y-105142374D01*
X153075885Y-105144437D01*
X152517850Y-104586402D01*
X152517849Y-104586403D01*
X152440177Y-104693310D01*
X152324052Y-104921215D01*
X152324051Y-104921218D01*
X152245013Y-105164476D01*
X152205000Y-105417110D01*
X152205000Y-105672889D01*
X152245013Y-105925523D01*
X152324051Y-106168781D01*
X152324052Y-106168784D01*
X152440175Y-106396686D01*
X152517850Y-106503595D01*
X152517850Y-106503596D01*
X153075884Y-105945561D01*
X153076740Y-105947626D01*
X153169762Y-106086844D01*
X153288156Y-106205238D01*
X153427374Y-106298260D01*
X153429437Y-106299114D01*
X152871402Y-106857148D01*
X152978313Y-106934824D01*
X153206215Y-107050947D01*
X153206218Y-107050948D01*
X153449476Y-107129986D01*
X153702111Y-107170000D01*
X153957889Y-107170000D01*
X154210523Y-107129986D01*
X154453781Y-107050948D01*
X154453784Y-107050947D01*
X154681685Y-106934825D01*
X154788595Y-106857148D01*
X154788596Y-106857148D01*
X154230562Y-106299114D01*
X154232626Y-106298260D01*
X154371844Y-106205238D01*
X154490238Y-106086844D01*
X154583260Y-105947626D01*
X154584114Y-105945562D01*
X155142148Y-106503596D01*
X155142148Y-106503595D01*
X155219825Y-106396685D01*
X155338159Y-106164443D01*
X155339076Y-106164910D01*
X155379778Y-106114402D01*
X155446072Y-106092336D01*
X155513772Y-106109614D01*
X155561383Y-106160751D01*
X155574500Y-106216257D01*
X155574500Y-109953742D01*
X155554815Y-110020781D01*
X155502011Y-110066536D01*
X155432853Y-110076480D01*
X155369297Y-110047455D01*
X155338834Y-110005212D01*
X155338159Y-110005557D01*
X155219824Y-109773313D01*
X155142148Y-109666403D01*
X155142148Y-109666402D01*
X154584114Y-110224436D01*
X154583260Y-110222374D01*
X154490238Y-110083156D01*
X154371844Y-109964762D01*
X154232626Y-109871740D01*
X154230560Y-109870884D01*
X154788596Y-109312850D01*
X154681686Y-109235175D01*
X154453784Y-109119052D01*
X154453781Y-109119051D01*
X154210523Y-109040013D01*
X153957889Y-109000000D01*
X153702111Y-109000000D01*
X153449476Y-109040013D01*
X153206218Y-109119051D01*
X153206215Y-109119052D01*
X152978310Y-109235177D01*
X152871403Y-109312849D01*
X152871402Y-109312850D01*
X153429437Y-109870885D01*
X153427374Y-109871740D01*
X153288156Y-109964762D01*
X153169762Y-110083156D01*
X153076740Y-110222374D01*
X153075885Y-110224437D01*
X152517850Y-109666402D01*
X152517849Y-109666403D01*
X152440177Y-109773310D01*
X152324052Y-110001215D01*
X152324051Y-110001218D01*
X152245013Y-110244476D01*
X152205000Y-110497110D01*
X152205000Y-110752889D01*
X152245013Y-111005523D01*
X152324051Y-111248781D01*
X152324052Y-111248784D01*
X152440175Y-111476686D01*
X152517850Y-111583595D01*
X152517850Y-111583596D01*
X153075884Y-111025561D01*
X153076740Y-111027626D01*
X153169762Y-111166844D01*
X153288156Y-111285238D01*
X153427374Y-111378260D01*
X153429437Y-111379114D01*
X152871402Y-111937148D01*
X152978313Y-112014824D01*
X153037394Y-112044928D01*
X153088190Y-112092903D01*
X153104985Y-112160724D01*
X153082447Y-112226859D01*
X153027732Y-112270310D01*
X152981306Y-112279413D01*
X149587989Y-112285078D01*
X149520917Y-112265505D01*
X149475074Y-112212778D01*
X149465015Y-112143636D01*
X149493934Y-112080032D01*
X149531487Y-112050593D01*
X149601685Y-112014825D01*
X149708595Y-111937148D01*
X149708596Y-111937148D01*
X149150562Y-111379114D01*
X149152626Y-111378260D01*
X149291844Y-111285238D01*
X149410238Y-111166844D01*
X149503260Y-111027626D01*
X149504114Y-111025562D01*
X150062148Y-111583596D01*
X150062148Y-111583595D01*
X150139825Y-111476685D01*
X150255947Y-111248784D01*
X150255948Y-111248781D01*
X150334986Y-111005523D01*
X150375000Y-110752889D01*
X150375000Y-110497110D01*
X150334986Y-110244476D01*
X150255948Y-110001218D01*
X150255947Y-110001215D01*
X150139824Y-109773313D01*
X150062148Y-109666403D01*
X150062148Y-109666402D01*
X149504114Y-110224436D01*
X149503260Y-110222374D01*
X149410238Y-110083156D01*
X149291844Y-109964762D01*
X149152626Y-109871740D01*
X149150560Y-109870884D01*
X149708596Y-109312850D01*
X149601686Y-109235175D01*
X149373784Y-109119052D01*
X149373781Y-109119051D01*
X149130523Y-109040013D01*
X148877889Y-109000000D01*
X148622111Y-109000000D01*
X148369476Y-109040013D01*
X148126218Y-109119051D01*
X148126215Y-109119052D01*
X147898310Y-109235177D01*
X147791403Y-109312849D01*
X147791402Y-109312850D01*
X148349437Y-109870885D01*
X148347374Y-109871740D01*
X148208156Y-109964762D01*
X148089762Y-110083156D01*
X147996740Y-110222374D01*
X147995885Y-110224437D01*
X147437850Y-109666402D01*
X147437849Y-109666403D01*
X147360177Y-109773310D01*
X147244052Y-110001215D01*
X147244051Y-110001218D01*
X147165013Y-110244476D01*
X147125000Y-110497110D01*
X147125000Y-110752889D01*
X147165013Y-111005523D01*
X147244051Y-111248781D01*
X147244052Y-111248784D01*
X147360175Y-111476686D01*
X147437850Y-111583595D01*
X147437850Y-111583596D01*
X147995884Y-111025561D01*
X147996740Y-111027626D01*
X148089762Y-111166844D01*
X148208156Y-111285238D01*
X148347374Y-111378260D01*
X148349437Y-111379114D01*
X147791402Y-111937148D01*
X147898313Y-112014824D01*
X147973984Y-112053381D01*
X148024780Y-112101356D01*
X148041575Y-112169177D01*
X148019037Y-112235312D01*
X147964322Y-112278763D01*
X147917896Y-112287866D01*
X141974204Y-112297788D01*
X141907132Y-112278215D01*
X141861289Y-112225488D01*
X141849997Y-112173790D01*
X141849999Y-111626359D01*
X141869684Y-111559322D01*
X141886313Y-111538686D01*
X144350000Y-109075000D01*
X144350000Y-108325000D01*
X136350000Y-108325000D01*
X136350000Y-109075000D01*
X138813681Y-111538681D01*
X138847166Y-111600004D01*
X138850000Y-111626361D01*
X138850004Y-112175499D01*
X138830320Y-112242539D01*
X138777516Y-112288294D01*
X138726004Y-112299500D01*
X125899500Y-112299500D01*
X125832461Y-112279815D01*
X125786706Y-112227011D01*
X125775500Y-112175500D01*
X125775500Y-108004183D01*
X150469500Y-108004183D01*
X150469500Y-108165816D01*
X150501029Y-108324323D01*
X150501031Y-108324331D01*
X150562880Y-108473649D01*
X150562885Y-108473658D01*
X150652675Y-108608037D01*
X150652678Y-108608041D01*
X150766958Y-108722321D01*
X150766962Y-108722324D01*
X150901341Y-108812114D01*
X150901347Y-108812117D01*
X150901348Y-108812118D01*
X151050669Y-108873969D01*
X151209183Y-108905499D01*
X151209187Y-108905500D01*
X151209188Y-108905500D01*
X151370813Y-108905500D01*
X151370814Y-108905499D01*
X151529331Y-108873969D01*
X151678652Y-108812118D01*
X151813038Y-108722324D01*
X151927324Y-108608038D01*
X152017118Y-108473652D01*
X152078969Y-108324331D01*
X152110500Y-108165812D01*
X152110500Y-108004188D01*
X152078969Y-107845669D01*
X152017118Y-107696348D01*
X152017117Y-107696347D01*
X152017114Y-107696341D01*
X151927324Y-107561962D01*
X151927321Y-107561958D01*
X151813041Y-107447678D01*
X151813037Y-107447675D01*
X151678658Y-107357885D01*
X151678649Y-107357880D01*
X151529331Y-107296031D01*
X151529323Y-107296029D01*
X151370816Y-107264500D01*
X151370812Y-107264500D01*
X151209188Y-107264500D01*
X151209183Y-107264500D01*
X151050676Y-107296029D01*
X151050668Y-107296031D01*
X150901350Y-107357880D01*
X150901341Y-107357885D01*
X150766962Y-107447675D01*
X150766958Y-107447678D01*
X150652678Y-107561958D01*
X150652675Y-107561962D01*
X150562885Y-107696341D01*
X150562880Y-107696350D01*
X150501031Y-107845668D01*
X150501029Y-107845676D01*
X150469500Y-108004183D01*
X125775500Y-108004183D01*
X125775500Y-105417110D01*
X147125000Y-105417110D01*
X147125000Y-105672889D01*
X147165013Y-105925523D01*
X147244051Y-106168781D01*
X147244052Y-106168784D01*
X147360175Y-106396686D01*
X147437850Y-106503595D01*
X147437850Y-106503596D01*
X147995884Y-105945561D01*
X147996740Y-105947626D01*
X148089762Y-106086844D01*
X148208156Y-106205238D01*
X148347374Y-106298260D01*
X148349437Y-106299114D01*
X147791402Y-106857148D01*
X147898313Y-106934824D01*
X148126215Y-107050947D01*
X148126218Y-107050948D01*
X148369476Y-107129986D01*
X148622111Y-107170000D01*
X148877889Y-107170000D01*
X149130523Y-107129986D01*
X149373781Y-107050948D01*
X149373784Y-107050947D01*
X149601685Y-106934825D01*
X149708595Y-106857148D01*
X149708596Y-106857148D01*
X149150562Y-106299114D01*
X149152626Y-106298260D01*
X149291844Y-106205238D01*
X149410238Y-106086844D01*
X149503260Y-105947626D01*
X149504114Y-105945562D01*
X150062148Y-106503596D01*
X150062148Y-106503595D01*
X150139825Y-106396685D01*
X150255947Y-106168784D01*
X150255948Y-106168781D01*
X150334986Y-105925523D01*
X150375000Y-105672889D01*
X150375000Y-105417110D01*
X150334986Y-105164476D01*
X150255948Y-104921218D01*
X150255947Y-104921215D01*
X150139824Y-104693313D01*
X150062148Y-104586403D01*
X150062148Y-104586402D01*
X149504114Y-105144436D01*
X149503260Y-105142374D01*
X149410238Y-105003156D01*
X149291844Y-104884762D01*
X149152626Y-104791740D01*
X149150560Y-104790884D01*
X149708596Y-104232850D01*
X149601686Y-104155175D01*
X149373784Y-104039052D01*
X149373781Y-104039051D01*
X149130523Y-103960013D01*
X148877889Y-103920000D01*
X148622111Y-103920000D01*
X148369476Y-103960013D01*
X148126218Y-104039051D01*
X148126215Y-104039052D01*
X147898310Y-104155177D01*
X147791403Y-104232849D01*
X147791402Y-104232850D01*
X148349437Y-104790885D01*
X148347374Y-104791740D01*
X148208156Y-104884762D01*
X148089762Y-105003156D01*
X147996740Y-105142374D01*
X147995885Y-105144437D01*
X147437850Y-104586402D01*
X147437849Y-104586403D01*
X147360177Y-104693310D01*
X147244052Y-104921215D01*
X147244051Y-104921218D01*
X147165013Y-105164476D01*
X147125000Y-105417110D01*
X125775500Y-105417110D01*
X125775500Y-99503856D01*
X147099500Y-99503856D01*
X147099500Y-99596143D01*
X147123387Y-99685290D01*
X147123388Y-99685293D01*
X147169526Y-99765205D01*
X147169529Y-99765209D01*
X147169531Y-99765212D01*
X147234788Y-99830469D01*
X147234791Y-99830470D01*
X147234794Y-99830473D01*
X147314706Y-99876611D01*
X147314707Y-99876611D01*
X147314712Y-99876614D01*
X147403856Y-99900500D01*
X147403858Y-99900500D01*
X147496142Y-99900500D01*
X147496144Y-99900500D01*
X147585288Y-99876614D01*
X147665212Y-99830469D01*
X147730469Y-99765212D01*
X147776614Y-99685288D01*
X147800500Y-99596144D01*
X147800500Y-99503856D01*
X147776614Y-99414712D01*
X147776611Y-99414706D01*
X147730473Y-99334794D01*
X147730470Y-99334791D01*
X147730469Y-99334788D01*
X147665212Y-99269531D01*
X147665209Y-99269529D01*
X147665205Y-99269526D01*
X147585293Y-99223388D01*
X147585290Y-99223387D01*
X147585289Y-99223386D01*
X147585288Y-99223386D01*
X147496144Y-99199500D01*
X147403856Y-99199500D01*
X147314712Y-99223386D01*
X147314711Y-99223386D01*
X147314709Y-99223387D01*
X147314706Y-99223388D01*
X147234794Y-99269526D01*
X147234785Y-99269533D01*
X147169533Y-99334785D01*
X147169526Y-99334794D01*
X147123388Y-99414706D01*
X147123387Y-99414709D01*
X147099500Y-99503856D01*
X125775500Y-99503856D01*
X125775500Y-97963856D01*
X137649500Y-97963856D01*
X137649500Y-98056144D01*
X137672463Y-98141845D01*
X137673387Y-98145290D01*
X137673388Y-98145293D01*
X137719526Y-98225205D01*
X137719529Y-98225209D01*
X137719531Y-98225212D01*
X137784788Y-98290469D01*
X137784791Y-98290470D01*
X137784794Y-98290473D01*
X137864706Y-98336611D01*
X137864707Y-98336611D01*
X137864712Y-98336614D01*
X137953856Y-98360500D01*
X137953858Y-98360500D01*
X138046142Y-98360500D01*
X138046144Y-98360500D01*
X138135288Y-98336614D01*
X138215212Y-98290469D01*
X138280469Y-98225212D01*
X138326614Y-98145288D01*
X138350500Y-98056144D01*
X138350500Y-98028856D01*
X139399500Y-98028856D01*
X139399500Y-98121144D01*
X139418155Y-98190767D01*
X139423387Y-98210290D01*
X139423388Y-98210293D01*
X139469526Y-98290205D01*
X139469529Y-98290209D01*
X139469531Y-98290212D01*
X139534788Y-98355469D01*
X139534791Y-98355470D01*
X139534794Y-98355473D01*
X139614706Y-98401611D01*
X139614707Y-98401611D01*
X139614712Y-98401614D01*
X139703856Y-98425500D01*
X139703858Y-98425500D01*
X139796142Y-98425500D01*
X139796144Y-98425500D01*
X139885288Y-98401614D01*
X139965212Y-98355469D01*
X140030469Y-98290212D01*
X140064662Y-98230989D01*
X142822367Y-98230989D01*
X142822367Y-98323277D01*
X142843357Y-98401614D01*
X142846254Y-98412423D01*
X142846255Y-98412426D01*
X142892393Y-98492338D01*
X142892396Y-98492342D01*
X142892398Y-98492345D01*
X142957655Y-98557602D01*
X142957658Y-98557603D01*
X142957661Y-98557606D01*
X143037573Y-98603744D01*
X143037574Y-98603744D01*
X143037579Y-98603747D01*
X143126723Y-98627633D01*
X143126725Y-98627633D01*
X143219009Y-98627633D01*
X143219011Y-98627633D01*
X143308155Y-98603747D01*
X143388079Y-98557602D01*
X143453336Y-98492345D01*
X143499481Y-98412421D01*
X143523367Y-98323277D01*
X143523367Y-98230989D01*
X143499481Y-98141845D01*
X143499478Y-98141839D01*
X143453340Y-98061927D01*
X143453337Y-98061924D01*
X143453336Y-98061921D01*
X143388079Y-97996664D01*
X143388076Y-97996662D01*
X143388072Y-97996659D01*
X143308160Y-97950521D01*
X143308157Y-97950520D01*
X143308156Y-97950519D01*
X143308155Y-97950519D01*
X143219011Y-97926633D01*
X143126723Y-97926633D01*
X143037579Y-97950519D01*
X143037578Y-97950519D01*
X143037576Y-97950520D01*
X143037573Y-97950521D01*
X142957661Y-97996659D01*
X142957652Y-97996666D01*
X142892400Y-98061918D01*
X142892393Y-98061927D01*
X142846255Y-98141839D01*
X142846254Y-98141842D01*
X142846253Y-98141844D01*
X142846253Y-98141845D01*
X142822367Y-98230989D01*
X140064662Y-98230989D01*
X140076614Y-98210288D01*
X140100500Y-98121144D01*
X140100500Y-98028856D01*
X140076614Y-97939712D01*
X140076611Y-97939706D01*
X140030473Y-97859794D01*
X140030470Y-97859791D01*
X140030469Y-97859788D01*
X139965212Y-97794531D01*
X139965209Y-97794529D01*
X139965205Y-97794526D01*
X139885293Y-97748388D01*
X139885290Y-97748387D01*
X139885289Y-97748386D01*
X139885288Y-97748386D01*
X139796144Y-97724500D01*
X139703856Y-97724500D01*
X139614712Y-97748386D01*
X139614711Y-97748386D01*
X139614709Y-97748387D01*
X139614706Y-97748388D01*
X139534794Y-97794526D01*
X139534785Y-97794533D01*
X139469533Y-97859785D01*
X139469526Y-97859794D01*
X139423388Y-97939706D01*
X139423387Y-97939709D01*
X139423386Y-97939711D01*
X139423386Y-97939712D01*
X139399500Y-98028856D01*
X138350500Y-98028856D01*
X138350500Y-97963856D01*
X138326614Y-97874712D01*
X138326611Y-97874706D01*
X138280473Y-97794794D01*
X138280470Y-97794791D01*
X138280469Y-97794788D01*
X138215212Y-97729531D01*
X138215209Y-97729529D01*
X138215205Y-97729526D01*
X138135293Y-97683388D01*
X138135290Y-97683387D01*
X138135289Y-97683386D01*
X138135288Y-97683386D01*
X138046144Y-97659500D01*
X137953856Y-97659500D01*
X137864712Y-97683386D01*
X137864711Y-97683386D01*
X137864709Y-97683387D01*
X137864706Y-97683388D01*
X137784794Y-97729526D01*
X137784785Y-97729533D01*
X137719533Y-97794785D01*
X137719526Y-97794794D01*
X137673388Y-97874706D01*
X137673387Y-97874709D01*
X137673386Y-97874711D01*
X137673386Y-97874712D01*
X137649500Y-97963856D01*
X125775500Y-97963856D01*
X125775500Y-97543856D01*
X140359500Y-97543856D01*
X140359500Y-97636144D01*
X140372158Y-97683386D01*
X140383387Y-97725290D01*
X140383388Y-97725293D01*
X140429526Y-97805205D01*
X140429529Y-97805209D01*
X140429531Y-97805212D01*
X140494788Y-97870469D01*
X140494791Y-97870470D01*
X140494794Y-97870473D01*
X140574706Y-97916611D01*
X140574707Y-97916611D01*
X140574712Y-97916614D01*
X140663856Y-97940500D01*
X140663858Y-97940500D01*
X140756142Y-97940500D01*
X140756144Y-97940500D01*
X140845288Y-97916614D01*
X140925212Y-97870469D01*
X140990469Y-97805212D01*
X141036614Y-97725288D01*
X141060500Y-97636144D01*
X141060500Y-97543856D01*
X141036614Y-97454712D01*
X140990649Y-97375099D01*
X140990473Y-97374794D01*
X140990470Y-97374791D01*
X140990469Y-97374788D01*
X140925212Y-97309531D01*
X140907075Y-97299059D01*
X140875840Y-97281025D01*
X140875839Y-97281025D01*
X140845288Y-97263386D01*
X140756144Y-97239500D01*
X140663856Y-97239500D01*
X140574712Y-97263386D01*
X140574711Y-97263386D01*
X140574709Y-97263387D01*
X140574706Y-97263388D01*
X140494794Y-97309526D01*
X140494785Y-97309533D01*
X140429533Y-97374785D01*
X140429526Y-97374794D01*
X140383388Y-97454706D01*
X140383387Y-97454709D01*
X140383386Y-97454711D01*
X140383386Y-97454712D01*
X140359500Y-97543856D01*
X125775500Y-97543856D01*
X125775500Y-95878856D01*
X134149500Y-95878856D01*
X134149500Y-95971144D01*
X134167584Y-96038635D01*
X134173387Y-96060290D01*
X134173388Y-96060293D01*
X134219526Y-96140205D01*
X134219529Y-96140209D01*
X134219531Y-96140212D01*
X134284788Y-96205469D01*
X134284791Y-96205470D01*
X134284794Y-96205473D01*
X134364706Y-96251611D01*
X134364707Y-96251611D01*
X134364712Y-96251614D01*
X134453856Y-96275500D01*
X134453858Y-96275500D01*
X134546142Y-96275500D01*
X134546144Y-96275500D01*
X134635288Y-96251614D01*
X134715212Y-96205469D01*
X134780469Y-96140212D01*
X134815894Y-96078856D01*
X138824500Y-96078856D01*
X138824500Y-96171144D01*
X138846663Y-96253858D01*
X138848387Y-96260290D01*
X138848388Y-96260293D01*
X138894526Y-96340205D01*
X138894529Y-96340209D01*
X138894531Y-96340212D01*
X138959788Y-96405469D01*
X138959791Y-96405470D01*
X138959794Y-96405473D01*
X139039706Y-96451611D01*
X139039707Y-96451611D01*
X139039712Y-96451614D01*
X139128856Y-96475500D01*
X139128858Y-96475500D01*
X139221142Y-96475500D01*
X139221144Y-96475500D01*
X139310288Y-96451614D01*
X139390212Y-96405469D01*
X139455469Y-96340212D01*
X139501614Y-96260288D01*
X139503337Y-96253856D01*
X140374500Y-96253856D01*
X140374500Y-96346144D01*
X140390397Y-96405473D01*
X140398387Y-96435290D01*
X140398388Y-96435293D01*
X140444526Y-96515205D01*
X140444529Y-96515209D01*
X140444531Y-96515212D01*
X140509788Y-96580469D01*
X140509791Y-96580470D01*
X140509794Y-96580473D01*
X140589706Y-96626611D01*
X140589707Y-96626611D01*
X140589712Y-96626614D01*
X140678856Y-96650500D01*
X140678858Y-96650500D01*
X140771142Y-96650500D01*
X140771144Y-96650500D01*
X140860288Y-96626614D01*
X140940212Y-96580469D01*
X141005469Y-96515212D01*
X141051614Y-96435288D01*
X141075500Y-96346144D01*
X141075500Y-96253856D01*
X141051614Y-96164712D01*
X141051613Y-96164711D01*
X141051613Y-96164709D01*
X141034952Y-96135853D01*
X141034951Y-96135852D01*
X141005469Y-96084788D01*
X140997836Y-96077155D01*
X151950000Y-96077155D01*
X151950000Y-96725000D01*
X152866988Y-96725000D01*
X152834075Y-96782007D01*
X152800000Y-96909174D01*
X152800000Y-97040826D01*
X152834075Y-97167993D01*
X152866988Y-97225000D01*
X151950000Y-97225000D01*
X151950000Y-97872844D01*
X151956401Y-97932372D01*
X151956403Y-97932379D01*
X152006645Y-98067086D01*
X152006649Y-98067093D01*
X152092809Y-98182187D01*
X152092812Y-98182190D01*
X152207906Y-98268350D01*
X152207913Y-98268354D01*
X152342620Y-98318596D01*
X152342627Y-98318598D01*
X152402155Y-98324999D01*
X152402172Y-98325000D01*
X153151438Y-98325000D01*
X153218477Y-98344685D01*
X153264232Y-98397489D01*
X153274176Y-98466647D01*
X153245151Y-98530203D01*
X153186373Y-98567977D01*
X153175629Y-98570617D01*
X153022756Y-98601025D01*
X153022748Y-98601027D01*
X152849771Y-98672676D01*
X152849762Y-98672681D01*
X152694092Y-98776697D01*
X152694088Y-98776700D01*
X152561700Y-98909088D01*
X152561697Y-98909092D01*
X152457681Y-99064762D01*
X152457676Y-99064771D01*
X152386027Y-99237748D01*
X152386025Y-99237756D01*
X152349500Y-99421379D01*
X152349500Y-99608620D01*
X152386025Y-99792243D01*
X152386027Y-99792251D01*
X152457676Y-99965228D01*
X152457681Y-99965237D01*
X152561697Y-100120907D01*
X152561700Y-100120911D01*
X152694088Y-100253299D01*
X152694092Y-100253302D01*
X152849762Y-100357318D01*
X152849768Y-100357321D01*
X152849769Y-100357322D01*
X153022749Y-100428973D01*
X153206379Y-100465499D01*
X153206383Y-100465500D01*
X153206384Y-100465500D01*
X153393617Y-100465500D01*
X153393618Y-100465499D01*
X153577251Y-100428973D01*
X153750231Y-100357322D01*
X153905908Y-100253302D01*
X154038302Y-100120908D01*
X154142322Y-99965231D01*
X154213973Y-99792251D01*
X154250500Y-99608616D01*
X154250500Y-99421384D01*
X154213973Y-99237749D01*
X154142322Y-99064769D01*
X154142321Y-99064768D01*
X154142318Y-99064762D01*
X154038302Y-98909092D01*
X154038299Y-98909088D01*
X153905911Y-98776700D01*
X153905907Y-98776697D01*
X153750237Y-98672681D01*
X153750228Y-98672676D01*
X153577251Y-98601027D01*
X153577243Y-98601025D01*
X153424371Y-98570617D01*
X153362460Y-98538232D01*
X153327886Y-98477517D01*
X153331625Y-98407747D01*
X153372491Y-98351075D01*
X153437510Y-98325494D01*
X153448562Y-98325000D01*
X154197828Y-98325000D01*
X154197844Y-98324999D01*
X154257372Y-98318598D01*
X154257379Y-98318596D01*
X154392086Y-98268354D01*
X154392093Y-98268350D01*
X154507187Y-98182190D01*
X154507190Y-98182187D01*
X154593350Y-98067093D01*
X154593354Y-98067086D01*
X154643596Y-97932379D01*
X154643598Y-97932372D01*
X154649999Y-97872844D01*
X154650000Y-97872827D01*
X154650000Y-97225000D01*
X153733012Y-97225000D01*
X153765925Y-97167993D01*
X153800000Y-97040826D01*
X153800000Y-96909174D01*
X153765925Y-96782007D01*
X153733012Y-96725000D01*
X154650000Y-96725000D01*
X154650000Y-96077172D01*
X154649999Y-96077155D01*
X154643598Y-96017627D01*
X154643596Y-96017620D01*
X154593354Y-95882913D01*
X154593350Y-95882906D01*
X154507190Y-95767812D01*
X154507187Y-95767809D01*
X154392093Y-95681649D01*
X154392086Y-95681645D01*
X154257379Y-95631403D01*
X154257372Y-95631401D01*
X154197844Y-95625000D01*
X153550000Y-95625000D01*
X153550000Y-96541988D01*
X153492993Y-96509075D01*
X153365826Y-96475000D01*
X153234174Y-96475000D01*
X153107007Y-96509075D01*
X153050000Y-96541988D01*
X153050000Y-95625000D01*
X152402155Y-95625000D01*
X152342627Y-95631401D01*
X152342620Y-95631403D01*
X152207913Y-95681645D01*
X152207906Y-95681649D01*
X152092812Y-95767809D01*
X152092809Y-95767812D01*
X152006649Y-95882906D01*
X152006645Y-95882913D01*
X151956403Y-96017620D01*
X151956401Y-96017627D01*
X151950000Y-96077155D01*
X140997836Y-96077155D01*
X140940212Y-96019531D01*
X140940209Y-96019529D01*
X140940205Y-96019526D01*
X140860293Y-95973388D01*
X140860290Y-95973387D01*
X140860289Y-95973386D01*
X140860288Y-95973386D01*
X140771144Y-95949500D01*
X140678856Y-95949500D01*
X140589712Y-95973386D01*
X140589711Y-95973386D01*
X140589709Y-95973387D01*
X140589706Y-95973388D01*
X140509794Y-96019526D01*
X140509785Y-96019533D01*
X140444533Y-96084785D01*
X140444526Y-96084794D01*
X140398388Y-96164706D01*
X140398387Y-96164709D01*
X140398386Y-96164711D01*
X140398386Y-96164712D01*
X140374500Y-96253856D01*
X139503337Y-96253856D01*
X139525500Y-96171144D01*
X139525500Y-96078856D01*
X139501614Y-95989712D01*
X139501611Y-95989706D01*
X139455473Y-95909794D01*
X139455470Y-95909791D01*
X139455469Y-95909788D01*
X139390212Y-95844531D01*
X139390209Y-95844529D01*
X139390205Y-95844526D01*
X139310293Y-95798388D01*
X139310290Y-95798387D01*
X139310289Y-95798386D01*
X139310288Y-95798386D01*
X139221144Y-95774500D01*
X139128856Y-95774500D01*
X139039712Y-95798386D01*
X139039711Y-95798386D01*
X139039709Y-95798387D01*
X139039706Y-95798388D01*
X138959794Y-95844526D01*
X138959785Y-95844533D01*
X138894533Y-95909785D01*
X138894526Y-95909794D01*
X138848388Y-95989706D01*
X138848387Y-95989709D01*
X138848386Y-95989711D01*
X138848386Y-95989712D01*
X138824500Y-96078856D01*
X134815894Y-96078856D01*
X134826614Y-96060288D01*
X134850500Y-95971144D01*
X134850500Y-95878856D01*
X134826614Y-95789712D01*
X134821280Y-95780473D01*
X134780473Y-95709794D01*
X134780470Y-95709791D01*
X134780469Y-95709788D01*
X134715212Y-95644531D01*
X134715209Y-95644529D01*
X134715205Y-95644526D01*
X134635293Y-95598388D01*
X134635290Y-95598387D01*
X134635289Y-95598386D01*
X134635288Y-95598386D01*
X134546144Y-95574500D01*
X134453856Y-95574500D01*
X134364712Y-95598386D01*
X134364711Y-95598386D01*
X134364709Y-95598387D01*
X134364706Y-95598388D01*
X134284794Y-95644526D01*
X134284785Y-95644533D01*
X134219533Y-95709785D01*
X134219526Y-95709794D01*
X134173388Y-95789706D01*
X134173387Y-95789709D01*
X134173386Y-95789711D01*
X134173386Y-95789712D01*
X134149500Y-95878856D01*
X125775500Y-95878856D01*
X125775500Y-95453856D01*
X130349500Y-95453856D01*
X130349500Y-95546144D01*
X130372344Y-95631401D01*
X130373387Y-95635290D01*
X130373388Y-95635293D01*
X130419526Y-95715205D01*
X130419529Y-95715209D01*
X130419531Y-95715212D01*
X130484788Y-95780469D01*
X130484791Y-95780470D01*
X130484794Y-95780473D01*
X130564706Y-95826611D01*
X130564707Y-95826611D01*
X130564712Y-95826614D01*
X130653856Y-95850500D01*
X130653858Y-95850500D01*
X130746142Y-95850500D01*
X130746144Y-95850500D01*
X130835288Y-95826614D01*
X130915212Y-95780469D01*
X130980469Y-95715212D01*
X131026614Y-95635288D01*
X131050500Y-95546144D01*
X131050500Y-95453856D01*
X131026614Y-95364712D01*
X131026611Y-95364706D01*
X130980473Y-95284794D01*
X130980470Y-95284791D01*
X130980469Y-95284788D01*
X130915212Y-95219531D01*
X130915209Y-95219529D01*
X130915205Y-95219526D01*
X130835293Y-95173388D01*
X130835290Y-95173387D01*
X130835289Y-95173386D01*
X130835288Y-95173386D01*
X130746144Y-95149500D01*
X130653856Y-95149500D01*
X130564712Y-95173386D01*
X130564711Y-95173386D01*
X130564709Y-95173387D01*
X130564706Y-95173388D01*
X130484794Y-95219526D01*
X130484785Y-95219533D01*
X130419533Y-95284785D01*
X130419526Y-95284794D01*
X130373388Y-95364706D01*
X130373387Y-95364709D01*
X130373386Y-95364711D01*
X130373386Y-95364712D01*
X130349500Y-95453856D01*
X125775500Y-95453856D01*
X125775500Y-94735106D01*
X131930750Y-94735106D01*
X131930750Y-94827393D01*
X131954637Y-94916540D01*
X131954638Y-94916543D01*
X132000776Y-94996455D01*
X132000779Y-94996459D01*
X132000781Y-94996462D01*
X132066038Y-95061719D01*
X132066041Y-95061720D01*
X132066044Y-95061723D01*
X132145956Y-95107861D01*
X132145957Y-95107861D01*
X132145962Y-95107864D01*
X132235106Y-95131750D01*
X132235108Y-95131750D01*
X132327392Y-95131750D01*
X132327394Y-95131750D01*
X132416538Y-95107864D01*
X132496462Y-95061719D01*
X132561719Y-94996462D01*
X132607864Y-94916538D01*
X132631750Y-94827394D01*
X132631750Y-94735106D01*
X132607864Y-94645962D01*
X132607861Y-94645956D01*
X132561723Y-94566044D01*
X132561720Y-94566041D01*
X132561719Y-94566038D01*
X132496462Y-94500781D01*
X132496459Y-94500779D01*
X132496455Y-94500776D01*
X132416543Y-94454638D01*
X132416540Y-94454637D01*
X132416539Y-94454636D01*
X132416538Y-94454636D01*
X132327394Y-94430750D01*
X132235106Y-94430750D01*
X132145962Y-94454636D01*
X132145961Y-94454636D01*
X132145959Y-94454637D01*
X132145956Y-94454638D01*
X132066044Y-94500776D01*
X132066035Y-94500783D01*
X132000783Y-94566035D01*
X132000776Y-94566044D01*
X131954638Y-94645956D01*
X131954637Y-94645959D01*
X131930750Y-94735106D01*
X125775500Y-94735106D01*
X125775500Y-93703856D01*
X131349500Y-93703856D01*
X131349500Y-93796144D01*
X131367871Y-93864706D01*
X131373387Y-93885290D01*
X131373388Y-93885293D01*
X131419526Y-93965205D01*
X131419529Y-93965209D01*
X131419531Y-93965212D01*
X131484788Y-94030469D01*
X131484791Y-94030470D01*
X131484794Y-94030473D01*
X131564706Y-94076611D01*
X131564707Y-94076611D01*
X131564712Y-94076614D01*
X131653856Y-94100500D01*
X131653858Y-94100500D01*
X131746142Y-94100500D01*
X131746144Y-94100500D01*
X131835288Y-94076614D01*
X131915212Y-94030469D01*
X131941825Y-94003856D01*
X134149500Y-94003856D01*
X134149500Y-94096143D01*
X134173387Y-94185290D01*
X134173388Y-94185293D01*
X134219526Y-94265205D01*
X134219529Y-94265209D01*
X134219531Y-94265212D01*
X134284788Y-94330469D01*
X134284791Y-94330470D01*
X134284794Y-94330473D01*
X134364706Y-94376611D01*
X134364707Y-94376611D01*
X134364712Y-94376614D01*
X134453856Y-94400500D01*
X134453858Y-94400500D01*
X134546142Y-94400500D01*
X134546144Y-94400500D01*
X134635288Y-94376614D01*
X134715212Y-94330469D01*
X134780469Y-94265212D01*
X134826614Y-94185288D01*
X134850500Y-94096144D01*
X134850500Y-94003856D01*
X134837103Y-93953856D01*
X136674500Y-93953856D01*
X136674500Y-94046144D01*
X136689064Y-94100499D01*
X136698387Y-94135290D01*
X136698388Y-94135293D01*
X136744526Y-94215205D01*
X136744529Y-94215209D01*
X136744531Y-94215212D01*
X136809788Y-94280469D01*
X136809791Y-94280470D01*
X136809794Y-94280473D01*
X136889706Y-94326611D01*
X136889707Y-94326611D01*
X136889712Y-94326614D01*
X136978856Y-94350500D01*
X136978858Y-94350500D01*
X137071142Y-94350500D01*
X137071144Y-94350500D01*
X137160288Y-94326614D01*
X137240212Y-94280469D01*
X137305469Y-94215212D01*
X137351614Y-94135288D01*
X137375500Y-94046144D01*
X137375500Y-93953856D01*
X137351614Y-93864712D01*
X137351611Y-93864706D01*
X137305473Y-93784794D01*
X137305470Y-93784791D01*
X137305469Y-93784788D01*
X137240212Y-93719531D01*
X137240209Y-93719529D01*
X137240205Y-93719526D01*
X137160293Y-93673388D01*
X137160290Y-93673387D01*
X137160289Y-93673386D01*
X137160288Y-93673386D01*
X137071144Y-93649500D01*
X136978856Y-93649500D01*
X136889712Y-93673386D01*
X136889711Y-93673386D01*
X136889709Y-93673387D01*
X136889706Y-93673388D01*
X136809794Y-93719526D01*
X136809785Y-93719533D01*
X136744533Y-93784785D01*
X136744526Y-93784794D01*
X136698388Y-93864706D01*
X136698387Y-93864709D01*
X136698386Y-93864711D01*
X136698386Y-93864712D01*
X136674500Y-93953856D01*
X134837103Y-93953856D01*
X134826614Y-93914712D01*
X134826612Y-93914709D01*
X134826612Y-93914707D01*
X134826611Y-93914706D01*
X134780473Y-93834794D01*
X134780470Y-93834791D01*
X134780469Y-93834788D01*
X134715212Y-93769531D01*
X134715209Y-93769529D01*
X134715205Y-93769526D01*
X134635293Y-93723388D01*
X134635290Y-93723387D01*
X134635289Y-93723386D01*
X134635288Y-93723386D01*
X134546144Y-93699500D01*
X134453856Y-93699500D01*
X134364712Y-93723386D01*
X134364711Y-93723386D01*
X134364709Y-93723387D01*
X134364706Y-93723388D01*
X134284794Y-93769526D01*
X134284785Y-93769533D01*
X134219533Y-93834785D01*
X134219526Y-93834794D01*
X134173388Y-93914706D01*
X134173387Y-93914709D01*
X134173386Y-93914711D01*
X134173386Y-93914712D01*
X134159855Y-93965211D01*
X134149500Y-94003856D01*
X131941825Y-94003856D01*
X131980469Y-93965212D01*
X132026614Y-93885288D01*
X132050500Y-93796144D01*
X132050500Y-93703856D01*
X132026614Y-93614712D01*
X132026611Y-93614706D01*
X131980473Y-93534794D01*
X131980470Y-93534791D01*
X131980469Y-93534788D01*
X131915212Y-93469531D01*
X131915209Y-93469529D01*
X131915205Y-93469526D01*
X131905384Y-93463856D01*
X138869500Y-93463856D01*
X138869500Y-93556144D01*
X138885193Y-93614712D01*
X138893387Y-93645290D01*
X138893388Y-93645293D01*
X138939526Y-93725205D01*
X138939529Y-93725209D01*
X138939531Y-93725212D01*
X139004788Y-93790469D01*
X139004791Y-93790470D01*
X139004794Y-93790473D01*
X139084706Y-93836611D01*
X139084707Y-93836611D01*
X139084712Y-93836614D01*
X139173856Y-93860500D01*
X139173858Y-93860500D01*
X139266142Y-93860500D01*
X139266144Y-93860500D01*
X139355288Y-93836614D01*
X139435212Y-93790469D01*
X139500469Y-93725212D01*
X139541667Y-93653856D01*
X140199500Y-93653856D01*
X140199500Y-93746144D01*
X140223251Y-93834785D01*
X140223387Y-93835290D01*
X140223388Y-93835293D01*
X140269526Y-93915205D01*
X140269529Y-93915209D01*
X140269531Y-93915212D01*
X140334788Y-93980469D01*
X140334791Y-93980470D01*
X140334794Y-93980473D01*
X140414706Y-94026611D01*
X140414707Y-94026611D01*
X140414712Y-94026614D01*
X140503856Y-94050500D01*
X140503858Y-94050500D01*
X140596142Y-94050500D01*
X140596144Y-94050500D01*
X140685288Y-94026614D01*
X140765212Y-93980469D01*
X140830469Y-93915212D01*
X140876614Y-93835288D01*
X140900500Y-93746144D01*
X140900500Y-93653856D01*
X140876614Y-93564712D01*
X140876611Y-93564706D01*
X140826406Y-93477750D01*
X140828892Y-93476314D01*
X140808702Y-93424074D01*
X140822747Y-93355631D01*
X140844590Y-93326090D01*
X140880469Y-93290212D01*
X140926614Y-93210288D01*
X140950500Y-93121144D01*
X140950500Y-93028856D01*
X140926614Y-92939712D01*
X140926611Y-92939706D01*
X140880473Y-92859794D01*
X140880470Y-92859791D01*
X140880469Y-92859788D01*
X140815212Y-92794531D01*
X140815209Y-92794529D01*
X140815205Y-92794526D01*
X140735293Y-92748388D01*
X140735290Y-92748387D01*
X140735289Y-92748386D01*
X140735288Y-92748386D01*
X140646144Y-92724500D01*
X140553856Y-92724500D01*
X140464712Y-92748386D01*
X140464711Y-92748386D01*
X140464709Y-92748387D01*
X140464706Y-92748388D01*
X140384794Y-92794526D01*
X140384785Y-92794533D01*
X140319533Y-92859785D01*
X140319526Y-92859794D01*
X140273388Y-92939706D01*
X140273387Y-92939709D01*
X140273386Y-92939711D01*
X140273386Y-92939712D01*
X140249500Y-93028856D01*
X140249500Y-93121144D01*
X140266178Y-93183388D01*
X140273387Y-93210290D01*
X140273388Y-93210293D01*
X140323594Y-93297250D01*
X140321109Y-93298684D01*
X140341298Y-93350934D01*
X140327248Y-93419376D01*
X140305408Y-93448910D01*
X140269534Y-93484784D01*
X140269526Y-93484794D01*
X140223388Y-93564706D01*
X140223387Y-93564709D01*
X140223386Y-93564711D01*
X140223386Y-93564712D01*
X140199500Y-93653856D01*
X139541667Y-93653856D01*
X139546614Y-93645288D01*
X139570500Y-93556144D01*
X139570500Y-93463856D01*
X139546614Y-93374712D01*
X139546611Y-93374706D01*
X139500473Y-93294794D01*
X139500470Y-93294791D01*
X139500469Y-93294788D01*
X139435212Y-93229531D01*
X139435209Y-93229529D01*
X139435205Y-93229526D01*
X139355293Y-93183388D01*
X139355290Y-93183387D01*
X139355289Y-93183386D01*
X139355288Y-93183386D01*
X139266144Y-93159500D01*
X139173856Y-93159500D01*
X139084712Y-93183386D01*
X139084711Y-93183386D01*
X139084709Y-93183387D01*
X139084706Y-93183388D01*
X139004794Y-93229526D01*
X139004785Y-93229533D01*
X138939533Y-93294785D01*
X138939526Y-93294794D01*
X138893388Y-93374706D01*
X138893387Y-93374709D01*
X138893386Y-93374711D01*
X138893386Y-93374712D01*
X138869500Y-93463856D01*
X131905384Y-93463856D01*
X131835293Y-93423388D01*
X131835290Y-93423387D01*
X131835289Y-93423386D01*
X131835288Y-93423386D01*
X131746144Y-93399500D01*
X131653856Y-93399500D01*
X131564712Y-93423386D01*
X131564711Y-93423386D01*
X131564709Y-93423387D01*
X131564706Y-93423388D01*
X131484794Y-93469526D01*
X131484785Y-93469533D01*
X131419533Y-93534785D01*
X131419526Y-93534794D01*
X131373388Y-93614706D01*
X131373387Y-93614709D01*
X131373386Y-93614711D01*
X131373386Y-93614712D01*
X131349500Y-93703856D01*
X125775500Y-93703856D01*
X125775500Y-93045464D01*
X137849500Y-93045464D01*
X137849500Y-93137752D01*
X137868937Y-93210293D01*
X137873387Y-93226898D01*
X137873388Y-93226901D01*
X137919526Y-93306813D01*
X137919529Y-93306817D01*
X137919531Y-93306820D01*
X137984788Y-93372077D01*
X137984791Y-93372078D01*
X137984794Y-93372081D01*
X138064706Y-93418219D01*
X138064707Y-93418219D01*
X138064712Y-93418222D01*
X138153856Y-93442108D01*
X138153858Y-93442108D01*
X138246142Y-93442108D01*
X138246144Y-93442108D01*
X138335288Y-93418222D01*
X138415212Y-93372077D01*
X138480469Y-93306820D01*
X138526614Y-93226896D01*
X138550500Y-93137752D01*
X138550500Y-93045464D01*
X138526614Y-92956320D01*
X138526611Y-92956314D01*
X138480473Y-92876402D01*
X138480470Y-92876399D01*
X138480469Y-92876396D01*
X138415212Y-92811139D01*
X138415209Y-92811137D01*
X138415205Y-92811134D01*
X138335293Y-92764996D01*
X138335290Y-92764995D01*
X138335289Y-92764994D01*
X138335288Y-92764994D01*
X138246144Y-92741108D01*
X138153856Y-92741108D01*
X138064712Y-92764994D01*
X138064711Y-92764994D01*
X138064709Y-92764995D01*
X138064706Y-92764996D01*
X137984794Y-92811134D01*
X137984785Y-92811141D01*
X137919533Y-92876393D01*
X137919526Y-92876402D01*
X137873388Y-92956314D01*
X137873387Y-92956317D01*
X137873386Y-92956319D01*
X137873386Y-92956320D01*
X137849500Y-93045464D01*
X125775500Y-93045464D01*
X125775500Y-90403856D01*
X137599500Y-90403856D01*
X137599500Y-90496143D01*
X137623387Y-90585290D01*
X137623388Y-90585293D01*
X137669526Y-90665205D01*
X137669529Y-90665209D01*
X137669531Y-90665212D01*
X137734788Y-90730469D01*
X137734791Y-90730470D01*
X137734794Y-90730473D01*
X137814706Y-90776611D01*
X137814707Y-90776611D01*
X137814712Y-90776614D01*
X137903856Y-90800500D01*
X137903858Y-90800500D01*
X137996142Y-90800500D01*
X137996144Y-90800500D01*
X138085288Y-90776614D01*
X138165212Y-90730469D01*
X138230469Y-90665212D01*
X138276614Y-90585288D01*
X138300500Y-90496144D01*
X138300500Y-90403856D01*
X138276614Y-90314712D01*
X138276611Y-90314706D01*
X138230473Y-90234794D01*
X138230470Y-90234791D01*
X138230469Y-90234788D01*
X138165212Y-90169531D01*
X138165209Y-90169529D01*
X138165205Y-90169526D01*
X138085293Y-90123388D01*
X138085290Y-90123387D01*
X138085289Y-90123386D01*
X138085288Y-90123386D01*
X137996144Y-90099500D01*
X137903856Y-90099500D01*
X137814712Y-90123386D01*
X137814711Y-90123386D01*
X137814709Y-90123387D01*
X137814706Y-90123388D01*
X137734794Y-90169526D01*
X137734785Y-90169533D01*
X137669533Y-90234785D01*
X137669526Y-90234794D01*
X137623388Y-90314706D01*
X137623387Y-90314709D01*
X137599500Y-90403856D01*
X125775500Y-90403856D01*
X125775500Y-87706379D01*
X146094500Y-87706379D01*
X146094500Y-87893620D01*
X146131025Y-88077243D01*
X146131027Y-88077251D01*
X146202676Y-88250228D01*
X146202681Y-88250237D01*
X146306697Y-88405907D01*
X146306700Y-88405911D01*
X146439088Y-88538299D01*
X146439092Y-88538302D01*
X146594762Y-88642318D01*
X146594768Y-88642321D01*
X146594769Y-88642322D01*
X146767749Y-88713973D01*
X146951374Y-88750498D01*
X146951379Y-88750499D01*
X146951383Y-88750500D01*
X146951384Y-88750500D01*
X147138617Y-88750500D01*
X147138618Y-88750499D01*
X147322251Y-88713973D01*
X147495231Y-88642322D01*
X147650908Y-88538302D01*
X147783302Y-88405908D01*
X147887322Y-88250231D01*
X147958973Y-88077251D01*
X147995500Y-87893616D01*
X147995500Y-87706384D01*
X147995499Y-87706379D01*
X148634500Y-87706379D01*
X148634500Y-87893620D01*
X148671025Y-88077243D01*
X148671027Y-88077251D01*
X148742676Y-88250228D01*
X148742681Y-88250237D01*
X148846697Y-88405907D01*
X148846700Y-88405911D01*
X148979088Y-88538299D01*
X148979092Y-88538302D01*
X149134762Y-88642318D01*
X149134768Y-88642321D01*
X149134769Y-88642322D01*
X149307749Y-88713973D01*
X149491374Y-88750498D01*
X149491379Y-88750499D01*
X149491383Y-88750500D01*
X149491384Y-88750500D01*
X149678617Y-88750500D01*
X149678618Y-88750499D01*
X149862251Y-88713973D01*
X150035231Y-88642322D01*
X150190908Y-88538302D01*
X150323302Y-88405908D01*
X150427322Y-88250231D01*
X150498973Y-88077251D01*
X150535500Y-87893616D01*
X150535500Y-87706384D01*
X150498973Y-87522749D01*
X150427322Y-87349769D01*
X150427321Y-87349768D01*
X150427318Y-87349762D01*
X150323302Y-87194092D01*
X150323299Y-87194088D01*
X150190911Y-87061700D01*
X150190907Y-87061697D01*
X150154112Y-87037111D01*
X150035237Y-86957681D01*
X150035228Y-86957676D01*
X149992791Y-86940098D01*
X151174500Y-86940098D01*
X151174500Y-88659894D01*
X151174501Y-88659902D01*
X151180330Y-88689212D01*
X151202542Y-88722457D01*
X151219219Y-88733599D01*
X151235787Y-88744669D01*
X151235790Y-88744669D01*
X151235791Y-88744670D01*
X151245647Y-88746630D01*
X151265101Y-88750500D01*
X152984898Y-88750499D01*
X153014213Y-88744669D01*
X153047457Y-88722457D01*
X153069669Y-88689213D01*
X153075500Y-88659899D01*
X153075499Y-86940102D01*
X153069669Y-86910787D01*
X153053126Y-86886027D01*
X153047457Y-86877542D01*
X153014214Y-86855332D01*
X153014215Y-86855332D01*
X153014213Y-86855331D01*
X153014211Y-86855330D01*
X153014208Y-86855329D01*
X152984901Y-86849500D01*
X151265105Y-86849500D01*
X151265097Y-86849501D01*
X151235787Y-86855330D01*
X151202542Y-86877542D01*
X151180332Y-86910785D01*
X151180329Y-86910791D01*
X151174500Y-86940098D01*
X149992791Y-86940098D01*
X149862251Y-86886027D01*
X149862243Y-86886025D01*
X149678620Y-86849500D01*
X149678616Y-86849500D01*
X149491384Y-86849500D01*
X149491379Y-86849500D01*
X149307756Y-86886025D01*
X149307748Y-86886027D01*
X149134771Y-86957676D01*
X149134762Y-86957681D01*
X148979092Y-87061697D01*
X148979088Y-87061700D01*
X148846700Y-87194088D01*
X148846697Y-87194092D01*
X148742681Y-87349762D01*
X148742676Y-87349771D01*
X148671027Y-87522748D01*
X148671025Y-87522756D01*
X148634500Y-87706379D01*
X147995499Y-87706379D01*
X147958973Y-87522749D01*
X147887322Y-87349769D01*
X147887321Y-87349768D01*
X147887318Y-87349762D01*
X147783302Y-87194092D01*
X147783299Y-87194088D01*
X147650911Y-87061700D01*
X147650907Y-87061697D01*
X147495237Y-86957681D01*
X147495228Y-86957676D01*
X147322251Y-86886027D01*
X147322243Y-86886025D01*
X147138620Y-86849500D01*
X147138616Y-86849500D01*
X146951384Y-86849500D01*
X146951379Y-86849500D01*
X146767756Y-86886025D01*
X146767748Y-86886027D01*
X146594771Y-86957676D01*
X146594762Y-86957681D01*
X146439092Y-87061697D01*
X146439088Y-87061700D01*
X146306700Y-87194088D01*
X146306697Y-87194092D01*
X146202681Y-87349762D01*
X146202676Y-87349771D01*
X146131027Y-87522748D01*
X146131025Y-87522756D01*
X146094500Y-87706379D01*
X125775500Y-87706379D01*
X125775500Y-84006379D01*
X135879500Y-84006379D01*
X135879500Y-84193620D01*
X135916025Y-84377243D01*
X135916027Y-84377251D01*
X135987676Y-84550228D01*
X135987681Y-84550237D01*
X136091697Y-84705907D01*
X136091700Y-84705911D01*
X136224088Y-84838299D01*
X136224092Y-84838302D01*
X136379762Y-84942318D01*
X136379768Y-84942321D01*
X136379769Y-84942322D01*
X136552749Y-85013973D01*
X136736374Y-85050498D01*
X136736379Y-85050499D01*
X136736383Y-85050500D01*
X136736384Y-85050500D01*
X136923617Y-85050500D01*
X136923618Y-85050499D01*
X137107251Y-85013973D01*
X137280231Y-84942322D01*
X137435908Y-84838302D01*
X137568302Y-84705908D01*
X137672322Y-84550231D01*
X137743973Y-84377251D01*
X137780500Y-84193616D01*
X137780500Y-84006384D01*
X137780499Y-84006379D01*
X138419500Y-84006379D01*
X138419500Y-84193620D01*
X138456025Y-84377243D01*
X138456027Y-84377251D01*
X138527676Y-84550228D01*
X138527681Y-84550237D01*
X138631697Y-84705907D01*
X138631700Y-84705911D01*
X138764088Y-84838299D01*
X138764092Y-84838302D01*
X138919762Y-84942318D01*
X138919768Y-84942321D01*
X138919769Y-84942322D01*
X139092749Y-85013973D01*
X139276374Y-85050498D01*
X139276379Y-85050499D01*
X139276383Y-85050500D01*
X139276384Y-85050500D01*
X139463617Y-85050500D01*
X139463618Y-85050499D01*
X139647251Y-85013973D01*
X139820231Y-84942322D01*
X139975908Y-84838302D01*
X140108302Y-84705908D01*
X140212322Y-84550231D01*
X140283973Y-84377251D01*
X140320500Y-84193616D01*
X140320500Y-84006384D01*
X140320499Y-84006379D01*
X140959500Y-84006379D01*
X140959500Y-84193620D01*
X140996025Y-84377243D01*
X140996027Y-84377251D01*
X141067676Y-84550228D01*
X141067681Y-84550237D01*
X141171697Y-84705907D01*
X141171700Y-84705911D01*
X141304088Y-84838299D01*
X141304092Y-84838302D01*
X141459762Y-84942318D01*
X141459768Y-84942321D01*
X141459769Y-84942322D01*
X141632749Y-85013973D01*
X141816374Y-85050498D01*
X141816379Y-85050499D01*
X141816383Y-85050500D01*
X141816384Y-85050500D01*
X142003617Y-85050500D01*
X142003618Y-85050499D01*
X142187251Y-85013973D01*
X142360231Y-84942322D01*
X142515908Y-84838302D01*
X142648302Y-84705908D01*
X142752322Y-84550231D01*
X142823973Y-84377251D01*
X142860500Y-84193616D01*
X142860500Y-84006384D01*
X142823973Y-83822749D01*
X142752322Y-83649769D01*
X142752321Y-83649768D01*
X142752318Y-83649762D01*
X142648302Y-83494092D01*
X142648299Y-83494088D01*
X142515911Y-83361700D01*
X142515907Y-83361697D01*
X142479112Y-83337111D01*
X142360237Y-83257681D01*
X142360228Y-83257676D01*
X142317791Y-83240098D01*
X143499500Y-83240098D01*
X143499500Y-84959894D01*
X143499501Y-84959902D01*
X143505330Y-84989212D01*
X143527542Y-85022457D01*
X143544219Y-85033599D01*
X143560787Y-85044669D01*
X143560790Y-85044669D01*
X143560791Y-85044670D01*
X143570647Y-85046630D01*
X143590101Y-85050500D01*
X145309898Y-85050499D01*
X145339213Y-85044669D01*
X145372457Y-85022457D01*
X145394669Y-84989213D01*
X145400500Y-84959899D01*
X145400499Y-83240102D01*
X145394669Y-83210787D01*
X145378126Y-83186027D01*
X145372457Y-83177542D01*
X145339214Y-83155332D01*
X145339215Y-83155332D01*
X145339213Y-83155331D01*
X145339211Y-83155330D01*
X145339208Y-83155329D01*
X145309901Y-83149500D01*
X143590105Y-83149500D01*
X143590097Y-83149501D01*
X143560787Y-83155330D01*
X143527542Y-83177542D01*
X143505332Y-83210785D01*
X143505329Y-83210791D01*
X143499500Y-83240098D01*
X142317791Y-83240098D01*
X142187251Y-83186027D01*
X142187243Y-83186025D01*
X142003620Y-83149500D01*
X142003616Y-83149500D01*
X141816384Y-83149500D01*
X141816379Y-83149500D01*
X141632756Y-83186025D01*
X141632748Y-83186027D01*
X141459771Y-83257676D01*
X141459762Y-83257681D01*
X141304092Y-83361697D01*
X141304088Y-83361700D01*
X141171700Y-83494088D01*
X141171697Y-83494092D01*
X141067681Y-83649762D01*
X141067676Y-83649771D01*
X140996027Y-83822748D01*
X140996025Y-83822756D01*
X140959500Y-84006379D01*
X140320499Y-84006379D01*
X140283973Y-83822749D01*
X140212322Y-83649769D01*
X140212321Y-83649768D01*
X140212318Y-83649762D01*
X140108302Y-83494092D01*
X140108299Y-83494088D01*
X139975911Y-83361700D01*
X139975907Y-83361697D01*
X139820237Y-83257681D01*
X139820228Y-83257676D01*
X139647251Y-83186027D01*
X139647243Y-83186025D01*
X139463620Y-83149500D01*
X139463616Y-83149500D01*
X139276384Y-83149500D01*
X139276379Y-83149500D01*
X139092756Y-83186025D01*
X139092748Y-83186027D01*
X138919771Y-83257676D01*
X138919762Y-83257681D01*
X138764092Y-83361697D01*
X138764088Y-83361700D01*
X138631700Y-83494088D01*
X138631697Y-83494092D01*
X138527681Y-83649762D01*
X138527676Y-83649771D01*
X138456027Y-83822748D01*
X138456025Y-83822756D01*
X138419500Y-84006379D01*
X137780499Y-84006379D01*
X137743973Y-83822749D01*
X137672322Y-83649769D01*
X137672321Y-83649768D01*
X137672318Y-83649762D01*
X137568302Y-83494092D01*
X137568299Y-83494088D01*
X137435911Y-83361700D01*
X137435907Y-83361697D01*
X137280237Y-83257681D01*
X137280228Y-83257676D01*
X137107251Y-83186027D01*
X137107243Y-83186025D01*
X136923620Y-83149500D01*
X136923616Y-83149500D01*
X136736384Y-83149500D01*
X136736379Y-83149500D01*
X136552756Y-83186025D01*
X136552748Y-83186027D01*
X136379771Y-83257676D01*
X136379762Y-83257681D01*
X136224092Y-83361697D01*
X136224088Y-83361700D01*
X136091700Y-83494088D01*
X136091697Y-83494092D01*
X135987681Y-83649762D01*
X135987676Y-83649771D01*
X135916027Y-83822748D01*
X135916025Y-83822756D01*
X135879500Y-84006379D01*
X125775500Y-84006379D01*
X125775500Y-82324500D01*
X125795185Y-82257461D01*
X125847989Y-82211706D01*
X125899500Y-82200500D01*
X155450500Y-82200500D01*
X155517539Y-82220185D01*
G37*
%TD.AperFunction*%
%TA.AperFunction,Conductor*%
G36*
X155142148Y-111583596D02*
G01*
X155142148Y-111583595D01*
X155219825Y-111476685D01*
X155338159Y-111244443D01*
X155339076Y-111244910D01*
X155379778Y-111194402D01*
X155446072Y-111172336D01*
X155513772Y-111189614D01*
X155561383Y-111240751D01*
X155574500Y-111296257D01*
X155574500Y-112151290D01*
X155554815Y-112218329D01*
X155502011Y-112264084D01*
X155450707Y-112275290D01*
X154684688Y-112276569D01*
X154617616Y-112256996D01*
X154571773Y-112204269D01*
X154561714Y-112135127D01*
X154590633Y-112071523D01*
X154628187Y-112042084D01*
X154681682Y-112014826D01*
X154788595Y-111937148D01*
X154788596Y-111937148D01*
X154230562Y-111379114D01*
X154232626Y-111378260D01*
X154371844Y-111285238D01*
X154490238Y-111166844D01*
X154583260Y-111027626D01*
X154584114Y-111025562D01*
X155142148Y-111583596D01*
G37*
%TD.AperFunction*%
%TD*%
M02*
