%TF.GenerationSoftware,KiCad,Pcbnew,9.0.4*%
%TF.CreationDate,2025-08-31T12:09:40+02:00*%
%TF.ProjectId,CYW43439,43595734-3334-4333-992e-6b696361645f,rev?*%
%TF.SameCoordinates,Original*%
%TF.FileFunction,Copper,L3,Inr*%
%TF.FilePolarity,Positive*%
%FSLAX46Y46*%
G04 Gerber Fmt 4.6, Leading zero omitted, Abs format (unit mm)*
G04 Created by KiCad (PCBNEW 9.0.4) date 2025-08-31 12:09:40*
%MOMM*%
%LPD*%
G01*
G04 APERTURE LIST*
%TA.AperFunction,ComponentPad*%
%ADD10R,1.700000X1.700000*%
%TD*%
%TA.AperFunction,ComponentPad*%
%ADD11O,1.700000X1.700000*%
%TD*%
%TA.AperFunction,ComponentPad*%
%ADD12C,1.440000*%
%TD*%
%TA.AperFunction,ComponentPad*%
%ADD13C,2.250000*%
%TD*%
%TA.AperFunction,ViaPad*%
%ADD14C,0.400000*%
%TD*%
G04 APERTURE END LIST*
D10*
%TO.N,GND*%
%TO.C,J3*%
X153300000Y-96975000D03*
D11*
%TO.N,+3.3V*%
X153300000Y-99515000D03*
%TD*%
D10*
%TO.N,WL_CLK*%
%TO.C,J2*%
X144450000Y-84100000D03*
D11*
%TO.N,WL_D*%
X141910000Y-84100000D03*
%TO.N,WL_CS*%
X139370000Y-84100000D03*
%TO.N,WL_ON*%
X136830000Y-84100000D03*
%TD*%
D10*
%TO.N,WL_GPIO2*%
%TO.C,J1*%
X152125000Y-87800000D03*
D11*
%TO.N,WL_GPIO0*%
X149585000Y-87800000D03*
%TO.N,WL_GPIO1*%
X147045000Y-87800000D03*
%TD*%
D12*
%TO.N,Net-(J4-In)*%
%TO.C,J4*%
X151290000Y-108085000D03*
D13*
%TO.N,GND*%
X148750000Y-105545000D03*
X148750000Y-110625000D03*
X153830000Y-105545000D03*
X153830000Y-110625000D03*
%TD*%
D14*
%TO.N,GND*%
X147800000Y-93500000D03*
%TO.N,VIN_LDO*%
X143172867Y-98277133D03*
X132281250Y-94781250D03*
X130700000Y-95500000D03*
%TO.N,GND*%
X149675000Y-85275000D03*
%TO.N,VDDBAT*%
X131700000Y-93750000D03*
%TO.N,GND*%
X146225000Y-109250000D03*
X144700000Y-102625000D03*
X150300000Y-92550000D03*
X142350000Y-88450000D03*
X149120000Y-102820000D03*
X132575000Y-111825000D03*
X144725000Y-109300000D03*
X154925000Y-111450000D03*
X145575000Y-103725000D03*
X145150000Y-107250000D03*
X145300000Y-98150000D03*
X137250000Y-98050000D03*
X126100000Y-99075000D03*
X146125000Y-104300000D03*
X135575000Y-86400000D03*
X133475000Y-89925000D03*
X126425000Y-107275000D03*
X141900000Y-100750000D03*
X150760000Y-106375000D03*
X139700000Y-99000000D03*
X138500000Y-102200000D03*
X139900000Y-102200000D03*
X144075000Y-109925000D03*
X134925000Y-96600000D03*
X137050000Y-108025000D03*
X141000000Y-99300000D03*
X135975000Y-97970000D03*
X149770000Y-103470000D03*
X145500000Y-110050000D03*
X134100000Y-94500000D03*
X154925000Y-106900000D03*
X134925000Y-98780000D03*
X148540000Y-102210000D03*
X144700000Y-108675000D03*
X142325000Y-86700000D03*
X139240000Y-88550000D03*
X126175000Y-94600000D03*
X143690000Y-111870000D03*
X144320000Y-111230000D03*
X143275000Y-103350000D03*
X143225000Y-100350000D03*
X154875000Y-102875000D03*
X137075000Y-110450000D03*
X150275000Y-102025000D03*
X141900000Y-99650000D03*
X142900000Y-111100000D03*
X151800000Y-105500000D03*
X140368753Y-108019975D03*
X134090000Y-95050000D03*
X155175000Y-90275000D03*
X147800000Y-94650000D03*
X138000000Y-101800000D03*
X143275000Y-102000000D03*
X144075000Y-94975000D03*
X128925000Y-99175000D03*
X140175000Y-104950000D03*
X127075000Y-95500000D03*
X144675000Y-104475000D03*
X135625000Y-96600000D03*
X126425000Y-102700000D03*
X143475000Y-110500000D03*
X145000000Y-90150000D03*
X138000000Y-101200000D03*
X143525000Y-108025000D03*
X146350000Y-106300000D03*
X133275000Y-102025000D03*
X133450000Y-94500000D03*
X138000000Y-100000000D03*
X130775000Y-98400000D03*
X145425000Y-102625000D03*
X130675000Y-86500000D03*
X140300000Y-99300000D03*
X142300000Y-92800000D03*
X145075000Y-103225000D03*
X137025000Y-98775000D03*
X144250000Y-93475000D03*
X136000000Y-108675000D03*
X139200000Y-102200000D03*
X143800000Y-88300000D03*
X139230000Y-86775000D03*
X144125000Y-103975000D03*
X146350000Y-108125000D03*
X141425000Y-108025000D03*
X139200000Y-96700000D03*
X146350000Y-105350000D03*
X150875000Y-90000000D03*
X151090000Y-104760000D03*
X144675000Y-108025000D03*
X135975000Y-109350000D03*
X147750000Y-102950000D03*
X134950000Y-95050000D03*
X149200000Y-91825000D03*
X147890000Y-101580000D03*
X126350000Y-86450000D03*
X142600000Y-99675000D03*
X138025000Y-86975000D03*
X141150000Y-88425000D03*
X149625000Y-111950000D03*
X144900000Y-110650000D03*
X150340000Y-105575000D03*
X144500000Y-101275000D03*
X146350000Y-107225000D03*
X140975000Y-94100000D03*
X143275000Y-102650000D03*
X138150000Y-108025000D03*
X131850000Y-89900000D03*
X146225000Y-102625000D03*
X145150000Y-105375000D03*
X141800000Y-94900000D03*
X141150000Y-86775000D03*
X155200000Y-95200000D03*
X146050000Y-101275000D03*
X142425000Y-108025000D03*
X138000000Y-100600000D03*
X133825000Y-97300000D03*
X136475000Y-109925000D03*
X126225000Y-90475000D03*
X148425000Y-103625000D03*
X126500000Y-111700000D03*
X141300000Y-102200000D03*
X141900000Y-101900000D03*
X150250000Y-94875000D03*
X137675000Y-111075000D03*
X141900000Y-101350000D03*
X136000000Y-108025000D03*
X143750000Y-100850000D03*
X145375000Y-95800000D03*
X143150000Y-93475000D03*
X151820000Y-106375000D03*
X143900000Y-86700000D03*
X139275000Y-108025000D03*
X134925000Y-97970000D03*
X140600000Y-102200000D03*
X147000000Y-102625000D03*
X147200000Y-98175000D03*
X150430000Y-104110000D03*
X145275000Y-101275000D03*
X143275000Y-103975000D03*
X146925000Y-101250000D03*
X145150000Y-106325000D03*
X138300000Y-99000000D03*
X131175000Y-107075000D03*
X155225000Y-99950000D03*
X142550000Y-101325000D03*
%TO.N,WL_GPIO2*%
X139175000Y-96125000D03*
X140725000Y-96300000D03*
%TO.N,WL_GPIO1*%
X140600000Y-93075000D03*
X138200000Y-93091608D03*
%TO.N,WL_GPIO0*%
X139220000Y-93510000D03*
X140550000Y-93700000D03*
%TO.N,VOUT_3P3*%
X134500000Y-95925000D03*
X137025000Y-94000000D03*
X140710000Y-97590000D03*
%TO.N,VDDBAT*%
X147450000Y-99550000D03*
X137950000Y-90450000D03*
X134500000Y-94050000D03*
%TO.N,Net-(U1-BTFM_PLL_VDD)*%
X139750000Y-98075000D03*
X138000000Y-98010000D03*
%TD*%
%TA.AperFunction,Conductor*%
%TO.N,VIN_LDO*%
G36*
X131044831Y-94469685D02*
G01*
X131071503Y-94492795D01*
X131077229Y-94499403D01*
X131127237Y-94531541D01*
X131194276Y-94551226D01*
X131224000Y-94555500D01*
X131224004Y-94555500D01*
X132146945Y-94555500D01*
X132160681Y-94554599D01*
X132160686Y-94554598D01*
X132160709Y-94554597D01*
X132192801Y-94550372D01*
X132206335Y-94547680D01*
X132227970Y-94541883D01*
X132233225Y-94540475D01*
X132265318Y-94536250D01*
X132297182Y-94536250D01*
X132329274Y-94540475D01*
X132347118Y-94545256D01*
X132356161Y-94547679D01*
X132356169Y-94547681D01*
X132356178Y-94547683D01*
X132362932Y-94549026D01*
X132369699Y-94550372D01*
X132401791Y-94554597D01*
X132401810Y-94554598D01*
X132401818Y-94554599D01*
X132415555Y-94555500D01*
X133007483Y-94555500D01*
X133074522Y-94575185D01*
X133120277Y-94627989D01*
X133122047Y-94632054D01*
X133123389Y-94635295D01*
X133169526Y-94715205D01*
X133169529Y-94715209D01*
X133169531Y-94715212D01*
X133234788Y-94780469D01*
X133234791Y-94780470D01*
X133234794Y-94780473D01*
X133314706Y-94826611D01*
X133314707Y-94826611D01*
X133314712Y-94826614D01*
X133403856Y-94850500D01*
X133403858Y-94850500D01*
X133496142Y-94850500D01*
X133496144Y-94850500D01*
X133585288Y-94826614D01*
X133585289Y-94826613D01*
X133593139Y-94824510D01*
X133593901Y-94827354D01*
X133649309Y-94821385D01*
X133711795Y-94852647D01*
X133747460Y-94912728D01*
X133747095Y-94975510D01*
X133739500Y-95003856D01*
X133739500Y-95096144D01*
X133752323Y-95144002D01*
X133763387Y-95185290D01*
X133763388Y-95185293D01*
X133809526Y-95265205D01*
X133809529Y-95265209D01*
X133809531Y-95265212D01*
X133874788Y-95330469D01*
X133874791Y-95330470D01*
X133874794Y-95330473D01*
X133954706Y-95376611D01*
X133954707Y-95376611D01*
X133954712Y-95376614D01*
X134043856Y-95400500D01*
X134043858Y-95400500D01*
X134136142Y-95400500D01*
X134136144Y-95400500D01*
X134225288Y-95376614D01*
X134305212Y-95330469D01*
X134370469Y-95265212D01*
X134412614Y-95192216D01*
X134463181Y-95144002D01*
X134531788Y-95130780D01*
X134596653Y-95156748D01*
X134627385Y-95192215D01*
X134669531Y-95265212D01*
X134734788Y-95330469D01*
X134734791Y-95330470D01*
X134734794Y-95330473D01*
X134814706Y-95376611D01*
X134814707Y-95376611D01*
X134814712Y-95376614D01*
X134903856Y-95400500D01*
X134903858Y-95400500D01*
X134996142Y-95400500D01*
X134996144Y-95400500D01*
X135085288Y-95376614D01*
X135165212Y-95330469D01*
X135230469Y-95265212D01*
X135276614Y-95185288D01*
X135300500Y-95096144D01*
X135300500Y-95003856D01*
X135276614Y-94914712D01*
X135275469Y-94912728D01*
X135230473Y-94834794D01*
X135230470Y-94834791D01*
X135230469Y-94834788D01*
X135165212Y-94769531D01*
X135162862Y-94767181D01*
X135129377Y-94705858D01*
X135134361Y-94636166D01*
X135176233Y-94580233D01*
X135241697Y-94555816D01*
X135250543Y-94555500D01*
X135276000Y-94555500D01*
X135298427Y-94553089D01*
X135349938Y-94541883D01*
X135396599Y-94518526D01*
X135396600Y-94518524D01*
X135396602Y-94518524D01*
X135396603Y-94518523D01*
X135440729Y-94480288D01*
X135504284Y-94451262D01*
X135521932Y-94450000D01*
X140645452Y-94450000D01*
X140712491Y-94469685D01*
X140736859Y-94490210D01*
X144517407Y-98614444D01*
X144548197Y-98677164D01*
X144550000Y-98698234D01*
X144550000Y-99726000D01*
X144530315Y-99793039D01*
X144477511Y-99838794D01*
X144426000Y-99850000D01*
X143758870Y-99850000D01*
X143691831Y-99830315D01*
X143662787Y-99804384D01*
X141048794Y-96600135D01*
X141021669Y-96535745D01*
X141033662Y-96466912D01*
X141037491Y-96459749D01*
X141051613Y-96435289D01*
X141051614Y-96435288D01*
X141075500Y-96346144D01*
X141075500Y-96253856D01*
X141051614Y-96164712D01*
X141037469Y-96140212D01*
X141005473Y-96084794D01*
X141005470Y-96084791D01*
X141005469Y-96084788D01*
X140940212Y-96019531D01*
X140940209Y-96019529D01*
X140940205Y-96019526D01*
X140860293Y-95973388D01*
X140860290Y-95973387D01*
X140860289Y-95973386D01*
X140860288Y-95973386D01*
X140771144Y-95949500D01*
X140678856Y-95949500D01*
X140589712Y-95973386D01*
X140589711Y-95973386D01*
X140589709Y-95973387D01*
X140589706Y-95973388D01*
X140509789Y-96019529D01*
X140503475Y-96024375D01*
X140438306Y-96049570D01*
X140427988Y-96050000D01*
X139608013Y-96050000D01*
X139540974Y-96030315D01*
X139500627Y-95988001D01*
X139455472Y-95909794D01*
X139455469Y-95909788D01*
X139390212Y-95844531D01*
X139390209Y-95844529D01*
X139390205Y-95844526D01*
X139310293Y-95798388D01*
X139310290Y-95798387D01*
X139310289Y-95798386D01*
X139310288Y-95798386D01*
X139221144Y-95774500D01*
X139128856Y-95774500D01*
X139039712Y-95798386D01*
X139039711Y-95798386D01*
X139039709Y-95798387D01*
X139039706Y-95798388D01*
X138959794Y-95844526D01*
X138959785Y-95844533D01*
X138894533Y-95909785D01*
X138894527Y-95909794D01*
X138849373Y-95988001D01*
X138798806Y-96036216D01*
X138741987Y-96050000D01*
X134974500Y-96050000D01*
X134907461Y-96030315D01*
X134861706Y-95977511D01*
X134850500Y-95926000D01*
X134850500Y-95878858D01*
X134850500Y-95878856D01*
X134826614Y-95789712D01*
X134826611Y-95789706D01*
X134780473Y-95709794D01*
X134780470Y-95709791D01*
X134780469Y-95709788D01*
X134715212Y-95644531D01*
X134715209Y-95644529D01*
X134715205Y-95644526D01*
X134635293Y-95598388D01*
X134635290Y-95598387D01*
X134635289Y-95598386D01*
X134635288Y-95598386D01*
X134546144Y-95574500D01*
X134453856Y-95574500D01*
X134364712Y-95598386D01*
X134364711Y-95598386D01*
X134364709Y-95598387D01*
X134364706Y-95598388D01*
X134284794Y-95644526D01*
X134284785Y-95644533D01*
X134219533Y-95709785D01*
X134219526Y-95709794D01*
X134173388Y-95789706D01*
X134173387Y-95789709D01*
X134149500Y-95878856D01*
X134149500Y-95926000D01*
X134129815Y-95993039D01*
X134077011Y-96038794D01*
X134025500Y-96050000D01*
X129274000Y-96050000D01*
X129206961Y-96030315D01*
X129161206Y-95977511D01*
X129150000Y-95926000D01*
X129150000Y-94574000D01*
X129169685Y-94506961D01*
X129222489Y-94461206D01*
X129274000Y-94450000D01*
X130977792Y-94450000D01*
X131044831Y-94469685D01*
G37*
%TD.AperFunction*%
%TD*%
%TA.AperFunction,Conductor*%
%TO.N,VDDBAT*%
G36*
X138369025Y-90069685D02*
G01*
X138385493Y-90082334D01*
X143623200Y-94853858D01*
X143684007Y-94909252D01*
X143720309Y-94968951D01*
X143724500Y-95000918D01*
X143724500Y-95021144D01*
X143747736Y-95107864D01*
X143748387Y-95110290D01*
X143748388Y-95110293D01*
X143794526Y-95190205D01*
X143794529Y-95190209D01*
X143794531Y-95190212D01*
X143859788Y-95255469D01*
X143859791Y-95255470D01*
X143859794Y-95255473D01*
X143939706Y-95301611D01*
X143939707Y-95301611D01*
X143939712Y-95301614D01*
X144028856Y-95325500D01*
X144028858Y-95325500D01*
X144092909Y-95325500D01*
X144159948Y-95345185D01*
X144176412Y-95357831D01*
X146882856Y-97823387D01*
X146884708Y-97825074D01*
X146921010Y-97884773D01*
X146919273Y-97954621D01*
X146908588Y-97978740D01*
X146873387Y-98039708D01*
X146873387Y-98039709D01*
X146873386Y-98039711D01*
X146873386Y-98039712D01*
X146849500Y-98128856D01*
X146849500Y-98221144D01*
X146869722Y-98296614D01*
X146873387Y-98310290D01*
X146873388Y-98310293D01*
X146919526Y-98390205D01*
X146919529Y-98390209D01*
X146919531Y-98390212D01*
X146984788Y-98455469D01*
X146984791Y-98455470D01*
X146984794Y-98455473D01*
X147064706Y-98501611D01*
X147064707Y-98501611D01*
X147064712Y-98501614D01*
X147153856Y-98525500D01*
X147153858Y-98525500D01*
X147246142Y-98525500D01*
X147246144Y-98525500D01*
X147335288Y-98501614D01*
X147415212Y-98455469D01*
X147415221Y-98455459D01*
X147420552Y-98451370D01*
X147485720Y-98426171D01*
X147554166Y-98440204D01*
X147579550Y-98458072D01*
X147900000Y-98750000D01*
X149176000Y-98750000D01*
X149243039Y-98769685D01*
X149288794Y-98822489D01*
X149300000Y-98874000D01*
X149300000Y-100226000D01*
X149280315Y-100293039D01*
X149227511Y-100338794D01*
X149176000Y-100350000D01*
X147749815Y-100350000D01*
X147682776Y-100330315D01*
X147664029Y-100315536D01*
X145662925Y-98398247D01*
X145628136Y-98337654D01*
X145628935Y-98276622D01*
X145650500Y-98196144D01*
X145650500Y-98103856D01*
X145626614Y-98014712D01*
X145626611Y-98014706D01*
X145580473Y-97934794D01*
X145580470Y-97934791D01*
X145580469Y-97934788D01*
X145515212Y-97869531D01*
X145515209Y-97869529D01*
X145515205Y-97869526D01*
X145435293Y-97823388D01*
X145435290Y-97823387D01*
X145435289Y-97823386D01*
X145435288Y-97823386D01*
X145346144Y-97799500D01*
X145253856Y-97799500D01*
X145164712Y-97823386D01*
X145164711Y-97823386D01*
X145156861Y-97825490D01*
X145156235Y-97823157D01*
X145098951Y-97829306D01*
X145036477Y-97798021D01*
X145035202Y-97796816D01*
X142184972Y-95065968D01*
X142150183Y-95005375D01*
X142150852Y-94954386D01*
X142149439Y-94954200D01*
X142150500Y-94946142D01*
X142150500Y-94853858D01*
X142150500Y-94853856D01*
X142126614Y-94764712D01*
X142126611Y-94764706D01*
X142080473Y-94684794D01*
X142080470Y-94684791D01*
X142080469Y-94684788D01*
X142015212Y-94619531D01*
X142015209Y-94619529D01*
X142015205Y-94619526D01*
X141935293Y-94573388D01*
X141935290Y-94573387D01*
X141935289Y-94573386D01*
X141935288Y-94573386D01*
X141846144Y-94549500D01*
X141753856Y-94549500D01*
X141753854Y-94549500D01*
X141736963Y-94554026D01*
X141667113Y-94552361D01*
X141619088Y-94523786D01*
X141357933Y-94273569D01*
X141323145Y-94212978D01*
X141323947Y-94151936D01*
X141325500Y-94146144D01*
X141325500Y-94053856D01*
X141301614Y-93964712D01*
X141301611Y-93964706D01*
X141255473Y-93884794D01*
X141255470Y-93884791D01*
X141255469Y-93884788D01*
X141190212Y-93819531D01*
X141190209Y-93819529D01*
X141190205Y-93819526D01*
X141110293Y-93773388D01*
X141110290Y-93773387D01*
X141110289Y-93773386D01*
X141110288Y-93773386D01*
X141021144Y-93749500D01*
X141021143Y-93749500D01*
X141013084Y-93748439D01*
X141013254Y-93747144D01*
X141002399Y-93743957D01*
X140982733Y-93743358D01*
X140969562Y-93734315D01*
X140954237Y-93729815D01*
X140941354Y-93714947D01*
X140925133Y-93703810D01*
X140915673Y-93685310D01*
X140908482Y-93677011D01*
X140906965Y-93673552D01*
X140900500Y-93658172D01*
X140900500Y-93653856D01*
X140876614Y-93564712D01*
X140830469Y-93484788D01*
X140825547Y-93479866D01*
X140817962Y-93461821D01*
X140815765Y-93442350D01*
X140808702Y-93424074D01*
X140811929Y-93408345D01*
X140810130Y-93392391D01*
X140818808Y-93374824D01*
X140822747Y-93355631D01*
X140839450Y-93333042D01*
X140841077Y-93329749D01*
X140842530Y-93328876D01*
X140844590Y-93326090D01*
X140880469Y-93290212D01*
X140926614Y-93210288D01*
X140950500Y-93121144D01*
X140950500Y-93028856D01*
X140926614Y-92939712D01*
X140890058Y-92876396D01*
X140880473Y-92859794D01*
X140880470Y-92859791D01*
X140880469Y-92859788D01*
X140815212Y-92794531D01*
X140815209Y-92794529D01*
X140815205Y-92794526D01*
X140735293Y-92748388D01*
X140735290Y-92748387D01*
X140735289Y-92748386D01*
X140735288Y-92748386D01*
X140646144Y-92724500D01*
X140553856Y-92724500D01*
X140464712Y-92748386D01*
X140464711Y-92748386D01*
X140464709Y-92748387D01*
X140464706Y-92748388D01*
X140384794Y-92794526D01*
X140384785Y-92794533D01*
X140319533Y-92859785D01*
X140319526Y-92859794D01*
X140273388Y-92939706D01*
X140273386Y-92939711D01*
X140264783Y-92971816D01*
X140228417Y-93031476D01*
X140165569Y-93062004D01*
X140096194Y-93053707D01*
X140059223Y-93029256D01*
X139965761Y-92939709D01*
X139461732Y-92456790D01*
X138150000Y-91199999D01*
X138149999Y-91199999D01*
X135400000Y-93299998D01*
X135400000Y-94326000D01*
X135380315Y-94393039D01*
X135327511Y-94438794D01*
X135276000Y-94450000D01*
X134544615Y-94450000D01*
X134477576Y-94430315D01*
X134431821Y-94377511D01*
X134429892Y-94372145D01*
X134429722Y-94372216D01*
X134426614Y-94364715D01*
X134426614Y-94364712D01*
X134404618Y-94326614D01*
X134380473Y-94284794D01*
X134380470Y-94284791D01*
X134380469Y-94284788D01*
X134315212Y-94219531D01*
X134315209Y-94219529D01*
X134315205Y-94219526D01*
X134235293Y-94173388D01*
X134235290Y-94173387D01*
X134235289Y-94173386D01*
X134235288Y-94173386D01*
X134146144Y-94149500D01*
X134053856Y-94149500D01*
X133964712Y-94173386D01*
X133964711Y-94173386D01*
X133964709Y-94173387D01*
X133964706Y-94173388D01*
X133884794Y-94219526D01*
X133884788Y-94219531D01*
X133862680Y-94241639D01*
X133801356Y-94275123D01*
X133731664Y-94270137D01*
X133687320Y-94241639D01*
X133680969Y-94235288D01*
X133665212Y-94219531D01*
X133665208Y-94219529D01*
X133665205Y-94219526D01*
X133585293Y-94173388D01*
X133585290Y-94173387D01*
X133585289Y-94173386D01*
X133585288Y-94173386D01*
X133496144Y-94149500D01*
X133403856Y-94149500D01*
X133314712Y-94173386D01*
X133314711Y-94173386D01*
X133314709Y-94173387D01*
X133314706Y-94173388D01*
X133234794Y-94219526D01*
X133234785Y-94219533D01*
X133169533Y-94284785D01*
X133169526Y-94284794D01*
X133123388Y-94364706D01*
X133120278Y-94372216D01*
X133117301Y-94370983D01*
X133088803Y-94417747D01*
X133025958Y-94448281D01*
X133005385Y-94450000D01*
X132415562Y-94450000D01*
X132383470Y-94445775D01*
X132327395Y-94430750D01*
X132327394Y-94430750D01*
X132235106Y-94430750D01*
X132235104Y-94430750D01*
X132179030Y-94445775D01*
X132146938Y-94450000D01*
X131224000Y-94450000D01*
X131156961Y-94430315D01*
X131111206Y-94377511D01*
X131100000Y-94326000D01*
X131100000Y-93326903D01*
X131119685Y-93259864D01*
X131168890Y-93215822D01*
X137523960Y-90062919D01*
X137579070Y-90050000D01*
X138301986Y-90050000D01*
X138369025Y-90069685D01*
G37*
%TD.AperFunction*%
%TD*%
M02*
