M48
; DRILL file {KiCad 8.0.6-8.0.6-0~ubuntu20.04.1} date 2024-11-02T23:17:10+0100
; FORMAT={-:-/ absolute / inch / decimal}
; #@! TF.CreationDate,2024-11-02T23:17:10+01:00
; #@! TF.GenerationSoftware,Kicad,Pcbnew,8.0.6-8.0.6-0~ubuntu20.04.1
; #@! TF.FileFunction,Plated,1,2,PTH
FMAT,2
INCH
; #@! TA.AperFunction,Plated,PTH,ViaDrill
T1C0.0059
; #@! TA.AperFunction,Plated,PTH,ViaDrill
T2C0.0079
; #@! TA.AperFunction,Plated,PTH,ComponentDrill
T3C0.0394
%
G90
G05
T1
X5.4409Y-3.665
X5.4744Y-3.6693
X5.4803Y-3.7756
X5.5325Y-3.6594
X5.5325Y-3.6821
X5.5413Y-3.7854
T2
X4.9646Y-3.9006
X4.9675Y-3.7244
X4.9695Y-3.562
X4.9744Y-3.4035
X4.9774Y-4.0433
X4.9774Y-4.2234
X4.9803Y-4.3976
X5.003Y-3.7598
X5.0758Y-3.9045
X5.1447Y-3.4055
X5.1486Y-3.874
X5.1644Y-4.2156
X5.1909Y-3.5394
X5.2195Y-4.4026
X5.247Y-4.0167
X5.2549Y-3.5404
X5.2687Y-3.8307
X5.2746Y-3.7146
X5.2972Y-3.7746
X5.3002Y-3.69
X5.312Y-3.8031
X5.312Y-3.8583
X5.312Y-3.8878
X5.313Y-3.7441
X5.3376Y-3.4016
X5.3533Y-3.8583
X5.3533Y-4.3051
X5.3543Y-4.253
X5.3543Y-4.2785
X5.373Y-4.3278
X5.3947Y-3.8888
X5.3957Y-4.253
X5.3967Y-4.3484
X5.4016Y-3.7008
X5.4016Y-3.9833
X5.4016Y-4.0098
X5.4026Y-3.9567
X5.4026Y-4.0374
X5.4035Y-3.9331
X5.4173Y-3.6841
X5.4203Y-4.373
X5.4252Y-3.9094
X5.4272Y-4.0384
X5.4331Y-3.8612
X5.4341Y-3.4242
X5.439Y-4.253
X5.4478Y-3.8898
X5.4478Y-3.9094
X5.4518Y-4.0384
X5.4793Y-3.4163
X5.4793Y-3.4862
X5.4803Y-3.8071
X5.4803Y-4.0394
X5.4833Y-4.253
X5.497Y-3.8898
X5.497Y-3.9094
X5.498Y-3.8612
X5.5089Y-4.0394
X5.5187Y-4.1319
X5.5207Y-3.9094
X5.5263Y-4.2528
X5.5384Y-3.8386
X5.5384Y-4.0394
X5.5443Y-3.9085
X5.5502Y-3.7047
X5.5561Y-3.8228
X5.5571Y-3.4163
X5.5571Y-3.4813
X5.5679Y-3.9085
X5.5679Y-4.0394
X5.5679Y-4.253
X5.5866Y-3.7392
X5.5994Y-3.9242
X5.5994Y-3.9606
X5.5994Y-4.0108
X5.5994Y-4.0394
X5.6004Y-3.9833
X5.6024Y-3.6535
X5.6033Y-3.4134
X5.6043Y-3.4823
X5.6073Y-4.253
X5.6201Y-3.9675
X5.623Y-3.9242
X5.626Y-4.374
X5.6358Y-3.9852
X5.6358Y-4.0108
X5.6358Y-4.0394
X5.6358Y-4.0659
X5.6358Y-4.0945
X5.6457Y-3.9409
X5.6486Y-4.3504
X5.6506Y-4.253
X5.6516Y-3.6693
X5.6565Y-4.4026
X5.6614Y-3.4764
X5.6654Y-3.4134
X5.6654Y-3.9596
X5.6654Y-4.0945
X5.6722Y-4.3278
X5.6811Y-4.3789
X5.6959Y-4.1132
X5.6959Y-4.253
X5.6969Y-4.2785
X5.6978Y-4.3031
X5.7047Y-4.3563
X5.7087Y-3.5492
X5.7116Y-4.0187
X5.7126Y-4.0551
X5.7146Y-4.1486
X5.7146Y-4.186
X5.7146Y-4.2224
X5.7205Y-3.8642
X5.7283Y-4.3327
X5.7323Y-4.0807
X5.749Y-3.6683
X5.75Y-3.7352
X5.7569Y-4.3012
X5.7598Y-4.1112
X5.7618Y-4.1476
X5.7618Y-4.185
X5.7618Y-4.2215
X5.7618Y-4.2569
X5.7874Y-3.9183
X5.874Y-3.6152
X5.8907Y-4.4075
X5.9045Y-3.8002
X5.9163Y-4.0167
X5.9173Y-3.6437
X5.935Y-4.2116
X5.94Y-3.5433
X6.0974Y-4.0502
X6.0994Y-4.2087
X6.0994Y-4.3878
X6.1093Y-3.5541
X6.1102Y-3.748
X6.1112Y-3.935
T3
X5.387Y-3.311
X5.487Y-3.311
X5.587Y-3.311
X5.687Y-3.311
X5.7892Y-3.4567
X5.8892Y-3.4567
X5.9892Y-3.4567
X6.0226Y-3.8179
X6.0226Y-3.9179
M30
