%TF.GenerationSoftware,KiCad,Pcbnew,8.0.6-8.0.6-0~ubuntu20.04.1*%
%TF.CreationDate,2024-11-02T23:17:13+01:00*%
%TF.ProjectId,CYW43439,43595734-3334-4333-992e-6b696361645f,rev?*%
%TF.SameCoordinates,Original*%
%TF.FileFunction,Copper,L1,Top*%
%TF.FilePolarity,Positive*%
%FSLAX46Y46*%
G04 Gerber Fmt 4.6, Leading zero omitted, Abs format (unit mm)*
G04 Created by KiCad (PCBNEW 8.0.6-8.0.6-0~ubuntu20.04.1) date 2024-11-02 23:17:13*
%MOMM*%
%LPD*%
G01*
G04 APERTURE LIST*
G04 Aperture macros list*
%AMRoundRect*
0 Rectangle with rounded corners*
0 $1 Rounding radius*
0 $2 $3 $4 $5 $6 $7 $8 $9 X,Y pos of 4 corners*
0 Add a 4 corners polygon primitive as box body*
4,1,4,$2,$3,$4,$5,$6,$7,$8,$9,$2,$3,0*
0 Add four circle primitives for the rounded corners*
1,1,$1+$1,$2,$3*
1,1,$1+$1,$4,$5*
1,1,$1+$1,$6,$7*
1,1,$1+$1,$8,$9*
0 Add four rect primitives between the rounded corners*
20,1,$1+$1,$2,$3,$4,$5,0*
20,1,$1+$1,$4,$5,$6,$7,0*
20,1,$1+$1,$6,$7,$8,$9,0*
20,1,$1+$1,$8,$9,$2,$3,0*%
G04 Aperture macros list end*
%ADD10C,0.300000*%
%TA.AperFunction,NonConductor*%
%ADD11C,0.300000*%
%TD*%
%TA.AperFunction,NonConductor*%
%ADD12C,0.200000*%
%TD*%
%TA.AperFunction,SMDPad,CuDef*%
%ADD13R,0.800000X0.900000*%
%TD*%
%TA.AperFunction,SMDPad,CuDef*%
%ADD14RoundRect,0.225000X0.250000X-0.225000X0.250000X0.225000X-0.250000X0.225000X-0.250000X-0.225000X0*%
%TD*%
%TA.AperFunction,SMDPad,CuDef*%
%ADD15RoundRect,0.225000X-0.225000X-0.250000X0.225000X-0.250000X0.225000X0.250000X-0.225000X0.250000X0*%
%TD*%
%TA.AperFunction,SMDPad,CuDef*%
%ADD16RoundRect,0.140000X0.140000X0.170000X-0.140000X0.170000X-0.140000X-0.170000X0.140000X-0.170000X0*%
%TD*%
%TA.AperFunction,ComponentPad*%
%ADD17R,1.700000X1.700000*%
%TD*%
%TA.AperFunction,ComponentPad*%
%ADD18O,1.700000X1.700000*%
%TD*%
%TA.AperFunction,SMDPad,CuDef*%
%ADD19RoundRect,0.218750X0.256250X-0.218750X0.256250X0.218750X-0.256250X0.218750X-0.256250X-0.218750X0*%
%TD*%
%TA.AperFunction,SMDPad,CuDef*%
%ADD20RoundRect,0.218750X-0.218750X-0.256250X0.218750X-0.256250X0.218750X0.256250X-0.218750X0.256250X0*%
%TD*%
%TA.AperFunction,SMDPad,CuDef*%
%ADD21RoundRect,0.200000X-0.200000X-0.275000X0.200000X-0.275000X0.200000X0.275000X-0.200000X0.275000X0*%
%TD*%
%TA.AperFunction,SMDPad,CuDef*%
%ADD22RoundRect,0.225000X0.225000X0.250000X-0.225000X0.250000X-0.225000X-0.250000X0.225000X-0.250000X0*%
%TD*%
%TA.AperFunction,SMDPad,CuDef*%
%ADD23RoundRect,0.218750X-0.256250X0.218750X-0.256250X-0.218750X0.256250X-0.218750X0.256250X0.218750X0*%
%TD*%
%TA.AperFunction,SMDPad,CuDef*%
%ADD24RoundRect,0.200000X-0.275000X0.200000X-0.275000X-0.200000X0.275000X-0.200000X0.275000X0.200000X0*%
%TD*%
%TA.AperFunction,SMDPad,CuDef*%
%ADD25C,0.250000*%
%TD*%
%TA.AperFunction,ViaPad*%
%ADD26C,0.400000*%
%TD*%
%TA.AperFunction,ViaPad*%
%ADD27C,0.300000*%
%TD*%
%TA.AperFunction,Conductor*%
%ADD28C,0.100000*%
%TD*%
%TA.AperFunction,Conductor*%
%ADD29C,0.200000*%
%TD*%
%TA.AperFunction,Conductor*%
%ADD30C,0.300000*%
%TD*%
G04 APERTURE END LIST*
D10*
D11*
X157846185Y-100103569D02*
X157774757Y-100032141D01*
X157774757Y-100032141D02*
X157703328Y-99889284D01*
X157703328Y-99889284D02*
X157703328Y-99532141D01*
X157703328Y-99532141D02*
X157774757Y-99389284D01*
X157774757Y-99389284D02*
X157846185Y-99317855D01*
X157846185Y-99317855D02*
X157989042Y-99246426D01*
X157989042Y-99246426D02*
X158131900Y-99246426D01*
X158131900Y-99246426D02*
X158346185Y-99317855D01*
X158346185Y-99317855D02*
X159203328Y-100174998D01*
X159203328Y-100174998D02*
X159203328Y-99246426D01*
X157846185Y-98674998D02*
X157774757Y-98603570D01*
X157774757Y-98603570D02*
X157703328Y-98460713D01*
X157703328Y-98460713D02*
X157703328Y-98103570D01*
X157703328Y-98103570D02*
X157774757Y-97960713D01*
X157774757Y-97960713D02*
X157846185Y-97889284D01*
X157846185Y-97889284D02*
X157989042Y-97817855D01*
X157989042Y-97817855D02*
X158131900Y-97817855D01*
X158131900Y-97817855D02*
X158346185Y-97889284D01*
X158346185Y-97889284D02*
X159203328Y-98746427D01*
X159203328Y-98746427D02*
X159203328Y-97817855D01*
X159060471Y-97174999D02*
X159131900Y-97103570D01*
X159131900Y-97103570D02*
X159203328Y-97174999D01*
X159203328Y-97174999D02*
X159131900Y-97246427D01*
X159131900Y-97246427D02*
X159060471Y-97174999D01*
X159060471Y-97174999D02*
X159203328Y-97174999D01*
X157703328Y-96174998D02*
X157703328Y-96032141D01*
X157703328Y-96032141D02*
X157774757Y-95889284D01*
X157774757Y-95889284D02*
X157846185Y-95817856D01*
X157846185Y-95817856D02*
X157989042Y-95746427D01*
X157989042Y-95746427D02*
X158274757Y-95674998D01*
X158274757Y-95674998D02*
X158631900Y-95674998D01*
X158631900Y-95674998D02*
X158917614Y-95746427D01*
X158917614Y-95746427D02*
X159060471Y-95817856D01*
X159060471Y-95817856D02*
X159131900Y-95889284D01*
X159131900Y-95889284D02*
X159203328Y-96032141D01*
X159203328Y-96032141D02*
X159203328Y-96174998D01*
X159203328Y-96174998D02*
X159131900Y-96317856D01*
X159131900Y-96317856D02*
X159060471Y-96389284D01*
X159060471Y-96389284D02*
X158917614Y-96460713D01*
X158917614Y-96460713D02*
X158631900Y-96532141D01*
X158631900Y-96532141D02*
X158274757Y-96532141D01*
X158274757Y-96532141D02*
X157989042Y-96460713D01*
X157989042Y-96460713D02*
X157846185Y-96389284D01*
X157846185Y-96389284D02*
X157774757Y-96317856D01*
X157774757Y-96317856D02*
X157703328Y-96174998D01*
X157703328Y-94317856D02*
X157703328Y-95032142D01*
X157703328Y-95032142D02*
X158417614Y-95103570D01*
X158417614Y-95103570D02*
X158346185Y-95032142D01*
X158346185Y-95032142D02*
X158274757Y-94889285D01*
X158274757Y-94889285D02*
X158274757Y-94532142D01*
X158274757Y-94532142D02*
X158346185Y-94389285D01*
X158346185Y-94389285D02*
X158417614Y-94317856D01*
X158417614Y-94317856D02*
X158560471Y-94246427D01*
X158560471Y-94246427D02*
X158917614Y-94246427D01*
X158917614Y-94246427D02*
X159060471Y-94317856D01*
X159060471Y-94317856D02*
X159131900Y-94389285D01*
X159131900Y-94389285D02*
X159203328Y-94532142D01*
X159203328Y-94532142D02*
X159203328Y-94889285D01*
X159203328Y-94889285D02*
X159131900Y-95032142D01*
X159131900Y-95032142D02*
X159060471Y-95103570D01*
X157703328Y-93317856D02*
X157703328Y-93174999D01*
X157703328Y-93174999D02*
X157774757Y-93032142D01*
X157774757Y-93032142D02*
X157846185Y-92960714D01*
X157846185Y-92960714D02*
X157989042Y-92889285D01*
X157989042Y-92889285D02*
X158274757Y-92817856D01*
X158274757Y-92817856D02*
X158631900Y-92817856D01*
X158631900Y-92817856D02*
X158917614Y-92889285D01*
X158917614Y-92889285D02*
X159060471Y-92960714D01*
X159060471Y-92960714D02*
X159131900Y-93032142D01*
X159131900Y-93032142D02*
X159203328Y-93174999D01*
X159203328Y-93174999D02*
X159203328Y-93317856D01*
X159203328Y-93317856D02*
X159131900Y-93460714D01*
X159131900Y-93460714D02*
X159060471Y-93532142D01*
X159060471Y-93532142D02*
X158917614Y-93603571D01*
X158917614Y-93603571D02*
X158631900Y-93674999D01*
X158631900Y-93674999D02*
X158274757Y-93674999D01*
X158274757Y-93674999D02*
X157989042Y-93603571D01*
X157989042Y-93603571D02*
X157846185Y-93532142D01*
X157846185Y-93532142D02*
X157774757Y-93460714D01*
X157774757Y-93460714D02*
X157703328Y-93317856D01*
X157703328Y-91889285D02*
X157703328Y-91746428D01*
X157703328Y-91746428D02*
X157774757Y-91603571D01*
X157774757Y-91603571D02*
X157846185Y-91532143D01*
X157846185Y-91532143D02*
X157989042Y-91460714D01*
X157989042Y-91460714D02*
X158274757Y-91389285D01*
X158274757Y-91389285D02*
X158631900Y-91389285D01*
X158631900Y-91389285D02*
X158917614Y-91460714D01*
X158917614Y-91460714D02*
X159060471Y-91532143D01*
X159060471Y-91532143D02*
X159131900Y-91603571D01*
X159131900Y-91603571D02*
X159203328Y-91746428D01*
X159203328Y-91746428D02*
X159203328Y-91889285D01*
X159203328Y-91889285D02*
X159131900Y-92032143D01*
X159131900Y-92032143D02*
X159060471Y-92103571D01*
X159060471Y-92103571D02*
X158917614Y-92175000D01*
X158917614Y-92175000D02*
X158631900Y-92246428D01*
X158631900Y-92246428D02*
X158274757Y-92246428D01*
X158274757Y-92246428D02*
X157989042Y-92175000D01*
X157989042Y-92175000D02*
X157846185Y-92103571D01*
X157846185Y-92103571D02*
X157774757Y-92032143D01*
X157774757Y-92032143D02*
X157703328Y-91889285D01*
X159203328Y-89603572D02*
X158203328Y-89603572D01*
X158346185Y-89603572D02*
X158274757Y-89532143D01*
X158274757Y-89532143D02*
X158203328Y-89389286D01*
X158203328Y-89389286D02*
X158203328Y-89175000D01*
X158203328Y-89175000D02*
X158274757Y-89032143D01*
X158274757Y-89032143D02*
X158417614Y-88960715D01*
X158417614Y-88960715D02*
X159203328Y-88960715D01*
X158417614Y-88960715D02*
X158274757Y-88889286D01*
X158274757Y-88889286D02*
X158203328Y-88746429D01*
X158203328Y-88746429D02*
X158203328Y-88532143D01*
X158203328Y-88532143D02*
X158274757Y-88389286D01*
X158274757Y-88389286D02*
X158417614Y-88317857D01*
X158417614Y-88317857D02*
X159203328Y-88317857D01*
X159203328Y-87603572D02*
X158203328Y-87603572D01*
X158346185Y-87603572D02*
X158274757Y-87532143D01*
X158274757Y-87532143D02*
X158203328Y-87389286D01*
X158203328Y-87389286D02*
X158203328Y-87175000D01*
X158203328Y-87175000D02*
X158274757Y-87032143D01*
X158274757Y-87032143D02*
X158417614Y-86960715D01*
X158417614Y-86960715D02*
X159203328Y-86960715D01*
X158417614Y-86960715D02*
X158274757Y-86889286D01*
X158274757Y-86889286D02*
X158203328Y-86746429D01*
X158203328Y-86746429D02*
X158203328Y-86532143D01*
X158203328Y-86532143D02*
X158274757Y-86389286D01*
X158274757Y-86389286D02*
X158417614Y-86317857D01*
X158417614Y-86317857D02*
X159203328Y-86317857D01*
D12*
X156125000Y-104200000D02*
X160911420Y-104200000D01*
X156125000Y-82150000D02*
X160911420Y-82150000D01*
X160325000Y-104200000D02*
X160325000Y-82150000D01*
X160325000Y-104200000D02*
X160325000Y-82150000D01*
X160325000Y-104200000D02*
X159738579Y-103073496D01*
X160325000Y-104200000D02*
X160911421Y-103073496D01*
X160325000Y-82150000D02*
X160911421Y-83276504D01*
X160325000Y-82150000D02*
X159738579Y-83276504D01*
D13*
%TO.P,Y1,1,1*%
%TO.N,Net-(C1-Pad1)*%
X147150000Y-93475000D03*
%TO.P,Y1,2,2*%
%TO.N,GND*%
X147150000Y-94875000D03*
%TO.P,Y1,3,3*%
%TO.N,Net-(U1-WLRF_XTAL_XOP)*%
X148250000Y-94875000D03*
%TO.P,Y1,4*%
%TO.N,N/C*%
X148250000Y-93475000D03*
%TD*%
D14*
%TO.P,C13,1*%
%TO.N,VOUT_CORE*%
X134975000Y-92700000D03*
%TO.P,C13,2*%
%TO.N,GND*%
X134975000Y-91150000D03*
%TD*%
D15*
%TO.P,C3,1*%
%TO.N,Net-(U1-WLRF_2G_RF)*%
X139775000Y-100200000D03*
%TO.P,C3,2*%
%TO.N,Net-(C3-Pad2)*%
X141325000Y-100200000D03*
%TD*%
D16*
%TO.P,C20,1*%
%TO.N,Net-(C19-Pad2)*%
X139330000Y-109925000D03*
%TO.P,C20,2*%
%TO.N,GND*%
X138370000Y-109925000D03*
%TD*%
D17*
%TO.P,J3,1,Pin_1*%
%TO.N,GND*%
X152975000Y-96975000D03*
D18*
%TO.P,J3,2,Pin_2*%
%TO.N,+3.3V*%
X152975000Y-99515000D03*
%TD*%
D19*
%TO.P,FB1,1*%
%TO.N,Net-(U1-BTFM_PLL_VDD)*%
X142200000Y-98562500D03*
%TO.P,FB1,2*%
%TO.N,XTAL_VDD*%
X142200000Y-96987500D03*
%TD*%
D14*
%TO.P,C6,1*%
%TO.N,VOUT_CORE*%
X133425000Y-92700000D03*
%TO.P,C6,2*%
%TO.N,GND*%
X133425000Y-91150000D03*
%TD*%
D20*
%TO.P,FB2,1*%
%TO.N,VDDBAT*%
X148562500Y-99525000D03*
%TO.P,FB2,2*%
%TO.N,+3.3V*%
X150137500Y-99525000D03*
%TD*%
D21*
%TO.P,R6,1*%
%TO.N,WL_GPIO2*%
X152000000Y-90675000D03*
%TO.P,R6,2*%
%TO.N,+3.3V*%
X153650000Y-90675000D03*
%TD*%
D22*
%TO.P,C16,1*%
%TO.N,VDDBAT*%
X129800000Y-95500000D03*
%TO.P,C16,2*%
%TO.N,GND*%
X128250000Y-95500000D03*
%TD*%
D15*
%TO.P,C4,1*%
%TO.N,Net-(C4-Pad1)*%
X139775000Y-101750000D03*
%TO.P,C4,2*%
%TO.N,Net-(C3-Pad2)*%
X141325000Y-101750000D03*
%TD*%
D14*
%TO.P,C14,1*%
%TO.N,VOUT_LN*%
X136525000Y-92700000D03*
%TO.P,C14,2*%
%TO.N,GND*%
X136525000Y-91150000D03*
%TD*%
D15*
%TO.P,C2,1*%
%TO.N,Net-(U1-WLRF_XTAL_XOP)*%
X147500000Y-96525000D03*
%TO.P,C2,2*%
%TO.N,GND*%
X149050000Y-96525000D03*
%TD*%
D17*
%TO.P,J2,1,Pin_1*%
%TO.N,WL_CLK*%
X144450000Y-84100000D03*
D18*
%TO.P,J2,2,Pin_2*%
%TO.N,WL_D*%
X141910000Y-84100000D03*
%TO.P,J2,3,Pin_3*%
%TO.N,WL_CS*%
X139370000Y-84100000D03*
%TO.P,J2,4,Pin_4*%
%TO.N,WL_ON*%
X136830000Y-84100000D03*
%TD*%
D23*
%TO.P,L1,1,1*%
%TO.N,WLRF_2G_ELG*%
X138200000Y-100150000D03*
%TO.P,L1,2,2*%
%TO.N,Net-(C4-Pad1)*%
X138200000Y-101725000D03*
%TD*%
D22*
%TO.P,C10,1*%
%TO.N,BT_PAVDD*%
X135900000Y-102075000D03*
%TO.P,C10,2*%
%TO.N,GND*%
X134350000Y-102075000D03*
%TD*%
D17*
%TO.P,J1,1,Pin_1*%
%TO.N,WL_GPIO2*%
X152125000Y-87800000D03*
D18*
%TO.P,J1,2,Pin_2*%
%TO.N,WL_GPIO0*%
X149585000Y-87800000D03*
%TO.P,J1,3,Pin_3*%
%TO.N,WL_GPIO1*%
X147045000Y-87800000D03*
%TD*%
D15*
%TO.P,C11,1*%
%TO.N,XTAL_VDD*%
X143750000Y-97025000D03*
%TO.P,C11,2*%
%TO.N,GND*%
X145300000Y-97025000D03*
%TD*%
D24*
%TO.P,R2,1*%
%TO.N,Net-(C3-Pad2)*%
X144125000Y-101500000D03*
%TO.P,R2,2*%
%TO.N,ANTENNA*%
X144125000Y-103150000D03*
%TD*%
D14*
%TO.P,C15,1*%
%TO.N,VDDBAT*%
X131875000Y-92700000D03*
%TO.P,C15,2*%
%TO.N,GND*%
X131875000Y-91150000D03*
%TD*%
D22*
%TO.P,C12,1*%
%TO.N,Net-(U1-BTFM_PLL_VDD)*%
X133400000Y-98375000D03*
%TO.P,C12,2*%
%TO.N,GND*%
X131850000Y-98375000D03*
%TD*%
D20*
%TO.P,L2,1,1*%
%TO.N,VDDBAT*%
X131562500Y-95500000D03*
%TO.P,L2,2,2*%
%TO.N,SR_VLX*%
X133137500Y-95500000D03*
%TD*%
D22*
%TO.P,C9,1*%
%TO.N,VOUT_3P3*%
X136400000Y-89425000D03*
%TO.P,C9,2*%
%TO.N,GND*%
X134850000Y-89425000D03*
%TD*%
D16*
%TO.P,C17,1*%
%TO.N,ANTENNA*%
X142330000Y-111900000D03*
%TO.P,C17,2*%
%TO.N,Net-(C17-Pad2)*%
X141370000Y-111900000D03*
%TD*%
D15*
%TO.P,C7,1*%
%TO.N,VDDBAT*%
X143750000Y-99325000D03*
%TO.P,C7,2*%
%TO.N,GND*%
X145300000Y-99325000D03*
%TD*%
D21*
%TO.P,R3,1*%
%TO.N,Net-(U1-SDIO_DATA_1)*%
X138425000Y-91875000D03*
%TO.P,R3,2*%
%TO.N,WL_D*%
X140075000Y-91875000D03*
%TD*%
D25*
%TO.P,U1,A1,BT_UART_RXD*%
%TO.N,unconnected-(U1-BT_UART_RXD-PadA1)*%
X135600000Y-97500000D03*
%TO.P,U1,A2,BT_UART_TXD*%
%TO.N,unconnected-(U1-BT_UART_TXD-PadA2)*%
X135600000Y-97100000D03*
%TO.P,U1,A5,BT_PCM_CLK*%
%TO.N,unconnected-(U1-BT_PCM_CLK-PadA5)*%
X135600000Y-95900000D03*
%TO.P,U1,A6,SR_VLX*%
%TO.N,SR_VLX*%
X135600000Y-95500000D03*
%TO.P,U1,A7,SR_PVSS*%
%TO.N,GND*%
X135600000Y-95100000D03*
%TO.P,U1,B1,BT_DEV_WAKE*%
X136000000Y-97500000D03*
%TO.P,U1,B2,BT_UART_~{CTS}*%
%TO.N,unconnected-(U1-BT_UART_~{CTS}-PadB2)*%
X136000000Y-97100000D03*
%TO.P,U1,B4,BT_PCM_OUT*%
%TO.N,unconnected-(U1-BT_PCM_OUT-PadB4)*%
X136000000Y-96300000D03*
%TO.P,U1,B5,BT_PCM_SYNC*%
%TO.N,unconnected-(U1-BT_PCM_SYNC-PadB5)*%
X136000000Y-95900000D03*
%TO.P,U1,B6,PMU_AVSS*%
%TO.N,GND*%
X136000000Y-95500000D03*
%TO.P,U1,B7,SR_VDDBAT5V*%
%TO.N,VDDBAT*%
X136000000Y-95100000D03*
%TO.P,U1,C1,BT_HOST_WAKE*%
%TO.N,unconnected-(U1-BT_HOST_WAKE-PadC1)*%
X136400000Y-97500000D03*
%TO.P,U1,C2,FM_OUT1*%
%TO.N,unconnected-(U1-FM_OUT1-PadC2)*%
X136400000Y-97100000D03*
%TO.P,U1,C3,BT_UART_~{RTS}*%
%TO.N,unconnected-(U1-BT_UART_~{RTS}-PadC3)*%
X136400000Y-96700000D03*
%TO.P,U1,C4,BT_PCM_IN*%
%TO.N,unconnected-(U1-BT_PCM_IN-PadC4)*%
X136400000Y-96300000D03*
%TO.P,U1,C6,VOUT_CLDO*%
%TO.N,VOUT_CORE*%
X136400000Y-95500000D03*
%TO.P,U1,C7,LDO_VDD1P5*%
%TO.N,VDDBAT*%
X136400000Y-95100000D03*
%TO.P,U1,D2,FM_OUT2*%
%TO.N,unconnected-(U1-FM_OUT2-PadD2)*%
X136800000Y-97100000D03*
%TO.P,U1,D3,VDDC*%
%TO.N,VOUT_CORE*%
X136800000Y-96700000D03*
%TO.P,U1,D4,VSSC*%
%TO.N,GND*%
X136800000Y-96300000D03*
%TO.P,U1,D6,VOUT_LNLDO*%
%TO.N,VOUT_LN*%
X136800000Y-95500000D03*
%TO.P,U1,E1,FM_RF_IN*%
%TO.N,unconnected-(U1-FM_RF_IN-PadE1)*%
X137200000Y-97500000D03*
%TO.P,U1,E2,FM_RF_VDD*%
%TO.N,Net-(U1-BTFM_PLL_VDD)*%
X137200000Y-97100000D03*
%TO.P,U1,E3,FM_RF_VSS*%
%TO.N,GND*%
X137200000Y-96700000D03*
%TO.P,U1,E6,BT_REG_ON*%
%TO.N,WL_ON*%
X137200000Y-95500000D03*
%TO.P,U1,E7,VOUT_3P3*%
%TO.N,VOUT_3P3*%
X137200000Y-95100000D03*
%TO.P,U1,F1,BT_VCO_VDD*%
%TO.N,Net-(U1-BTFM_PLL_VDD)*%
X137600000Y-97500000D03*
%TO.P,U1,F2,BTFM_PLL_VDD*%
X137600000Y-97100000D03*
%TO.P,U1,F5,LPO_IN*%
%TO.N,unconnected-(U1-LPO_IN-PadF5)*%
X137600000Y-95900000D03*
%TO.P,U1,F6,WCC_VDDIO*%
%TO.N,VDDBAT*%
X137600000Y-95500000D03*
%TO.P,U1,F7,LDO_VDDBAT5V*%
X137600000Y-95100000D03*
%TO.P,U1,G1,BT_IF_VDD*%
%TO.N,Net-(U1-BTFM_PLL_VDD)*%
X138000000Y-97500000D03*
%TO.P,U1,G2,BTFM_PLL_VSS*%
%TO.N,GND*%
X138000000Y-97100000D03*
%TO.P,U1,G4,VDDC*%
%TO.N,VOUT_CORE*%
X138000000Y-96300000D03*
%TO.P,U1,G6,WL_REG_ON*%
%TO.N,WL_ON*%
X138000000Y-95500000D03*
%TO.P,U1,H1,BT_PAVDD*%
%TO.N,BT_PAVDD*%
X138400000Y-97500000D03*
%TO.P,U1,H2,BT_IF_VSS*%
%TO.N,GND*%
X138400000Y-97100000D03*
%TO.P,U1,H3,BT_VCO_VSS*%
X138400000Y-96700000D03*
%TO.P,U1,H4,WLRF_AFE_GND*%
X138400000Y-96300000D03*
%TO.P,U1,H6,GPIO_1*%
%TO.N,WL_GPIO1*%
X138400000Y-95500000D03*
%TO.P,U1,H7,SDIO_DATA_1*%
%TO.N,Net-(U1-SDIO_DATA_1)*%
X138400000Y-95100000D03*
%TO.P,U1,J1,WLRF_2G_ELG*%
%TO.N,WLRF_2G_ELG*%
X138800000Y-97500000D03*
%TO.P,U1,J2,WLRF_LNA_GND*%
%TO.N,GND*%
X138800000Y-97100000D03*
%TO.P,U1,J3,WLRF_GPIO*%
X138800000Y-96700000D03*
%TO.P,U1,J5,VSSC*%
X138800000Y-95900000D03*
%TO.P,U1,J6,GPIO_0*%
%TO.N,WL_GPIO0*%
X138800000Y-95500000D03*
%TO.P,U1,J7,SDIO_DATA_3*%
%TO.N,WL_CS*%
X138800000Y-95100000D03*
%TO.P,U1,K1,WLRF_2G_RF*%
%TO.N,Net-(U1-WLRF_2G_RF)*%
X139200000Y-97500000D03*
%TO.P,U1,K2,WLRF_GENERAL_GND*%
%TO.N,GND*%
X139200000Y-97100000D03*
%TO.P,U1,K6,SDIO_DATA_0*%
%TO.N,Net-(U1-SDIO_DATA_0)*%
X139200000Y-95500000D03*
%TO.P,U1,L2,WLRF_PA_GND*%
%TO.N,GND*%
X139600000Y-97100000D03*
%TO.P,U1,L3,WLRF_VCO_GND*%
X139600000Y-96700000D03*
%TO.P,U1,L4,WLRF_XTAL_GND*%
X139600000Y-96300000D03*
%TO.P,U1,L5,GPIO_2*%
%TO.N,WL_GPIO2*%
X139600000Y-95900000D03*
%TO.P,U1,L6,SDIO_CMD*%
%TO.N,WL_D*%
X139600000Y-95500000D03*
%TO.P,U1,L7,SDIO_DATA_2*%
X139600000Y-95100000D03*
%TO.P,U1,M1,WLRF_PA_VDD*%
%TO.N,VOUT_3P3*%
X140000000Y-97500000D03*
%TO.P,U1,M2,WLRF_VDD_1P35*%
%TO.N,VDDBAT*%
X140000000Y-97100000D03*
%TO.P,U1,M3,WLRF_XTAL_VDD1P2*%
%TO.N,XTAL_VDD*%
X140000000Y-96700000D03*
%TO.P,U1,M4,WLRF_XTAL_XOP*%
%TO.N,Net-(U1-WLRF_XTAL_XOP)*%
X140000000Y-96300000D03*
%TO.P,U1,M5,WLRF_XTAL_XON*%
%TO.N,Net-(U1-WLRF_XTAL_XON)*%
X140000000Y-95900000D03*
%TO.P,U1,M6,CLK_REQ*%
%TO.N,unconnected-(U1-CLK_REQ-PadM6)*%
X140000000Y-95500000D03*
%TO.P,U1,M7,SDIO_CLK*%
%TO.N,WL_CLK*%
X140000000Y-95100000D03*
%TD*%
D16*
%TO.P,C19,1*%
%TO.N,GND*%
X142330000Y-109925000D03*
%TO.P,C19,2*%
%TO.N,Net-(C19-Pad2)*%
X141370000Y-109925000D03*
%TD*%
%TO.P,C18,1*%
%TO.N,Net-(C17-Pad2)*%
X139330000Y-111900000D03*
%TO.P,C18,2*%
%TO.N,GND*%
X138370000Y-111900000D03*
%TD*%
D15*
%TO.P,C1,2*%
%TO.N,GND*%
X148325000Y-91875000D03*
%TO.P,C1,1*%
%TO.N,Net-(C1-Pad1)*%
X146775000Y-91875000D03*
%TD*%
D21*
%TO.P,R4,1*%
%TO.N,Net-(U1-SDIO_DATA_0)*%
X140075000Y-89775000D03*
%TO.P,R4,2*%
%TO.N,WL_D*%
X141725000Y-89775000D03*
%TD*%
D14*
%TO.P,C8,1*%
%TO.N,VDDBAT*%
X137950000Y-89475000D03*
%TO.P,C8,2*%
%TO.N,GND*%
X137950000Y-87925000D03*
%TD*%
D22*
%TO.P,C5,1*%
%TO.N,VOUT_3P3*%
X136425000Y-87650000D03*
%TO.P,C5,2*%
%TO.N,GND*%
X134875000Y-87650000D03*
%TD*%
D21*
%TO.P,R5,1*%
%TO.N,VOUT_3P3*%
X134300000Y-100300000D03*
%TO.P,R5,2*%
%TO.N,BT_PAVDD*%
X135950000Y-100300000D03*
%TD*%
%TO.P,R1,1*%
%TO.N,Net-(U1-WLRF_XTAL_XON)*%
X143675000Y-91875000D03*
%TO.P,R1,2*%
%TO.N,Net-(C1-Pad1)*%
X145325000Y-91875000D03*
%TD*%
D26*
%TO.N,GND*%
X128925000Y-99175000D03*
X126175000Y-94600000D03*
X147000000Y-99525000D03*
X155225000Y-99950000D03*
X155200000Y-95200000D03*
X155175000Y-90275000D03*
X137025000Y-98775000D03*
X134925000Y-98750000D03*
X133825000Y-97300000D03*
X134925000Y-98000000D03*
X134925000Y-96600000D03*
X142750000Y-100775000D03*
X142825000Y-99675000D03*
X143400000Y-100100000D03*
X143900000Y-100575000D03*
X143150000Y-101225000D03*
X137800000Y-99300000D03*
X141425000Y-99275000D03*
X140825000Y-99275000D03*
X140225000Y-99300000D03*
X142225000Y-99675000D03*
X142225000Y-100600000D03*
X142250000Y-101175000D03*
X137250000Y-99900000D03*
X137225000Y-100500000D03*
X137200000Y-101175000D03*
X137200000Y-101850000D03*
X137225000Y-102550000D03*
X137850000Y-102575000D03*
X138475000Y-102575000D03*
X139200000Y-102600000D03*
X139925000Y-102600000D03*
X140675000Y-102600000D03*
X141425000Y-102600000D03*
X142225000Y-102600000D03*
X142225000Y-101875000D03*
X143150000Y-101875000D03*
X143150000Y-102600000D03*
X143150000Y-103275000D03*
X143150000Y-104000000D03*
X143900000Y-104000000D03*
X145075000Y-102075000D03*
X145100000Y-103000000D03*
X139625000Y-98800000D03*
X138375000Y-98800000D03*
X138375000Y-99300000D03*
X139625000Y-99300000D03*
X131850000Y-89900000D03*
X126100000Y-99075000D03*
X126225000Y-90475000D03*
X135575000Y-86400000D03*
X130675000Y-86500000D03*
X126350000Y-86450000D03*
X139175000Y-88550000D03*
X139175000Y-86775000D03*
X143800000Y-88300000D03*
X143900000Y-86700000D03*
X142350000Y-88450000D03*
X142325000Y-86700000D03*
X141150000Y-88425000D03*
X141150000Y-86775000D03*
X146025000Y-93175000D03*
X143550000Y-93200000D03*
X141900000Y-94975000D03*
X150300000Y-92550000D03*
X150875000Y-90000000D03*
X145000000Y-90150000D03*
X142300000Y-92800000D03*
X140975000Y-94100000D03*
X146050000Y-94875000D03*
X146225000Y-109250000D03*
X132575000Y-111825000D03*
X144725000Y-109300000D03*
X154925000Y-111450000D03*
X145600000Y-103650000D03*
X145150000Y-107250000D03*
X145300000Y-98150000D03*
X146300000Y-104425000D03*
X133475000Y-89925000D03*
X126425000Y-107275000D03*
X150750000Y-106975000D03*
X144075000Y-109925000D03*
X137050000Y-108025000D03*
X135975000Y-98000000D03*
X145500000Y-110050000D03*
X154925000Y-106900000D03*
X144700000Y-108675000D03*
X143675000Y-111825000D03*
X144300000Y-111225000D03*
X154875000Y-102875000D03*
X137075000Y-110450000D03*
X150275000Y-102025000D03*
X142900000Y-111100000D03*
X140368753Y-108019975D03*
X140175000Y-104950000D03*
X127075000Y-95500000D03*
X144675000Y-104475000D03*
X126425000Y-102700000D03*
X143475000Y-110500000D03*
X143525000Y-108025000D03*
X146350000Y-106300000D03*
X133275000Y-102025000D03*
X133975000Y-94350000D03*
X130775000Y-98400000D03*
X136000000Y-108675000D03*
X146350000Y-108125000D03*
X141425000Y-108025000D03*
X139200000Y-96700000D03*
X146350000Y-105350000D03*
X144675000Y-108025000D03*
X135975000Y-109350000D03*
X134950000Y-95100000D03*
X149200000Y-91825000D03*
X138025000Y-86975000D03*
X149625000Y-111950000D03*
X144900000Y-110650000D03*
X146350000Y-107225000D03*
X138150000Y-108025000D03*
X145150000Y-105375000D03*
X142425000Y-108025000D03*
X136475000Y-109925000D03*
X126500000Y-111700000D03*
X149975000Y-96525000D03*
X137675000Y-111075000D03*
X136000000Y-108025000D03*
X139275000Y-108025000D03*
X145150000Y-106325000D03*
X131175000Y-107075000D03*
D27*
%TO.N,WL_GPIO2*%
X139200000Y-95900000D03*
X140750000Y-96150000D03*
%TO.N,WL_GPIO1*%
X140525000Y-92950000D03*
X138200000Y-93091608D03*
%TO.N,WL_GPIO0*%
X139050000Y-93200000D03*
X140525000Y-93525000D03*
D26*
%TO.N,VOUT_3P3*%
X134550000Y-95875000D03*
X137200000Y-94000000D03*
X140675000Y-97500000D03*
%TO.N,VDDBAT*%
X141125000Y-97100000D03*
X137600000Y-93575000D03*
X134625000Y-93725000D03*
%TO.N,Net-(U1-BTFM_PLL_VDD)*%
X139650000Y-98075000D03*
X138000000Y-98075000D03*
%TD*%
D28*
%TO.N,+3.3V*%
X152975000Y-99515000D02*
X150147500Y-99515000D01*
X150147500Y-99515000D02*
X150137500Y-99525000D01*
%TO.N,VDDBAT*%
X148562500Y-99525000D02*
X148137500Y-99950000D01*
X148137500Y-99950000D02*
X144375000Y-99950000D01*
X144375000Y-99950000D02*
X143750000Y-99325000D01*
%TO.N,BT_PAVDD*%
X138400000Y-97500000D02*
X138400000Y-98175000D01*
X138400000Y-98175000D02*
X136275000Y-100300000D01*
X136275000Y-100300000D02*
X135950000Y-100300000D01*
D29*
%TO.N,WLRF_2G_ELG*%
X138800000Y-97500000D02*
X138800000Y-99550000D01*
X138800000Y-99550000D02*
X138200000Y-100150000D01*
%TO.N,Net-(U1-WLRF_2G_RF)*%
X139200000Y-97500000D02*
X139200000Y-99625000D01*
X139200000Y-99625000D02*
X139775000Y-100200000D01*
D28*
%TO.N,Net-(U1-BTFM_PLL_VDD)*%
X139650000Y-98075000D02*
X141712500Y-98075000D01*
X141712500Y-98075000D02*
X142200000Y-98562500D01*
%TO.N,VDDBAT*%
X141125000Y-97100000D02*
X141775000Y-97750000D01*
X141775000Y-97750000D02*
X142650000Y-97750000D01*
X142650000Y-97750000D02*
X143750000Y-98850000D01*
X143750000Y-98850000D02*
X143750000Y-99325000D01*
%TO.N,Net-(U1-WLRF_XTAL_XOP)*%
X140000000Y-96300000D02*
X140550000Y-95750000D01*
X140550000Y-95750000D02*
X146300000Y-95750000D01*
X146300000Y-95750000D02*
X147075000Y-96525000D01*
X147075000Y-96525000D02*
X147500000Y-96525000D01*
%TO.N,WL_GPIO2*%
X140750000Y-96150000D02*
X140825000Y-96225000D01*
X140825000Y-96225000D02*
X145900000Y-96225000D01*
X145900000Y-96225000D02*
X147200000Y-97525000D01*
X147200000Y-97525000D02*
X149825000Y-97525000D01*
%TO.N,Net-(U1-WLRF_XTAL_XOP)*%
X147500000Y-95925000D02*
X148250000Y-95175000D01*
X148250000Y-95175000D02*
X148250000Y-94875000D01*
%TO.N,WL_GPIO2*%
X150775000Y-96575000D02*
X150775000Y-91900000D01*
X149825000Y-97525000D02*
X150775000Y-96575000D01*
X150775000Y-91900000D02*
X152000000Y-90675000D01*
%TO.N,Net-(U1-WLRF_XTAL_XOP)*%
X147500000Y-96525000D02*
X147500000Y-95925000D01*
%TO.N,Net-(C1-Pad1)*%
X146775000Y-91875000D02*
X146775000Y-93100000D01*
X146775000Y-93100000D02*
X147150000Y-93475000D01*
X147150000Y-93475000D02*
X147125000Y-93500000D01*
X145325000Y-91875000D02*
X146775000Y-91875000D01*
%TO.N,Net-(U1-WLRF_XTAL_XON)*%
X140000000Y-95900000D02*
X143675000Y-92225000D01*
X143675000Y-92225000D02*
X143675000Y-91875000D01*
%TO.N,GND*%
X134350000Y-102075000D02*
X133325000Y-102075000D01*
X133325000Y-102075000D02*
X133275000Y-102025000D01*
X135000000Y-91175000D02*
X134975000Y-91150000D01*
X138025000Y-87850000D02*
X137950000Y-87925000D01*
X134875000Y-89400000D02*
X134850000Y-89425000D01*
D29*
X144075000Y-109925000D02*
X142330000Y-109925000D01*
D28*
X134950000Y-95100000D02*
X135600000Y-95100000D01*
D29*
X138370000Y-109925000D02*
X136475000Y-109925000D01*
D28*
X136800000Y-96300000D02*
X136000000Y-95500000D01*
X135975000Y-97525000D02*
X136000000Y-97500000D01*
X136000000Y-95500000D02*
X135600000Y-95100000D01*
X135975000Y-98000000D02*
X135975000Y-97525000D01*
D29*
%TO.N,Net-(C3-Pad2)*%
X141325000Y-101750000D02*
X141325000Y-100200000D01*
X141325000Y-100200000D02*
X142825000Y-100200000D01*
X142825000Y-100200000D02*
X144125000Y-101500000D01*
%TO.N,Net-(C4-Pad1)*%
X139775000Y-101750000D02*
X138225000Y-101750000D01*
D28*
X138225000Y-101750000D02*
X138200000Y-101725000D01*
D30*
%TO.N,ANTENNA*%
X145700000Y-109100000D02*
X142900000Y-111900000D01*
X142900000Y-111900000D02*
X142330000Y-111900000D01*
X144125000Y-103150000D02*
X145700000Y-104725000D01*
X145700000Y-104725000D02*
X145700000Y-109100000D01*
D28*
%TO.N,WL_D*%
X139600000Y-95500000D02*
X139600000Y-95100000D01*
X139600000Y-92350000D02*
X140075000Y-91875000D01*
X141725000Y-84285000D02*
X141910000Y-84100000D01*
X140075000Y-91875000D02*
X140075000Y-91425000D01*
X140075000Y-91425000D02*
X141725000Y-89775000D01*
X141725000Y-89775000D02*
X141725000Y-84285000D01*
X139600000Y-95100000D02*
X139600000Y-92350000D01*
%TO.N,Net-(U1-SDIO_DATA_1)*%
X138525000Y-91975000D02*
X138425000Y-91875000D01*
X138525000Y-94975000D02*
X138525000Y-91975000D01*
X138400000Y-95100000D02*
X138525000Y-94975000D01*
%TO.N,Net-(U1-SDIO_DATA_0)*%
X139325000Y-95375000D02*
X139325000Y-94986091D01*
X139200000Y-95500000D02*
X139325000Y-95375000D01*
X139325000Y-94986091D02*
X139400000Y-94911091D01*
X139400000Y-94911091D02*
X139400000Y-90450000D01*
X139400000Y-90450000D02*
X140075000Y-89775000D01*
%TO.N,WL_CLK*%
X144450000Y-88475516D02*
X144450000Y-84100000D01*
X139900000Y-95000000D02*
X139900000Y-93025516D01*
X139900000Y-93025516D02*
X144450000Y-88475516D01*
X140000000Y-95100000D02*
X139900000Y-95000000D01*
%TO.N,WL_CS*%
X138975000Y-91449484D02*
X138825000Y-91299484D01*
X138800000Y-95100000D02*
X138725000Y-95025000D01*
X138825000Y-84645000D02*
X139370000Y-84100000D01*
X138975000Y-92300516D02*
X138975000Y-91449484D01*
X138825000Y-91299484D02*
X138825000Y-84645000D01*
X138725000Y-95025000D02*
X138725000Y-92550516D01*
X138725000Y-92550516D02*
X138975000Y-92300516D01*
%TO.N,WL_ON*%
X138000000Y-93409314D02*
X137875000Y-93284314D01*
X137200000Y-95888909D02*
X137486091Y-96175000D01*
X137875000Y-90650000D02*
X138575000Y-89950000D01*
X137875000Y-93284314D02*
X137875000Y-90650000D01*
X138575000Y-85845000D02*
X136830000Y-84100000D01*
X138575000Y-89950000D02*
X138575000Y-85845000D01*
X138000000Y-95900000D02*
X138000000Y-95500000D01*
X137875000Y-93865686D02*
X138000000Y-93740686D01*
X137200000Y-95500000D02*
X137200000Y-95888909D01*
X137725000Y-96175000D02*
X138000000Y-95900000D01*
X137486091Y-96175000D02*
X137725000Y-96175000D01*
X138000000Y-93740686D02*
X138000000Y-93409314D01*
X138000000Y-95500000D02*
X137875000Y-95375000D01*
X137875000Y-95375000D02*
X137875000Y-93865686D01*
%TO.N,WL_GPIO2*%
X152000000Y-87925000D02*
X152125000Y-87800000D01*
X152000000Y-90675000D02*
X152000000Y-87925000D01*
X152125000Y-87800000D02*
X152125000Y-87925000D01*
X139600000Y-95900000D02*
X139200000Y-95900000D01*
%TO.N,WL_GPIO1*%
X145650000Y-87800000D02*
X147045000Y-87800000D01*
X147045000Y-87800000D02*
X147045000Y-87925000D01*
X138400000Y-95500000D02*
X138125000Y-95225000D01*
X138200000Y-94325000D02*
X138125000Y-94400000D01*
X138125000Y-95225000D02*
X138125000Y-94425000D01*
X140525000Y-92925000D02*
X145650000Y-87800000D01*
X140525000Y-92950000D02*
X140525000Y-92925000D01*
X138200000Y-93091608D02*
X138200000Y-94325000D01*
%TO.N,WL_GPIO0*%
X139075000Y-94986091D02*
X139075000Y-95225000D01*
X147985000Y-89400000D02*
X149585000Y-87800000D01*
X144650000Y-89400000D02*
X147985000Y-89400000D01*
X139050000Y-93200000D02*
X139050000Y-94961091D01*
X140525000Y-93525000D02*
X144650000Y-89400000D01*
X139050000Y-94961091D02*
X139075000Y-94986091D01*
X139075000Y-95225000D02*
X138800000Y-95500000D01*
%TO.N,VOUT_3P3*%
X137225000Y-90250000D02*
X136400000Y-89425000D01*
X140675000Y-97500000D02*
X140000000Y-97500000D01*
X134550000Y-95875000D02*
X132800000Y-97625000D01*
X137200000Y-91000000D02*
X137225000Y-90975000D01*
X132800000Y-99075000D02*
X134025000Y-100300000D01*
X132800000Y-97625000D02*
X132800000Y-99075000D01*
X136400000Y-89425000D02*
X136400000Y-87675000D01*
X137225000Y-90975000D02*
X137225000Y-90250000D01*
X137200000Y-95100000D02*
X137200000Y-94000000D01*
X137200000Y-94000000D02*
X137200000Y-91000000D01*
X134025000Y-100300000D02*
X134300000Y-100300000D01*
X136400000Y-87675000D02*
X136425000Y-87650000D01*
%TO.N,VOUT_CORE*%
X137200000Y-96300000D02*
X136800000Y-96700000D01*
X136400000Y-95500000D02*
X137200000Y-96300000D01*
X136675000Y-94850000D02*
X134975000Y-93150000D01*
X134975000Y-93150000D02*
X134975000Y-92700000D01*
X136675000Y-95213909D02*
X136675000Y-94850000D01*
X137875000Y-96425000D02*
X137325000Y-96425000D01*
X138000000Y-96300000D02*
X137875000Y-96425000D01*
X136400000Y-95500000D02*
X136400000Y-95488909D01*
X134975000Y-92700000D02*
X133425000Y-92700000D01*
X137325000Y-96425000D02*
X137200000Y-96300000D01*
X136400000Y-95488909D02*
X136675000Y-95213909D01*
%TO.N,VDDBAT*%
X132900000Y-94162500D02*
X131562500Y-95500000D01*
X137600000Y-95100000D02*
X137600000Y-93575000D01*
X137600000Y-93575000D02*
X137600000Y-89825000D01*
X137600000Y-95500000D02*
X137600000Y-95100000D01*
X132900000Y-93725000D02*
X132900000Y-94162500D01*
X140000000Y-97100000D02*
X141125000Y-97100000D01*
X132900000Y-93725000D02*
X131875000Y-92700000D01*
X134625000Y-93725000D02*
X136000000Y-95100000D01*
X131562500Y-95500000D02*
X129800000Y-95500000D01*
X137600000Y-89825000D02*
X137950000Y-89475000D01*
X134625000Y-93725000D02*
X132900000Y-93725000D01*
X136400000Y-95100000D02*
X136000000Y-95100000D01*
%TO.N,BT_PAVDD*%
X135950000Y-100300000D02*
X135950000Y-102025000D01*
X135950000Y-102025000D02*
X135900000Y-102075000D01*
%TO.N,XTAL_VDD*%
X140000000Y-96700000D02*
X143425000Y-96700000D01*
X143425000Y-96700000D02*
X143750000Y-97025000D01*
%TO.N,Net-(U1-BTFM_PLL_VDD)*%
X138000000Y-97500000D02*
X137600000Y-97500000D01*
X133425000Y-98400000D02*
X133400000Y-98375000D01*
X136925000Y-97625000D02*
X136150000Y-98400000D01*
X137200000Y-97111091D02*
X136925000Y-97386091D01*
X136925000Y-97386091D02*
X136925000Y-97625000D01*
X137600000Y-97100000D02*
X137600000Y-97500000D01*
X136150000Y-98400000D02*
X133425000Y-98400000D01*
X137200000Y-97100000D02*
X137600000Y-97100000D01*
X137200000Y-97100000D02*
X137200000Y-97111091D01*
X138000000Y-98075000D02*
X138000000Y-97500000D01*
%TO.N,VOUT_LN*%
X136875000Y-94767157D02*
X136825000Y-94717157D01*
X136800000Y-95500000D02*
X136875000Y-95425000D01*
X136825000Y-93025000D02*
X136525000Y-92725000D01*
X136875000Y-95425000D02*
X136875000Y-94767157D01*
X136825000Y-94717157D02*
X136825000Y-93025000D01*
%TO.N,SR_VLX*%
X135600000Y-95500000D02*
X133137500Y-95500000D01*
%TO.N,+3.3V*%
X154325000Y-98165000D02*
X154325000Y-91350000D01*
X152975000Y-99515000D02*
X154325000Y-98165000D01*
X154325000Y-91350000D02*
X153650000Y-90675000D01*
D29*
%TO.N,Net-(C17-Pad2)*%
X141370000Y-111900000D02*
X139330000Y-111900000D01*
%TO.N,Net-(C19-Pad2)*%
X141370000Y-109925000D02*
X139330000Y-109925000D01*
%TD*%
%TA.AperFunction,Conductor*%
%TO.N,GND*%
G36*
X135227538Y-101640844D02*
G01*
X135294543Y-101660641D01*
X135340209Y-101713522D01*
X135350268Y-101781021D01*
X135349500Y-101786857D01*
X135349500Y-102363132D01*
X135349501Y-102363138D01*
X135355741Y-102410545D01*
X135404253Y-102514579D01*
X135485421Y-102595747D01*
X135589455Y-102644259D01*
X135636861Y-102650500D01*
X136163138Y-102650499D01*
X136210545Y-102644259D01*
X136314579Y-102595747D01*
X136395747Y-102514579D01*
X136444259Y-102410545D01*
X136450500Y-102363139D01*
X136450499Y-101786862D01*
X136450029Y-101783295D01*
X136460790Y-101714263D01*
X136507166Y-101662004D01*
X136573170Y-101643106D01*
X137500711Y-101644665D01*
X137567715Y-101664461D01*
X137613381Y-101717342D01*
X137624500Y-101768663D01*
X137624500Y-101981152D01*
X137624501Y-101981158D01*
X137630621Y-102027653D01*
X137630622Y-102027655D01*
X137630622Y-102027656D01*
X137635511Y-102038140D01*
X137678201Y-102129689D01*
X137757811Y-102209299D01*
X137859843Y-102256877D01*
X137859845Y-102256878D01*
X137859846Y-102256879D01*
X137865967Y-102257684D01*
X137906341Y-102263000D01*
X138493658Y-102262999D01*
X138540153Y-102256879D01*
X138642189Y-102209299D01*
X138721799Y-102129689D01*
X138769379Y-102027653D01*
X138769378Y-102027653D01*
X138771971Y-102022095D01*
X138818143Y-101969656D01*
X138884353Y-101950500D01*
X139104218Y-101950500D01*
X139171257Y-101970185D01*
X139217012Y-102022989D01*
X139227156Y-102058312D01*
X139230741Y-102085545D01*
X139279253Y-102189579D01*
X139360421Y-102270747D01*
X139464455Y-102319259D01*
X139511861Y-102325500D01*
X140038138Y-102325499D01*
X140085545Y-102319259D01*
X140189579Y-102270747D01*
X140270747Y-102189579D01*
X140319259Y-102085545D01*
X140325500Y-102038139D01*
X140325499Y-101773618D01*
X140345183Y-101706581D01*
X140397987Y-101660826D01*
X140449701Y-101649621D01*
X140650712Y-101649959D01*
X140717715Y-101669755D01*
X140763381Y-101722636D01*
X140774500Y-101773958D01*
X140774500Y-102038132D01*
X140774501Y-102038138D01*
X140780741Y-102085545D01*
X140829253Y-102189579D01*
X140910421Y-102270747D01*
X141014455Y-102319259D01*
X141061861Y-102325500D01*
X141588138Y-102325499D01*
X141635545Y-102319259D01*
X141739579Y-102270747D01*
X141820747Y-102189579D01*
X141869259Y-102085545D01*
X141875500Y-102038139D01*
X141875499Y-101776223D01*
X141895183Y-101709186D01*
X141947987Y-101663431D01*
X141999701Y-101652226D01*
X143428794Y-101654628D01*
X143495800Y-101674425D01*
X143541466Y-101727306D01*
X143551759Y-101764340D01*
X143552414Y-101769989D01*
X143552415Y-101769991D01*
X143597793Y-101872764D01*
X143597794Y-101872765D01*
X143677235Y-101952206D01*
X143780009Y-101997585D01*
X143805135Y-102000500D01*
X144444864Y-102000499D01*
X144444879Y-102000497D01*
X144444882Y-102000497D01*
X144469987Y-101997586D01*
X144469988Y-101997585D01*
X144469991Y-101997585D01*
X144572765Y-101952206D01*
X144652206Y-101872765D01*
X144697585Y-101769991D01*
X144697969Y-101766679D01*
X144699410Y-101763280D01*
X144700033Y-101760993D01*
X144700344Y-101761077D01*
X144725247Y-101702355D01*
X144782971Y-101662990D01*
X144821346Y-101656968D01*
X155426500Y-101674792D01*
X155493506Y-101694589D01*
X155539172Y-101747470D01*
X155550291Y-101798500D01*
X155574500Y-112063000D01*
X155574500Y-112151452D01*
X155554815Y-112218491D01*
X155502011Y-112264246D01*
X155450952Y-112275451D01*
X148850024Y-112299499D01*
X148849572Y-112299500D01*
X143154123Y-112299500D01*
X143087084Y-112279815D01*
X143041329Y-112227011D01*
X143031385Y-112157853D01*
X143060410Y-112094297D01*
X143066442Y-112087819D01*
X143876442Y-111277819D01*
X145912364Y-109241897D01*
X145950500Y-109149828D01*
X145950500Y-109050172D01*
X145950500Y-104675172D01*
X145912364Y-104583103D01*
X145841897Y-104512636D01*
X144736818Y-103407557D01*
X144703333Y-103346234D01*
X144700499Y-103319876D01*
X144700499Y-102905143D01*
X144700499Y-102905136D01*
X144699239Y-102894268D01*
X144697586Y-102880012D01*
X144697585Y-102880010D01*
X144697585Y-102880009D01*
X144652206Y-102777235D01*
X144572765Y-102697794D01*
X144572763Y-102697793D01*
X144469992Y-102652415D01*
X144444865Y-102649500D01*
X143805143Y-102649500D01*
X143805117Y-102649502D01*
X143780012Y-102652413D01*
X143780008Y-102652415D01*
X143677235Y-102697793D01*
X143597794Y-102777234D01*
X143552415Y-102880006D01*
X143552415Y-102880008D01*
X143549500Y-102905131D01*
X143549500Y-103394856D01*
X143549502Y-103394882D01*
X143552413Y-103419987D01*
X143552415Y-103419991D01*
X143597793Y-103522764D01*
X143597794Y-103522765D01*
X143677235Y-103602206D01*
X143780009Y-103647585D01*
X143805135Y-103650500D01*
X144219876Y-103650499D01*
X144286915Y-103670183D01*
X144307557Y-103686818D01*
X145413181Y-104792442D01*
X145446666Y-104853765D01*
X145449500Y-104880123D01*
X145449500Y-108944877D01*
X145429815Y-109011916D01*
X145413181Y-109032558D01*
X142848660Y-111597078D01*
X142787337Y-111630563D01*
X142717645Y-111625579D01*
X142661712Y-111583707D01*
X142657878Y-111578290D01*
X142655418Y-111574608D01*
X142643391Y-111556609D01*
X142563839Y-111503454D01*
X142563837Y-111503453D01*
X142563834Y-111503452D01*
X142493691Y-111489500D01*
X142493688Y-111489500D01*
X142234862Y-111489500D01*
X142167823Y-111469815D01*
X142122068Y-111417011D01*
X142112124Y-111347853D01*
X142141149Y-111284297D01*
X142147181Y-111277819D01*
X144350000Y-109075000D01*
X144350000Y-108325000D01*
X136350000Y-108325000D01*
X136350000Y-109075000D01*
X138813681Y-111538681D01*
X138847166Y-111600004D01*
X138850000Y-111626362D01*
X138850000Y-112175500D01*
X138830315Y-112242539D01*
X138777511Y-112288294D01*
X138726000Y-112299500D01*
X125924000Y-112299500D01*
X125856961Y-112279815D01*
X125811206Y-112227011D01*
X125800000Y-112175500D01*
X125800000Y-101749208D01*
X125819685Y-101682169D01*
X125872489Y-101636414D01*
X125924204Y-101625208D01*
X135227538Y-101640844D01*
G37*
%TD.AperFunction*%
%TD*%
%TA.AperFunction,Conductor*%
%TO.N,GND*%
G36*
X138918908Y-95789352D02*
G01*
X138933260Y-95824000D01*
X138932319Y-95833559D01*
X138919103Y-95900002D01*
X138940483Y-96007492D01*
X139001375Y-96098624D01*
X139048209Y-96129917D01*
X139092505Y-96159515D01*
X139092507Y-96159516D01*
X139199997Y-96180897D01*
X139200000Y-96180897D01*
X139200003Y-96180897D01*
X139307492Y-96159516D01*
X139307492Y-96159515D01*
X139307495Y-96159515D01*
X139398624Y-96098624D01*
X139400027Y-96096523D01*
X139431206Y-96075687D01*
X139467985Y-96082998D01*
X139512014Y-96112417D01*
X139600000Y-96129918D01*
X139608459Y-96128235D01*
X139639932Y-96132466D01*
X139697913Y-96161456D01*
X139722485Y-96189788D01*
X139725000Y-96205283D01*
X139725000Y-97176000D01*
X139710648Y-97210648D01*
X139676000Y-97225000D01*
X137898550Y-97225000D01*
X137863902Y-97210648D01*
X137860288Y-97206610D01*
X137833226Y-97172783D01*
X137822788Y-97136762D01*
X137823425Y-97132640D01*
X137829918Y-97100000D01*
X137812417Y-97012014D01*
X137770647Y-96949500D01*
X137762577Y-96937422D01*
X137687986Y-96887583D01*
X137600000Y-96870082D01*
X137512013Y-96887583D01*
X137479231Y-96909487D01*
X137442448Y-96916802D01*
X137440125Y-96916281D01*
X137112116Y-96834279D01*
X137081983Y-96811952D01*
X137075000Y-96786742D01*
X137075000Y-96658135D01*
X137089352Y-96623487D01*
X137123487Y-96589352D01*
X137158135Y-96575000D01*
X137287724Y-96575000D01*
X137292803Y-96575500D01*
X137295064Y-96575500D01*
X137907197Y-96575500D01*
X137912276Y-96575000D01*
X138275000Y-96575000D01*
X138275000Y-96195296D01*
X138289352Y-96160648D01*
X138660648Y-95789352D01*
X138695296Y-95775000D01*
X138884260Y-95775000D01*
X138918908Y-95789352D01*
G37*
%TD.AperFunction*%
%TD*%
%TA.AperFunction,Conductor*%
%TO.N,GND*%
G36*
X141567539Y-98245185D02*
G01*
X141613294Y-98297989D01*
X141624500Y-98349500D01*
X141624500Y-98818652D01*
X141624501Y-98818658D01*
X141630621Y-98865153D01*
X141630622Y-98865155D01*
X141630622Y-98865156D01*
X141669953Y-98949501D01*
X141678201Y-98967189D01*
X141757811Y-99046799D01*
X141859843Y-99094377D01*
X141859845Y-99094378D01*
X141859846Y-99094379D01*
X141865967Y-99095184D01*
X141906341Y-99100500D01*
X142493658Y-99100499D01*
X142540153Y-99094379D01*
X142642189Y-99046799D01*
X142721799Y-98967189D01*
X142769379Y-98865153D01*
X142775500Y-98818659D01*
X142775499Y-98387700D01*
X142795183Y-98320662D01*
X142847987Y-98274907D01*
X142917146Y-98264963D01*
X142980702Y-98293988D01*
X142987180Y-98300020D01*
X143325736Y-98638576D01*
X143359221Y-98699899D01*
X143354237Y-98769591D01*
X143325736Y-98813938D01*
X143254253Y-98885420D01*
X143205740Y-98989456D01*
X143199500Y-99036860D01*
X143199500Y-99613132D01*
X143199501Y-99613138D01*
X143205741Y-99660545D01*
X143205742Y-99660547D01*
X143205742Y-99660548D01*
X143249089Y-99753504D01*
X143254253Y-99764579D01*
X143335421Y-99845747D01*
X143439455Y-99894259D01*
X143486861Y-99900500D01*
X144013138Y-99900499D01*
X144013139Y-99900499D01*
X144028288Y-99898504D01*
X144040457Y-99896903D01*
X144109492Y-99907669D01*
X144144321Y-99932161D01*
X144298385Y-100086225D01*
X144295923Y-100088686D01*
X144327533Y-100126508D01*
X144336242Y-100195833D01*
X144306088Y-100258861D01*
X144246646Y-100295581D01*
X144213838Y-100300000D01*
X143636278Y-100300000D01*
X143613906Y-100297965D01*
X143515137Y-100279847D01*
X143152992Y-100213418D01*
X143090605Y-100181961D01*
X143087684Y-100179134D01*
X142938574Y-100030024D01*
X142864883Y-99999500D01*
X142864882Y-99999500D01*
X141998069Y-99999500D01*
X141975697Y-99997465D01*
X141973350Y-99997034D01*
X141910964Y-99965577D01*
X141875487Y-99905384D01*
X141872788Y-99891268D01*
X141869259Y-99864455D01*
X141820747Y-99760421D01*
X141739579Y-99679253D01*
X141635545Y-99630741D01*
X141635543Y-99630740D01*
X141635544Y-99630740D01*
X141588139Y-99624500D01*
X141061867Y-99624500D01*
X141046839Y-99626478D01*
X141014455Y-99630741D01*
X141014453Y-99630742D01*
X141014451Y-99630742D01*
X140910422Y-99679252D01*
X140852676Y-99736997D01*
X140791352Y-99770481D01*
X140742624Y-99771279D01*
X140171911Y-99666593D01*
X140141880Y-99657010D01*
X140085545Y-99630741D01*
X140085543Y-99630740D01*
X140085544Y-99630740D01*
X140038140Y-99624500D01*
X139953714Y-99624500D01*
X139931341Y-99622465D01*
X139502127Y-99543732D01*
X139439740Y-99512275D01*
X139404263Y-99452082D01*
X139400500Y-99421767D01*
X139400500Y-98481064D01*
X139420185Y-98414025D01*
X139472989Y-98368270D01*
X139542147Y-98358326D01*
X139566896Y-98364538D01*
X139597014Y-98375500D01*
X139597017Y-98375500D01*
X139702983Y-98375500D01*
X139702986Y-98375500D01*
X139785020Y-98345642D01*
X139802566Y-98339257D01*
X139802568Y-98339256D01*
X139883748Y-98271138D01*
X139883750Y-98271133D01*
X139884877Y-98269792D01*
X139887170Y-98268266D01*
X139892058Y-98264165D01*
X139892515Y-98264710D01*
X139943049Y-98231091D01*
X139979865Y-98225500D01*
X141500500Y-98225500D01*
X141567539Y-98245185D01*
G37*
%TD.AperFunction*%
%TA.AperFunction,Conductor*%
G36*
X155517539Y-89694685D02*
G01*
X155563294Y-89747489D01*
X155574500Y-89799000D01*
X155574500Y-95039989D01*
X155574495Y-95041156D01*
X155526156Y-100177167D01*
X155505841Y-100244018D01*
X155452609Y-100289274D01*
X155402161Y-100300000D01*
X153822552Y-100300000D01*
X153755513Y-100280315D01*
X153709758Y-100227511D01*
X153699814Y-100158353D01*
X153726699Y-100097335D01*
X153757681Y-100059582D01*
X153769136Y-100045625D01*
X153857396Y-99880501D01*
X153911747Y-99701331D01*
X153930099Y-99515000D01*
X153911747Y-99328669D01*
X153857396Y-99149499D01*
X153827934Y-99094379D01*
X153794837Y-99032458D01*
X153780595Y-98964055D01*
X153805595Y-98898812D01*
X153816514Y-98886324D01*
X154124586Y-98578253D01*
X154452587Y-98250252D01*
X154459297Y-98234049D01*
X154475500Y-98194936D01*
X154475500Y-91320064D01*
X154452587Y-91264749D01*
X154452587Y-91264748D01*
X154186817Y-90998978D01*
X154153333Y-90937656D01*
X154150499Y-90911298D01*
X154150499Y-90355143D01*
X154150499Y-90355136D01*
X154150497Y-90355117D01*
X154147586Y-90330012D01*
X154147585Y-90330010D01*
X154147585Y-90330009D01*
X154102206Y-90227235D01*
X154022765Y-90147794D01*
X154022763Y-90147793D01*
X153919992Y-90102415D01*
X153894865Y-90099500D01*
X153405143Y-90099500D01*
X153405117Y-90099502D01*
X153380012Y-90102413D01*
X153380008Y-90102415D01*
X153277235Y-90147793D01*
X153197794Y-90227234D01*
X153152415Y-90330006D01*
X153152415Y-90330008D01*
X153149500Y-90355131D01*
X153149500Y-90994856D01*
X153149502Y-90994882D01*
X153152413Y-91019987D01*
X153152415Y-91019991D01*
X153197793Y-91122764D01*
X153197794Y-91122765D01*
X153277235Y-91202206D01*
X153380009Y-91247585D01*
X153405135Y-91250500D01*
X153894864Y-91250499D01*
X153894879Y-91250497D01*
X153894882Y-91250497D01*
X153919985Y-91247586D01*
X153919986Y-91247585D01*
X153919991Y-91247585D01*
X153919994Y-91247583D01*
X153921159Y-91247267D01*
X153922507Y-91247293D01*
X153929258Y-91246511D01*
X153929364Y-91247430D01*
X153991015Y-91248660D01*
X154041394Y-91279233D01*
X154138182Y-91376021D01*
X154171666Y-91437342D01*
X154174500Y-91463701D01*
X154174500Y-98051298D01*
X154154815Y-98118337D01*
X154138181Y-98138979D01*
X153603674Y-98673485D01*
X153542351Y-98706970D01*
X153472659Y-98701986D01*
X153457540Y-98695162D01*
X153340502Y-98632604D01*
X153161333Y-98578253D01*
X153161331Y-98578252D01*
X152975000Y-98559901D01*
X152788668Y-98578252D01*
X152788666Y-98578253D01*
X152609497Y-98632604D01*
X152444376Y-98720862D01*
X152444373Y-98720864D01*
X152299642Y-98839642D01*
X152180864Y-98984373D01*
X152180862Y-98984376D01*
X152092604Y-99149497D01*
X152054079Y-99276496D01*
X152015782Y-99334934D01*
X151951969Y-99363391D01*
X151935419Y-99364500D01*
X150799499Y-99364500D01*
X150732460Y-99344815D01*
X150686705Y-99292011D01*
X150675499Y-99240500D01*
X150675499Y-99231347D01*
X150675499Y-99231342D01*
X150669379Y-99184847D01*
X150621799Y-99082811D01*
X150542189Y-99003201D01*
X150512711Y-98989455D01*
X150440154Y-98955621D01*
X150440153Y-98955620D01*
X150393659Y-98949500D01*
X149881347Y-98949500D01*
X149866608Y-98951440D01*
X149834847Y-98955621D01*
X149834845Y-98955622D01*
X149834843Y-98955622D01*
X149732810Y-99003201D01*
X149653201Y-99082810D01*
X149605621Y-99184845D01*
X149605620Y-99184846D01*
X149599500Y-99231340D01*
X149599500Y-99818652D01*
X149599501Y-99818658D01*
X149605621Y-99865153D01*
X149605622Y-99865155D01*
X149605622Y-99865156D01*
X149636867Y-99932161D01*
X149653201Y-99967189D01*
X149732811Y-100046799D01*
X149768880Y-100063618D01*
X149821319Y-100109791D01*
X149840470Y-100176985D01*
X149820254Y-100243866D01*
X149767088Y-100289200D01*
X149716474Y-100300000D01*
X148983525Y-100300000D01*
X148916486Y-100280315D01*
X148870731Y-100227511D01*
X148860787Y-100158353D01*
X148889812Y-100094797D01*
X148931120Y-100063618D01*
X148967189Y-100046799D01*
X149046799Y-99967189D01*
X149094379Y-99865153D01*
X149100500Y-99818659D01*
X149100499Y-99231342D01*
X149094379Y-99184847D01*
X149046799Y-99082811D01*
X148967189Y-99003201D01*
X148937711Y-98989455D01*
X148865154Y-98955621D01*
X148865153Y-98955620D01*
X148818659Y-98949500D01*
X148306347Y-98949500D01*
X148291608Y-98951440D01*
X148259847Y-98955621D01*
X148259845Y-98955622D01*
X148259843Y-98955622D01*
X148157810Y-99003201D01*
X148078201Y-99082810D01*
X148030621Y-99184845D01*
X148030620Y-99184846D01*
X148024500Y-99231340D01*
X148024500Y-99231341D01*
X148024500Y-99515000D01*
X148024501Y-99675500D01*
X148004817Y-99742539D01*
X147952013Y-99788294D01*
X147900501Y-99799500D01*
X144488701Y-99799500D01*
X144421662Y-99779815D01*
X144401020Y-99763181D01*
X144336818Y-99698979D01*
X144303333Y-99637656D01*
X144300499Y-99611307D01*
X144300499Y-99036862D01*
X144294259Y-98989455D01*
X144245747Y-98885421D01*
X144164579Y-98804253D01*
X144060545Y-98755741D01*
X144060543Y-98755740D01*
X144060544Y-98755740D01*
X144013140Y-98749500D01*
X144013139Y-98749500D01*
X143913702Y-98749500D01*
X143846663Y-98729815D01*
X143826021Y-98713181D01*
X142735251Y-97622411D01*
X142734398Y-97622058D01*
X142732822Y-97620788D01*
X142725094Y-97615624D01*
X142725556Y-97614932D01*
X142679995Y-97578216D01*
X142657931Y-97511922D01*
X142675211Y-97444223D01*
X142694168Y-97419819D01*
X142721799Y-97392189D01*
X142769379Y-97290153D01*
X142775500Y-97243659D01*
X142775499Y-96974498D01*
X142795183Y-96907461D01*
X142847987Y-96861706D01*
X142899499Y-96850500D01*
X143075500Y-96850500D01*
X143142539Y-96870185D01*
X143188294Y-96922989D01*
X143199500Y-96974500D01*
X143199500Y-97313132D01*
X143199501Y-97313138D01*
X143205741Y-97360545D01*
X143205742Y-97360547D01*
X143205742Y-97360548D01*
X143224372Y-97400500D01*
X143254253Y-97464579D01*
X143335421Y-97545747D01*
X143439455Y-97594259D01*
X143486861Y-97600500D01*
X144013138Y-97600499D01*
X144060545Y-97594259D01*
X144164579Y-97545747D01*
X144245747Y-97464579D01*
X144294259Y-97360545D01*
X144300500Y-97313139D01*
X144300499Y-96736862D01*
X144294259Y-96689455D01*
X144245747Y-96585421D01*
X144245746Y-96585420D01*
X144245746Y-96585419D01*
X144239525Y-96576535D01*
X144241093Y-96575436D01*
X144214022Y-96525858D01*
X144219006Y-96456166D01*
X144260878Y-96400233D01*
X144326342Y-96375816D01*
X144335188Y-96375500D01*
X145786298Y-96375500D01*
X145853337Y-96395185D01*
X145873979Y-96411819D01*
X147114746Y-97652586D01*
X147114747Y-97652586D01*
X147114749Y-97652588D01*
X147138863Y-97662575D01*
X147138865Y-97662577D01*
X147138866Y-97662577D01*
X147170064Y-97675500D01*
X147170065Y-97675500D01*
X149854934Y-97675500D01*
X149854936Y-97675500D01*
X149877842Y-97666011D01*
X149877848Y-97666010D01*
X149877848Y-97666009D01*
X149886139Y-97662575D01*
X149910252Y-97652588D01*
X150902588Y-96660252D01*
X150921433Y-96614754D01*
X150921435Y-96614751D01*
X150925499Y-96604939D01*
X150925500Y-96604936D01*
X150925500Y-92013701D01*
X150945185Y-91946662D01*
X150961819Y-91926020D01*
X151235828Y-91652011D01*
X151608604Y-91279234D01*
X151669925Y-91245751D01*
X151720681Y-91247056D01*
X151720745Y-91246510D01*
X151726812Y-91247214D01*
X151728834Y-91247266D01*
X151730003Y-91247584D01*
X151730008Y-91247584D01*
X151730009Y-91247585D01*
X151755135Y-91250500D01*
X152244864Y-91250499D01*
X152244879Y-91250497D01*
X152244882Y-91250497D01*
X152269987Y-91247586D01*
X152269988Y-91247585D01*
X152269991Y-91247585D01*
X152372765Y-91202206D01*
X152452206Y-91122765D01*
X152497585Y-91019991D01*
X152500500Y-90994865D01*
X152500499Y-90355136D01*
X152500497Y-90355117D01*
X152497586Y-90330012D01*
X152497585Y-90330010D01*
X152497585Y-90330009D01*
X152452206Y-90227235D01*
X152372765Y-90147794D01*
X152372763Y-90147793D01*
X152269992Y-90102415D01*
X152260208Y-90101280D01*
X152195884Y-90073999D01*
X152156520Y-90016273D01*
X152150500Y-89978106D01*
X152150500Y-89799000D01*
X152170185Y-89731961D01*
X152222989Y-89686206D01*
X152274500Y-89675000D01*
X155450500Y-89675000D01*
X155517539Y-89694685D01*
G37*
%TD.AperFunction*%
%TA.AperFunction,Conductor*%
G36*
X151792539Y-89694685D02*
G01*
X151838294Y-89747489D01*
X151849500Y-89799000D01*
X151849500Y-89978106D01*
X151829815Y-90045145D01*
X151777011Y-90090900D01*
X151739789Y-90101280D01*
X151730010Y-90102414D01*
X151730008Y-90102415D01*
X151627235Y-90147793D01*
X151547794Y-90227234D01*
X151502415Y-90330006D01*
X151502415Y-90330008D01*
X151499500Y-90355131D01*
X151499500Y-90911297D01*
X151479815Y-90978336D01*
X151463181Y-90998978D01*
X150647414Y-91814744D01*
X150647411Y-91814749D01*
X150634855Y-91845065D01*
X150634853Y-91845069D01*
X150624500Y-91870060D01*
X150624500Y-96461298D01*
X150604815Y-96528337D01*
X150588181Y-96548979D01*
X149798979Y-97338181D01*
X149737656Y-97371666D01*
X149711298Y-97374500D01*
X147313701Y-97374500D01*
X147246662Y-97354815D01*
X147226020Y-97338181D01*
X147200019Y-97312180D01*
X147166534Y-97250857D01*
X147171518Y-97181165D01*
X147213390Y-97125232D01*
X147278854Y-97100815D01*
X147287674Y-97100499D01*
X147763138Y-97100499D01*
X147810545Y-97094259D01*
X147914579Y-97045747D01*
X147995747Y-96964579D01*
X148044259Y-96860545D01*
X148050500Y-96813139D01*
X148050499Y-96236862D01*
X148044259Y-96189455D01*
X147995747Y-96085421D01*
X147914579Y-96004253D01*
X147883443Y-95989734D01*
X147831004Y-95943561D01*
X147811852Y-95876368D01*
X147832068Y-95809486D01*
X147848163Y-95789674D01*
X148176020Y-95461817D01*
X148237343Y-95428333D01*
X148263701Y-95425499D01*
X148659895Y-95425499D01*
X148659898Y-95425499D01*
X148689213Y-95419669D01*
X148722457Y-95397457D01*
X148744669Y-95364213D01*
X148750500Y-95334899D01*
X148750499Y-94415102D01*
X148744669Y-94385787D01*
X148744668Y-94385785D01*
X148722457Y-94352542D01*
X148689214Y-94330332D01*
X148689215Y-94330332D01*
X148689213Y-94330331D01*
X148689211Y-94330330D01*
X148689208Y-94330329D01*
X148659901Y-94324500D01*
X147840105Y-94324500D01*
X147840097Y-94324501D01*
X147810787Y-94330330D01*
X147777542Y-94352542D01*
X147755332Y-94385785D01*
X147755329Y-94385791D01*
X147749500Y-94415098D01*
X147749500Y-95334894D01*
X147749501Y-95334902D01*
X147757713Y-95376193D01*
X147753338Y-95377062D01*
X147758182Y-95422825D01*
X147726804Y-95485253D01*
X147723870Y-95488288D01*
X147372414Y-95839744D01*
X147372411Y-95839749D01*
X147360253Y-95869104D01*
X147360253Y-95869105D01*
X147358660Y-95872951D01*
X147314819Y-95927355D01*
X147248526Y-95949421D01*
X147244109Y-95949500D01*
X147236869Y-95949500D01*
X147231416Y-95950217D01*
X147189455Y-95955741D01*
X147189453Y-95955741D01*
X147189452Y-95955742D01*
X147189451Y-95955742D01*
X147085420Y-96004253D01*
X147013938Y-96075736D01*
X146952615Y-96109221D01*
X146882923Y-96104237D01*
X146838576Y-96075736D01*
X146385251Y-95622411D01*
X146352848Y-95608990D01*
X146352848Y-95608989D01*
X146329939Y-95599501D01*
X146329938Y-95599500D01*
X146329936Y-95599500D01*
X140812701Y-95599500D01*
X140745662Y-95579815D01*
X140699907Y-95527011D01*
X140689963Y-95457853D01*
X140718988Y-95394297D01*
X140725020Y-95387819D01*
X143626021Y-92486818D01*
X143687344Y-92453333D01*
X143713702Y-92450499D01*
X143919856Y-92450499D01*
X143919864Y-92450499D01*
X143919879Y-92450497D01*
X143919882Y-92450497D01*
X143944987Y-92447586D01*
X143944988Y-92447585D01*
X143944991Y-92447585D01*
X144047765Y-92402206D01*
X144127206Y-92322765D01*
X144172585Y-92219991D01*
X144175500Y-92194865D01*
X144175499Y-91555136D01*
X144175498Y-91555131D01*
X144824500Y-91555131D01*
X144824500Y-92194856D01*
X144824502Y-92194882D01*
X144827413Y-92219987D01*
X144827415Y-92219991D01*
X144872793Y-92322764D01*
X144872794Y-92322765D01*
X144952235Y-92402206D01*
X145055009Y-92447585D01*
X145080135Y-92450500D01*
X145569864Y-92450499D01*
X145569879Y-92450497D01*
X145569882Y-92450497D01*
X145594987Y-92447586D01*
X145594988Y-92447585D01*
X145594991Y-92447585D01*
X145697765Y-92402206D01*
X145777206Y-92322765D01*
X145822585Y-92219991D01*
X145825500Y-92194865D01*
X145825500Y-92149500D01*
X145845185Y-92082461D01*
X145897989Y-92036706D01*
X145949500Y-92025500D01*
X146100501Y-92025500D01*
X146167540Y-92045185D01*
X146213295Y-92097989D01*
X146224501Y-92149500D01*
X146224501Y-92163138D01*
X146230741Y-92210545D01*
X146230742Y-92210547D01*
X146230742Y-92210548D01*
X146279253Y-92314579D01*
X146360421Y-92395747D01*
X146464455Y-92444259D01*
X146515886Y-92451030D01*
X146515643Y-92452875D01*
X146574173Y-92474280D01*
X146616402Y-92529944D01*
X146624500Y-92574021D01*
X146624500Y-93129938D01*
X146632241Y-93148625D01*
X146640061Y-93167504D01*
X146649500Y-93214957D01*
X146649500Y-93934894D01*
X146649501Y-93934902D01*
X146655330Y-93964212D01*
X146677542Y-93997457D01*
X146694219Y-94008599D01*
X146710787Y-94019669D01*
X146710790Y-94019669D01*
X146710791Y-94019670D01*
X146720647Y-94021630D01*
X146740101Y-94025500D01*
X147559898Y-94025499D01*
X147589213Y-94019669D01*
X147622457Y-93997457D01*
X147622456Y-93997457D01*
X147631111Y-93991675D01*
X147697789Y-93970798D01*
X147765169Y-93989284D01*
X147768888Y-93991674D01*
X147777542Y-93997456D01*
X147777543Y-93997457D01*
X147810787Y-94019669D01*
X147810789Y-94019669D01*
X147810791Y-94019670D01*
X147820647Y-94021630D01*
X147840101Y-94025500D01*
X148659898Y-94025499D01*
X148689213Y-94019669D01*
X148722457Y-93997457D01*
X148744669Y-93964213D01*
X148750500Y-93934899D01*
X148750499Y-93015102D01*
X148744669Y-92985787D01*
X148730135Y-92964034D01*
X148722457Y-92952542D01*
X148689214Y-92930332D01*
X148689215Y-92930332D01*
X148689213Y-92930331D01*
X148689211Y-92930330D01*
X148689208Y-92930329D01*
X148659901Y-92924500D01*
X147840105Y-92924500D01*
X147840097Y-92924501D01*
X147810788Y-92930330D01*
X147768886Y-92958326D01*
X147702207Y-92979201D01*
X147634828Y-92960714D01*
X147631111Y-92958325D01*
X147589213Y-92930331D01*
X147589208Y-92930329D01*
X147559901Y-92924500D01*
X147559899Y-92924500D01*
X147049500Y-92924500D01*
X146982461Y-92904815D01*
X146936706Y-92852011D01*
X146925500Y-92800500D01*
X146925500Y-92574020D01*
X146945185Y-92506981D01*
X146997989Y-92461226D01*
X147034253Y-92452088D01*
X147034114Y-92451028D01*
X147038132Y-92450499D01*
X147038138Y-92450499D01*
X147085545Y-92444259D01*
X147189579Y-92395747D01*
X147270747Y-92314579D01*
X147319259Y-92210545D01*
X147325500Y-92163139D01*
X147325499Y-91586862D01*
X147319259Y-91539455D01*
X147270747Y-91435421D01*
X147189579Y-91354253D01*
X147085545Y-91305741D01*
X147085543Y-91305740D01*
X147085544Y-91305740D01*
X147038139Y-91299500D01*
X146511867Y-91299500D01*
X146496839Y-91301478D01*
X146464455Y-91305741D01*
X146464453Y-91305742D01*
X146464451Y-91305742D01*
X146360420Y-91354253D01*
X146279253Y-91435420D01*
X146230740Y-91539456D01*
X146224500Y-91586860D01*
X146224500Y-91600500D01*
X146204815Y-91667539D01*
X146152011Y-91713294D01*
X146100500Y-91724500D01*
X145949499Y-91724500D01*
X145882460Y-91704815D01*
X145836705Y-91652011D01*
X145825499Y-91600500D01*
X145825499Y-91555143D01*
X145825499Y-91555136D01*
X145823681Y-91539456D01*
X145822586Y-91530012D01*
X145822585Y-91530010D01*
X145822585Y-91530009D01*
X145777206Y-91427235D01*
X145697765Y-91347794D01*
X145674519Y-91337530D01*
X145594992Y-91302415D01*
X145569865Y-91299500D01*
X145080143Y-91299500D01*
X145080117Y-91299502D01*
X145055012Y-91302413D01*
X145055008Y-91302415D01*
X144952235Y-91347793D01*
X144872794Y-91427234D01*
X144827415Y-91530006D01*
X144827415Y-91530008D01*
X144824500Y-91555131D01*
X144175498Y-91555131D01*
X144173681Y-91539456D01*
X144172586Y-91530012D01*
X144172585Y-91530010D01*
X144172585Y-91530009D01*
X144127206Y-91427235D01*
X144047765Y-91347794D01*
X144024519Y-91337530D01*
X143944992Y-91302415D01*
X143919865Y-91299500D01*
X143430143Y-91299500D01*
X143430117Y-91299502D01*
X143405012Y-91302413D01*
X143405011Y-91302414D01*
X143388979Y-91309493D01*
X143319701Y-91318564D01*
X143256516Y-91288740D01*
X143219486Y-91229490D01*
X143220367Y-91159626D01*
X143251683Y-91107909D01*
X143340545Y-91019993D01*
X144267991Y-90102413D01*
X144663764Y-89710851D01*
X144725265Y-89677695D01*
X144750975Y-89675000D01*
X151725500Y-89675000D01*
X151792539Y-89694685D01*
G37*
%TD.AperFunction*%
%TA.AperFunction,Conductor*%
G36*
X143117245Y-91342887D02*
G01*
X143172954Y-91385056D01*
X143197021Y-91450650D01*
X143186726Y-91508920D01*
X143177415Y-91530006D01*
X143177415Y-91530008D01*
X143174500Y-91555131D01*
X143174500Y-92194856D01*
X143174502Y-92194882D01*
X143177413Y-92219987D01*
X143177415Y-92219991D01*
X143227435Y-92333276D01*
X143226085Y-92333871D01*
X143243815Y-92388291D01*
X143226105Y-92455879D01*
X143207549Y-92479609D01*
X140430260Y-95256898D01*
X140368937Y-95290383D01*
X140299245Y-95285399D01*
X140243312Y-95243527D01*
X140218895Y-95178063D01*
X140220962Y-95145025D01*
X140229918Y-95100000D01*
X140212417Y-95012014D01*
X140212416Y-95012013D01*
X140212416Y-95012011D01*
X140182485Y-94967218D01*
X140162577Y-94937423D01*
X140113002Y-94904298D01*
X140068199Y-94850686D01*
X140058774Y-94815936D01*
X140051379Y-94754164D01*
X140050500Y-94739425D01*
X140050500Y-94326788D01*
X140070185Y-94259749D01*
X140087286Y-94238642D01*
X140498125Y-93832173D01*
X140559622Y-93799020D01*
X140561008Y-93798734D01*
X140632495Y-93784515D01*
X140723624Y-93723624D01*
X140784515Y-93632495D01*
X140797825Y-93565578D01*
X140830209Y-93503670D01*
X140832208Y-93501644D01*
X142986081Y-91370685D01*
X143047581Y-91337530D01*
X143117245Y-91342887D01*
G37*
%TD.AperFunction*%
%TD*%
%TA.AperFunction,Conductor*%
%TO.N,GND*%
G36*
X138367539Y-86019685D02*
G01*
X138413294Y-86072489D01*
X138424500Y-86124000D01*
X138424500Y-88807639D01*
X138404815Y-88874678D01*
X138352011Y-88920433D01*
X138284317Y-88930579D01*
X138268777Y-88928533D01*
X138238139Y-88924500D01*
X138238134Y-88924500D01*
X137661867Y-88924500D01*
X137646839Y-88926478D01*
X137614455Y-88930741D01*
X137614453Y-88930742D01*
X137614451Y-88930742D01*
X137510420Y-88979253D01*
X137429253Y-89060420D01*
X137380740Y-89164456D01*
X137374500Y-89211860D01*
X137374500Y-89738132D01*
X137374501Y-89738138D01*
X137380741Y-89785545D01*
X137380742Y-89785547D01*
X137380742Y-89785548D01*
X137433838Y-89899411D01*
X137431764Y-89900377D01*
X137449402Y-89952669D01*
X137449500Y-89957591D01*
X137449500Y-89962299D01*
X137429815Y-90029338D01*
X137377011Y-90075093D01*
X137307853Y-90085037D01*
X137244297Y-90056012D01*
X137237819Y-90049980D01*
X136986818Y-89798979D01*
X136953333Y-89737656D01*
X136950499Y-89711307D01*
X136950499Y-89136862D01*
X136944259Y-89089455D01*
X136895747Y-88985421D01*
X136814579Y-88904253D01*
X136710545Y-88855741D01*
X136710543Y-88855740D01*
X136710544Y-88855740D01*
X136659114Y-88848970D01*
X136659352Y-88847158D01*
X136600703Y-88825628D01*
X136558544Y-88769911D01*
X136550500Y-88725978D01*
X136550500Y-88349499D01*
X136570185Y-88282460D01*
X136622989Y-88236705D01*
X136674500Y-88225499D01*
X136688133Y-88225499D01*
X136688138Y-88225499D01*
X136735545Y-88219259D01*
X136839579Y-88170747D01*
X136920747Y-88089579D01*
X136969259Y-87985545D01*
X136975500Y-87938139D01*
X136975499Y-87361862D01*
X136969259Y-87314455D01*
X136920747Y-87210421D01*
X136839579Y-87129253D01*
X136735545Y-87080741D01*
X136735543Y-87080740D01*
X136735544Y-87080740D01*
X136688139Y-87074500D01*
X136161867Y-87074500D01*
X136146839Y-87076478D01*
X136114455Y-87080741D01*
X136114453Y-87080742D01*
X136114451Y-87080742D01*
X136010420Y-87129253D01*
X135929253Y-87210420D01*
X135880740Y-87314456D01*
X135874500Y-87361860D01*
X135874500Y-87938132D01*
X135874501Y-87938138D01*
X135880741Y-87985545D01*
X135929253Y-88089579D01*
X136010421Y-88170747D01*
X136114455Y-88219259D01*
X136141685Y-88222844D01*
X136205581Y-88251110D01*
X136244053Y-88309434D01*
X136249500Y-88345783D01*
X136249500Y-88725979D01*
X136229815Y-88793018D01*
X136177011Y-88838773D01*
X136140749Y-88847932D01*
X136140886Y-88848972D01*
X136136867Y-88849500D01*
X136136862Y-88849501D01*
X136089455Y-88855741D01*
X136089453Y-88855741D01*
X136089452Y-88855742D01*
X136089451Y-88855742D01*
X135985420Y-88904253D01*
X135904253Y-88985420D01*
X135855740Y-89089456D01*
X135849500Y-89136860D01*
X135849500Y-89713132D01*
X135849501Y-89713138D01*
X135855741Y-89760545D01*
X135855742Y-89760547D01*
X135855742Y-89760548D01*
X135867399Y-89785546D01*
X135904253Y-89864579D01*
X135985421Y-89945747D01*
X136089455Y-89994259D01*
X136136861Y-90000500D01*
X136663138Y-90000499D01*
X136663139Y-90000499D01*
X136678288Y-89998504D01*
X136690457Y-89996903D01*
X136759492Y-90007669D01*
X136794321Y-90032161D01*
X137038181Y-90276020D01*
X137071666Y-90337343D01*
X137074500Y-90363701D01*
X137074500Y-90885043D01*
X137065063Y-90932492D01*
X137059856Y-90945064D01*
X137059853Y-90945069D01*
X137049500Y-90970060D01*
X137049500Y-91863456D01*
X137029815Y-91930495D01*
X136977011Y-91976250D01*
X136929986Y-91987375D01*
X135200000Y-92050000D01*
X135189656Y-92060724D01*
X135180315Y-92092539D01*
X135127511Y-92138294D01*
X135076000Y-92149500D01*
X134686867Y-92149500D01*
X134671839Y-92151478D01*
X134639455Y-92155741D01*
X134639453Y-92155742D01*
X134639451Y-92155742D01*
X134535420Y-92204253D01*
X134454253Y-92285420D01*
X134405740Y-92389456D01*
X134398970Y-92440886D01*
X134397124Y-92440643D01*
X134375720Y-92499173D01*
X134320056Y-92541402D01*
X134275979Y-92549500D01*
X134124020Y-92549500D01*
X134056981Y-92529815D01*
X134011226Y-92477011D01*
X134002088Y-92440746D01*
X134001028Y-92440886D01*
X134000499Y-92436867D01*
X134000499Y-92436862D01*
X133994259Y-92389455D01*
X133945747Y-92285421D01*
X133864579Y-92204253D01*
X133760545Y-92155741D01*
X133760543Y-92155740D01*
X133760544Y-92155740D01*
X133713139Y-92149500D01*
X133136867Y-92149500D01*
X133121839Y-92151478D01*
X133089455Y-92155741D01*
X133089453Y-92155742D01*
X133089451Y-92155742D01*
X132985420Y-92204253D01*
X132904253Y-92285420D01*
X132855740Y-92389456D01*
X132849500Y-92436860D01*
X132849500Y-92963132D01*
X132849501Y-92963138D01*
X132855741Y-93010545D01*
X132855742Y-93010547D01*
X132855742Y-93010548D01*
X132900500Y-93106530D01*
X132904253Y-93114579D01*
X132985421Y-93195747D01*
X133089455Y-93244259D01*
X133136861Y-93250500D01*
X133713138Y-93250499D01*
X133760545Y-93244259D01*
X133864579Y-93195747D01*
X133945747Y-93114579D01*
X133994259Y-93010545D01*
X134000500Y-92963139D01*
X134000500Y-92963138D01*
X134001030Y-92959114D01*
X134002875Y-92959356D01*
X134024280Y-92900827D01*
X134079944Y-92858598D01*
X134124021Y-92850500D01*
X134275980Y-92850500D01*
X134343019Y-92870185D01*
X134388774Y-92922989D01*
X134397911Y-92959253D01*
X134398972Y-92959114D01*
X134399501Y-92963132D01*
X134399501Y-92963138D01*
X134405741Y-93010545D01*
X134405742Y-93010547D01*
X134405742Y-93010548D01*
X134450500Y-93106530D01*
X134454253Y-93114579D01*
X134535421Y-93195747D01*
X134555663Y-93205186D01*
X134608101Y-93251356D01*
X134627253Y-93318550D01*
X134607038Y-93385431D01*
X134553873Y-93430766D01*
X134545667Y-93434089D01*
X134472432Y-93460743D01*
X134472431Y-93460743D01*
X134391253Y-93528860D01*
X134390123Y-93530208D01*
X134387829Y-93531733D01*
X134382942Y-93535835D01*
X134382484Y-93535289D01*
X134331951Y-93568909D01*
X134295135Y-93574500D01*
X133013702Y-93574500D01*
X132946663Y-93554815D01*
X132926021Y-93538181D01*
X132482161Y-93094321D01*
X132448676Y-93032998D01*
X132446903Y-92990458D01*
X132450500Y-92963139D01*
X132450499Y-92436862D01*
X132444259Y-92389455D01*
X132395747Y-92285421D01*
X132314579Y-92204253D01*
X132210545Y-92155741D01*
X132210543Y-92155740D01*
X132210544Y-92155740D01*
X132163139Y-92149500D01*
X131586867Y-92149500D01*
X131571839Y-92151478D01*
X131539455Y-92155741D01*
X131539453Y-92155742D01*
X131539451Y-92155742D01*
X131435420Y-92204253D01*
X131354253Y-92285420D01*
X131305740Y-92389456D01*
X131299500Y-92436860D01*
X131299500Y-92963132D01*
X131299501Y-92963138D01*
X131305741Y-93010545D01*
X131305742Y-93010547D01*
X131305742Y-93010548D01*
X131350500Y-93106530D01*
X131354253Y-93114579D01*
X131435421Y-93195747D01*
X131539455Y-93244259D01*
X131586861Y-93250500D01*
X132161297Y-93250499D01*
X132228336Y-93270183D01*
X132248978Y-93286818D01*
X132713181Y-93751021D01*
X132746666Y-93812344D01*
X132749500Y-93838702D01*
X132749500Y-94048797D01*
X132729815Y-94115836D01*
X132713181Y-94136478D01*
X131956009Y-94893649D01*
X131894686Y-94927134D01*
X131852146Y-94928908D01*
X131831813Y-94926231D01*
X131818659Y-94924500D01*
X131818656Y-94924500D01*
X131306347Y-94924500D01*
X131291608Y-94926440D01*
X131259847Y-94930621D01*
X131259845Y-94930622D01*
X131259843Y-94930622D01*
X131157810Y-94978201D01*
X131078201Y-95057810D01*
X131030621Y-95159845D01*
X131030620Y-95159846D01*
X131024501Y-95206330D01*
X131024500Y-95206347D01*
X131024500Y-95225500D01*
X131004815Y-95292539D01*
X130952011Y-95338294D01*
X130900500Y-95349500D01*
X130474499Y-95349500D01*
X130407460Y-95329815D01*
X130361705Y-95277011D01*
X130350499Y-95225500D01*
X130350499Y-95211867D01*
X130350499Y-95211862D01*
X130344259Y-95164455D01*
X130295747Y-95060421D01*
X130214579Y-94979253D01*
X130110545Y-94930741D01*
X130110543Y-94930740D01*
X130110544Y-94930740D01*
X130063139Y-94924500D01*
X129536867Y-94924500D01*
X129521839Y-94926478D01*
X129489455Y-94930741D01*
X129489453Y-94930742D01*
X129489451Y-94930742D01*
X129385420Y-94979253D01*
X129304253Y-95060420D01*
X129255740Y-95164456D01*
X129249500Y-95211860D01*
X129249500Y-95788132D01*
X129250228Y-95793659D01*
X129255741Y-95835545D01*
X129255742Y-95835547D01*
X129255742Y-95835548D01*
X129299756Y-95929936D01*
X129304253Y-95939579D01*
X129385421Y-96020747D01*
X129489455Y-96069259D01*
X129536861Y-96075500D01*
X130063138Y-96075499D01*
X130110545Y-96069259D01*
X130214579Y-96020747D01*
X130295747Y-95939579D01*
X130344259Y-95835545D01*
X130350500Y-95788139D01*
X130350500Y-95774500D01*
X130370185Y-95707461D01*
X130422989Y-95661706D01*
X130474500Y-95650500D01*
X130900501Y-95650500D01*
X130967540Y-95670185D01*
X131013295Y-95722989D01*
X131024501Y-95774500D01*
X131024501Y-95793658D01*
X131030621Y-95840153D01*
X131030622Y-95840155D01*
X131030622Y-95840156D01*
X131072487Y-95929936D01*
X131078201Y-95942189D01*
X131157811Y-96021799D01*
X131259590Y-96069259D01*
X131259845Y-96069378D01*
X131259846Y-96069379D01*
X131265187Y-96070082D01*
X131306341Y-96075500D01*
X131818658Y-96075499D01*
X131865153Y-96069379D01*
X131967189Y-96021799D01*
X132046799Y-95942189D01*
X132094379Y-95840153D01*
X132100500Y-95793659D01*
X132100499Y-95226200D01*
X132120183Y-95159162D01*
X132136818Y-95138520D01*
X133027585Y-94247754D01*
X133027585Y-94247753D01*
X133027588Y-94247751D01*
X133039043Y-94220093D01*
X133050500Y-94192436D01*
X133050500Y-93999500D01*
X133070185Y-93932461D01*
X133122989Y-93886706D01*
X133174500Y-93875500D01*
X134295135Y-93875500D01*
X134362174Y-93895185D01*
X134390123Y-93919792D01*
X134391253Y-93921139D01*
X134472431Y-93989256D01*
X134472433Y-93989257D01*
X134513449Y-94004184D01*
X134572014Y-94025500D01*
X134572017Y-94025500D01*
X134661298Y-94025500D01*
X134728337Y-94045185D01*
X134748979Y-94061819D01*
X135163681Y-94476521D01*
X135197166Y-94537843D01*
X135200000Y-94564201D01*
X135200000Y-95225500D01*
X135180315Y-95292539D01*
X135127511Y-95338294D01*
X135076000Y-95349500D01*
X133799499Y-95349500D01*
X133732460Y-95329815D01*
X133686705Y-95277011D01*
X133675499Y-95225500D01*
X133675499Y-95206347D01*
X133675499Y-95206342D01*
X133669379Y-95159847D01*
X133621799Y-95057811D01*
X133542189Y-94978201D01*
X133493007Y-94955267D01*
X133440154Y-94930621D01*
X133440153Y-94930620D01*
X133393659Y-94924500D01*
X132881347Y-94924500D01*
X132866608Y-94926440D01*
X132834847Y-94930621D01*
X132834845Y-94930622D01*
X132834843Y-94930622D01*
X132732810Y-94978201D01*
X132653201Y-95057810D01*
X132605621Y-95159845D01*
X132605620Y-95159846D01*
X132599500Y-95206340D01*
X132599500Y-95793652D01*
X132600693Y-95802715D01*
X132605621Y-95840153D01*
X132605622Y-95840155D01*
X132605622Y-95840156D01*
X132647487Y-95929936D01*
X132653201Y-95942189D01*
X132732811Y-96021799D01*
X132834590Y-96069259D01*
X132834845Y-96069378D01*
X132834846Y-96069379D01*
X132840187Y-96070082D01*
X132881341Y-96075500D01*
X133393658Y-96075499D01*
X133440153Y-96069379D01*
X133542189Y-96021799D01*
X133621799Y-95942189D01*
X133669379Y-95840153D01*
X133675500Y-95793659D01*
X133675500Y-95774500D01*
X133695185Y-95707461D01*
X133747989Y-95661706D01*
X133799500Y-95650500D01*
X134136672Y-95650500D01*
X134203711Y-95670185D01*
X134249466Y-95722989D01*
X134259410Y-95792147D01*
X134258788Y-95796033D01*
X134244864Y-95874998D01*
X134247490Y-95889893D01*
X134239744Y-95959332D01*
X134213054Y-95999104D01*
X132672413Y-97539745D01*
X132672412Y-97539748D01*
X132658990Y-97572151D01*
X132658989Y-97572154D01*
X132658988Y-97572153D01*
X132649500Y-97595062D01*
X132649500Y-97595064D01*
X132649500Y-99104936D01*
X132649500Y-99104938D01*
X132649501Y-99104939D01*
X132658990Y-99127848D01*
X132672411Y-99160251D01*
X132850479Y-99338319D01*
X132883964Y-99399642D01*
X132878980Y-99469334D01*
X132837108Y-99525267D01*
X132771644Y-99549684D01*
X132762798Y-99550000D01*
X125899500Y-99550000D01*
X125832461Y-99530315D01*
X125786706Y-99477511D01*
X125775500Y-99426000D01*
X125775500Y-86124000D01*
X125795185Y-86056961D01*
X125847989Y-86011206D01*
X125899500Y-86000000D01*
X138300500Y-86000000D01*
X138367539Y-86019685D01*
G37*
%TD.AperFunction*%
%TA.AperFunction,Conductor*%
G36*
X137692915Y-97769685D02*
G01*
X137738670Y-97822489D01*
X137748614Y-97891647D01*
X137733263Y-97936000D01*
X137713268Y-97970631D01*
X137713266Y-97970637D01*
X137694864Y-98074999D01*
X137694864Y-98075000D01*
X137713266Y-98179362D01*
X137713268Y-98179368D01*
X137766249Y-98271134D01*
X137766251Y-98271137D01*
X137766252Y-98271138D01*
X137839181Y-98332333D01*
X137877884Y-98390503D01*
X137878993Y-98460364D01*
X137847157Y-98515003D01*
X136848479Y-99513681D01*
X136787156Y-99547166D01*
X136760798Y-99550000D01*
X133539202Y-99550000D01*
X133472163Y-99530315D01*
X133451521Y-99513681D01*
X133100020Y-99162180D01*
X133066535Y-99100857D01*
X133071519Y-99031165D01*
X133113391Y-98975232D01*
X133178855Y-98950815D01*
X133187675Y-98950499D01*
X133663138Y-98950499D01*
X133710545Y-98944259D01*
X133814579Y-98895747D01*
X133895747Y-98814579D01*
X133944259Y-98710545D01*
X133950500Y-98663139D01*
X133951030Y-98659114D01*
X133952875Y-98659356D01*
X133974280Y-98600827D01*
X134029944Y-98558598D01*
X134074021Y-98550500D01*
X136179934Y-98550500D01*
X136179936Y-98550500D01*
X136202842Y-98541011D01*
X136202848Y-98541010D01*
X136202848Y-98541009D01*
X136235252Y-98527588D01*
X136976520Y-97786318D01*
X137037843Y-97752834D01*
X137064201Y-97750000D01*
X137625876Y-97750000D01*
X137692915Y-97769685D01*
G37*
%TD.AperFunction*%
%TA.AperFunction,Conductor*%
G36*
X138518833Y-98371519D02*
G01*
X138574767Y-98413391D01*
X138599184Y-98478855D01*
X138599500Y-98487701D01*
X138599500Y-99415586D01*
X138579815Y-99482625D01*
X138563181Y-99503267D01*
X138552767Y-99513681D01*
X138491444Y-99547166D01*
X138465086Y-99550000D01*
X137537202Y-99550000D01*
X137470163Y-99530315D01*
X137424408Y-99477511D01*
X137414464Y-99408353D01*
X137443489Y-99344797D01*
X137449521Y-99338319D01*
X138387819Y-98400020D01*
X138449142Y-98366535D01*
X138518833Y-98371519D01*
G37*
%TD.AperFunction*%
%TA.AperFunction,Conductor*%
G36*
X135143039Y-95670185D02*
G01*
X135188794Y-95722989D01*
X135200000Y-95774500D01*
X135200000Y-97750000D01*
X136287798Y-97750000D01*
X136354837Y-97769685D01*
X136400592Y-97822489D01*
X136410536Y-97891647D01*
X136381511Y-97955203D01*
X136375479Y-97961681D01*
X136123979Y-98213181D01*
X136062656Y-98246666D01*
X136036298Y-98249500D01*
X134074499Y-98249500D01*
X134007460Y-98229815D01*
X133961705Y-98177011D01*
X133950499Y-98125500D01*
X133950499Y-98086867D01*
X133950499Y-98086862D01*
X133944259Y-98039455D01*
X133895747Y-97935421D01*
X133814579Y-97854253D01*
X133710545Y-97805741D01*
X133710543Y-97805740D01*
X133710544Y-97805740D01*
X133663140Y-97799500D01*
X133137699Y-97799500D01*
X133070660Y-97779815D01*
X133024905Y-97727011D01*
X133014961Y-97657853D01*
X133043986Y-97594297D01*
X133049991Y-97587847D01*
X134426019Y-96211818D01*
X134487342Y-96178334D01*
X134513700Y-96175500D01*
X134602983Y-96175500D01*
X134602986Y-96175500D01*
X134685020Y-96145642D01*
X134702566Y-96139257D01*
X134702568Y-96139256D01*
X134704752Y-96137423D01*
X134783748Y-96071138D01*
X134836734Y-95979363D01*
X134855136Y-95875000D01*
X134851624Y-95855085D01*
X134841212Y-95796033D01*
X134848956Y-95726593D01*
X134893012Y-95672364D01*
X134959394Y-95650562D01*
X134963328Y-95650500D01*
X135076000Y-95650500D01*
X135143039Y-95670185D01*
G37*
%TD.AperFunction*%
%TA.AperFunction,Conductor*%
G36*
X141517539Y-86019685D02*
G01*
X141563294Y-86072489D01*
X141574500Y-86124000D01*
X141574500Y-89078106D01*
X141554815Y-89145145D01*
X141502011Y-89190900D01*
X141464789Y-89201280D01*
X141455010Y-89202414D01*
X141455008Y-89202415D01*
X141352235Y-89247793D01*
X141272794Y-89327234D01*
X141227415Y-89430006D01*
X141227415Y-89430008D01*
X141224500Y-89455131D01*
X141224500Y-90011297D01*
X141204815Y-90078336D01*
X141188181Y-90098978D01*
X140023977Y-91263181D01*
X139962654Y-91296666D01*
X139936297Y-91299500D01*
X139830143Y-91299500D01*
X139830118Y-91299502D01*
X139805011Y-91302414D01*
X139724585Y-91337925D01*
X139655307Y-91346996D01*
X139592122Y-91317172D01*
X139555092Y-91257922D01*
X139550500Y-91224490D01*
X139550500Y-90563701D01*
X139570185Y-90496662D01*
X139586813Y-90476025D01*
X139683605Y-90379233D01*
X139744924Y-90345751D01*
X139795681Y-90347056D01*
X139795745Y-90346510D01*
X139801812Y-90347214D01*
X139803834Y-90347266D01*
X139805003Y-90347584D01*
X139805008Y-90347584D01*
X139805009Y-90347585D01*
X139830135Y-90350500D01*
X140319864Y-90350499D01*
X140319879Y-90350497D01*
X140319882Y-90350497D01*
X140344987Y-90347586D01*
X140344988Y-90347585D01*
X140344991Y-90347585D01*
X140447765Y-90302206D01*
X140527206Y-90222765D01*
X140572585Y-90119991D01*
X140575500Y-90094865D01*
X140575499Y-89455136D01*
X140575497Y-89455117D01*
X140572586Y-89430012D01*
X140572585Y-89430010D01*
X140572585Y-89430009D01*
X140527206Y-89327235D01*
X140447765Y-89247794D01*
X140447763Y-89247793D01*
X140344992Y-89202415D01*
X140319865Y-89199500D01*
X139830143Y-89199500D01*
X139830117Y-89199502D01*
X139805012Y-89202413D01*
X139805008Y-89202415D01*
X139702235Y-89247793D01*
X139622794Y-89327234D01*
X139577415Y-89430006D01*
X139577415Y-89430008D01*
X139574500Y-89455131D01*
X139574500Y-90011297D01*
X139554815Y-90078336D01*
X139538181Y-90098978D01*
X139272413Y-90364746D01*
X139272411Y-90364749D01*
X139258988Y-90397155D01*
X139249500Y-90420062D01*
X139249500Y-91211781D01*
X139229815Y-91278820D01*
X139177011Y-91324575D01*
X139107853Y-91334519D01*
X139044297Y-91305494D01*
X139037819Y-91299462D01*
X139011819Y-91273462D01*
X138978334Y-91212139D01*
X138975500Y-91185781D01*
X138975500Y-86124000D01*
X138995185Y-86056961D01*
X139047989Y-86011206D01*
X139099500Y-86000000D01*
X141450500Y-86000000D01*
X141517539Y-86019685D01*
G37*
%TD.AperFunction*%
%TA.AperFunction,Conductor*%
G36*
X144194365Y-86019685D02*
G01*
X144240120Y-86072489D01*
X144251319Y-86122667D01*
X144274436Y-88272599D01*
X144255473Y-88339846D01*
X144237814Y-88361923D01*
X142436870Y-90150184D01*
X142375429Y-90183452D01*
X142305755Y-90178221D01*
X142249970Y-90136152D01*
X142225784Y-90070602D01*
X142225499Y-90062220D01*
X142225499Y-89455136D01*
X142225497Y-89455117D01*
X142222586Y-89430012D01*
X142222585Y-89430010D01*
X142222585Y-89430009D01*
X142177206Y-89327235D01*
X142097765Y-89247794D01*
X142097763Y-89247793D01*
X141994992Y-89202415D01*
X141985208Y-89201280D01*
X141920884Y-89173999D01*
X141881520Y-89116273D01*
X141875500Y-89078106D01*
X141875500Y-86124000D01*
X141895185Y-86056961D01*
X141947989Y-86011206D01*
X141999500Y-86000000D01*
X144127326Y-86000000D01*
X144194365Y-86019685D01*
G37*
%TD.AperFunction*%
%TD*%
M02*
