%TF.GenerationSoftware,KiCad,Pcbnew,9.0.4*%
%TF.CreationDate,2025-08-31T12:09:40+02:00*%
%TF.ProjectId,CYW43439,43595734-3334-4333-992e-6b696361645f,rev?*%
%TF.SameCoordinates,Original*%
%TF.FileFunction,Soldermask,Top*%
%TF.FilePolarity,Negative*%
%FSLAX46Y46*%
G04 Gerber Fmt 4.6, Leading zero omitted, Abs format (unit mm)*
G04 Created by KiCad (PCBNEW 9.0.4) date 2025-08-31 12:09:40*
%MOMM*%
%LPD*%
G01*
G04 APERTURE LIST*
G04 Aperture macros list*
%AMRoundRect*
0 Rectangle with rounded corners*
0 $1 Rounding radius*
0 $2 $3 $4 $5 $6 $7 $8 $9 X,Y pos of 4 corners*
0 Add a 4 corners polygon primitive as box body*
4,1,4,$2,$3,$4,$5,$6,$7,$8,$9,$2,$3,0*
0 Add four circle primitives for the rounded corners*
1,1,$1+$1,$2,$3*
1,1,$1+$1,$4,$5*
1,1,$1+$1,$6,$7*
1,1,$1+$1,$8,$9*
0 Add four rect primitives between the rounded corners*
20,1,$1+$1,$2,$3,$4,$5,0*
20,1,$1+$1,$4,$5,$6,$7,0*
20,1,$1+$1,$6,$7,$8,$9,0*
20,1,$1+$1,$8,$9,$2,$3,0*%
G04 Aperture macros list end*
%ADD10RoundRect,0.200000X-0.200000X-0.275000X0.200000X-0.275000X0.200000X0.275000X-0.200000X0.275000X0*%
%ADD11RoundRect,0.225000X0.250000X-0.225000X0.250000X0.225000X-0.250000X0.225000X-0.250000X-0.225000X0*%
%ADD12RoundRect,0.135000X-0.135000X-0.185000X0.135000X-0.185000X0.135000X0.185000X-0.135000X0.185000X0*%
%ADD13RoundRect,0.140000X0.140000X0.170000X-0.140000X0.170000X-0.140000X-0.170000X0.140000X-0.170000X0*%
%ADD14R,1.700000X1.700000*%
%ADD15O,1.700000X1.700000*%
%ADD16RoundRect,0.218750X0.256250X-0.218750X0.256250X0.218750X-0.256250X0.218750X-0.256250X-0.218750X0*%
%ADD17RoundRect,0.218750X-0.218750X-0.256250X0.218750X-0.256250X0.218750X0.256250X-0.218750X0.256250X0*%
%ADD18RoundRect,0.200000X-0.275000X0.200000X-0.275000X-0.200000X0.275000X-0.200000X0.275000X0.200000X0*%
%ADD19RoundRect,0.225000X0.225000X0.250000X-0.225000X0.250000X-0.225000X-0.250000X0.225000X-0.250000X0*%
%ADD20RoundRect,0.225000X-0.225000X-0.250000X0.225000X-0.250000X0.225000X0.250000X-0.225000X0.250000X0*%
%ADD21RoundRect,0.135000X-0.185000X0.135000X-0.185000X-0.135000X0.185000X-0.135000X0.185000X0.135000X0*%
%ADD22R,0.900000X0.800000*%
%ADD23C,1.440000*%
%ADD24C,2.250000*%
%ADD25R,0.500000X0.500000*%
%ADD26C,0.454000*%
G04 APERTURE END LIST*
D10*
%TO.C,R6*%
X148025000Y-84100000D03*
X149675000Y-84100000D03*
%TD*%
D11*
%TO.C,C13*%
X134825000Y-92700000D03*
X134825000Y-91150000D03*
%TD*%
D12*
%TO.C,C3*%
X140040000Y-100200000D03*
X141060000Y-100200000D03*
%TD*%
D13*
%TO.C,C20*%
X139330000Y-109925000D03*
X138370000Y-109925000D03*
%TD*%
D14*
%TO.C,J3*%
X153300000Y-96975000D03*
D15*
X153300000Y-99515000D03*
%TD*%
D16*
%TO.C,FB1*%
X142200000Y-98562500D03*
X142200000Y-96987500D03*
%TD*%
D11*
%TO.C,C6*%
X133275000Y-92700000D03*
X133275000Y-91150000D03*
%TD*%
D17*
%TO.C,FB2*%
X148562500Y-99525000D03*
X150137500Y-99525000D03*
%TD*%
D18*
%TO.C,R6*%
X150675000Y-96125000D03*
X150675000Y-97775000D03*
%TD*%
D19*
%TO.C,C16*%
X129800000Y-95500000D03*
X128250000Y-95500000D03*
%TD*%
D12*
%TO.C,C4*%
X140040000Y-101400000D03*
X141060000Y-101400000D03*
%TD*%
D11*
%TO.C,C14*%
X136375000Y-92700000D03*
X136375000Y-91150000D03*
%TD*%
D20*
%TO.C,C2*%
X147550000Y-96225000D03*
X149100000Y-96225000D03*
%TD*%
D14*
%TO.C,J2*%
X144450000Y-84100000D03*
D15*
X141910000Y-84100000D03*
X139370000Y-84100000D03*
X136830000Y-84100000D03*
%TD*%
D21*
%TO.C,L1*%
X138800000Y-100390000D03*
X138800000Y-101410000D03*
%TD*%
D19*
%TO.C,C10*%
X135900000Y-102075000D03*
X134350000Y-102075000D03*
%TD*%
D22*
%TO.C,Y1*%
X145325000Y-94600000D03*
X146725000Y-94600000D03*
X146725000Y-93500000D03*
X145325000Y-93500000D03*
%TD*%
D14*
%TO.C,J1*%
X152125000Y-87800000D03*
D15*
X149585000Y-87800000D03*
X147045000Y-87800000D03*
%TD*%
D20*
%TO.C,C11*%
X143750000Y-97025000D03*
X145300000Y-97025000D03*
%TD*%
D11*
%TO.C,C15*%
X131725000Y-92700000D03*
X131725000Y-91150000D03*
%TD*%
D19*
%TO.C,C12*%
X133400000Y-98375000D03*
X131850000Y-98375000D03*
%TD*%
D23*
%TO.C,J4*%
X151290000Y-108085000D03*
D24*
X148750000Y-105545000D03*
X148750000Y-110625000D03*
X153830000Y-105545000D03*
X153830000Y-110625000D03*
%TD*%
D17*
%TO.C,L2*%
X131562500Y-95500000D03*
X133137500Y-95500000D03*
%TD*%
D19*
%TO.C,C9*%
X136400000Y-89425000D03*
X134850000Y-89425000D03*
%TD*%
D13*
%TO.C,C17*%
X142330000Y-111900000D03*
X141370000Y-111900000D03*
%TD*%
D25*
%TO.C,JP1*%
X145225000Y-102025000D03*
X144125000Y-102025000D03*
X144125000Y-103125000D03*
%TD*%
D20*
%TO.C,C7*%
X143750000Y-99325000D03*
X145300000Y-99325000D03*
%TD*%
D10*
%TO.C,R3*%
X138425000Y-91875000D03*
X140075000Y-91875000D03*
%TD*%
D26*
%TO.C,U1*%
X135600000Y-97500000D03*
X135600000Y-97100000D03*
X135600000Y-95900000D03*
X135600000Y-95500000D03*
X135600000Y-95100000D03*
X136000000Y-97500000D03*
X136000000Y-97100000D03*
X136000000Y-96300000D03*
X136000000Y-95900000D03*
X136000000Y-95500000D03*
X136000000Y-95100000D03*
X136400000Y-97500000D03*
X136400000Y-97100000D03*
X136400000Y-96700000D03*
X136400000Y-96300000D03*
X136400000Y-95500000D03*
X136400000Y-95100000D03*
X136800000Y-97100000D03*
X136800000Y-96700000D03*
X136800000Y-96300000D03*
X136800000Y-95500000D03*
X137200000Y-97500000D03*
X137200000Y-97100000D03*
X137200000Y-96700000D03*
X137200000Y-95500000D03*
X137200000Y-95100000D03*
X137600000Y-97500000D03*
X137600000Y-97100000D03*
X137600000Y-95900000D03*
X137600000Y-95500000D03*
X137600000Y-95100000D03*
X138000000Y-97500000D03*
X138000000Y-97100000D03*
X138000000Y-96300000D03*
X138000000Y-95500000D03*
X138400000Y-97500000D03*
X138400000Y-97100000D03*
X138400000Y-96700000D03*
X138400000Y-96300000D03*
X138400000Y-95500000D03*
X138400000Y-95100000D03*
X138800000Y-97500000D03*
X138800000Y-97100000D03*
X138800000Y-96700000D03*
X138800000Y-95900000D03*
X138800000Y-95500000D03*
X138800000Y-95100000D03*
X139200000Y-97500000D03*
X139200000Y-97100000D03*
X139200000Y-95500000D03*
X139600000Y-97100000D03*
X139600000Y-96700000D03*
X139600000Y-96300000D03*
X139600000Y-95900000D03*
X139600000Y-95500000D03*
X139600000Y-95100000D03*
X140000000Y-97500000D03*
X140000000Y-97100000D03*
X140000000Y-96700000D03*
X140000000Y-96300000D03*
X140000000Y-95900000D03*
X140000000Y-95500000D03*
X140000000Y-95100000D03*
%TD*%
D13*
%TO.C,C19*%
X142330000Y-109925000D03*
X141370000Y-109925000D03*
%TD*%
%TO.C,C18*%
X139330000Y-111900000D03*
X138370000Y-111900000D03*
%TD*%
D20*
%TO.C,C1*%
X146775000Y-91875000D03*
X148325000Y-91875000D03*
%TD*%
D10*
%TO.C,R4*%
X140075000Y-89775000D03*
X141725000Y-89775000D03*
%TD*%
D11*
%TO.C,C8*%
X137950000Y-89475000D03*
X137950000Y-87925000D03*
%TD*%
D19*
%TO.C,C5*%
X136425000Y-87650000D03*
X134875000Y-87650000D03*
%TD*%
D10*
%TO.C,R5*%
X134300000Y-100300000D03*
X135950000Y-100300000D03*
%TD*%
%TO.C,R1*%
X143675000Y-91875000D03*
X145325000Y-91875000D03*
%TD*%
M02*
