M48
; DRILL file {KiCad 9.0.4} date 2025-08-31T12:09:38+0200
; FORMAT={-:-/ absolute / inch / decimal}
; #@! TF.CreationDate,2025-08-31T12:09:38+02:00
; #@! TF.GenerationSoftware,Kicad,Pcbnew,9.0.4
; #@! TF.FileFunction,Plated,1,4,PTH
FMAT,2
INCH
; #@! TA.AperFunction,Plated,PTH,ViaDrill
T1C0.0118
; #@! TA.AperFunction,Plated,PTH,ComponentDrill
T2C0.0350
; #@! TA.AperFunction,Plated,PTH,ComponentDrill
T3C0.0394
; #@! TA.AperFunction,Plated,PTH,ComponentDrill
T4C0.0669
%
G90
G05
T1
X4.9646Y-3.9006
X4.9675Y-3.7244
X4.9695Y-3.562
X4.9744Y-3.4035
X4.9774Y-4.0433
X4.9774Y-4.2234
X4.9803Y-4.3976
X5.003Y-3.7598
X5.0758Y-3.9045
X5.1447Y-3.4055
X5.1457Y-3.7598
X5.1486Y-3.874
X5.1644Y-4.2156
X5.185Y-3.6909
X5.1909Y-3.5394
X5.2079Y-3.7315
X5.2195Y-4.4026
X5.247Y-4.0167
X5.2539Y-3.7205
X5.2549Y-3.5404
X5.2687Y-3.8307
X5.2791Y-3.7421
X5.2795Y-3.7205
X5.2953Y-3.7028
X5.2953Y-3.7766
X5.312Y-3.8031
X5.312Y-3.8571
X5.312Y-3.889
X5.313Y-3.7421
X5.3376Y-3.4016
X5.3396Y-3.8031
X5.3533Y-3.8571
X5.3533Y-4.3051
X5.3543Y-4.253
X5.3543Y-4.2785
X5.373Y-4.3278
X5.3947Y-3.7008
X5.3947Y-3.8888
X5.3957Y-4.253
X5.3967Y-4.3484
X5.4035Y-3.8602
X5.4203Y-4.373
X5.4311Y-3.561
X5.4331Y-3.8587
X5.4331Y-3.937
X5.4331Y-3.9606
X5.4331Y-3.9843
X5.4331Y-4.0079
X5.4341Y-3.4242
X5.439Y-4.253
X5.4409Y-3.665
X5.4449Y-3.8976
X5.4528Y-4.0236
X5.4793Y-3.7844
X5.4803Y-3.8071
X5.4803Y-4.0236
X5.4811Y-3.6815
X5.4815Y-3.4163
X5.4819Y-3.4862
X5.4833Y-4.253
X5.5Y-3.8976
X5.502Y-3.8612
X5.5079Y-4.0236
X5.5187Y-4.1319
X5.5236Y-3.9094
X5.5263Y-4.2528
X5.5335Y-3.689
X5.5354Y-3.6644
X5.5354Y-4.0236
X5.5398Y-3.8421
X5.5404Y-3.7913
X5.5502Y-3.7047
X5.5512Y-3.9094
X5.5571Y-3.4163
X5.5571Y-3.4813
X5.563Y-4.0236
X5.5679Y-4.253
X5.5827Y-3.7362
X5.5866Y-3.9232
X5.5866Y-3.9665
X5.5866Y-3.9902
X5.5866Y-4.0118
X5.6024Y-3.6535
X5.6033Y-3.4134
X5.6043Y-3.4823
X5.6073Y-4.253
X5.6122Y-3.9892
X5.6142Y-3.9242
X5.626Y-4.374
X5.6358Y-3.6801
X5.6367Y-3.8692
X5.6388Y-3.9508
X5.6407Y-4.0157
X5.6407Y-4.0413
X5.6407Y-4.0689
X5.6407Y-4.0935
X5.6486Y-4.3504
X5.6506Y-4.253
X5.6571Y-4.4043
X5.6594Y-3.9705
X5.6614Y-3.4764
X5.6654Y-3.4134
X5.6722Y-3.7392
X5.6722Y-4.3278
X5.6742Y-4.0935
X5.6791Y-3.6801
X5.6819Y-4.3791
X5.689Y-3.9872
X5.6959Y-4.1132
X5.6959Y-4.253
X5.6969Y-4.0404
X5.6969Y-4.2785
X5.6978Y-4.3031
X5.7047Y-4.3563
X5.7087Y-3.5492
X5.7116Y-4.064
X5.7146Y-4.1486
X5.7146Y-4.186
X5.7146Y-4.2224
X5.7195Y-3.9872
X5.7205Y-3.8642
X5.7234Y-3.7717
X5.7254Y-4.0404
X5.7283Y-4.3327
X5.7313Y-4.0837
X5.75Y-3.9872
X5.753Y-4.1063
X5.7569Y-4.0404
X5.7569Y-4.3012
X5.7618Y-4.1476
X5.7618Y-4.185
X5.7618Y-4.2215
X5.7618Y-4.2569
X5.7844Y-3.9862
X5.7874Y-4.0404
X5.7953Y-3.8652
X5.8051Y-3.9193
X5.8169Y-4.0531
X5.8189Y-3.6811
X5.8189Y-3.7264
X5.8224Y-3.9992
X5.8435Y-4.0797
X5.848Y-4.024
X5.8709Y-4.048
X5.874Y-3.6152
X5.8907Y-4.4075
X5.8927Y-3.3573
X5.8965Y-4.0736
X5.9154Y-3.7352
X5.9163Y-4.0167
X5.9173Y-3.6437
X5.9189Y-4.1565
X5.9224Y-4.0988
X5.9354Y-4.188
X5.94Y-3.5433
X5.9484Y-4.1244
X5.9764Y-4.1535
X5.9772Y-4.188
X6.0974Y-4.0502
X6.0994Y-4.2087
X6.0994Y-4.3878
X6.1093Y-3.5541
X6.1102Y-3.748
X6.1112Y-3.935
T2
X5.9563Y-4.2553
T3
X5.387Y-3.311
X5.487Y-3.311
X5.587Y-3.311
X5.687Y-3.311
X5.7892Y-3.4567
X5.8892Y-3.4567
X5.9892Y-3.4567
X6.0354Y-3.8179
X6.0354Y-3.9179
T4
X5.8563Y-4.1553
X5.8563Y-4.3553
X6.0563Y-4.1553
X6.0563Y-4.3553
M30
