solid OpenSCAD_Model
  facet normal 0 0 1
    outer loop
      vertex 2.2 0 4
      vertex 2.45 0 4
      vertex 2.39646 0.509383 4
    endloop
  endfacet
  facet normal 0 0 1
    outer loop
      vertex 2.15192 0.457405 4
      vertex 2.39646 0.509383 4
      vertex 2.23819 0.996504 4
    endloop
  endfacet
  facet normal 0 0 1
    outer loop
      vertex 2.45 0 4
      vertex 2.2 0 4
      vertex 2.39646 -0.509383 4
    endloop
  endfacet
  facet normal -0 0 1
    outer loop
      vertex 2.15192 -0.457405 4
      vertex 2.39646 -0.509383 4
      vertex 2.2 0 4
    endloop
  endfacet
  facet normal 0 0 1
    outer loop
      vertex 2.39646 0.509383 4
      vertex 2.15192 0.457405 4
      vertex 2.2 0 4
    endloop
  endfacet
  facet normal 0 0 1
    outer loop
      vertex 2.23819 0.996504 4
      vertex 2.0098 0.89482 4
      vertex 2.15192 0.457405 4
    endloop
  endfacet
  facet normal 0 0 1
    outer loop
      vertex 1.98209 1.44007 4
      vertex 2.0098 0.89482 4
      vertex 2.23819 0.996504 4
    endloop
  endfacet
  facet normal 0 0 1
    outer loop
      vertex 1.98209 1.44007 4
      vertex 1.77984 1.29313 4
      vertex 2.0098 0.89482 4
    endloop
  endfacet
  facet normal 0 0 1
    outer loop
      vertex 1.63937 1.8207 4
      vertex 1.77984 1.29313 4
      vertex 1.98209 1.44007 4
    endloop
  endfacet
  facet normal 0 0 1
    outer loop
      vertex 1.63937 1.8207 4
      vertex 1.47209 1.63492 4
      vertex 1.77984 1.29313 4
    endloop
  endfacet
  facet normal 0 0 1
    outer loop
      vertex 1.225 2.12176 4
      vertex 1.47209 1.63492 4
      vertex 1.63937 1.8207 4
    endloop
  endfacet
  facet normal 0 0 1
    outer loop
      vertex 1.225 2.12176 4
      vertex 1.1 1.90526 4
      vertex 1.47209 1.63492 4
    endloop
  endfacet
  facet normal 0 0 1
    outer loop
      vertex 0.757092 2.33009 4
      vertex 1.1 1.90526 4
      vertex 1.225 2.12176 4
    endloop
  endfacet
  facet normal 0 0 1
    outer loop
      vertex 0.757092 2.33009 4
      vertex 0.679837 2.09232 4
      vertex 1.1 1.90526 4
    endloop
  endfacet
  facet normal 0 0 1
    outer loop
      vertex 0.256094 2.43658 4
      vertex 0.679837 2.09232 4
      vertex 0.757092 2.33009 4
    endloop
  endfacet
  facet normal 0 0 1
    outer loop
      vertex 0.256094 2.43658 4
      vertex 0.229962 2.18795 4
      vertex 0.679837 2.09232 4
    endloop
  endfacet
  facet normal 0 0 1
    outer loop
      vertex 0.256094 2.43658 4
      vertex -0.229962 2.18795 4
      vertex 0.229962 2.18795 4
    endloop
  endfacet
  facet normal -0 0 1
    outer loop
      vertex -0.256094 2.43658 4
      vertex -0.229962 2.18795 4
      vertex 0.256094 2.43658 4
    endloop
  endfacet
  facet normal 0 0 1
    outer loop
      vertex -0.256094 2.43658 4
      vertex -0.679837 2.09232 4
      vertex -0.229962 2.18795 4
    endloop
  endfacet
  facet normal -0 0 1
    outer loop
      vertex -0.757092 2.33009 4
      vertex -0.679837 2.09232 4
      vertex -0.256094 2.43658 4
    endloop
  endfacet
  facet normal 0 0 1
    outer loop
      vertex -0.757092 2.33009 4
      vertex -1.1 1.90526 4
      vertex -0.679837 2.09232 4
    endloop
  endfacet
  facet normal -0 0 1
    outer loop
      vertex -1.225 2.12176 4
      vertex -1.1 1.90526 4
      vertex -0.757092 2.33009 4
    endloop
  endfacet
  facet normal 0 0 1
    outer loop
      vertex -1.225 2.12176 4
      vertex -1.47209 1.63492 4
      vertex -1.1 1.90526 4
    endloop
  endfacet
  facet normal -0 0 1
    outer loop
      vertex -1.63937 1.8207 4
      vertex -1.47209 1.63492 4
      vertex -1.225 2.12176 4
    endloop
  endfacet
  facet normal 0 0 1
    outer loop
      vertex -1.63937 1.8207 4
      vertex -1.77984 1.29313 4
      vertex -1.47209 1.63492 4
    endloop
  endfacet
  facet normal -0 0 1
    outer loop
      vertex -1.98209 1.44007 4
      vertex -1.77984 1.29313 4
      vertex -1.63937 1.8207 4
    endloop
  endfacet
  facet normal 0 0 1
    outer loop
      vertex -1.98209 1.44007 4
      vertex -2.0098 0.89482 4
      vertex -1.77984 1.29313 4
    endloop
  endfacet
  facet normal -0 0 1
    outer loop
      vertex -2.23819 0.996504 4
      vertex -2.0098 0.89482 4
      vertex -1.98209 1.44007 4
    endloop
  endfacet
  facet normal -0 0 1
    outer loop
      vertex -2.39646 0.509383 4
      vertex -2.15192 0.457405 4
      vertex -2.23819 0.996504 4
    endloop
  endfacet
  facet normal 0 0 1
    outer loop
      vertex -2.0098 0.89482 4
      vertex -2.23819 0.996504 4
      vertex -2.15192 0.457405 4
    endloop
  endfacet
  facet normal 0 0 1
    outer loop
      vertex 2.39646 -0.509383 4
      vertex 2.15192 -0.457405 4
      vertex 2.23819 -0.996504 4
    endloop
  endfacet
  facet normal -0 0 1
    outer loop
      vertex 2.0098 -0.89482 4
      vertex 2.23819 -0.996504 4
      vertex 2.15192 -0.457405 4
    endloop
  endfacet
  facet normal 0 0 1
    outer loop
      vertex 2.0098 -0.89482 4
      vertex 1.98209 -1.44007 4
      vertex 2.23819 -0.996504 4
    endloop
  endfacet
  facet normal -0 0 1
    outer loop
      vertex 1.77984 -1.29313 4
      vertex 1.98209 -1.44007 4
      vertex 2.0098 -0.89482 4
    endloop
  endfacet
  facet normal 0 0 1
    outer loop
      vertex 1.77984 -1.29313 4
      vertex 1.63937 -1.8207 4
      vertex 1.98209 -1.44007 4
    endloop
  endfacet
  facet normal -0 0 1
    outer loop
      vertex 1.47209 -1.63492 4
      vertex 1.63937 -1.8207 4
      vertex 1.77984 -1.29313 4
    endloop
  endfacet
  facet normal 0 0 1
    outer loop
      vertex 1.47209 -1.63492 4
      vertex 1.225 -2.12176 4
      vertex 1.63937 -1.8207 4
    endloop
  endfacet
  facet normal -0 0 1
    outer loop
      vertex 1.1 -1.90526 4
      vertex 1.225 -2.12176 4
      vertex 1.47209 -1.63492 4
    endloop
  endfacet
  facet normal 0 0 1
    outer loop
      vertex 1.1 -1.90526 4
      vertex 0.757092 -2.33009 4
      vertex 1.225 -2.12176 4
    endloop
  endfacet
  facet normal -0 0 1
    outer loop
      vertex 0.679837 -2.09232 4
      vertex 0.757092 -2.33009 4
      vertex 1.1 -1.90526 4
    endloop
  endfacet
  facet normal 0 0 1
    outer loop
      vertex 0.679837 -2.09232 4
      vertex 0.256094 -2.43658 4
      vertex 0.757092 -2.33009 4
    endloop
  endfacet
  facet normal -0 0 1
    outer loop
      vertex 0.229962 -2.18795 4
      vertex 0.256094 -2.43658 4
      vertex 0.679837 -2.09232 4
    endloop
  endfacet
  facet normal -0 0 1
    outer loop
      vertex -0.229962 -2.18795 4
      vertex 0.256094 -2.43658 4
      vertex 0.229962 -2.18795 4
    endloop
  endfacet
  facet normal 0 0 1
    outer loop
      vertex -0.229962 -2.18795 4
      vertex -0.256094 -2.43658 4
      vertex 0.256094 -2.43658 4
    endloop
  endfacet
  facet normal 0 0 1
    outer loop
      vertex -0.679837 -2.09232 4
      vertex -0.256094 -2.43658 4
      vertex -0.229962 -2.18795 4
    endloop
  endfacet
  facet normal 0 0 1
    outer loop
      vertex -0.679837 -2.09232 4
      vertex -0.757092 -2.33009 4
      vertex -0.256094 -2.43658 4
    endloop
  endfacet
  facet normal 0 0 1
    outer loop
      vertex -1.1 -1.90526 4
      vertex -0.757092 -2.33009 4
      vertex -0.679837 -2.09232 4
    endloop
  endfacet
  facet normal 0 0 1
    outer loop
      vertex -1.1 -1.90526 4
      vertex -1.225 -2.12176 4
      vertex -0.757092 -2.33009 4
    endloop
  endfacet
  facet normal 0 0 1
    outer loop
      vertex -1.47209 -1.63492 4
      vertex -1.225 -2.12176 4
      vertex -1.1 -1.90526 4
    endloop
  endfacet
  facet normal 0 0 1
    outer loop
      vertex -1.47209 -1.63492 4
      vertex -1.63937 -1.8207 4
      vertex -1.225 -2.12176 4
    endloop
  endfacet
  facet normal 0 0 1
    outer loop
      vertex -1.77984 -1.29313 4
      vertex -1.63937 -1.8207 4
      vertex -1.47209 -1.63492 4
    endloop
  endfacet
  facet normal 0 0 1
    outer loop
      vertex -1.77984 -1.29313 4
      vertex -1.98209 -1.44007 4
      vertex -1.63937 -1.8207 4
    endloop
  endfacet
  facet normal 0 0 1
    outer loop
      vertex -2.0098 -0.89482 4
      vertex -1.98209 -1.44007 4
      vertex -1.77984 -1.29313 4
    endloop
  endfacet
  facet normal 0 0 1
    outer loop
      vertex -2.23819 -0.996504 4
      vertex -2.0098 -0.89482 4
      vertex -2.15192 -0.457405 4
    endloop
  endfacet
  facet normal 0 0 1
    outer loop
      vertex -2.0098 -0.89482 4
      vertex -2.23819 -0.996504 4
      vertex -1.98209 -1.44007 4
    endloop
  endfacet
  facet normal 0 0 1
    outer loop
      vertex -2.39646 -0.509383 4
      vertex -2.15192 -0.457405 4
      vertex -2.2 0 4
    endloop
  endfacet
  facet normal 0 0 1
    outer loop
      vertex -2.15192 0.457405 4
      vertex -2.39646 0.509383 4
      vertex -2.2 0 4
    endloop
  endfacet
  facet normal 0 0 1
    outer loop
      vertex -2.45 0 4
      vertex -2.2 0 4
      vertex -2.39646 0.509383 4
    endloop
  endfacet
  facet normal 0 0 1
    outer loop
      vertex -2.15192 -0.457405 4
      vertex -2.39646 -0.509383 4
      vertex -2.23819 -0.996504 4
    endloop
  endfacet
  facet normal 0 0 1
    outer loop
      vertex -2.2 0 4
      vertex -2.45 0 4
      vertex -2.39646 -0.509383 4
    endloop
  endfacet
  facet normal 0.866019 0.50001 0
    outer loop
      vertex 2.23819 0.996504 4
      vertex 1.98209 1.44007 0
      vertex 1.98209 1.44007 4
    endloop
  endfacet
  facet normal 0.866019 0.50001 0
    outer loop
      vertex 1.98209 1.44007 0
      vertex 2.23819 0.996504 4
      vertex 2.23819 0.996504 0
    endloop
  endfacet
  facet normal 0.95106 0.309008 0
    outer loop
      vertex 2.39646 0.509383 4
      vertex 2.23819 0.996504 0
      vertex 2.23819 0.996504 4
    endloop
  endfacet
  facet normal 0.95106 0.309008 0
    outer loop
      vertex 2.23819 0.996504 0
      vertex 2.39646 0.509383 4
      vertex 2.39646 0.509383 0
    endloop
  endfacet
  facet normal 0.994523 0.10452 0
    outer loop
      vertex 2.39646 0.509383 4
      vertex 2.42372 0.25 3
      vertex 2.39646 0.509383 0
    endloop
  endfacet
  facet normal 0.994522 0.104532 -3.09503e-06
    outer loop
      vertex 2.45 0 4
      vertex 2.42372 0.25 3
      vertex 2.39646 0.509383 4
    endloop
  endfacet
  facet normal 0.99452 0.104544 0
    outer loop
      vertex 2.42372 0.25 3
      vertex 2.45 0 4
      vertex 2.45 0 3
    endloop
  endfacet
  facet normal 0.994523 0.10452 0
    outer loop
      vertex 2.39646 0.509383 0
      vertex 2.42372 0.25 3
      vertex 2.42372 0.25 0
    endloop
  endfacet
  facet normal 0.99452 -0.104544 0
    outer loop
      vertex 2.45 0 4
      vertex 2.42372 -0.25 3
      vertex 2.45 0 3
    endloop
  endfacet
  facet normal 0.994522 -0.104532 -3.09503e-06
    outer loop
      vertex 2.39646 -0.509383 4
      vertex 2.42372 -0.25 3
      vertex 2.45 0 4
    endloop
  endfacet
  facet normal 0.994523 -0.10452 0
    outer loop
      vertex 2.39646 -0.509383 0
      vertex 2.42372 -0.25 3
      vertex 2.39646 -0.509383 4
    endloop
  endfacet
  facet normal 0.994523 -0.10452 0
    outer loop
      vertex 2.42372 -0.25 3
      vertex 2.39646 -0.509383 0
      vertex 2.42372 -0.25 0
    endloop
  endfacet
  facet normal 0.406743 0.913543 -0
    outer loop
      vertex 1.225 2.12176 0
      vertex 0.757092 2.33009 4
      vertex 1.225 2.12176 4
    endloop
  endfacet
  facet normal 0.406743 0.913543 0
    outer loop
      vertex 0.757092 2.33009 4
      vertex 1.225 2.12176 0
      vertex 0.757092 2.33009 0
    endloop
  endfacet
  facet normal -0.743146 0.66913 0
    outer loop
      vertex -1.98209 1.44007 0
      vertex -1.63937 1.8207 4
      vertex -1.63937 1.8207 0
    endloop
  endfacet
  facet normal -0.743146 0.66913 0
    outer loop
      vertex -1.63937 1.8207 4
      vertex -1.98209 1.44007 0
      vertex -1.98209 1.44007 4
    endloop
  endfacet
  facet normal -0.587789 0.809015 0
    outer loop
      vertex -1.225 2.12176 0
      vertex -1.63937 1.8207 4
      vertex -1.225 2.12176 4
    endloop
  endfacet
  facet normal -0.587789 0.809015 0
    outer loop
      vertex -1.63937 1.8207 4
      vertex -1.225 2.12176 0
      vertex -1.63937 1.8207 0
    endloop
  endfacet
  facet normal 0 0 -1
    outer loop
      vertex -2.23819 0.996504 0
      vertex -1.2 1.2 0
      vertex -1.2 0.25 0
    endloop
  endfacet
  facet normal 0 0 -1
    outer loop
      vertex -1.2 1.2 0
      vertex -1.63937 1.8207 0
      vertex -1.225 2.12176 0
    endloop
  endfacet
  facet normal 0 0 -1
    outer loop
      vertex -1.2 1.2 0
      vertex -1.98209 1.44007 0
      vertex -1.63937 1.8207 0
    endloop
  endfacet
  facet normal -0 0 -1
    outer loop
      vertex -1.2 1.2 0
      vertex -2.23819 0.996504 0
      vertex -1.98209 1.44007 0
    endloop
  endfacet
  facet normal 0 0 -1
    outer loop
      vertex -1.2 0.25 0
      vertex -2.39646 0.509383 0
      vertex -2.23819 0.996504 0
    endloop
  endfacet
  facet normal 0 -0 -1
    outer loop
      vertex -2.39646 0.509383 0
      vertex -1.2 0.25 0
      vertex -2.42372 0.25 0
    endloop
  endfacet
  facet normal 0 0 -1
    outer loop
      vertex 1.2 0.25 0
      vertex 2.39646 0.509383 0
      vertex 2.42372 0.25 0
    endloop
  endfacet
  facet normal -0 0 -1
    outer loop
      vertex 2.39646 0.509383 0
      vertex 1.2 0.25 0
      vertex 2.23819 0.996504 0
    endloop
  endfacet
  facet normal 0 0 -1
    outer loop
      vertex 1.2 1.2 0
      vertex 2.23819 0.996504 0
      vertex 1.2 0.25 0
    endloop
  endfacet
  facet normal -0 0 -1
    outer loop
      vertex 1.98209 1.44007 0
      vertex 1.2 1.2 0
      vertex 1.63937 1.8207 0
    endloop
  endfacet
  facet normal 0 0 -1
    outer loop
      vertex 2.23819 0.996504 0
      vertex 1.2 1.2 0
      vertex 1.98209 1.44007 0
    endloop
  endfacet
  facet normal -0 0 -1
    outer loop
      vertex 1.63937 1.8207 0
      vertex 1.2 1.2 0
      vertex 1.225 2.12176 0
    endloop
  endfacet
  facet normal 0 0 -1
    outer loop
      vertex 1.2 1.2 0
      vertex 0.757092 2.33009 0
      vertex 1.225 2.12176 0
    endloop
  endfacet
  facet normal 0 0 -1
    outer loop
      vertex 1.2 1.2 0
      vertex 0.256094 2.43658 0
      vertex 0.757092 2.33009 0
    endloop
  endfacet
  facet normal 0 0 -1
    outer loop
      vertex 1.2 1.2 0
      vertex -0.256094 2.43658 0
      vertex 0.256094 2.43658 0
    endloop
  endfacet
  facet normal 0 0 -1
    outer loop
      vertex -1.2 1.2 0
      vertex -0.256094 2.43658 0
      vertex 1.2 1.2 0
    endloop
  endfacet
  facet normal 0 0 -1
    outer loop
      vertex -0.256094 2.43658 0
      vertex -1.2 1.2 0
      vertex -0.757092 2.33009 0
    endloop
  endfacet
  facet normal 0 0 -1
    outer loop
      vertex -0.757092 2.33009 0
      vertex -1.2 1.2 0
      vertex -1.225 2.12176 0
    endloop
  endfacet
  facet normal 0 0 -1
    outer loop
      vertex 0.757092 -2.33009 0
      vertex 1.2 -1.2 0
      vertex 1.225 -2.12176 0
    endloop
  endfacet
  facet normal 0 0 -1
    outer loop
      vertex 0.256094 -2.43658 0
      vertex 1.2 -1.2 0
      vertex 0.757092 -2.33009 0
    endloop
  endfacet
  facet normal 0 0 -1
    outer loop
      vertex -0.256094 -2.43658 0
      vertex 1.2 -1.2 0
      vertex 0.256094 -2.43658 0
    endloop
  endfacet
  facet normal 0 0 -1
    outer loop
      vertex -1.2 -1.2 0
      vertex -0.256094 -2.43658 0
      vertex -0.757092 -2.33009 0
    endloop
  endfacet
  facet normal 0 0 -1
    outer loop
      vertex -0.256094 -2.43658 0
      vertex -1.2 -1.2 0
      vertex 1.2 -1.2 0
    endloop
  endfacet
  facet normal 0 0 -1
    outer loop
      vertex -1.225 -2.12176 0
      vertex -1.2 -1.2 0
      vertex -0.757092 -2.33009 0
    endloop
  endfacet
  facet normal 0 0 -1
    outer loop
      vertex -1.63937 -1.8207 0
      vertex -1.2 -1.2 0
      vertex -1.225 -2.12176 0
    endloop
  endfacet
  facet normal 0 0 -1
    outer loop
      vertex -1.98209 -1.44007 0
      vertex -1.2 -1.2 0
      vertex -1.63937 -1.8207 0
    endloop
  endfacet
  facet normal 0 0 -1
    outer loop
      vertex -2.23819 -0.996504 0
      vertex -1.2 -1.2 0
      vertex -1.98209 -1.44007 0
    endloop
  endfacet
  facet normal 0 0 -1
    outer loop
      vertex -1.2 -1.2 0
      vertex -2.23819 -0.996504 0
      vertex -1.2 -0.25 0
    endloop
  endfacet
  facet normal 0 0 -1
    outer loop
      vertex -2.39646 -0.509383 0
      vertex -1.2 -0.25 0
      vertex -2.23819 -0.996504 0
    endloop
  endfacet
  facet normal -0 0 -1
    outer loop
      vertex -1.2 -0.25 0
      vertex -2.39646 -0.509383 0
      vertex -2.42372 -0.25 0
    endloop
  endfacet
  facet normal 0 0 -1
    outer loop
      vertex 1.2 -0.25 0
      vertex 2.39646 -0.509383 0
      vertex 2.23819 -0.996504 0
    endloop
  endfacet
  facet normal 0 0 -1
    outer loop
      vertex 1.2 -1.2 0
      vertex 2.23819 -0.996504 0
      vertex 1.98209 -1.44007 0
    endloop
  endfacet
  facet normal 0 0 -1
    outer loop
      vertex 1.2 -1.2 0
      vertex 1.98209 -1.44007 0
      vertex 1.63937 -1.8207 0
    endloop
  endfacet
  facet normal 0 0 -1
    outer loop
      vertex 1.2 -1.2 0
      vertex 1.63937 -1.8207 0
      vertex 1.225 -2.12176 0
    endloop
  endfacet
  facet normal -0 0 -1
    outer loop
      vertex 2.23819 -0.996504 0
      vertex 1.2 -1.2 0
      vertex 1.2 -0.25 0
    endloop
  endfacet
  facet normal 0 0 -1
    outer loop
      vertex 2.39646 -0.509383 0
      vertex 1.2 -0.25 0
      vertex 2.42372 -0.25 0
    endloop
  endfacet
  facet normal -0.95106 -0.309008 0
    outer loop
      vertex -2.23819 -0.996504 0
      vertex -2.39646 -0.509383 4
      vertex -2.39646 -0.509383 0
    endloop
  endfacet
  facet normal -0.95106 -0.309008 0
    outer loop
      vertex -2.39646 -0.509383 4
      vertex -2.23819 -0.996504 0
      vertex -2.23819 -0.996504 4
    endloop
  endfacet
  facet normal 0 1 -0
    outer loop
      vertex 0.256094 2.43658 0
      vertex -0.256094 2.43658 4
      vertex 0.256094 2.43658 4
    endloop
  endfacet
  facet normal 0 1 0
    outer loop
      vertex -0.256094 2.43658 4
      vertex 0.256094 2.43658 0
      vertex -0.256094 2.43658 0
    endloop
  endfacet
  facet normal 0.866019 -0.50001 0
    outer loop
      vertex 1.98209 -1.44007 4
      vertex 2.23819 -0.996504 0
      vertex 2.23819 -0.996504 4
    endloop
  endfacet
  facet normal 0.866019 -0.50001 0
    outer loop
      vertex 2.23819 -0.996504 0
      vertex 1.98209 -1.44007 4
      vertex 1.98209 -1.44007 0
    endloop
  endfacet
  facet normal 0.95106 -0.309008 0
    outer loop
      vertex 2.23819 -0.996504 4
      vertex 2.39646 -0.509383 0
      vertex 2.39646 -0.509383 4
    endloop
  endfacet
  facet normal 0.95106 -0.309008 0
    outer loop
      vertex 2.39646 -0.509383 0
      vertex 2.23819 -0.996504 4
      vertex 2.23819 -0.996504 0
    endloop
  endfacet
  facet normal 0.207911 0.978148 -0
    outer loop
      vertex 0.757092 2.33009 0
      vertex 0.256094 2.43658 4
      vertex 0.757092 2.33009 4
    endloop
  endfacet
  facet normal 0.207911 0.978148 0
    outer loop
      vertex 0.256094 2.43658 4
      vertex 0.757092 2.33009 0
      vertex 0.256094 2.43658 0
    endloop
  endfacet
  facet normal -0.207911 0.978148 0
    outer loop
      vertex -0.256094 2.43658 0
      vertex -0.757092 2.33009 4
      vertex -0.256094 2.43658 4
    endloop
  endfacet
  facet normal -0.207911 0.978148 0
    outer loop
      vertex -0.757092 2.33009 4
      vertex -0.256094 2.43658 0
      vertex -0.757092 2.33009 0
    endloop
  endfacet
  facet normal -0.743146 -0.66913 0
    outer loop
      vertex -1.63937 -1.8207 0
      vertex -1.98209 -1.44007 4
      vertex -1.98209 -1.44007 0
    endloop
  endfacet
  facet normal -0.743146 -0.66913 0
    outer loop
      vertex -1.98209 -1.44007 4
      vertex -1.63937 -1.8207 0
      vertex -1.63937 -1.8207 4
    endloop
  endfacet
  facet normal 0.207911 -0.978148 0
    outer loop
      vertex 0.256094 -2.43658 0
      vertex 0.757092 -2.33009 4
      vertex 0.256094 -2.43658 4
    endloop
  endfacet
  facet normal 0.207911 -0.978148 0
    outer loop
      vertex 0.757092 -2.33009 4
      vertex 0.256094 -2.43658 0
      vertex 0.757092 -2.33009 0
    endloop
  endfacet
  facet normal -0.406743 0.913543 0
    outer loop
      vertex -0.757092 2.33009 0
      vertex -1.225 2.12176 4
      vertex -0.757092 2.33009 4
    endloop
  endfacet
  facet normal -0.406743 0.913543 0
    outer loop
      vertex -1.225 2.12176 4
      vertex -0.757092 2.33009 0
      vertex -1.225 2.12176 0
    endloop
  endfacet
  facet normal 0.406743 -0.913543 0
    outer loop
      vertex 0.757092 -2.33009 0
      vertex 1.225 -2.12176 4
      vertex 0.757092 -2.33009 4
    endloop
  endfacet
  facet normal 0.406743 -0.913543 0
    outer loop
      vertex 1.225 -2.12176 4
      vertex 0.757092 -2.33009 0
      vertex 1.225 -2.12176 0
    endloop
  endfacet
  facet normal -0.994523 0.10452 0
    outer loop
      vertex -2.42372 0.25 3
      vertex -2.39646 0.509383 0
      vertex -2.42372 0.25 0
    endloop
  endfacet
  facet normal -0.994523 0.10452 0
    outer loop
      vertex -2.39646 0.509383 0
      vertex -2.42372 0.25 3
      vertex -2.39646 0.509383 4
    endloop
  endfacet
  facet normal -0.99452 0.104544 0
    outer loop
      vertex -2.45 0 4
      vertex -2.42372 0.25 3
      vertex -2.45 0 3
    endloop
  endfacet
  facet normal -0.994522 0.104532 -3.09503e-06
    outer loop
      vertex -2.42372 0.25 3
      vertex -2.45 0 4
      vertex -2.39646 0.509383 4
    endloop
  endfacet
  facet normal -0.406743 -0.913543 0
    outer loop
      vertex -1.225 -2.12176 0
      vertex -0.757092 -2.33009 4
      vertex -1.225 -2.12176 4
    endloop
  endfacet
  facet normal -0.406743 -0.913543 -0
    outer loop
      vertex -0.757092 -2.33009 4
      vertex -1.225 -2.12176 0
      vertex -0.757092 -2.33009 0
    endloop
  endfacet
  facet normal 0.587789 0.809015 -0
    outer loop
      vertex 1.63937 1.8207 0
      vertex 1.225 2.12176 4
      vertex 1.63937 1.8207 4
    endloop
  endfacet
  facet normal 0.587789 0.809015 0
    outer loop
      vertex 1.225 2.12176 4
      vertex 1.63937 1.8207 0
      vertex 1.225 2.12176 0
    endloop
  endfacet
  facet normal -0.95106 0.309008 0
    outer loop
      vertex -2.39646 0.509383 0
      vertex -2.23819 0.996504 4
      vertex -2.23819 0.996504 0
    endloop
  endfacet
  facet normal -0.95106 0.309008 0
    outer loop
      vertex -2.23819 0.996504 4
      vertex -2.39646 0.509383 0
      vertex -2.39646 0.509383 4
    endloop
  endfacet
  facet normal -0.587789 -0.809015 0
    outer loop
      vertex -1.63937 -1.8207 0
      vertex -1.225 -2.12176 4
      vertex -1.63937 -1.8207 4
    endloop
  endfacet
  facet normal -0.587789 -0.809015 -0
    outer loop
      vertex -1.225 -2.12176 4
      vertex -1.63937 -1.8207 0
      vertex -1.225 -2.12176 0
    endloop
  endfacet
  facet normal 0.743146 0.66913 0
    outer loop
      vertex 1.98209 1.44007 4
      vertex 1.63937 1.8207 0
      vertex 1.63937 1.8207 4
    endloop
  endfacet
  facet normal 0.743146 0.66913 0
    outer loop
      vertex 1.63937 1.8207 0
      vertex 1.98209 1.44007 4
      vertex 1.98209 1.44007 0
    endloop
  endfacet
  facet normal -0.207911 -0.978148 0
    outer loop
      vertex -0.757092 -2.33009 0
      vertex -0.256094 -2.43658 4
      vertex -0.757092 -2.33009 4
    endloop
  endfacet
  facet normal -0.207911 -0.978148 -0
    outer loop
      vertex -0.256094 -2.43658 4
      vertex -0.757092 -2.33009 0
      vertex -0.256094 -2.43658 0
    endloop
  endfacet
  facet normal -0.994523 -0.10452 0
    outer loop
      vertex -2.42372 -0.25 0
      vertex -2.39646 -0.509383 0
      vertex -2.42372 -0.25 3
    endloop
  endfacet
  facet normal -0.99452 -0.104544 0
    outer loop
      vertex -2.42372 -0.25 3
      vertex -2.45 0 4
      vertex -2.45 0 3
    endloop
  endfacet
  facet normal -0.994522 -0.104532 -3.09503e-06
    outer loop
      vertex -2.42372 -0.25 3
      vertex -2.39646 -0.509383 4
      vertex -2.45 0 4
    endloop
  endfacet
  facet normal -0.994523 -0.10452 -0
    outer loop
      vertex -2.39646 -0.509383 4
      vertex -2.42372 -0.25 3
      vertex -2.39646 -0.509383 0
    endloop
  endfacet
  facet normal -0.866019 -0.50001 0
    outer loop
      vertex -1.98209 -1.44007 0
      vertex -2.23819 -0.996504 4
      vertex -2.23819 -0.996504 0
    endloop
  endfacet
  facet normal -0.866019 -0.50001 0
    outer loop
      vertex -2.23819 -0.996504 4
      vertex -1.98209 -1.44007 0
      vertex -1.98209 -1.44007 4
    endloop
  endfacet
  facet normal 0 -1 0
    outer loop
      vertex -0.256094 -2.43658 0
      vertex 0.256094 -2.43658 4
      vertex -0.256094 -2.43658 4
    endloop
  endfacet
  facet normal 0 -1 -0
    outer loop
      vertex 0.256094 -2.43658 4
      vertex -0.256094 -2.43658 0
      vertex 0.256094 -2.43658 0
    endloop
  endfacet
  facet normal 0.743146 -0.66913 0
    outer loop
      vertex 1.63937 -1.8207 4
      vertex 1.98209 -1.44007 0
      vertex 1.98209 -1.44007 4
    endloop
  endfacet
  facet normal 0.743146 -0.66913 0
    outer loop
      vertex 1.98209 -1.44007 0
      vertex 1.63937 -1.8207 4
      vertex 1.63937 -1.8207 0
    endloop
  endfacet
  facet normal 0.587789 -0.809015 0
    outer loop
      vertex 1.225 -2.12176 0
      vertex 1.63937 -1.8207 4
      vertex 1.225 -2.12176 4
    endloop
  endfacet
  facet normal 0.587789 -0.809015 0
    outer loop
      vertex 1.63937 -1.8207 4
      vertex 1.225 -2.12176 0
      vertex 1.63937 -1.8207 0
    endloop
  endfacet
  facet normal -0.866019 0.50001 0
    outer loop
      vertex -2.23819 0.996504 0
      vertex -1.98209 1.44007 4
      vertex -1.98209 1.44007 0
    endloop
  endfacet
  facet normal -0.866019 0.50001 0
    outer loop
      vertex -1.98209 1.44007 4
      vertex -2.23819 0.996504 0
      vertex -2.23819 0.996504 4
    endloop
  endfacet
  facet normal 0.95106 0.309008 0
    outer loop
      vertex 2.15192 0.457405 8.6
      vertex 2.0098 0.89482 4
      vertex 2.0098 0.89482 8.6
    endloop
  endfacet
  facet normal 0.95106 0.309008 0
    outer loop
      vertex 2.0098 0.89482 4
      vertex 2.15192 0.457405 8.6
      vertex 2.15192 0.457405 4
    endloop
  endfacet
  facet normal 0.994521 0.104539 0
    outer loop
      vertex 2.2 0 8.6
      vertex 2.15192 0.457405 4
      vertex 2.15192 0.457405 8.6
    endloop
  endfacet
  facet normal 0.994521 0.104539 0
    outer loop
      vertex 2.15192 0.457405 4
      vertex 2.2 0 8.6
      vertex 2.2 0 4
    endloop
  endfacet
  facet normal 0.95106 -0.309008 0
    outer loop
      vertex 2.0098 -0.89482 8.6
      vertex 2.15192 -0.457405 4
      vertex 2.15192 -0.457405 8.6
    endloop
  endfacet
  facet normal 0.95106 -0.309008 0
    outer loop
      vertex 2.15192 -0.457405 4
      vertex 2.0098 -0.89482 8.6
      vertex 2.0098 -0.89482 4
    endloop
  endfacet
  facet normal -0.587786 -0.809016 0
    outer loop
      vertex -1.47209 -1.63492 4
      vertex -1.1 -1.90526 8.6
      vertex -1.47209 -1.63492 8.6
    endloop
  endfacet
  facet normal -0.587786 -0.809016 -0
    outer loop
      vertex -1.1 -1.90526 8.6
      vertex -1.47209 -1.63492 4
      vertex -1.1 -1.90526 4
    endloop
  endfacet
  facet normal 0.207924 -0.978145 0
    outer loop
      vertex 0.229962 -2.18795 4
      vertex 0.679837 -2.09232 8.6
      vertex 0.229962 -2.18795 8.6
    endloop
  endfacet
  facet normal 0.207924 -0.978145 0
    outer loop
      vertex 0.679837 -2.09232 8.6
      vertex 0.229962 -2.18795 4
      vertex 0.679837 -2.09232 4
    endloop
  endfacet
  facet normal -0.86603 -0.499993 0
    outer loop
      vertex -1.77984 -1.29313 4
      vertex -2.0098 -0.89482 8.6
      vertex -2.0098 -0.89482 4
    endloop
  endfacet
  facet normal -0.86603 -0.499993 0
    outer loop
      vertex -2.0098 -0.89482 8.6
      vertex -1.77984 -1.29313 4
      vertex -1.77984 -1.29313 8.6
    endloop
  endfacet
  facet normal 0.207924 0.978145 -0
    outer loop
      vertex 0.679837 2.09232 4
      vertex 0.229962 2.18795 8.6
      vertex 0.679837 2.09232 8.6
    endloop
  endfacet
  facet normal 0.207924 0.978145 0
    outer loop
      vertex 0.229962 2.18795 8.6
      vertex 0.679837 2.09232 4
      vertex 0.229962 2.18795 4
    endloop
  endfacet
  facet normal -0.207924 -0.978145 0
    outer loop
      vertex -0.679837 -2.09232 4
      vertex -0.229962 -2.18795 8.6
      vertex -0.679837 -2.09232 8.6
    endloop
  endfacet
  facet normal -0.207924 -0.978145 -0
    outer loop
      vertex -0.229962 -2.18795 8.6
      vertex -0.679837 -2.09232 4
      vertex -0.229962 -2.18795 4
    endloop
  endfacet
  facet normal 0.587786 0.809016 -0
    outer loop
      vertex 1.47209 1.63492 4
      vertex 1.1 1.90526 8.6
      vertex 1.47209 1.63492 8.6
    endloop
  endfacet
  facet normal 0.587786 0.809016 0
    outer loop
      vertex 1.1 1.90526 8.6
      vertex 1.47209 1.63492 4
      vertex 1.1 1.90526 4
    endloop
  endfacet
  facet normal 0.406721 0.913552 -0
    outer loop
      vertex 1.1 1.90526 4
      vertex 0.679837 2.09232 8.6
      vertex 1.1 1.90526 8.6
    endloop
  endfacet
  facet normal 0.406721 0.913552 0
    outer loop
      vertex 0.679837 2.09232 8.6
      vertex 1.1 1.90526 4
      vertex 0.679837 2.09232 4
    endloop
  endfacet
  facet normal -0.95106 0.309008 0
    outer loop
      vertex -2.15192 0.457405 4
      vertex -2.0098 0.89482 8.6
      vertex -2.0098 0.89482 4
    endloop
  endfacet
  facet normal -0.95106 0.309008 0
    outer loop
      vertex -2.0098 0.89482 8.6
      vertex -2.15192 0.457405 4
      vertex -2.15192 0.457405 8.6
    endloop
  endfacet
  facet normal -0.406721 -0.913552 0
    outer loop
      vertex -1.1 -1.90526 4
      vertex -0.679837 -2.09232 8.6
      vertex -1.1 -1.90526 8.6
    endloop
  endfacet
  facet normal -0.406721 -0.913552 -0
    outer loop
      vertex -0.679837 -2.09232 8.6
      vertex -1.1 -1.90526 4
      vertex -0.679837 -2.09232 4
    endloop
  endfacet
  facet normal -0.86603 0.499993 0
    outer loop
      vertex -2.0098 0.89482 4
      vertex -1.77984 1.29313 8.6
      vertex -1.77984 1.29313 4
    endloop
  endfacet
  facet normal -0.86603 0.499993 0
    outer loop
      vertex -1.77984 1.29313 8.6
      vertex -2.0098 0.89482 4
      vertex -2.0098 0.89482 8.6
    endloop
  endfacet
  facet normal 0.587786 -0.809016 0
    outer loop
      vertex 1.1 -1.90526 4
      vertex 1.47209 -1.63492 8.6
      vertex 1.1 -1.90526 8.6
    endloop
  endfacet
  facet normal 0.587786 -0.809016 0
    outer loop
      vertex 1.47209 -1.63492 8.6
      vertex 1.1 -1.90526 4
      vertex 1.47209 -1.63492 4
    endloop
  endfacet
  facet normal -0.207924 0.978145 0
    outer loop
      vertex -0.229962 2.18795 4
      vertex -0.679837 2.09232 8.6
      vertex -0.229962 2.18795 8.6
    endloop
  endfacet
  facet normal -0.207924 0.978145 0
    outer loop
      vertex -0.679837 2.09232 8.6
      vertex -0.229962 2.18795 4
      vertex -0.679837 2.09232 4
    endloop
  endfacet
  facet normal 0.994521 -0.104539 0
    outer loop
      vertex 2.15192 -0.457405 8.6
      vertex 2.2 0 4
      vertex 2.2 0 8.6
    endloop
  endfacet
  facet normal 0.994521 -0.104539 0
    outer loop
      vertex 2.2 0 4
      vertex 2.15192 -0.457405 8.6
      vertex 2.15192 -0.457405 4
    endloop
  endfacet
  facet normal -0.743144 0.669132 0
    outer loop
      vertex -1.77984 1.29313 4
      vertex -1.47209 1.63492 8.6
      vertex -1.47209 1.63492 4
    endloop
  endfacet
  facet normal -0.743144 0.669132 0
    outer loop
      vertex -1.47209 1.63492 8.6
      vertex -1.77984 1.29313 4
      vertex -1.77984 1.29313 8.6
    endloop
  endfacet
  facet normal 0 1 -0
    outer loop
      vertex 0.229962 2.18795 4
      vertex -0.229962 2.18795 8.6
      vertex 0.229962 2.18795 8.6
    endloop
  endfacet
  facet normal 0 1 0
    outer loop
      vertex -0.229962 2.18795 8.6
      vertex 0.229962 2.18795 4
      vertex -0.229962 2.18795 4
    endloop
  endfacet
  facet normal 0.86603 -0.499993 0
    outer loop
      vertex 1.77984 -1.29313 8.6
      vertex 2.0098 -0.89482 4
      vertex 2.0098 -0.89482 8.6
    endloop
  endfacet
  facet normal 0.86603 -0.499993 0
    outer loop
      vertex 2.0098 -0.89482 4
      vertex 1.77984 -1.29313 8.6
      vertex 1.77984 -1.29313 4
    endloop
  endfacet
  facet normal -0.587786 0.809016 0
    outer loop
      vertex -1.1 1.90526 4
      vertex -1.47209 1.63492 8.6
      vertex -1.1 1.90526 8.6
    endloop
  endfacet
  facet normal -0.587786 0.809016 0
    outer loop
      vertex -1.47209 1.63492 8.6
      vertex -1.1 1.90526 4
      vertex -1.47209 1.63492 4
    endloop
  endfacet
  facet normal 0.406721 -0.913552 0
    outer loop
      vertex 0.679837 -2.09232 4
      vertex 1.1 -1.90526 8.6
      vertex 0.679837 -2.09232 8.6
    endloop
  endfacet
  facet normal 0.406721 -0.913552 0
    outer loop
      vertex 1.1 -1.90526 8.6
      vertex 0.679837 -2.09232 4
      vertex 1.1 -1.90526 4
    endloop
  endfacet
  facet normal -0.406721 0.913552 0
    outer loop
      vertex -0.679837 2.09232 4
      vertex -1.1 1.90526 8.6
      vertex -0.679837 2.09232 8.6
    endloop
  endfacet
  facet normal -0.406721 0.913552 0
    outer loop
      vertex -1.1 1.90526 8.6
      vertex -0.679837 2.09232 4
      vertex -1.1 1.90526 4
    endloop
  endfacet
  facet normal 0.743144 -0.669132 0
    outer loop
      vertex 1.47209 -1.63492 8.6
      vertex 1.77984 -1.29313 4
      vertex 1.77984 -1.29313 8.6
    endloop
  endfacet
  facet normal 0.743144 -0.669132 0
    outer loop
      vertex 1.77984 -1.29313 4
      vertex 1.47209 -1.63492 8.6
      vertex 1.47209 -1.63492 4
    endloop
  endfacet
  facet normal 0.743144 0.669132 0
    outer loop
      vertex 1.77984 1.29313 8.6
      vertex 1.47209 1.63492 4
      vertex 1.47209 1.63492 8.6
    endloop
  endfacet
  facet normal 0.743144 0.669132 0
    outer loop
      vertex 1.47209 1.63492 4
      vertex 1.77984 1.29313 8.6
      vertex 1.77984 1.29313 4
    endloop
  endfacet
  facet normal -0.994521 0.104539 0
    outer loop
      vertex -2.2 0 4
      vertex -2.15192 0.457405 8.6
      vertex -2.15192 0.457405 4
    endloop
  endfacet
  facet normal -0.994521 0.104539 0
    outer loop
      vertex -2.15192 0.457405 8.6
      vertex -2.2 0 4
      vertex -2.2 0 8.6
    endloop
  endfacet
  facet normal 0.86603 0.499993 0
    outer loop
      vertex 2.0098 0.89482 8.6
      vertex 1.77984 1.29313 4
      vertex 1.77984 1.29313 8.6
    endloop
  endfacet
  facet normal 0.86603 0.499993 0
    outer loop
      vertex 1.77984 1.29313 4
      vertex 2.0098 0.89482 8.6
      vertex 2.0098 0.89482 4
    endloop
  endfacet
  facet normal 0 0 -1
    outer loop
      vertex 2.2 0 8.6
      vertex 3.2 0 8.6
      vertex 3.17477 -0.401066 8.6
    endloop
  endfacet
  facet normal 0 0 -1
    outer loop
      vertex 2.15192 -0.457405 8.6
      vertex 3.17477 -0.401066 8.6
      vertex 3.09947 -0.795807 8.6
    endloop
  endfacet
  facet normal 0 0 -1
    outer loop
      vertex 3.2 0 8.6
      vertex 2.2 0 8.6
      vertex 3.17477 0.401066 8.6
    endloop
  endfacet
  facet normal 0 0 -1
    outer loop
      vertex 2.15192 -0.457405 8.6
      vertex 3.09947 -0.795807 8.6
      vertex 2.97528 -1.178 8.6
    endloop
  endfacet
  facet normal 0 0 -1
    outer loop
      vertex 2.15192 0.457405 8.6
      vertex 3.17477 0.401066 8.6
      vertex 2.2 0 8.6
    endloop
  endfacet
  facet normal 0 0 -1
    outer loop
      vertex 2.0098 -0.89482 8.6
      vertex 2.97528 -1.178 8.6
      vertex 2.80418 -1.54161 8.6
    endloop
  endfacet
  facet normal 0 0 -1
    outer loop
      vertex 3.17477 0.401066 8.6
      vertex 2.15192 0.457405 8.6
      vertex 3.09947 0.795807 8.6
    endloop
  endfacet
  facet normal 0 0 -1
    outer loop
      vertex 1.77984 -1.29313 8.6
      vertex 2.80418 -1.54161 8.6
      vertex 2.58885 -1.88091 8.6
    endloop
  endfacet
  facet normal -0 0 -1
    outer loop
      vertex 3.09947 0.795807 8.6
      vertex 2.15192 0.457405 8.6
      vertex 2.97528 1.178 8.6
    endloop
  endfacet
  facet normal 0 0 -1
    outer loop
      vertex 1.77984 -1.29313 8.6
      vertex 2.58885 -1.88091 8.6
      vertex 2.3327 -2.19055 8.6
    endloop
  endfacet
  facet normal 0 0 -1
    outer loop
      vertex 2.0098 0.89482 8.6
      vertex 2.97528 1.178 8.6
      vertex 2.15192 0.457405 8.6
    endloop
  endfacet
  facet normal -0 0 -1
    outer loop
      vertex 2.97528 1.178 8.6
      vertex 2.0098 0.89482 8.6
      vertex 2.80418 1.54161 8.6
    endloop
  endfacet
  facet normal -0 0 -1
    outer loop
      vertex 3.17477 -0.401066 8.6
      vertex 2.15192 -0.457405 8.6
      vertex 2.2 0 8.6
    endloop
  endfacet
  facet normal 0 0 -1
    outer loop
      vertex 1.47209 -1.63492 8.6
      vertex 2.3327 -2.19055 8.6
      vertex 2.03976 -2.46564 8.6
    endloop
  endfacet
  facet normal 0 0 -1
    outer loop
      vertex 2.97528 -1.178 8.6
      vertex 2.0098 -0.89482 8.6
      vertex 2.15192 -0.457405 8.6
    endloop
  endfacet
  facet normal 0 0 -1
    outer loop
      vertex 2.80418 -1.54161 8.6
      vertex 1.77984 -1.29313 8.6
      vertex 2.0098 -0.89482 8.6
    endloop
  endfacet
  facet normal 0 0 -1
    outer loop
      vertex 1.47209 -1.63492 8.6
      vertex 2.03976 -2.46564 8.6
      vertex 1.71465 -2.70185 8.6
    endloop
  endfacet
  facet normal 0 0 -1
    outer loop
      vertex 2.3327 -2.19055 8.6
      vertex 1.47209 -1.63492 8.6
      vertex 1.77984 -1.29313 8.6
    endloop
  endfacet
  facet normal 0 0 -1
    outer loop
      vertex 1.1 -1.90526 8.6
      vertex 1.71465 -2.70185 8.6
      vertex 1.36249 -2.89545 8.6
    endloop
  endfacet
  facet normal 0 0 -1
    outer loop
      vertex 1.71465 -2.70185 8.6
      vertex 1.1 -1.90526 8.6
      vertex 1.47209 -1.63492 8.6
    endloop
  endfacet
  facet normal 0 0 -1
    outer loop
      vertex 0.679837 -2.09232 8.6
      vertex 1.36249 -2.89545 8.6
      vertex 0.988853 -3.04338 8.6
    endloop
  endfacet
  facet normal 0 0 -1
    outer loop
      vertex 1.36249 -2.89545 8.6
      vertex 0.679837 -2.09232 8.6
      vertex 1.1 -1.90526 8.6
    endloop
  endfacet
  facet normal 0 0 -1
    outer loop
      vertex 0.59962 -3.14332 8.6
      vertex 0.679837 -2.09232 8.6
      vertex 0.988853 -3.04338 8.6
    endloop
  endfacet
  facet normal 0 0 -1
    outer loop
      vertex 0.59962 -3.14332 8.6
      vertex 0.229962 -2.18795 8.6
      vertex 0.679837 -2.09232 8.6
    endloop
  endfacet
  facet normal 0 0 -1
    outer loop
      vertex 0.20093 -3.19368 8.6
      vertex 0.229962 -2.18795 8.6
      vertex 0.59962 -3.14332 8.6
    endloop
  endfacet
  facet normal 0 0 -1
    outer loop
      vertex -0.20093 -3.19368 8.6
      vertex 0.229962 -2.18795 8.6
      vertex 0.20093 -3.19368 8.6
    endloop
  endfacet
  facet normal 0 0 -1
    outer loop
      vertex -0.20093 -3.19368 8.6
      vertex -0.229962 -2.18795 8.6
      vertex 0.229962 -2.18795 8.6
    endloop
  endfacet
  facet normal 0 0 -1
    outer loop
      vertex -0.59962 -3.14332 8.6
      vertex -0.229962 -2.18795 8.6
      vertex -0.20093 -3.19368 8.6
    endloop
  endfacet
  facet normal 0 0 -1
    outer loop
      vertex -0.59962 -3.14332 8.6
      vertex -0.679837 -2.09232 8.6
      vertex -0.229962 -2.18795 8.6
    endloop
  endfacet
  facet normal 0 0 -1
    outer loop
      vertex -0.988853 -3.04338 8.6
      vertex -0.679837 -2.09232 8.6
      vertex -0.59962 -3.14332 8.6
    endloop
  endfacet
  facet normal 0 0 -1
    outer loop
      vertex -1.36249 -2.89545 8.6
      vertex -0.679837 -2.09232 8.6
      vertex -0.988853 -3.04338 8.6
    endloop
  endfacet
  facet normal -0 0 -1
    outer loop
      vertex -0.679837 -2.09232 8.6
      vertex -1.36249 -2.89545 8.6
      vertex -1.1 -1.90526 8.6
    endloop
  endfacet
  facet normal 0 0 -1
    outer loop
      vertex -1.71465 -2.70185 8.6
      vertex -1.1 -1.90526 8.6
      vertex -1.36249 -2.89545 8.6
    endloop
  endfacet
  facet normal -0 0 -1
    outer loop
      vertex -1.1 -1.90526 8.6
      vertex -1.71465 -2.70185 8.6
      vertex -1.47209 -1.63492 8.6
    endloop
  endfacet
  facet normal 0 0 -1
    outer loop
      vertex -2.03976 -2.46564 8.6
      vertex -1.47209 -1.63492 8.6
      vertex -1.71465 -2.70185 8.6
    endloop
  endfacet
  facet normal 0 0 -1
    outer loop
      vertex -2.3327 -2.19055 8.6
      vertex -1.47209 -1.63492 8.6
      vertex -2.03976 -2.46564 8.6
    endloop
  endfacet
  facet normal -0 0 -1
    outer loop
      vertex -1.47209 -1.63492 8.6
      vertex -2.3327 -2.19055 8.6
      vertex -1.77984 -1.29313 8.6
    endloop
  endfacet
  facet normal 0 0 -1
    outer loop
      vertex -2.58885 -1.88091 8.6
      vertex -1.77984 -1.29313 8.6
      vertex -2.3327 -2.19055 8.6
    endloop
  endfacet
  facet normal 0 0 -1
    outer loop
      vertex -2.80418 -1.54161 8.6
      vertex -1.77984 -1.29313 8.6
      vertex -2.58885 -1.88091 8.6
    endloop
  endfacet
  facet normal -0 0 -1
    outer loop
      vertex -1.77984 -1.29313 8.6
      vertex -2.80418 -1.54161 8.6
      vertex -2.0098 -0.89482 8.6
    endloop
  endfacet
  facet normal 0 0 -1
    outer loop
      vertex 1.77984 1.29313 8.6
      vertex 2.80418 1.54161 8.6
      vertex 2.0098 0.89482 8.6
    endloop
  endfacet
  facet normal -0 0 -1
    outer loop
      vertex 2.80418 1.54161 8.6
      vertex 1.77984 1.29313 8.6
      vertex 2.58885 1.88091 8.6
    endloop
  endfacet
  facet normal -0 0 -1
    outer loop
      vertex 2.58885 1.88091 8.6
      vertex 1.77984 1.29313 8.6
      vertex 2.3327 2.19055 8.6
    endloop
  endfacet
  facet normal 0 0 -1
    outer loop
      vertex 1.47209 1.63492 8.6
      vertex 2.3327 2.19055 8.6
      vertex 1.77984 1.29313 8.6
    endloop
  endfacet
  facet normal -0 0 -1
    outer loop
      vertex 2.3327 2.19055 8.6
      vertex 1.47209 1.63492 8.6
      vertex 2.03976 2.46564 8.6
    endloop
  endfacet
  facet normal -0 0 -1
    outer loop
      vertex 2.03976 2.46564 8.6
      vertex 1.47209 1.63492 8.6
      vertex 1.71465 2.70185 8.6
    endloop
  endfacet
  facet normal 0 0 -1
    outer loop
      vertex 1.1 1.90526 8.6
      vertex 1.71465 2.70185 8.6
      vertex 1.47209 1.63492 8.6
    endloop
  endfacet
  facet normal -0 0 -1
    outer loop
      vertex 1.71465 2.70185 8.6
      vertex 1.1 1.90526 8.6
      vertex 1.36249 2.89545 8.6
    endloop
  endfacet
  facet normal 0 0 -1
    outer loop
      vertex 0.679837 2.09232 8.6
      vertex 1.36249 2.89545 8.6
      vertex 1.1 1.90526 8.6
    endloop
  endfacet
  facet normal -0 0 -1
    outer loop
      vertex 1.36249 2.89545 8.6
      vertex 0.679837 2.09232 8.6
      vertex 0.988853 3.04338 8.6
    endloop
  endfacet
  facet normal 0 0 -1
    outer loop
      vertex 0.679837 2.09232 8.6
      vertex 0.59962 3.14332 8.6
      vertex 0.988853 3.04338 8.6
    endloop
  endfacet
  facet normal 0 0 -1
    outer loop
      vertex 0.229962 2.18795 8.6
      vertex 0.59962 3.14332 8.6
      vertex 0.679837 2.09232 8.6
    endloop
  endfacet
  facet normal 0 0 -1
    outer loop
      vertex 0.229962 2.18795 8.6
      vertex 0.20093 3.19368 8.6
      vertex 0.59962 3.14332 8.6
    endloop
  endfacet
  facet normal 0 0 -1
    outer loop
      vertex 0.229962 2.18795 8.6
      vertex -0.20093 3.19368 8.6
      vertex 0.20093 3.19368 8.6
    endloop
  endfacet
  facet normal 0 0 -1
    outer loop
      vertex -0.229962 2.18795 8.6
      vertex -0.20093 3.19368 8.6
      vertex 0.229962 2.18795 8.6
    endloop
  endfacet
  facet normal 0 0 -1
    outer loop
      vertex -0.229962 2.18795 8.6
      vertex -0.59962 3.14332 8.6
      vertex -0.20093 3.19368 8.6
    endloop
  endfacet
  facet normal 0 0 -1
    outer loop
      vertex -0.679837 2.09232 8.6
      vertex -0.59962 3.14332 8.6
      vertex -0.229962 2.18795 8.6
    endloop
  endfacet
  facet normal 0 0 -1
    outer loop
      vertex -0.679837 2.09232 8.6
      vertex -0.988853 3.04338 8.6
      vertex -0.59962 3.14332 8.6
    endloop
  endfacet
  facet normal 0 0 -1
    outer loop
      vertex -1.36249 2.89545 8.6
      vertex -0.679837 2.09232 8.6
      vertex -1.1 1.90526 8.6
    endloop
  endfacet
  facet normal 0 0 -1
    outer loop
      vertex -0.679837 2.09232 8.6
      vertex -1.36249 2.89545 8.6
      vertex -0.988853 3.04338 8.6
    endloop
  endfacet
  facet normal 0 0 -1
    outer loop
      vertex -1.71465 2.70185 8.6
      vertex -1.1 1.90526 8.6
      vertex -1.47209 1.63492 8.6
    endloop
  endfacet
  facet normal 0 0 -1
    outer loop
      vertex -1.1 1.90526 8.6
      vertex -1.71465 2.70185 8.6
      vertex -1.36249 2.89545 8.6
    endloop
  endfacet
  facet normal 0 0 -1
    outer loop
      vertex -2.3327 2.19055 8.6
      vertex -1.47209 1.63492 8.6
      vertex -1.77984 1.29313 8.6
    endloop
  endfacet
  facet normal 0 0 -1
    outer loop
      vertex -2.80418 1.54161 8.6
      vertex -1.77984 1.29313 8.6
      vertex -2.0098 0.89482 8.6
    endloop
  endfacet
  facet normal 0 0 -1
    outer loop
      vertex -1.47209 1.63492 8.6
      vertex -2.03976 2.46564 8.6
      vertex -1.71465 2.70185 8.6
    endloop
  endfacet
  facet normal 0 0 -1
    outer loop
      vertex -2.97528 1.178 8.6
      vertex -2.0098 0.89482 8.6
      vertex -2.15192 0.457405 8.6
    endloop
  endfacet
  facet normal 0 0 -1
    outer loop
      vertex -3.17477 0.401066 8.6
      vertex -2.15192 0.457405 8.6
      vertex -2.2 0 8.6
    endloop
  endfacet
  facet normal 0 0 -1
    outer loop
      vertex -1.47209 1.63492 8.6
      vertex -2.3327 2.19055 8.6
      vertex -2.03976 2.46564 8.6
    endloop
  endfacet
  facet normal 0 0 -1
    outer loop
      vertex -2.97528 -1.178 8.6
      vertex -2.0098 -0.89482 8.6
      vertex -2.80418 -1.54161 8.6
    endloop
  endfacet
  facet normal -0 0 -1
    outer loop
      vertex -2.0098 -0.89482 8.6
      vertex -2.97528 -1.178 8.6
      vertex -2.15192 -0.457405 8.6
    endloop
  endfacet
  facet normal 0 0 -1
    outer loop
      vertex -1.77984 1.29313 8.6
      vertex -2.58885 1.88091 8.6
      vertex -2.3327 2.19055 8.6
    endloop
  endfacet
  facet normal 0 0 -1
    outer loop
      vertex -3.09947 -0.795807 8.6
      vertex -2.15192 -0.457405 8.6
      vertex -2.97528 -1.178 8.6
    endloop
  endfacet
  facet normal 0 0 -1
    outer loop
      vertex -1.77984 1.29313 8.6
      vertex -2.80418 1.54161 8.6
      vertex -2.58885 1.88091 8.6
    endloop
  endfacet
  facet normal 0 0 -1
    outer loop
      vertex -3.17477 -0.401066 8.6
      vertex -2.15192 -0.457405 8.6
      vertex -3.09947 -0.795807 8.6
    endloop
  endfacet
  facet normal 0 0 -1
    outer loop
      vertex -2.0098 0.89482 8.6
      vertex -2.97528 1.178 8.6
      vertex -2.80418 1.54161 8.6
    endloop
  endfacet
  facet normal 0 0 -1
    outer loop
      vertex -2.15192 -0.457405 8.6
      vertex -3.17477 -0.401066 8.6
      vertex -2.2 0 8.6
    endloop
  endfacet
  facet normal 0 0 -1
    outer loop
      vertex -2.15192 0.457405 8.6
      vertex -3.09947 0.795807 8.6
      vertex -2.97528 1.178 8.6
    endloop
  endfacet
  facet normal 0 0 -1
    outer loop
      vertex -3.2 0 8.6
      vertex -2.2 0 8.6
      vertex -3.17477 -0.401066 8.6
    endloop
  endfacet
  facet normal -0 0 -1
    outer loop
      vertex -2.15192 0.457405 8.6
      vertex -3.17477 0.401066 8.6
      vertex -3.09947 0.795807 8.6
    endloop
  endfacet
  facet normal 0 0 -1
    outer loop
      vertex -2.2 0 8.6
      vertex -3.2 0 8.6
      vertex -3.17477 0.401066 8.6
    endloop
  endfacet
  facet normal 0 -1 0
    outer loop
      vertex -0.229962 -2.18795 4
      vertex 0.229962 -2.18795 8.6
      vertex -0.229962 -2.18795 8.6
    endloop
  endfacet
  facet normal 0 -1 -0
    outer loop
      vertex 0.229962 -2.18795 8.6
      vertex -0.229962 -2.18795 4
      vertex 0.229962 -2.18795 4
    endloop
  endfacet
  facet normal -0.95106 -0.309008 0
    outer loop
      vertex -2.0098 -0.89482 4
      vertex -2.15192 -0.457405 8.6
      vertex -2.15192 -0.457405 4
    endloop
  endfacet
  facet normal -0.95106 -0.309008 0
    outer loop
      vertex -2.15192 -0.457405 8.6
      vertex -2.0098 -0.89482 4
      vertex -2.0098 -0.89482 8.6
    endloop
  endfacet
  facet normal -0.743144 -0.669132 0
    outer loop
      vertex -1.47209 -1.63492 4
      vertex -1.77984 -1.29313 8.6
      vertex -1.77984 -1.29313 4
    endloop
  endfacet
  facet normal -0.743144 -0.669132 0
    outer loop
      vertex -1.77984 -1.29313 8.6
      vertex -1.47209 -1.63492 4
      vertex -1.47209 -1.63492 8.6
    endloop
  endfacet
  facet normal -0.994521 -0.104539 0
    outer loop
      vertex -2.15192 -0.457405 4
      vertex -2.2 0 8.6
      vertex -2.2 0 4
    endloop
  endfacet
  facet normal -0.994521 -0.104539 0
    outer loop
      vertex -2.2 0 8.6
      vertex -2.15192 -0.457405 4
      vertex -2.15192 -0.457405 8.6
    endloop
  endfacet
  facet normal 0.982288 0.187379 0
    outer loop
      vertex 3.17477 0.401066 9.6
      vertex 3.09947 0.795807 8.6
      vertex 3.09947 0.795807 9.6
    endloop
  endfacet
  facet normal 0.982288 0.187379 0
    outer loop
      vertex 3.09947 0.795807 8.6
      vertex 3.17477 0.401066 9.6
      vertex 3.17477 0.401066 8.6
    endloop
  endfacet
  facet normal 0.998027 0.0627832 0
    outer loop
      vertex 3.2 0 9.6
      vertex 3.17477 0.401066 8.6
      vertex 3.17477 0.401066 9.6
    endloop
  endfacet
  facet normal 0.998027 0.0627832 0
    outer loop
      vertex 3.17477 0.401066 8.6
      vertex 3.2 0 9.6
      vertex 3.2 0 8.6
    endloop
  endfacet
  facet normal 0.951051 0.309035 0
    outer loop
      vertex 3.09947 0.795807 9.6
      vertex 2.97528 1.178 8.6
      vertex 2.97528 1.178 9.6
    endloop
  endfacet
  facet normal 0.951051 0.309035 0
    outer loop
      vertex 2.97528 1.178 8.6
      vertex 3.09947 0.795807 9.6
      vertex 3.09947 0.795807 8.6
    endloop
  endfacet
  facet normal 0.844324 0.535833 0
    outer loop
      vertex 2.80418 1.54161 9.6
      vertex 2.58885 1.88091 8.6
      vertex 2.58885 1.88091 9.6
    endloop
  endfacet
  facet normal 0.844324 0.535833 0
    outer loop
      vertex 2.58885 1.88091 8.6
      vertex 2.80418 1.54161 9.6
      vertex 2.80418 1.54161 8.6
    endloop
  endfacet
  facet normal -0.248694 0.968582 0
    outer loop
      vertex -0.59962 3.14332 8.6
      vertex -0.988853 3.04338 9.6
      vertex -0.59962 3.14332 9.6
    endloop
  endfacet
  facet normal -0.248694 0.968582 0
    outer loop
      vertex -0.988853 3.04338 9.6
      vertex -0.59962 3.14332 8.6
      vertex -0.988853 3.04338 8.6
    endloop
  endfacet
  facet normal 0.368117 -0.929779 0
    outer loop
      vertex 0.988853 -3.04338 8.6
      vertex 1.36249 -2.89545 9.6
      vertex 0.988853 -3.04338 9.6
    endloop
  endfacet
  facet normal 0.368117 -0.929779 0
    outer loop
      vertex 1.36249 -2.89545 9.6
      vertex 0.988853 -3.04338 8.6
      vertex 1.36249 -2.89545 8.6
    endloop
  endfacet
  facet normal -0.998027 0.0627832 0
    outer loop
      vertex -3.2 0 8.6
      vertex -3.17477 0.401066 9.6
      vertex -3.17477 0.401066 8.6
    endloop
  endfacet
  facet normal -0.998027 0.0627832 0
    outer loop
      vertex -3.17477 0.401066 9.6
      vertex -3.2 0 8.6
      vertex -3.2 0 9.6
    endloop
  endfacet
  facet normal -0.998027 -0.0627832 0
    outer loop
      vertex -3.17477 -0.401066 8.6
      vertex -3.2 0 9.6
      vertex -3.2 0 8.6
    endloop
  endfacet
  facet normal -0.998027 -0.0627832 0
    outer loop
      vertex -3.2 0 9.6
      vertex -3.17477 -0.401066 8.6
      vertex -3.17477 -0.401066 9.6
    endloop
  endfacet
  facet normal -0.587791 0.809013 0
    outer loop
      vertex -1.71465 2.70185 8.6
      vertex -2.03976 2.46564 9.6
      vertex -1.71465 2.70185 9.6
    endloop
  endfacet
  facet normal -0.587791 0.809013 0
    outer loop
      vertex -2.03976 2.46564 9.6
      vertex -1.71465 2.70185 8.6
      vertex -2.03976 2.46564 8.6
    endloop
  endfacet
  facet normal 0 1 -0
    outer loop
      vertex 0.20093 3.19368 8.6
      vertex -0.20093 3.19368 9.6
      vertex 0.20093 3.19368 9.6
    endloop
  endfacet
  facet normal 0 1 0
    outer loop
      vertex -0.20093 3.19368 9.6
      vertex 0.20093 3.19368 8.6
      vertex -0.20093 3.19368 8.6
    endloop
  endfacet
  facet normal 0.684548 0.728967 -0
    outer loop
      vertex 2.3327 2.19055 8.6
      vertex 2.03976 2.46564 9.6
      vertex 2.3327 2.19055 9.6
    endloop
  endfacet
  facet normal 0.684548 0.728967 0
    outer loop
      vertex 2.03976 2.46564 9.6
      vertex 2.3327 2.19055 8.6
      vertex 2.03976 2.46564 8.6
    endloop
  endfacet
  facet normal 0.904829 0.425775 0
    outer loop
      vertex 2.97528 1.178 9.6
      vertex 2.80418 1.54161 8.6
      vertex 2.80418 1.54161 9.6
    endloop
  endfacet
  facet normal 0.904829 0.425775 0
    outer loop
      vertex 2.80418 1.54161 8.6
      vertex 2.97528 1.178 9.6
      vertex 2.97528 1.178 8.6
    endloop
  endfacet
  facet normal -0.125318 0.992117 0
    outer loop
      vertex -0.20093 3.19368 8.6
      vertex -0.59962 3.14332 9.6
      vertex -0.20093 3.19368 9.6
    endloop
  endfacet
  facet normal -0.125318 0.992117 0
    outer loop
      vertex -0.59962 3.14332 9.6
      vertex -0.20093 3.19368 8.6
      vertex -0.59962 3.14332 8.6
    endloop
  endfacet
  facet normal -0.982288 0.187379 0
    outer loop
      vertex -3.17477 0.401066 8.6
      vertex -3.09947 0.795807 9.6
      vertex -3.09947 0.795807 8.6
    endloop
  endfacet
  facet normal -0.982288 0.187379 0
    outer loop
      vertex -3.09947 0.795807 9.6
      vertex -3.17477 0.401066 8.6
      vertex -3.17477 0.401066 9.6
    endloop
  endfacet
  facet normal -0.951051 0.309035 0
    outer loop
      vertex -3.09947 0.795807 8.6
      vertex -2.97528 1.178 9.6
      vertex -2.97528 1.178 8.6
    endloop
  endfacet
  facet normal -0.951051 0.309035 0
    outer loop
      vertex -2.97528 1.178 9.6
      vertex -3.09947 0.795807 8.6
      vertex -3.09947 0.795807 9.6
    endloop
  endfacet
  facet normal -0.844324 0.535833 0
    outer loop
      vertex -2.80418 1.54161 8.6
      vertex -2.58885 1.88091 9.6
      vertex -2.58885 1.88091 8.6
    endloop
  endfacet
  facet normal -0.844324 0.535833 0
    outer loop
      vertex -2.58885 1.88091 9.6
      vertex -2.80418 1.54161 8.6
      vertex -2.80418 1.54161 9.6
    endloop
  endfacet
  facet normal 0 -1 0
    outer loop
      vertex -0.20093 -3.19368 8.6
      vertex 0.20093 -3.19368 9.6
      vertex -0.20093 -3.19368 9.6
    endloop
  endfacet
  facet normal 0 -1 -0
    outer loop
      vertex 0.20093 -3.19368 9.6
      vertex -0.20093 -3.19368 8.6
      vertex 0.20093 -3.19368 8.6
    endloop
  endfacet
  facet normal 0.587791 -0.809013 0
    outer loop
      vertex 1.71465 -2.70185 8.6
      vertex 2.03976 -2.46564 9.6
      vertex 1.71465 -2.70185 9.6
    endloop
  endfacet
  facet normal 0.587791 -0.809013 0
    outer loop
      vertex 2.03976 -2.46564 9.6
      vertex 1.71465 -2.70185 8.6
      vertex 2.03976 -2.46564 8.6
    endloop
  endfacet
  facet normal 0.587791 0.809013 -0
    outer loop
      vertex 2.03976 2.46564 8.6
      vertex 1.71465 2.70185 9.6
      vertex 2.03976 2.46564 9.6
    endloop
  endfacet
  facet normal 0.587791 0.809013 0
    outer loop
      vertex 1.71465 2.70185 9.6
      vertex 2.03976 2.46564 8.6
      vertex 1.71465 2.70185 8.6
    endloop
  endfacet
  facet normal 0.248694 0.968582 -0
    outer loop
      vertex 0.988853 3.04338 8.6
      vertex 0.59962 3.14332 9.6
      vertex 0.988853 3.04338 9.6
    endloop
  endfacet
  facet normal 0.248694 0.968582 0
    outer loop
      vertex 0.59962 3.14332 9.6
      vertex 0.988853 3.04338 8.6
      vertex 0.59962 3.14332 8.6
    endloop
  endfacet
  facet normal -0.684548 0.728967 0
    outer loop
      vertex -2.03976 2.46564 8.6
      vertex -2.3327 2.19055 9.6
      vertex -2.03976 2.46564 9.6
    endloop
  endfacet
  facet normal -0.684548 0.728967 0
    outer loop
      vertex -2.3327 2.19055 9.6
      vertex -2.03976 2.46564 8.6
      vertex -2.3327 2.19055 8.6
    endloop
  endfacet
  facet normal -0.368117 0.929779 0
    outer loop
      vertex -0.988853 3.04338 8.6
      vertex -1.36249 2.89545 9.6
      vertex -0.988853 3.04338 9.6
    endloop
  endfacet
  facet normal -0.368117 0.929779 0
    outer loop
      vertex -1.36249 2.89545 9.6
      vertex -0.988853 3.04338 8.6
      vertex -1.36249 2.89545 8.6
    endloop
  endfacet
  facet normal 0.844324 -0.535833 0
    outer loop
      vertex 2.58885 -1.88091 9.6
      vertex 2.80418 -1.54161 8.6
      vertex 2.80418 -1.54161 9.6
    endloop
  endfacet
  facet normal 0.844324 -0.535833 0
    outer loop
      vertex 2.80418 -1.54161 8.6
      vertex 2.58885 -1.88091 9.6
      vertex 2.58885 -1.88091 8.6
    endloop
  endfacet
  facet normal 0.951051 -0.309035 0
    outer loop
      vertex 2.97528 -1.178 9.6
      vertex 3.09947 -0.795807 8.6
      vertex 3.09947 -0.795807 9.6
    endloop
  endfacet
  facet normal 0.951051 -0.309035 0
    outer loop
      vertex 3.09947 -0.795807 8.6
      vertex 2.97528 -1.178 9.6
      vertex 2.97528 -1.178 8.6
    endloop
  endfacet
  facet normal 0.998027 -0.0627832 0
    outer loop
      vertex 3.17477 -0.401066 9.6
      vertex 3.2 0 8.6
      vertex 3.2 0 9.6
    endloop
  endfacet
  facet normal 0.998027 -0.0627832 0
    outer loop
      vertex 3.2 0 8.6
      vertex 3.17477 -0.401066 9.6
      vertex 3.17477 -0.401066 8.6
    endloop
  endfacet
  facet normal -0.770521 -0.637414 0
    outer loop
      vertex -2.3327 -2.19055 8.6
      vertex -2.58885 -1.88091 9.6
      vertex -2.58885 -1.88091 8.6
    endloop
  endfacet
  facet normal -0.770521 -0.637414 0
    outer loop
      vertex -2.58885 -1.88091 9.6
      vertex -2.3327 -2.19055 8.6
      vertex -2.3327 -2.19055 9.6
    endloop
  endfacet
  facet normal 0.481751 -0.876308 0
    outer loop
      vertex 1.36249 -2.89545 8.6
      vertex 1.71465 -2.70185 9.6
      vertex 1.36249 -2.89545 9.6
    endloop
  endfacet
  facet normal 0.481751 -0.876308 0
    outer loop
      vertex 1.71465 -2.70185 9.6
      vertex 1.36249 -2.89545 8.6
      vertex 1.71465 -2.70185 8.6
    endloop
  endfacet
  facet normal 0.481751 0.876308 -0
    outer loop
      vertex 1.71465 2.70185 8.6
      vertex 1.36249 2.89545 9.6
      vertex 1.71465 2.70185 9.6
    endloop
  endfacet
  facet normal 0.481751 0.876308 0
    outer loop
      vertex 1.36249 2.89545 9.6
      vertex 1.71465 2.70185 8.6
      vertex 1.36249 2.89545 8.6
    endloop
  endfacet
  facet normal -0.481751 0.876308 0
    outer loop
      vertex -1.36249 2.89545 8.6
      vertex -1.71465 2.70185 9.6
      vertex -1.36249 2.89545 9.6
    endloop
  endfacet
  facet normal -0.481751 0.876308 0
    outer loop
      vertex -1.71465 2.70185 9.6
      vertex -1.36249 2.89545 8.6
      vertex -1.71465 2.70185 8.6
    endloop
  endfacet
  facet normal 0.368117 0.929779 -0
    outer loop
      vertex 1.36249 2.89545 8.6
      vertex 0.988853 3.04338 9.6
      vertex 1.36249 2.89545 9.6
    endloop
  endfacet
  facet normal 0.368117 0.929779 0
    outer loop
      vertex 0.988853 3.04338 9.6
      vertex 1.36249 2.89545 8.6
      vertex 0.988853 3.04338 8.6
    endloop
  endfacet
  facet normal 0.684548 -0.728967 0
    outer loop
      vertex 2.03976 -2.46564 8.6
      vertex 2.3327 -2.19055 9.6
      vertex 2.03976 -2.46564 9.6
    endloop
  endfacet
  facet normal 0.684548 -0.728967 0
    outer loop
      vertex 2.3327 -2.19055 9.6
      vertex 2.03976 -2.46564 8.6
      vertex 2.3327 -2.19055 8.6
    endloop
  endfacet
  facet normal -0.684548 -0.728967 0
    outer loop
      vertex -2.3327 -2.19055 8.6
      vertex -2.03976 -2.46564 9.6
      vertex -2.3327 -2.19055 9.6
    endloop
  endfacet
  facet normal -0.684548 -0.728967 -0
    outer loop
      vertex -2.03976 -2.46564 9.6
      vertex -2.3327 -2.19055 8.6
      vertex -2.03976 -2.46564 8.6
    endloop
  endfacet
  facet normal 0.125318 -0.992117 0
    outer loop
      vertex 0.20093 -3.19368 8.6
      vertex 0.59962 -3.14332 9.6
      vertex 0.20093 -3.19368 9.6
    endloop
  endfacet
  facet normal 0.125318 -0.992117 0
    outer loop
      vertex 0.59962 -3.14332 9.6
      vertex 0.20093 -3.19368 8.6
      vertex 0.59962 -3.14332 8.6
    endloop
  endfacet
  facet normal 0.904829 -0.425775 0
    outer loop
      vertex 2.80418 -1.54161 9.6
      vertex 2.97528 -1.178 8.6
      vertex 2.97528 -1.178 9.6
    endloop
  endfacet
  facet normal 0.904829 -0.425775 0
    outer loop
      vertex 2.97528 -1.178 8.6
      vertex 2.80418 -1.54161 9.6
      vertex 2.80418 -1.54161 8.6
    endloop
  endfacet
  facet normal 0.248694 -0.968582 0
    outer loop
      vertex 0.59962 -3.14332 8.6
      vertex 0.988853 -3.04338 9.6
      vertex 0.59962 -3.14332 9.6
    endloop
  endfacet
  facet normal 0.248694 -0.968582 0
    outer loop
      vertex 0.988853 -3.04338 9.6
      vertex 0.59962 -3.14332 8.6
      vertex 0.988853 -3.04338 8.6
    endloop
  endfacet
  facet normal -0.844324 -0.535833 0
    outer loop
      vertex -2.58885 -1.88091 8.6
      vertex -2.80418 -1.54161 9.6
      vertex -2.80418 -1.54161 8.6
    endloop
  endfacet
  facet normal -0.844324 -0.535833 0
    outer loop
      vertex -2.80418 -1.54161 9.6
      vertex -2.58885 -1.88091 8.6
      vertex -2.58885 -1.88091 9.6
    endloop
  endfacet
  facet normal -0.982288 -0.187379 0
    outer loop
      vertex -3.09947 -0.795807 8.6
      vertex -3.17477 -0.401066 9.6
      vertex -3.17477 -0.401066 8.6
    endloop
  endfacet
  facet normal -0.982288 -0.187379 0
    outer loop
      vertex -3.17477 -0.401066 9.6
      vertex -3.09947 -0.795807 8.6
      vertex -3.09947 -0.795807 9.6
    endloop
  endfacet
  facet normal 0.770521 0.637414 0
    outer loop
      vertex 2.58885 1.88091 9.6
      vertex 2.3327 2.19055 8.6
      vertex 2.3327 2.19055 9.6
    endloop
  endfacet
  facet normal 0.770521 0.637414 0
    outer loop
      vertex 2.3327 2.19055 8.6
      vertex 2.58885 1.88091 9.6
      vertex 2.58885 1.88091 8.6
    endloop
  endfacet
  facet normal -0.904829 0.425775 0
    outer loop
      vertex -2.97528 1.178 8.6
      vertex -2.80418 1.54161 9.6
      vertex -2.80418 1.54161 8.6
    endloop
  endfacet
  facet normal -0.904829 0.425775 0
    outer loop
      vertex -2.80418 1.54161 9.6
      vertex -2.97528 1.178 8.6
      vertex -2.97528 1.178 9.6
    endloop
  endfacet
  facet normal 0.982288 -0.187379 0
    outer loop
      vertex 3.09947 -0.795807 9.6
      vertex 3.17477 -0.401066 8.6
      vertex 3.17477 -0.401066 9.6
    endloop
  endfacet
  facet normal 0.982288 -0.187379 0
    outer loop
      vertex 3.17477 -0.401066 8.6
      vertex 3.09947 -0.795807 9.6
      vertex 3.09947 -0.795807 8.6
    endloop
  endfacet
  facet normal -0.125318 -0.992117 0
    outer loop
      vertex -0.59962 -3.14332 8.6
      vertex -0.20093 -3.19368 9.6
      vertex -0.59962 -3.14332 9.6
    endloop
  endfacet
  facet normal -0.125318 -0.992117 -0
    outer loop
      vertex -0.20093 -3.19368 9.6
      vertex -0.59962 -3.14332 8.6
      vertex -0.20093 -3.19368 8.6
    endloop
  endfacet
  facet normal -0.951051 -0.309035 0
    outer loop
      vertex -2.97528 -1.178 8.6
      vertex -3.09947 -0.795807 9.6
      vertex -3.09947 -0.795807 8.6
    endloop
  endfacet
  facet normal -0.951051 -0.309035 0
    outer loop
      vertex -3.09947 -0.795807 9.6
      vertex -2.97528 -1.178 8.6
      vertex -2.97528 -1.178 9.6
    endloop
  endfacet
  facet normal -0.481751 -0.876308 0
    outer loop
      vertex -1.71465 -2.70185 8.6
      vertex -1.36249 -2.89545 9.6
      vertex -1.71465 -2.70185 9.6
    endloop
  endfacet
  facet normal -0.481751 -0.876308 -0
    outer loop
      vertex -1.36249 -2.89545 9.6
      vertex -1.71465 -2.70185 8.6
      vertex -1.36249 -2.89545 8.6
    endloop
  endfacet
  facet normal -0.587791 -0.809013 0
    outer loop
      vertex -2.03976 -2.46564 8.6
      vertex -1.71465 -2.70185 9.6
      vertex -2.03976 -2.46564 9.6
    endloop
  endfacet
  facet normal -0.587791 -0.809013 -0
    outer loop
      vertex -1.71465 -2.70185 9.6
      vertex -2.03976 -2.46564 8.6
      vertex -1.71465 -2.70185 8.6
    endloop
  endfacet
  facet normal -0.770521 0.637414 0
    outer loop
      vertex -2.58885 1.88091 8.6
      vertex -2.3327 2.19055 9.6
      vertex -2.3327 2.19055 8.6
    endloop
  endfacet
  facet normal -0.770521 0.637414 0
    outer loop
      vertex -2.3327 2.19055 9.6
      vertex -2.58885 1.88091 8.6
      vertex -2.58885 1.88091 9.6
    endloop
  endfacet
  facet normal 0.125318 0.992117 -0
    outer loop
      vertex 0.59962 3.14332 8.6
      vertex 0.20093 3.19368 9.6
      vertex 0.59962 3.14332 9.6
    endloop
  endfacet
  facet normal 0.125318 0.992117 0
    outer loop
      vertex 0.20093 3.19368 9.6
      vertex 0.59962 3.14332 8.6
      vertex 0.20093 3.19368 8.6
    endloop
  endfacet
  facet normal -0.368117 -0.929779 0
    outer loop
      vertex -1.36249 -2.89545 8.6
      vertex -0.988853 -3.04338 9.6
      vertex -1.36249 -2.89545 9.6
    endloop
  endfacet
  facet normal -0.368117 -0.929779 -0
    outer loop
      vertex -0.988853 -3.04338 9.6
      vertex -1.36249 -2.89545 8.6
      vertex -0.988853 -3.04338 8.6
    endloop
  endfacet
  facet normal -0.248694 -0.968582 0
    outer loop
      vertex -0.988853 -3.04338 8.6
      vertex -0.59962 -3.14332 9.6
      vertex -0.988853 -3.04338 9.6
    endloop
  endfacet
  facet normal -0.248694 -0.968582 -0
    outer loop
      vertex -0.59962 -3.14332 9.6
      vertex -0.988853 -3.04338 8.6
      vertex -0.59962 -3.14332 8.6
    endloop
  endfacet
  facet normal 0 0 1
    outer loop
      vertex 3.17477 0.401066 9.6
      vertex 3.17477 -0.401066 9.6
      vertex 3.2 0 9.6
    endloop
  endfacet
  facet normal 0 0 1
    outer loop
      vertex 3.09947 0.795807 9.6
      vertex 3.17477 -0.401066 9.6
      vertex 3.17477 0.401066 9.6
    endloop
  endfacet
  facet normal 0 0 1
    outer loop
      vertex 3.09947 0.795807 9.6
      vertex 3.09947 -0.795807 9.6
      vertex 3.17477 -0.401066 9.6
    endloop
  endfacet
  facet normal 0 0 1
    outer loop
      vertex 2.97528 1.178 9.6
      vertex 3.09947 -0.795807 9.6
      vertex 3.09947 0.795807 9.6
    endloop
  endfacet
  facet normal 0 0 1
    outer loop
      vertex 2.97528 1.178 9.6
      vertex 2.97528 -1.178 9.6
      vertex 3.09947 -0.795807 9.6
    endloop
  endfacet
  facet normal 0 0 1
    outer loop
      vertex 2.80418 1.54161 9.6
      vertex 2.97528 -1.178 9.6
      vertex 2.97528 1.178 9.6
    endloop
  endfacet
  facet normal 0 0 1
    outer loop
      vertex 2.80418 1.54161 9.6
      vertex 2.80418 -1.54161 9.6
      vertex 2.97528 -1.178 9.6
    endloop
  endfacet
  facet normal 0 0 1
    outer loop
      vertex 2.58885 1.88091 9.6
      vertex 2.80418 -1.54161 9.6
      vertex 2.80418 1.54161 9.6
    endloop
  endfacet
  facet normal 0 0 1
    outer loop
      vertex 2.58885 1.88091 9.6
      vertex 2.58885 -1.88091 9.6
      vertex 2.80418 -1.54161 9.6
    endloop
  endfacet
  facet normal 0 0 1
    outer loop
      vertex 2.3327 2.19055 9.6
      vertex 2.58885 -1.88091 9.6
      vertex 2.58885 1.88091 9.6
    endloop
  endfacet
  facet normal 0 0 1
    outer loop
      vertex 2.3327 2.19055 9.6
      vertex 2.3327 -2.19055 9.6
      vertex 2.58885 -1.88091 9.6
    endloop
  endfacet
  facet normal 0 0 1
    outer loop
      vertex 2.03976 2.46564 9.6
      vertex 2.3327 -2.19055 9.6
      vertex 2.3327 2.19055 9.6
    endloop
  endfacet
  facet normal 0 0 1
    outer loop
      vertex 2.03976 2.46564 9.6
      vertex 2.03976 -2.46564 9.6
      vertex 2.3327 -2.19055 9.6
    endloop
  endfacet
  facet normal 0 0 1
    outer loop
      vertex 1.71465 2.70185 9.6
      vertex 2.03976 -2.46564 9.6
      vertex 2.03976 2.46564 9.6
    endloop
  endfacet
  facet normal 0 0 1
    outer loop
      vertex 1.71465 2.70185 9.6
      vertex 1.71465 -2.70185 9.6
      vertex 2.03976 -2.46564 9.6
    endloop
  endfacet
  facet normal 0 0 1
    outer loop
      vertex 1.36249 2.89545 9.6
      vertex 1.71465 -2.70185 9.6
      vertex 1.71465 2.70185 9.6
    endloop
  endfacet
  facet normal 0 0 1
    outer loop
      vertex 1.36249 2.89545 9.6
      vertex 1.36249 -2.89545 9.6
      vertex 1.71465 -2.70185 9.6
    endloop
  endfacet
  facet normal 0 0 1
    outer loop
      vertex 0.988853 3.04338 9.6
      vertex 1.36249 -2.89545 9.6
      vertex 1.36249 2.89545 9.6
    endloop
  endfacet
  facet normal 0 0 1
    outer loop
      vertex 0.988853 3.04338 9.6
      vertex 0.988853 -3.04338 9.6
      vertex 1.36249 -2.89545 9.6
    endloop
  endfacet
  facet normal 0 0 1
    outer loop
      vertex 0.59962 3.14332 9.6
      vertex 0.988853 -3.04338 9.6
      vertex 0.988853 3.04338 9.6
    endloop
  endfacet
  facet normal 0 0 1
    outer loop
      vertex 0.59962 3.14332 9.6
      vertex 0.59962 -3.14332 9.6
      vertex 0.988853 -3.04338 9.6
    endloop
  endfacet
  facet normal 0 0 1
    outer loop
      vertex 0.20093 3.19368 9.6
      vertex 0.59962 -3.14332 9.6
      vertex 0.59962 3.14332 9.6
    endloop
  endfacet
  facet normal 0 0 1
    outer loop
      vertex 0.20093 3.19368 9.6
      vertex 0.20093 -3.19368 9.6
      vertex 0.59962 -3.14332 9.6
    endloop
  endfacet
  facet normal -0 0 1
    outer loop
      vertex -0.20093 3.19368 9.6
      vertex 0.20093 -3.19368 9.6
      vertex 0.20093 3.19368 9.6
    endloop
  endfacet
  facet normal 0 0 1
    outer loop
      vertex -0.20093 3.19368 9.6
      vertex -0.20093 -3.19368 9.6
      vertex 0.20093 -3.19368 9.6
    endloop
  endfacet
  facet normal -0 0 1
    outer loop
      vertex -0.59962 3.14332 9.6
      vertex -0.20093 -3.19368 9.6
      vertex -0.20093 3.19368 9.6
    endloop
  endfacet
  facet normal 0 0 1
    outer loop
      vertex -0.59962 3.14332 9.6
      vertex -0.59962 -3.14332 9.6
      vertex -0.20093 -3.19368 9.6
    endloop
  endfacet
  facet normal -0 0 1
    outer loop
      vertex -0.988853 3.04338 9.6
      vertex -0.59962 -3.14332 9.6
      vertex -0.59962 3.14332 9.6
    endloop
  endfacet
  facet normal 0 0 1
    outer loop
      vertex -0.988853 3.04338 9.6
      vertex -0.988853 -3.04338 9.6
      vertex -0.59962 -3.14332 9.6
    endloop
  endfacet
  facet normal -0 0 1
    outer loop
      vertex -1.36249 2.89545 9.6
      vertex -0.988853 -3.04338 9.6
      vertex -0.988853 3.04338 9.6
    endloop
  endfacet
  facet normal 0 0 1
    outer loop
      vertex -1.36249 2.89545 9.6
      vertex -1.36249 -2.89545 9.6
      vertex -0.988853 -3.04338 9.6
    endloop
  endfacet
  facet normal -0 0 1
    outer loop
      vertex -1.71465 2.70185 9.6
      vertex -1.36249 -2.89545 9.6
      vertex -1.36249 2.89545 9.6
    endloop
  endfacet
  facet normal 0 0 1
    outer loop
      vertex -1.71465 2.70185 9.6
      vertex -1.71465 -2.70185 9.6
      vertex -1.36249 -2.89545 9.6
    endloop
  endfacet
  facet normal -0 0 1
    outer loop
      vertex -2.03976 2.46564 9.6
      vertex -1.71465 -2.70185 9.6
      vertex -1.71465 2.70185 9.6
    endloop
  endfacet
  facet normal 0 0 1
    outer loop
      vertex -2.03976 2.46564 9.6
      vertex -2.03976 -2.46564 9.6
      vertex -1.71465 -2.70185 9.6
    endloop
  endfacet
  facet normal -0 0 1
    outer loop
      vertex -2.3327 2.19055 9.6
      vertex -2.03976 -2.46564 9.6
      vertex -2.03976 2.46564 9.6
    endloop
  endfacet
  facet normal 0 0 1
    outer loop
      vertex -2.3327 2.19055 9.6
      vertex -2.3327 -2.19055 9.6
      vertex -2.03976 -2.46564 9.6
    endloop
  endfacet
  facet normal -0 0 1
    outer loop
      vertex -2.58885 1.88091 9.6
      vertex -2.3327 -2.19055 9.6
      vertex -2.3327 2.19055 9.6
    endloop
  endfacet
  facet normal 0 0 1
    outer loop
      vertex -2.58885 1.88091 9.6
      vertex -2.58885 -1.88091 9.6
      vertex -2.3327 -2.19055 9.6
    endloop
  endfacet
  facet normal -0 0 1
    outer loop
      vertex -2.80418 1.54161 9.6
      vertex -2.58885 -1.88091 9.6
      vertex -2.58885 1.88091 9.6
    endloop
  endfacet
  facet normal 0 0 1
    outer loop
      vertex -2.80418 1.54161 9.6
      vertex -2.80418 -1.54161 9.6
      vertex -2.58885 -1.88091 9.6
    endloop
  endfacet
  facet normal -0 0 1
    outer loop
      vertex -2.97528 1.178 9.6
      vertex -2.80418 -1.54161 9.6
      vertex -2.80418 1.54161 9.6
    endloop
  endfacet
  facet normal 0 0 1
    outer loop
      vertex -2.97528 1.178 9.6
      vertex -2.97528 -1.178 9.6
      vertex -2.80418 -1.54161 9.6
    endloop
  endfacet
  facet normal -0 0 1
    outer loop
      vertex -3.09947 0.795807 9.6
      vertex -2.97528 -1.178 9.6
      vertex -2.97528 1.178 9.6
    endloop
  endfacet
  facet normal 0 0 1
    outer loop
      vertex -3.09947 0.795807 9.6
      vertex -3.09947 -0.795807 9.6
      vertex -2.97528 -1.178 9.6
    endloop
  endfacet
  facet normal -0 0 1
    outer loop
      vertex -3.17477 0.401066 9.6
      vertex -3.09947 -0.795807 9.6
      vertex -3.09947 0.795807 9.6
    endloop
  endfacet
  facet normal 0 0 1
    outer loop
      vertex -3.17477 0.401066 9.6
      vertex -3.17477 -0.401066 9.6
      vertex -3.09947 -0.795807 9.6
    endloop
  endfacet
  facet normal 0 -0 1
    outer loop
      vertex -3.17477 -0.401066 9.6
      vertex -3.17477 0.401066 9.6
      vertex -3.2 0 9.6
    endloop
  endfacet
  facet normal 0.770521 -0.637414 0
    outer loop
      vertex 2.3327 -2.19055 9.6
      vertex 2.58885 -1.88091 8.6
      vertex 2.58885 -1.88091 9.6
    endloop
  endfacet
  facet normal 0.770521 -0.637414 0
    outer loop
      vertex 2.58885 -1.88091 8.6
      vertex 2.3327 -2.19055 9.6
      vertex 2.3327 -2.19055 8.6
    endloop
  endfacet
  facet normal -0.904829 -0.425775 0
    outer loop
      vertex -2.80418 -1.54161 8.6
      vertex -2.97528 -1.178 9.6
      vertex -2.97528 -1.178 8.6
    endloop
  endfacet
  facet normal -0.904829 -0.425775 0
    outer loop
      vertex -2.97528 -1.178 9.6
      vertex -2.80418 -1.54161 8.6
      vertex -2.80418 -1.54161 9.6
    endloop
  endfacet
  facet normal -1 0 0
    outer loop
      vertex 1.2 0.25 0
      vertex 1.2 1.2 3
      vertex 1.2 1.2 0
    endloop
  endfacet
  facet normal -1 -0 0
    outer loop
      vertex 1.2 1.2 3
      vertex 1.2 0.25 0
      vertex 1.2 0.25 3
    endloop
  endfacet
  facet normal -1 0 0
    outer loop
      vertex 1.2 -1.2 0
      vertex 1.2 -0.25 3
      vertex 1.2 -0.25 0
    endloop
  endfacet
  facet normal -1 -0 0
    outer loop
      vertex 1.2 -0.25 3
      vertex 1.2 -1.2 0
      vertex 1.2 -1.2 3
    endloop
  endfacet
  facet normal 0 0 -1
    outer loop
      vertex -2.45 0 3
      vertex -1.2 -0.25 3
      vertex -2.42372 -0.25 3
    endloop
  endfacet
  facet normal 0 0 -1
    outer loop
      vertex -1.2 -0.25 3
      vertex -2.45 0 3
      vertex -1.2 0.25 3
    endloop
  endfacet
  facet normal -0 0 -1
    outer loop
      vertex -1.2 0.25 3
      vertex -2.45 0 3
      vertex -2.42372 0.25 3
    endloop
  endfacet
  facet normal 0 0 -1
    outer loop
      vertex -1.2 -0.25 3
      vertex 1.2 -0.25 3
      vertex 1.2 -1.2 3
    endloop
  endfacet
  facet normal 0 0 -1
    outer loop
      vertex 1.2 -0.25 3
      vertex -1.2 -0.25 3
      vertex 1.2 0.25 3
    endloop
  endfacet
  facet normal 0 0 -1
    outer loop
      vertex -1.2 -0.25 3
      vertex 1.2 -1.2 3
      vertex -1.2 -1.2 3
    endloop
  endfacet
  facet normal 0 0 -1
    outer loop
      vertex -1.2 0.25 3
      vertex 1.2 0.25 3
      vertex -1.2 -0.25 3
    endloop
  endfacet
  facet normal 0 0 -1
    outer loop
      vertex 1.2 0.25 3
      vertex -1.2 0.25 3
      vertex 1.2 1.2 3
    endloop
  endfacet
  facet normal -0 0 -1
    outer loop
      vertex 1.2 1.2 3
      vertex -1.2 0.25 3
      vertex -1.2 1.2 3
    endloop
  endfacet
  facet normal 0 0 -1
    outer loop
      vertex 1.2 -0.25 3
      vertex 2.45 0 3
      vertex 2.42372 -0.25 3
    endloop
  endfacet
  facet normal 0 0 -1
    outer loop
      vertex 1.2 0.25 3
      vertex 2.45 0 3
      vertex 1.2 -0.25 3
    endloop
  endfacet
  facet normal 0 0 -1
    outer loop
      vertex 2.45 0 3
      vertex 1.2 0.25 3
      vertex 2.42372 0.25 3
    endloop
  endfacet
  facet normal 1 -0 0
    outer loop
      vertex -1.2 0.25 3
      vertex -1.2 1.2 0
      vertex -1.2 1.2 3
    endloop
  endfacet
  facet normal 1 0 0
    outer loop
      vertex -1.2 1.2 0
      vertex -1.2 0.25 3
      vertex -1.2 0.25 0
    endloop
  endfacet
  facet normal 1 -0 0
    outer loop
      vertex -1.2 -1.2 3
      vertex -1.2 -0.25 0
      vertex -1.2 -0.25 3
    endloop
  endfacet
  facet normal 1 0 0
    outer loop
      vertex -1.2 -0.25 0
      vertex -1.2 -1.2 3
      vertex -1.2 -1.2 0
    endloop
  endfacet
  facet normal 0 -1 0
    outer loop
      vertex -1.2 1.2 0
      vertex 1.2 1.2 3
      vertex -1.2 1.2 3
    endloop
  endfacet
  facet normal 0 -1 -0
    outer loop
      vertex 1.2 1.2 3
      vertex -1.2 1.2 0
      vertex 1.2 1.2 0
    endloop
  endfacet
  facet normal 0 1 -0
    outer loop
      vertex 1.2 -1.2 0
      vertex -1.2 -1.2 3
      vertex 1.2 -1.2 3
    endloop
  endfacet
  facet normal 0 1 0
    outer loop
      vertex -1.2 -1.2 3
      vertex 1.2 -1.2 0
      vertex -1.2 -1.2 0
    endloop
  endfacet
  facet normal 0 -1 0
    outer loop
      vertex -2.42372 0.25 0
      vertex -1.2 0.25 3
      vertex -2.42372 0.25 3
    endloop
  endfacet
  facet normal 0 -1 -0
    outer loop
      vertex -1.2 0.25 3
      vertex -2.42372 0.25 0
      vertex -1.2 0.25 0
    endloop
  endfacet
  facet normal 0 1 -0
    outer loop
      vertex -1.2 -0.25 0
      vertex -2.42372 -0.25 3
      vertex -1.2 -0.25 3
    endloop
  endfacet
  facet normal 0 1 0
    outer loop
      vertex -2.42372 -0.25 3
      vertex -1.2 -0.25 0
      vertex -2.42372 -0.25 0
    endloop
  endfacet
  facet normal 0 -1 0
    outer loop
      vertex 1.2 0.25 0
      vertex 2.42372 0.25 3
      vertex 1.2 0.25 3
    endloop
  endfacet
  facet normal 0 -1 -0
    outer loop
      vertex 2.42372 0.25 3
      vertex 1.2 0.25 0
      vertex 2.42372 0.25 0
    endloop
  endfacet
  facet normal 0 1 -0
    outer loop
      vertex 2.42372 -0.25 0
      vertex 1.2 -0.25 3
      vertex 2.42372 -0.25 3
    endloop
  endfacet
  facet normal 0 1 0
    outer loop
      vertex 1.2 -0.25 3
      vertex 2.42372 -0.25 0
      vertex 1.2 -0.25 0
    endloop
  endfacet
endsolid OpenSCAD_Model
