%TF.GenerationSoftware,KiCad,Pcbnew,8.0.6-8.0.6-0~ubuntu20.04.1*%
%TF.CreationDate,2024-11-02T23:17:14+01:00*%
%TF.ProjectId,CYW43439,43595734-3334-4333-992e-6b696361645f,rev?*%
%TF.SameCoordinates,Original*%
%TF.FileFunction,Legend,Top*%
%TF.FilePolarity,Positive*%
%FSLAX46Y46*%
G04 Gerber Fmt 4.6, Leading zero omitted, Abs format (unit mm)*
G04 Created by KiCad (PCBNEW 8.0.6-8.0.6-0~ubuntu20.04.1) date 2024-11-02 23:17:14*
%MOMM*%
%LPD*%
G01*
G04 APERTURE LIST*
%ADD10C,0.100000*%
%ADD11C,0.150000*%
%ADD12C,0.120000*%
%ADD13C,0.127000*%
%ADD14C,0.200000*%
G04 APERTURE END LIST*
D10*
X144013408Y-86370704D02*
X143975312Y-86408800D01*
X143975312Y-86408800D02*
X143861027Y-86446895D01*
X143861027Y-86446895D02*
X143784836Y-86446895D01*
X143784836Y-86446895D02*
X143670550Y-86408800D01*
X143670550Y-86408800D02*
X143594360Y-86332609D01*
X143594360Y-86332609D02*
X143556265Y-86256419D01*
X143556265Y-86256419D02*
X143518169Y-86104038D01*
X143518169Y-86104038D02*
X143518169Y-85989752D01*
X143518169Y-85989752D02*
X143556265Y-85837371D01*
X143556265Y-85837371D02*
X143594360Y-85761180D01*
X143594360Y-85761180D02*
X143670550Y-85684990D01*
X143670550Y-85684990D02*
X143784836Y-85646895D01*
X143784836Y-85646895D02*
X143861027Y-85646895D01*
X143861027Y-85646895D02*
X143975312Y-85684990D01*
X143975312Y-85684990D02*
X144013408Y-85723085D01*
X144737217Y-86446895D02*
X144356265Y-86446895D01*
X144356265Y-86446895D02*
X144356265Y-85646895D01*
X145003884Y-86446895D02*
X145003884Y-85646895D01*
X145461027Y-86446895D02*
X145118169Y-85989752D01*
X145461027Y-85646895D02*
X145003884Y-86104038D01*
X139213408Y-86395704D02*
X139175312Y-86433800D01*
X139175312Y-86433800D02*
X139061027Y-86471895D01*
X139061027Y-86471895D02*
X138984836Y-86471895D01*
X138984836Y-86471895D02*
X138870550Y-86433800D01*
X138870550Y-86433800D02*
X138794360Y-86357609D01*
X138794360Y-86357609D02*
X138756265Y-86281419D01*
X138756265Y-86281419D02*
X138718169Y-86129038D01*
X138718169Y-86129038D02*
X138718169Y-86014752D01*
X138718169Y-86014752D02*
X138756265Y-85862371D01*
X138756265Y-85862371D02*
X138794360Y-85786180D01*
X138794360Y-85786180D02*
X138870550Y-85709990D01*
X138870550Y-85709990D02*
X138984836Y-85671895D01*
X138984836Y-85671895D02*
X139061027Y-85671895D01*
X139061027Y-85671895D02*
X139175312Y-85709990D01*
X139175312Y-85709990D02*
X139213408Y-85748085D01*
X139518169Y-86433800D02*
X139632455Y-86471895D01*
X139632455Y-86471895D02*
X139822931Y-86471895D01*
X139822931Y-86471895D02*
X139899122Y-86433800D01*
X139899122Y-86433800D02*
X139937217Y-86395704D01*
X139937217Y-86395704D02*
X139975312Y-86319514D01*
X139975312Y-86319514D02*
X139975312Y-86243323D01*
X139975312Y-86243323D02*
X139937217Y-86167133D01*
X139937217Y-86167133D02*
X139899122Y-86129038D01*
X139899122Y-86129038D02*
X139822931Y-86090942D01*
X139822931Y-86090942D02*
X139670550Y-86052847D01*
X139670550Y-86052847D02*
X139594360Y-86014752D01*
X139594360Y-86014752D02*
X139556265Y-85976657D01*
X139556265Y-85976657D02*
X139518169Y-85900466D01*
X139518169Y-85900466D02*
X139518169Y-85824276D01*
X139518169Y-85824276D02*
X139556265Y-85748085D01*
X139556265Y-85748085D02*
X139594360Y-85709990D01*
X139594360Y-85709990D02*
X139670550Y-85671895D01*
X139670550Y-85671895D02*
X139861027Y-85671895D01*
X139861027Y-85671895D02*
X139975312Y-85709990D01*
X141756265Y-86471895D02*
X141756265Y-85671895D01*
X141756265Y-85671895D02*
X141946741Y-85671895D01*
X141946741Y-85671895D02*
X142061027Y-85709990D01*
X142061027Y-85709990D02*
X142137217Y-85786180D01*
X142137217Y-85786180D02*
X142175312Y-85862371D01*
X142175312Y-85862371D02*
X142213408Y-86014752D01*
X142213408Y-86014752D02*
X142213408Y-86129038D01*
X142213408Y-86129038D02*
X142175312Y-86281419D01*
X142175312Y-86281419D02*
X142137217Y-86357609D01*
X142137217Y-86357609D02*
X142061027Y-86433800D01*
X142061027Y-86433800D02*
X141946741Y-86471895D01*
X141946741Y-86471895D02*
X141756265Y-86471895D01*
D11*
X134961779Y-107294819D02*
X134961779Y-106294819D01*
X134961779Y-106294819D02*
X135342731Y-106294819D01*
X135342731Y-106294819D02*
X135437969Y-106342438D01*
X135437969Y-106342438D02*
X135485588Y-106390057D01*
X135485588Y-106390057D02*
X135533207Y-106485295D01*
X135533207Y-106485295D02*
X135533207Y-106628152D01*
X135533207Y-106628152D02*
X135485588Y-106723390D01*
X135485588Y-106723390D02*
X135437969Y-106771009D01*
X135437969Y-106771009D02*
X135342731Y-106818628D01*
X135342731Y-106818628D02*
X134961779Y-106818628D01*
X136533207Y-107294819D02*
X136199874Y-106818628D01*
X135961779Y-107294819D02*
X135961779Y-106294819D01*
X135961779Y-106294819D02*
X136342731Y-106294819D01*
X136342731Y-106294819D02*
X136437969Y-106342438D01*
X136437969Y-106342438D02*
X136485588Y-106390057D01*
X136485588Y-106390057D02*
X136533207Y-106485295D01*
X136533207Y-106485295D02*
X136533207Y-106628152D01*
X136533207Y-106628152D02*
X136485588Y-106723390D01*
X136485588Y-106723390D02*
X136437969Y-106771009D01*
X136437969Y-106771009D02*
X136342731Y-106818628D01*
X136342731Y-106818628D02*
X135961779Y-106818628D01*
X137152255Y-106294819D02*
X137342731Y-106294819D01*
X137342731Y-106294819D02*
X137437969Y-106342438D01*
X137437969Y-106342438D02*
X137533207Y-106437676D01*
X137533207Y-106437676D02*
X137580826Y-106628152D01*
X137580826Y-106628152D02*
X137580826Y-106961485D01*
X137580826Y-106961485D02*
X137533207Y-107151961D01*
X137533207Y-107151961D02*
X137437969Y-107247200D01*
X137437969Y-107247200D02*
X137342731Y-107294819D01*
X137342731Y-107294819D02*
X137152255Y-107294819D01*
X137152255Y-107294819D02*
X137057017Y-107247200D01*
X137057017Y-107247200D02*
X136961779Y-107151961D01*
X136961779Y-107151961D02*
X136914160Y-106961485D01*
X136914160Y-106961485D02*
X136914160Y-106628152D01*
X136914160Y-106628152D02*
X136961779Y-106437676D01*
X136961779Y-106437676D02*
X137057017Y-106342438D01*
X137057017Y-106342438D02*
X137152255Y-106294819D01*
X138009398Y-106913866D02*
X138771303Y-106913866D01*
X139247493Y-106771009D02*
X139580826Y-106771009D01*
X139723683Y-107294819D02*
X139247493Y-107294819D01*
X139247493Y-107294819D02*
X139247493Y-106294819D01*
X139247493Y-106294819D02*
X139723683Y-106294819D01*
X140485588Y-106771009D02*
X140628445Y-106818628D01*
X140628445Y-106818628D02*
X140676064Y-106866247D01*
X140676064Y-106866247D02*
X140723683Y-106961485D01*
X140723683Y-106961485D02*
X140723683Y-107104342D01*
X140723683Y-107104342D02*
X140676064Y-107199580D01*
X140676064Y-107199580D02*
X140628445Y-107247200D01*
X140628445Y-107247200D02*
X140533207Y-107294819D01*
X140533207Y-107294819D02*
X140152255Y-107294819D01*
X140152255Y-107294819D02*
X140152255Y-106294819D01*
X140152255Y-106294819D02*
X140485588Y-106294819D01*
X140485588Y-106294819D02*
X140580826Y-106342438D01*
X140580826Y-106342438D02*
X140628445Y-106390057D01*
X140628445Y-106390057D02*
X140676064Y-106485295D01*
X140676064Y-106485295D02*
X140676064Y-106580533D01*
X140676064Y-106580533D02*
X140628445Y-106675771D01*
X140628445Y-106675771D02*
X140580826Y-106723390D01*
X140580826Y-106723390D02*
X140485588Y-106771009D01*
X140485588Y-106771009D02*
X140152255Y-106771009D01*
X141152255Y-106913866D02*
X141914160Y-106913866D01*
X142866540Y-106294819D02*
X142390350Y-106294819D01*
X142390350Y-106294819D02*
X142342731Y-106771009D01*
X142342731Y-106771009D02*
X142390350Y-106723390D01*
X142390350Y-106723390D02*
X142485588Y-106675771D01*
X142485588Y-106675771D02*
X142723683Y-106675771D01*
X142723683Y-106675771D02*
X142818921Y-106723390D01*
X142818921Y-106723390D02*
X142866540Y-106771009D01*
X142866540Y-106771009D02*
X142914159Y-106866247D01*
X142914159Y-106866247D02*
X142914159Y-107104342D01*
X142914159Y-107104342D02*
X142866540Y-107199580D01*
X142866540Y-107199580D02*
X142818921Y-107247200D01*
X142818921Y-107247200D02*
X142723683Y-107294819D01*
X142723683Y-107294819D02*
X142485588Y-107294819D01*
X142485588Y-107294819D02*
X142390350Y-107247200D01*
X142390350Y-107247200D02*
X142342731Y-107199580D01*
X143390350Y-107294819D02*
X143580826Y-107294819D01*
X143580826Y-107294819D02*
X143676064Y-107247200D01*
X143676064Y-107247200D02*
X143723683Y-107199580D01*
X143723683Y-107199580D02*
X143818921Y-107056723D01*
X143818921Y-107056723D02*
X143866540Y-106866247D01*
X143866540Y-106866247D02*
X143866540Y-106485295D01*
X143866540Y-106485295D02*
X143818921Y-106390057D01*
X143818921Y-106390057D02*
X143771302Y-106342438D01*
X143771302Y-106342438D02*
X143676064Y-106294819D01*
X143676064Y-106294819D02*
X143485588Y-106294819D01*
X143485588Y-106294819D02*
X143390350Y-106342438D01*
X143390350Y-106342438D02*
X143342731Y-106390057D01*
X143342731Y-106390057D02*
X143295112Y-106485295D01*
X143295112Y-106485295D02*
X143295112Y-106723390D01*
X143295112Y-106723390D02*
X143342731Y-106818628D01*
X143342731Y-106818628D02*
X143390350Y-106866247D01*
X143390350Y-106866247D02*
X143485588Y-106913866D01*
X143485588Y-106913866D02*
X143676064Y-106913866D01*
X143676064Y-106913866D02*
X143771302Y-106866247D01*
X143771302Y-106866247D02*
X143818921Y-106818628D01*
X143818921Y-106818628D02*
X143866540Y-106723390D01*
X144247493Y-106390057D02*
X144295112Y-106342438D01*
X144295112Y-106342438D02*
X144390350Y-106294819D01*
X144390350Y-106294819D02*
X144628445Y-106294819D01*
X144628445Y-106294819D02*
X144723683Y-106342438D01*
X144723683Y-106342438D02*
X144771302Y-106390057D01*
X144771302Y-106390057D02*
X144818921Y-106485295D01*
X144818921Y-106485295D02*
X144818921Y-106580533D01*
X144818921Y-106580533D02*
X144771302Y-106723390D01*
X144771302Y-106723390D02*
X144199874Y-107294819D01*
X144199874Y-107294819D02*
X144818921Y-107294819D01*
D10*
X136333646Y-85721895D02*
X136486027Y-85721895D01*
X136486027Y-85721895D02*
X136562217Y-85759990D01*
X136562217Y-85759990D02*
X136638408Y-85836180D01*
X136638408Y-85836180D02*
X136676503Y-85988561D01*
X136676503Y-85988561D02*
X136676503Y-86255228D01*
X136676503Y-86255228D02*
X136638408Y-86407609D01*
X136638408Y-86407609D02*
X136562217Y-86483800D01*
X136562217Y-86483800D02*
X136486027Y-86521895D01*
X136486027Y-86521895D02*
X136333646Y-86521895D01*
X136333646Y-86521895D02*
X136257455Y-86483800D01*
X136257455Y-86483800D02*
X136181265Y-86407609D01*
X136181265Y-86407609D02*
X136143169Y-86255228D01*
X136143169Y-86255228D02*
X136143169Y-85988561D01*
X136143169Y-85988561D02*
X136181265Y-85836180D01*
X136181265Y-85836180D02*
X136257455Y-85759990D01*
X136257455Y-85759990D02*
X136333646Y-85721895D01*
X137019360Y-86521895D02*
X137019360Y-85721895D01*
X137019360Y-85721895D02*
X137476503Y-86521895D01*
X137476503Y-86521895D02*
X137476503Y-85721895D01*
X151830074Y-101446895D02*
X152325312Y-101446895D01*
X152325312Y-101446895D02*
X152058646Y-101751657D01*
X152058646Y-101751657D02*
X152172931Y-101751657D01*
X152172931Y-101751657D02*
X152249122Y-101789752D01*
X152249122Y-101789752D02*
X152287217Y-101827847D01*
X152287217Y-101827847D02*
X152325312Y-101904038D01*
X152325312Y-101904038D02*
X152325312Y-102094514D01*
X152325312Y-102094514D02*
X152287217Y-102170704D01*
X152287217Y-102170704D02*
X152249122Y-102208800D01*
X152249122Y-102208800D02*
X152172931Y-102246895D01*
X152172931Y-102246895D02*
X151944360Y-102246895D01*
X151944360Y-102246895D02*
X151868169Y-102208800D01*
X151868169Y-102208800D02*
X151830074Y-102170704D01*
X152668170Y-102170704D02*
X152706265Y-102208800D01*
X152706265Y-102208800D02*
X152668170Y-102246895D01*
X152668170Y-102246895D02*
X152630074Y-102208800D01*
X152630074Y-102208800D02*
X152668170Y-102170704D01*
X152668170Y-102170704D02*
X152668170Y-102246895D01*
X152972931Y-101446895D02*
X153468169Y-101446895D01*
X153468169Y-101446895D02*
X153201503Y-101751657D01*
X153201503Y-101751657D02*
X153315788Y-101751657D01*
X153315788Y-101751657D02*
X153391979Y-101789752D01*
X153391979Y-101789752D02*
X153430074Y-101827847D01*
X153430074Y-101827847D02*
X153468169Y-101904038D01*
X153468169Y-101904038D02*
X153468169Y-102094514D01*
X153468169Y-102094514D02*
X153430074Y-102170704D01*
X153430074Y-102170704D02*
X153391979Y-102208800D01*
X153391979Y-102208800D02*
X153315788Y-102246895D01*
X153315788Y-102246895D02*
X153087217Y-102246895D01*
X153087217Y-102246895D02*
X153011026Y-102208800D01*
X153011026Y-102208800D02*
X152972931Y-102170704D01*
X153696741Y-101446895D02*
X153963408Y-102246895D01*
X153963408Y-102246895D02*
X154230074Y-101446895D01*
D11*
X149678628Y-94651190D02*
X150154819Y-94651190D01*
X149154819Y-94984523D02*
X149678628Y-94651190D01*
X149678628Y-94651190D02*
X149154819Y-94317857D01*
X150154819Y-93460714D02*
X150154819Y-94032142D01*
X150154819Y-93746428D02*
X149154819Y-93746428D01*
X149154819Y-93746428D02*
X149297676Y-93841666D01*
X149297676Y-93841666D02*
X149392914Y-93936904D01*
X149392914Y-93936904D02*
X149440533Y-94032142D01*
X129459580Y-92592857D02*
X129507200Y-92640476D01*
X129507200Y-92640476D02*
X129554819Y-92783333D01*
X129554819Y-92783333D02*
X129554819Y-92878571D01*
X129554819Y-92878571D02*
X129507200Y-93021428D01*
X129507200Y-93021428D02*
X129411961Y-93116666D01*
X129411961Y-93116666D02*
X129316723Y-93164285D01*
X129316723Y-93164285D02*
X129126247Y-93211904D01*
X129126247Y-93211904D02*
X128983390Y-93211904D01*
X128983390Y-93211904D02*
X128792914Y-93164285D01*
X128792914Y-93164285D02*
X128697676Y-93116666D01*
X128697676Y-93116666D02*
X128602438Y-93021428D01*
X128602438Y-93021428D02*
X128554819Y-92878571D01*
X128554819Y-92878571D02*
X128554819Y-92783333D01*
X128554819Y-92783333D02*
X128602438Y-92640476D01*
X128602438Y-92640476D02*
X128650057Y-92592857D01*
X129554819Y-91640476D02*
X129554819Y-92211904D01*
X129554819Y-91926190D02*
X128554819Y-91926190D01*
X128554819Y-91926190D02*
X128697676Y-92021428D01*
X128697676Y-92021428D02*
X128792914Y-92116666D01*
X128792914Y-92116666D02*
X128840533Y-92211904D01*
X128554819Y-91307142D02*
X128554819Y-90688095D01*
X128554819Y-90688095D02*
X128935771Y-91021428D01*
X128935771Y-91021428D02*
X128935771Y-90878571D01*
X128935771Y-90878571D02*
X128983390Y-90783333D01*
X128983390Y-90783333D02*
X129031009Y-90735714D01*
X129031009Y-90735714D02*
X129126247Y-90688095D01*
X129126247Y-90688095D02*
X129364342Y-90688095D01*
X129364342Y-90688095D02*
X129459580Y-90735714D01*
X129459580Y-90735714D02*
X129507200Y-90783333D01*
X129507200Y-90783333D02*
X129554819Y-90878571D01*
X129554819Y-90878571D02*
X129554819Y-91164285D01*
X129554819Y-91164285D02*
X129507200Y-91259523D01*
X129507200Y-91259523D02*
X129459580Y-91307142D01*
X128625057Y-89952380D02*
X128577438Y-89904761D01*
X128577438Y-89904761D02*
X128529819Y-89809523D01*
X128529819Y-89809523D02*
X128529819Y-89571428D01*
X128529819Y-89571428D02*
X128577438Y-89476190D01*
X128577438Y-89476190D02*
X128625057Y-89428571D01*
X128625057Y-89428571D02*
X128720295Y-89380952D01*
X128720295Y-89380952D02*
X128815533Y-89380952D01*
X128815533Y-89380952D02*
X128958390Y-89428571D01*
X128958390Y-89428571D02*
X129529819Y-89999999D01*
X129529819Y-89999999D02*
X129529819Y-89380952D01*
X129434580Y-88952380D02*
X129482200Y-88904761D01*
X129482200Y-88904761D02*
X129529819Y-88952380D01*
X129529819Y-88952380D02*
X129482200Y-88999999D01*
X129482200Y-88999999D02*
X129434580Y-88952380D01*
X129434580Y-88952380D02*
X129529819Y-88952380D01*
X128625057Y-88523809D02*
X128577438Y-88476190D01*
X128577438Y-88476190D02*
X128529819Y-88380952D01*
X128529819Y-88380952D02*
X128529819Y-88142857D01*
X128529819Y-88142857D02*
X128577438Y-88047619D01*
X128577438Y-88047619D02*
X128625057Y-88000000D01*
X128625057Y-88000000D02*
X128720295Y-87952381D01*
X128720295Y-87952381D02*
X128815533Y-87952381D01*
X128815533Y-87952381D02*
X128958390Y-88000000D01*
X128958390Y-88000000D02*
X129529819Y-88571428D01*
X129529819Y-88571428D02*
X129529819Y-87952381D01*
X128863152Y-87095238D02*
X129529819Y-87095238D01*
X128863152Y-87523809D02*
X129386961Y-87523809D01*
X129386961Y-87523809D02*
X129482200Y-87476190D01*
X129482200Y-87476190D02*
X129529819Y-87380952D01*
X129529819Y-87380952D02*
X129529819Y-87238095D01*
X129529819Y-87238095D02*
X129482200Y-87142857D01*
X129482200Y-87142857D02*
X129434580Y-87095238D01*
X140383333Y-99259580D02*
X140335714Y-99307200D01*
X140335714Y-99307200D02*
X140192857Y-99354819D01*
X140192857Y-99354819D02*
X140097619Y-99354819D01*
X140097619Y-99354819D02*
X139954762Y-99307200D01*
X139954762Y-99307200D02*
X139859524Y-99211961D01*
X139859524Y-99211961D02*
X139811905Y-99116723D01*
X139811905Y-99116723D02*
X139764286Y-98926247D01*
X139764286Y-98926247D02*
X139764286Y-98783390D01*
X139764286Y-98783390D02*
X139811905Y-98592914D01*
X139811905Y-98592914D02*
X139859524Y-98497676D01*
X139859524Y-98497676D02*
X139954762Y-98402438D01*
X139954762Y-98402438D02*
X140097619Y-98354819D01*
X140097619Y-98354819D02*
X140192857Y-98354819D01*
X140192857Y-98354819D02*
X140335714Y-98402438D01*
X140335714Y-98402438D02*
X140383333Y-98450057D01*
X140716667Y-98354819D02*
X141335714Y-98354819D01*
X141335714Y-98354819D02*
X141002381Y-98735771D01*
X141002381Y-98735771D02*
X141145238Y-98735771D01*
X141145238Y-98735771D02*
X141240476Y-98783390D01*
X141240476Y-98783390D02*
X141288095Y-98831009D01*
X141288095Y-98831009D02*
X141335714Y-98926247D01*
X141335714Y-98926247D02*
X141335714Y-99164342D01*
X141335714Y-99164342D02*
X141288095Y-99259580D01*
X141288095Y-99259580D02*
X141240476Y-99307200D01*
X141240476Y-99307200D02*
X141145238Y-99354819D01*
X141145238Y-99354819D02*
X140859524Y-99354819D01*
X140859524Y-99354819D02*
X140764286Y-99307200D01*
X140764286Y-99307200D02*
X140716667Y-99259580D01*
X137607142Y-99304819D02*
X137035714Y-99304819D01*
X137321428Y-99304819D02*
X137321428Y-98304819D01*
X137321428Y-98304819D02*
X137226190Y-98447676D01*
X137226190Y-98447676D02*
X137130952Y-98542914D01*
X137130952Y-98542914D02*
X137035714Y-98590533D01*
X138226190Y-98304819D02*
X138321428Y-98304819D01*
X138321428Y-98304819D02*
X138416666Y-98352438D01*
X138416666Y-98352438D02*
X138464285Y-98400057D01*
X138464285Y-98400057D02*
X138511904Y-98495295D01*
X138511904Y-98495295D02*
X138559523Y-98685771D01*
X138559523Y-98685771D02*
X138559523Y-98923866D01*
X138559523Y-98923866D02*
X138511904Y-99114342D01*
X138511904Y-99114342D02*
X138464285Y-99209580D01*
X138464285Y-99209580D02*
X138416666Y-99257200D01*
X138416666Y-99257200D02*
X138321428Y-99304819D01*
X138321428Y-99304819D02*
X138226190Y-99304819D01*
X138226190Y-99304819D02*
X138130952Y-99257200D01*
X138130952Y-99257200D02*
X138083333Y-99209580D01*
X138083333Y-99209580D02*
X138035714Y-99114342D01*
X138035714Y-99114342D02*
X137988095Y-98923866D01*
X137988095Y-98923866D02*
X137988095Y-98685771D01*
X137988095Y-98685771D02*
X138035714Y-98495295D01*
X138035714Y-98495295D02*
X138083333Y-98400057D01*
X138083333Y-98400057D02*
X138130952Y-98352438D01*
X138130952Y-98352438D02*
X138226190Y-98304819D01*
X138988095Y-98638152D02*
X138988095Y-99638152D01*
X138988095Y-98685771D02*
X139083333Y-98638152D01*
X139083333Y-98638152D02*
X139273809Y-98638152D01*
X139273809Y-98638152D02*
X139369047Y-98685771D01*
X139369047Y-98685771D02*
X139416666Y-98733390D01*
X139416666Y-98733390D02*
X139464285Y-98828628D01*
X139464285Y-98828628D02*
X139464285Y-99114342D01*
X139464285Y-99114342D02*
X139416666Y-99209580D01*
X139416666Y-99209580D02*
X139369047Y-99257200D01*
X139369047Y-99257200D02*
X139273809Y-99304819D01*
X139273809Y-99304819D02*
X139083333Y-99304819D01*
X139083333Y-99304819D02*
X138988095Y-99257200D01*
X133682142Y-110084580D02*
X133634523Y-110132200D01*
X133634523Y-110132200D02*
X133491666Y-110179819D01*
X133491666Y-110179819D02*
X133396428Y-110179819D01*
X133396428Y-110179819D02*
X133253571Y-110132200D01*
X133253571Y-110132200D02*
X133158333Y-110036961D01*
X133158333Y-110036961D02*
X133110714Y-109941723D01*
X133110714Y-109941723D02*
X133063095Y-109751247D01*
X133063095Y-109751247D02*
X133063095Y-109608390D01*
X133063095Y-109608390D02*
X133110714Y-109417914D01*
X133110714Y-109417914D02*
X133158333Y-109322676D01*
X133158333Y-109322676D02*
X133253571Y-109227438D01*
X133253571Y-109227438D02*
X133396428Y-109179819D01*
X133396428Y-109179819D02*
X133491666Y-109179819D01*
X133491666Y-109179819D02*
X133634523Y-109227438D01*
X133634523Y-109227438D02*
X133682142Y-109275057D01*
X134063095Y-109275057D02*
X134110714Y-109227438D01*
X134110714Y-109227438D02*
X134205952Y-109179819D01*
X134205952Y-109179819D02*
X134444047Y-109179819D01*
X134444047Y-109179819D02*
X134539285Y-109227438D01*
X134539285Y-109227438D02*
X134586904Y-109275057D01*
X134586904Y-109275057D02*
X134634523Y-109370295D01*
X134634523Y-109370295D02*
X134634523Y-109465533D01*
X134634523Y-109465533D02*
X134586904Y-109608390D01*
X134586904Y-109608390D02*
X134015476Y-110179819D01*
X134015476Y-110179819D02*
X134634523Y-110179819D01*
X135253571Y-109179819D02*
X135348809Y-109179819D01*
X135348809Y-109179819D02*
X135444047Y-109227438D01*
X135444047Y-109227438D02*
X135491666Y-109275057D01*
X135491666Y-109275057D02*
X135539285Y-109370295D01*
X135539285Y-109370295D02*
X135586904Y-109560771D01*
X135586904Y-109560771D02*
X135586904Y-109798866D01*
X135586904Y-109798866D02*
X135539285Y-109989342D01*
X135539285Y-109989342D02*
X135491666Y-110084580D01*
X135491666Y-110084580D02*
X135444047Y-110132200D01*
X135444047Y-110132200D02*
X135348809Y-110179819D01*
X135348809Y-110179819D02*
X135253571Y-110179819D01*
X135253571Y-110179819D02*
X135158333Y-110132200D01*
X135158333Y-110132200D02*
X135110714Y-110084580D01*
X135110714Y-110084580D02*
X135063095Y-109989342D01*
X135063095Y-109989342D02*
X135015476Y-109798866D01*
X135015476Y-109798866D02*
X135015476Y-109560771D01*
X135015476Y-109560771D02*
X135063095Y-109370295D01*
X135063095Y-109370295D02*
X135110714Y-109275057D01*
X135110714Y-109275057D02*
X135158333Y-109227438D01*
X135158333Y-109227438D02*
X135253571Y-109179819D01*
X129560714Y-109079819D02*
X129655952Y-109079819D01*
X129655952Y-109079819D02*
X129751190Y-109127438D01*
X129751190Y-109127438D02*
X129798809Y-109175057D01*
X129798809Y-109175057D02*
X129846428Y-109270295D01*
X129846428Y-109270295D02*
X129894047Y-109460771D01*
X129894047Y-109460771D02*
X129894047Y-109698866D01*
X129894047Y-109698866D02*
X129846428Y-109889342D01*
X129846428Y-109889342D02*
X129798809Y-109984580D01*
X129798809Y-109984580D02*
X129751190Y-110032200D01*
X129751190Y-110032200D02*
X129655952Y-110079819D01*
X129655952Y-110079819D02*
X129560714Y-110079819D01*
X129560714Y-110079819D02*
X129465476Y-110032200D01*
X129465476Y-110032200D02*
X129417857Y-109984580D01*
X129417857Y-109984580D02*
X129370238Y-109889342D01*
X129370238Y-109889342D02*
X129322619Y-109698866D01*
X129322619Y-109698866D02*
X129322619Y-109460771D01*
X129322619Y-109460771D02*
X129370238Y-109270295D01*
X129370238Y-109270295D02*
X129417857Y-109175057D01*
X129417857Y-109175057D02*
X129465476Y-109127438D01*
X129465476Y-109127438D02*
X129560714Y-109079819D01*
X130322619Y-109984580D02*
X130370238Y-110032200D01*
X130370238Y-110032200D02*
X130322619Y-110079819D01*
X130322619Y-110079819D02*
X130275000Y-110032200D01*
X130275000Y-110032200D02*
X130322619Y-109984580D01*
X130322619Y-109984580D02*
X130322619Y-110079819D01*
X130751190Y-109175057D02*
X130798809Y-109127438D01*
X130798809Y-109127438D02*
X130894047Y-109079819D01*
X130894047Y-109079819D02*
X131132142Y-109079819D01*
X131132142Y-109079819D02*
X131227380Y-109127438D01*
X131227380Y-109127438D02*
X131274999Y-109175057D01*
X131274999Y-109175057D02*
X131322618Y-109270295D01*
X131322618Y-109270295D02*
X131322618Y-109365533D01*
X131322618Y-109365533D02*
X131274999Y-109508390D01*
X131274999Y-109508390D02*
X130703571Y-110079819D01*
X130703571Y-110079819D02*
X131322618Y-110079819D01*
X131751190Y-109413152D02*
X131751190Y-110413152D01*
X131751190Y-109460771D02*
X131846428Y-109413152D01*
X131846428Y-109413152D02*
X132036904Y-109413152D01*
X132036904Y-109413152D02*
X132132142Y-109460771D01*
X132132142Y-109460771D02*
X132179761Y-109508390D01*
X132179761Y-109508390D02*
X132227380Y-109603628D01*
X132227380Y-109603628D02*
X132227380Y-109889342D01*
X132227380Y-109889342D02*
X132179761Y-109984580D01*
X132179761Y-109984580D02*
X132132142Y-110032200D01*
X132132142Y-110032200D02*
X132036904Y-110079819D01*
X132036904Y-110079819D02*
X131846428Y-110079819D01*
X131846428Y-110079819D02*
X131751190Y-110032200D01*
X152641666Y-94099819D02*
X152641666Y-94814104D01*
X152641666Y-94814104D02*
X152594047Y-94956961D01*
X152594047Y-94956961D02*
X152498809Y-95052200D01*
X152498809Y-95052200D02*
X152355952Y-95099819D01*
X152355952Y-95099819D02*
X152260714Y-95099819D01*
X153022619Y-94099819D02*
X153641666Y-94099819D01*
X153641666Y-94099819D02*
X153308333Y-94480771D01*
X153308333Y-94480771D02*
X153451190Y-94480771D01*
X153451190Y-94480771D02*
X153546428Y-94528390D01*
X153546428Y-94528390D02*
X153594047Y-94576009D01*
X153594047Y-94576009D02*
X153641666Y-94671247D01*
X153641666Y-94671247D02*
X153641666Y-94909342D01*
X153641666Y-94909342D02*
X153594047Y-95004580D01*
X153594047Y-95004580D02*
X153546428Y-95052200D01*
X153546428Y-95052200D02*
X153451190Y-95099819D01*
X153451190Y-95099819D02*
X153165476Y-95099819D01*
X153165476Y-95099819D02*
X153070238Y-95052200D01*
X153070238Y-95052200D02*
X153022619Y-95004580D01*
X142581009Y-101333333D02*
X142581009Y-101666666D01*
X143104819Y-101666666D02*
X142104819Y-101666666D01*
X142104819Y-101666666D02*
X142104819Y-101190476D01*
X142581009Y-100476190D02*
X142628628Y-100333333D01*
X142628628Y-100333333D02*
X142676247Y-100285714D01*
X142676247Y-100285714D02*
X142771485Y-100238095D01*
X142771485Y-100238095D02*
X142914342Y-100238095D01*
X142914342Y-100238095D02*
X143009580Y-100285714D01*
X143009580Y-100285714D02*
X143057200Y-100333333D01*
X143057200Y-100333333D02*
X143104819Y-100428571D01*
X143104819Y-100428571D02*
X143104819Y-100809523D01*
X143104819Y-100809523D02*
X142104819Y-100809523D01*
X142104819Y-100809523D02*
X142104819Y-100476190D01*
X142104819Y-100476190D02*
X142152438Y-100380952D01*
X142152438Y-100380952D02*
X142200057Y-100333333D01*
X142200057Y-100333333D02*
X142295295Y-100285714D01*
X142295295Y-100285714D02*
X142390533Y-100285714D01*
X142390533Y-100285714D02*
X142485771Y-100333333D01*
X142485771Y-100333333D02*
X142533390Y-100380952D01*
X142533390Y-100380952D02*
X142581009Y-100476190D01*
X142581009Y-100476190D02*
X142581009Y-100809523D01*
X143104819Y-99285714D02*
X143104819Y-99857142D01*
X143104819Y-99571428D02*
X142104819Y-99571428D01*
X142104819Y-99571428D02*
X142247676Y-99666666D01*
X142247676Y-99666666D02*
X142342914Y-99761904D01*
X142342914Y-99761904D02*
X142390533Y-99857142D01*
X128159580Y-92591666D02*
X128207200Y-92639285D01*
X128207200Y-92639285D02*
X128254819Y-92782142D01*
X128254819Y-92782142D02*
X128254819Y-92877380D01*
X128254819Y-92877380D02*
X128207200Y-93020237D01*
X128207200Y-93020237D02*
X128111961Y-93115475D01*
X128111961Y-93115475D02*
X128016723Y-93163094D01*
X128016723Y-93163094D02*
X127826247Y-93210713D01*
X127826247Y-93210713D02*
X127683390Y-93210713D01*
X127683390Y-93210713D02*
X127492914Y-93163094D01*
X127492914Y-93163094D02*
X127397676Y-93115475D01*
X127397676Y-93115475D02*
X127302438Y-93020237D01*
X127302438Y-93020237D02*
X127254819Y-92877380D01*
X127254819Y-92877380D02*
X127254819Y-92782142D01*
X127254819Y-92782142D02*
X127302438Y-92639285D01*
X127302438Y-92639285D02*
X127350057Y-92591666D01*
X127254819Y-91734523D02*
X127254819Y-91924999D01*
X127254819Y-91924999D02*
X127302438Y-92020237D01*
X127302438Y-92020237D02*
X127350057Y-92067856D01*
X127350057Y-92067856D02*
X127492914Y-92163094D01*
X127492914Y-92163094D02*
X127683390Y-92210713D01*
X127683390Y-92210713D02*
X128064342Y-92210713D01*
X128064342Y-92210713D02*
X128159580Y-92163094D01*
X128159580Y-92163094D02*
X128207200Y-92115475D01*
X128207200Y-92115475D02*
X128254819Y-92020237D01*
X128254819Y-92020237D02*
X128254819Y-91829761D01*
X128254819Y-91829761D02*
X128207200Y-91734523D01*
X128207200Y-91734523D02*
X128159580Y-91686904D01*
X128159580Y-91686904D02*
X128064342Y-91639285D01*
X128064342Y-91639285D02*
X127826247Y-91639285D01*
X127826247Y-91639285D02*
X127731009Y-91686904D01*
X127731009Y-91686904D02*
X127683390Y-91734523D01*
X127683390Y-91734523D02*
X127635771Y-91829761D01*
X127635771Y-91829761D02*
X127635771Y-92020237D01*
X127635771Y-92020237D02*
X127683390Y-92115475D01*
X127683390Y-92115475D02*
X127731009Y-92163094D01*
X127731009Y-92163094D02*
X127826247Y-92210713D01*
X128179819Y-89819047D02*
X128179819Y-90390475D01*
X128179819Y-90104761D02*
X127179819Y-90104761D01*
X127179819Y-90104761D02*
X127322676Y-90199999D01*
X127322676Y-90199999D02*
X127417914Y-90295237D01*
X127417914Y-90295237D02*
X127465533Y-90390475D01*
X127179819Y-89199999D02*
X127179819Y-89104761D01*
X127179819Y-89104761D02*
X127227438Y-89009523D01*
X127227438Y-89009523D02*
X127275057Y-88961904D01*
X127275057Y-88961904D02*
X127370295Y-88914285D01*
X127370295Y-88914285D02*
X127560771Y-88866666D01*
X127560771Y-88866666D02*
X127798866Y-88866666D01*
X127798866Y-88866666D02*
X127989342Y-88914285D01*
X127989342Y-88914285D02*
X128084580Y-88961904D01*
X128084580Y-88961904D02*
X128132200Y-89009523D01*
X128132200Y-89009523D02*
X128179819Y-89104761D01*
X128179819Y-89104761D02*
X128179819Y-89199999D01*
X128179819Y-89199999D02*
X128132200Y-89295237D01*
X128132200Y-89295237D02*
X128084580Y-89342856D01*
X128084580Y-89342856D02*
X127989342Y-89390475D01*
X127989342Y-89390475D02*
X127798866Y-89438094D01*
X127798866Y-89438094D02*
X127560771Y-89438094D01*
X127560771Y-89438094D02*
X127370295Y-89390475D01*
X127370295Y-89390475D02*
X127275057Y-89342856D01*
X127275057Y-89342856D02*
X127227438Y-89295237D01*
X127227438Y-89295237D02*
X127179819Y-89199999D01*
X127179819Y-88247618D02*
X127179819Y-88152380D01*
X127179819Y-88152380D02*
X127227438Y-88057142D01*
X127227438Y-88057142D02*
X127275057Y-88009523D01*
X127275057Y-88009523D02*
X127370295Y-87961904D01*
X127370295Y-87961904D02*
X127560771Y-87914285D01*
X127560771Y-87914285D02*
X127798866Y-87914285D01*
X127798866Y-87914285D02*
X127989342Y-87961904D01*
X127989342Y-87961904D02*
X128084580Y-88009523D01*
X128084580Y-88009523D02*
X128132200Y-88057142D01*
X128132200Y-88057142D02*
X128179819Y-88152380D01*
X128179819Y-88152380D02*
X128179819Y-88247618D01*
X128179819Y-88247618D02*
X128132200Y-88342856D01*
X128132200Y-88342856D02*
X128084580Y-88390475D01*
X128084580Y-88390475D02*
X127989342Y-88438094D01*
X127989342Y-88438094D02*
X127798866Y-88485713D01*
X127798866Y-88485713D02*
X127560771Y-88485713D01*
X127560771Y-88485713D02*
X127370295Y-88438094D01*
X127370295Y-88438094D02*
X127275057Y-88390475D01*
X127275057Y-88390475D02*
X127227438Y-88342856D01*
X127227438Y-88342856D02*
X127179819Y-88247618D01*
X127513152Y-87485713D02*
X128179819Y-87485713D01*
X127608390Y-87485713D02*
X127560771Y-87438094D01*
X127560771Y-87438094D02*
X127513152Y-87342856D01*
X127513152Y-87342856D02*
X127513152Y-87199999D01*
X127513152Y-87199999D02*
X127560771Y-87104761D01*
X127560771Y-87104761D02*
X127656009Y-87057142D01*
X127656009Y-87057142D02*
X128179819Y-87057142D01*
X148491666Y-100906009D02*
X148158333Y-100906009D01*
X148158333Y-101429819D02*
X148158333Y-100429819D01*
X148158333Y-100429819D02*
X148634523Y-100429819D01*
X149348809Y-100906009D02*
X149491666Y-100953628D01*
X149491666Y-100953628D02*
X149539285Y-101001247D01*
X149539285Y-101001247D02*
X149586904Y-101096485D01*
X149586904Y-101096485D02*
X149586904Y-101239342D01*
X149586904Y-101239342D02*
X149539285Y-101334580D01*
X149539285Y-101334580D02*
X149491666Y-101382200D01*
X149491666Y-101382200D02*
X149396428Y-101429819D01*
X149396428Y-101429819D02*
X149015476Y-101429819D01*
X149015476Y-101429819D02*
X149015476Y-100429819D01*
X149015476Y-100429819D02*
X149348809Y-100429819D01*
X149348809Y-100429819D02*
X149444047Y-100477438D01*
X149444047Y-100477438D02*
X149491666Y-100525057D01*
X149491666Y-100525057D02*
X149539285Y-100620295D01*
X149539285Y-100620295D02*
X149539285Y-100715533D01*
X149539285Y-100715533D02*
X149491666Y-100810771D01*
X149491666Y-100810771D02*
X149444047Y-100858390D01*
X149444047Y-100858390D02*
X149348809Y-100906009D01*
X149348809Y-100906009D02*
X149015476Y-100906009D01*
X149967857Y-100525057D02*
X150015476Y-100477438D01*
X150015476Y-100477438D02*
X150110714Y-100429819D01*
X150110714Y-100429819D02*
X150348809Y-100429819D01*
X150348809Y-100429819D02*
X150444047Y-100477438D01*
X150444047Y-100477438D02*
X150491666Y-100525057D01*
X150491666Y-100525057D02*
X150539285Y-100620295D01*
X150539285Y-100620295D02*
X150539285Y-100715533D01*
X150539285Y-100715533D02*
X150491666Y-100858390D01*
X150491666Y-100858390D02*
X149920238Y-101429819D01*
X149920238Y-101429819D02*
X150539285Y-101429819D01*
X147666666Y-101779819D02*
X147476190Y-101779819D01*
X147476190Y-101779819D02*
X147380952Y-101827438D01*
X147380952Y-101827438D02*
X147333333Y-101875057D01*
X147333333Y-101875057D02*
X147238095Y-102017914D01*
X147238095Y-102017914D02*
X147190476Y-102208390D01*
X147190476Y-102208390D02*
X147190476Y-102589342D01*
X147190476Y-102589342D02*
X147238095Y-102684580D01*
X147238095Y-102684580D02*
X147285714Y-102732200D01*
X147285714Y-102732200D02*
X147380952Y-102779819D01*
X147380952Y-102779819D02*
X147571428Y-102779819D01*
X147571428Y-102779819D02*
X147666666Y-102732200D01*
X147666666Y-102732200D02*
X147714285Y-102684580D01*
X147714285Y-102684580D02*
X147761904Y-102589342D01*
X147761904Y-102589342D02*
X147761904Y-102351247D01*
X147761904Y-102351247D02*
X147714285Y-102256009D01*
X147714285Y-102256009D02*
X147666666Y-102208390D01*
X147666666Y-102208390D02*
X147571428Y-102160771D01*
X147571428Y-102160771D02*
X147380952Y-102160771D01*
X147380952Y-102160771D02*
X147285714Y-102208390D01*
X147285714Y-102208390D02*
X147238095Y-102256009D01*
X147238095Y-102256009D02*
X147190476Y-102351247D01*
X148380952Y-101779819D02*
X148476190Y-101779819D01*
X148476190Y-101779819D02*
X148571428Y-101827438D01*
X148571428Y-101827438D02*
X148619047Y-101875057D01*
X148619047Y-101875057D02*
X148666666Y-101970295D01*
X148666666Y-101970295D02*
X148714285Y-102160771D01*
X148714285Y-102160771D02*
X148714285Y-102398866D01*
X148714285Y-102398866D02*
X148666666Y-102589342D01*
X148666666Y-102589342D02*
X148619047Y-102684580D01*
X148619047Y-102684580D02*
X148571428Y-102732200D01*
X148571428Y-102732200D02*
X148476190Y-102779819D01*
X148476190Y-102779819D02*
X148380952Y-102779819D01*
X148380952Y-102779819D02*
X148285714Y-102732200D01*
X148285714Y-102732200D02*
X148238095Y-102684580D01*
X148238095Y-102684580D02*
X148190476Y-102589342D01*
X148190476Y-102589342D02*
X148142857Y-102398866D01*
X148142857Y-102398866D02*
X148142857Y-102160771D01*
X148142857Y-102160771D02*
X148190476Y-101970295D01*
X148190476Y-101970295D02*
X148238095Y-101875057D01*
X148238095Y-101875057D02*
X148285714Y-101827438D01*
X148285714Y-101827438D02*
X148380952Y-101779819D01*
X149333333Y-101779819D02*
X149428571Y-101779819D01*
X149428571Y-101779819D02*
X149523809Y-101827438D01*
X149523809Y-101827438D02*
X149571428Y-101875057D01*
X149571428Y-101875057D02*
X149619047Y-101970295D01*
X149619047Y-101970295D02*
X149666666Y-102160771D01*
X149666666Y-102160771D02*
X149666666Y-102398866D01*
X149666666Y-102398866D02*
X149619047Y-102589342D01*
X149619047Y-102589342D02*
X149571428Y-102684580D01*
X149571428Y-102684580D02*
X149523809Y-102732200D01*
X149523809Y-102732200D02*
X149428571Y-102779819D01*
X149428571Y-102779819D02*
X149333333Y-102779819D01*
X149333333Y-102779819D02*
X149238095Y-102732200D01*
X149238095Y-102732200D02*
X149190476Y-102684580D01*
X149190476Y-102684580D02*
X149142857Y-102589342D01*
X149142857Y-102589342D02*
X149095238Y-102398866D01*
X149095238Y-102398866D02*
X149095238Y-102160771D01*
X149095238Y-102160771D02*
X149142857Y-101970295D01*
X149142857Y-101970295D02*
X149190476Y-101875057D01*
X149190476Y-101875057D02*
X149238095Y-101827438D01*
X149238095Y-101827438D02*
X149333333Y-101779819D01*
X150714285Y-102303628D02*
X150666666Y-102256009D01*
X150666666Y-102256009D02*
X150571428Y-102208390D01*
X150571428Y-102208390D02*
X150476190Y-102208390D01*
X150476190Y-102208390D02*
X150380952Y-102256009D01*
X150380952Y-102256009D02*
X150333333Y-102303628D01*
X150333333Y-102303628D02*
X150285714Y-102398866D01*
X150285714Y-102398866D02*
X150285714Y-102494104D01*
X150285714Y-102494104D02*
X150333333Y-102589342D01*
X150333333Y-102589342D02*
X150380952Y-102636961D01*
X150380952Y-102636961D02*
X150476190Y-102684580D01*
X150476190Y-102684580D02*
X150571428Y-102684580D01*
X150571428Y-102684580D02*
X150666666Y-102636961D01*
X150666666Y-102636961D02*
X150714285Y-102589342D01*
X150714285Y-102208390D02*
X150714285Y-102589342D01*
X150714285Y-102589342D02*
X150761904Y-102636961D01*
X150761904Y-102636961D02*
X150809523Y-102636961D01*
X150809523Y-102636961D02*
X150904762Y-102589342D01*
X150904762Y-102589342D02*
X150952381Y-102494104D01*
X150952381Y-102494104D02*
X150952381Y-102256009D01*
X150952381Y-102256009D02*
X150857143Y-102113152D01*
X150857143Y-102113152D02*
X150714285Y-102017914D01*
X150714285Y-102017914D02*
X150523809Y-101970295D01*
X150523809Y-101970295D02*
X150333333Y-102017914D01*
X150333333Y-102017914D02*
X150190476Y-102113152D01*
X150190476Y-102113152D02*
X150095238Y-102256009D01*
X150095238Y-102256009D02*
X150047619Y-102446485D01*
X150047619Y-102446485D02*
X150095238Y-102636961D01*
X150095238Y-102636961D02*
X150190476Y-102779819D01*
X150190476Y-102779819D02*
X150333333Y-102875057D01*
X150333333Y-102875057D02*
X150523809Y-102922676D01*
X150523809Y-102922676D02*
X150714285Y-102875057D01*
X150714285Y-102875057D02*
X150857143Y-102779819D01*
X151904761Y-102779819D02*
X151333333Y-102779819D01*
X151619047Y-102779819D02*
X151619047Y-101779819D01*
X151619047Y-101779819D02*
X151523809Y-101922676D01*
X151523809Y-101922676D02*
X151428571Y-102017914D01*
X151428571Y-102017914D02*
X151333333Y-102065533D01*
X152523809Y-101779819D02*
X152619047Y-101779819D01*
X152619047Y-101779819D02*
X152714285Y-101827438D01*
X152714285Y-101827438D02*
X152761904Y-101875057D01*
X152761904Y-101875057D02*
X152809523Y-101970295D01*
X152809523Y-101970295D02*
X152857142Y-102160771D01*
X152857142Y-102160771D02*
X152857142Y-102398866D01*
X152857142Y-102398866D02*
X152809523Y-102589342D01*
X152809523Y-102589342D02*
X152761904Y-102684580D01*
X152761904Y-102684580D02*
X152714285Y-102732200D01*
X152714285Y-102732200D02*
X152619047Y-102779819D01*
X152619047Y-102779819D02*
X152523809Y-102779819D01*
X152523809Y-102779819D02*
X152428571Y-102732200D01*
X152428571Y-102732200D02*
X152380952Y-102684580D01*
X152380952Y-102684580D02*
X152333333Y-102589342D01*
X152333333Y-102589342D02*
X152285714Y-102398866D01*
X152285714Y-102398866D02*
X152285714Y-102160771D01*
X152285714Y-102160771D02*
X152333333Y-101970295D01*
X152333333Y-101970295D02*
X152380952Y-101875057D01*
X152380952Y-101875057D02*
X152428571Y-101827438D01*
X152428571Y-101827438D02*
X152523809Y-101779819D01*
X153476190Y-101779819D02*
X153571428Y-101779819D01*
X153571428Y-101779819D02*
X153666666Y-101827438D01*
X153666666Y-101827438D02*
X153714285Y-101875057D01*
X153714285Y-101875057D02*
X153761904Y-101970295D01*
X153761904Y-101970295D02*
X153809523Y-102160771D01*
X153809523Y-102160771D02*
X153809523Y-102398866D01*
X153809523Y-102398866D02*
X153761904Y-102589342D01*
X153761904Y-102589342D02*
X153714285Y-102684580D01*
X153714285Y-102684580D02*
X153666666Y-102732200D01*
X153666666Y-102732200D02*
X153571428Y-102779819D01*
X153571428Y-102779819D02*
X153476190Y-102779819D01*
X153476190Y-102779819D02*
X153380952Y-102732200D01*
X153380952Y-102732200D02*
X153333333Y-102684580D01*
X153333333Y-102684580D02*
X153285714Y-102589342D01*
X153285714Y-102589342D02*
X153238095Y-102398866D01*
X153238095Y-102398866D02*
X153238095Y-102160771D01*
X153238095Y-102160771D02*
X153285714Y-101970295D01*
X153285714Y-101970295D02*
X153333333Y-101875057D01*
X153333333Y-101875057D02*
X153380952Y-101827438D01*
X153380952Y-101827438D02*
X153476190Y-101779819D01*
X154238095Y-102779819D02*
X154238095Y-101779819D01*
X154238095Y-101779819D02*
X154571428Y-102494104D01*
X154571428Y-102494104D02*
X154904761Y-101779819D01*
X154904761Y-101779819D02*
X154904761Y-102779819D01*
X155380952Y-102779819D02*
X155380952Y-101779819D01*
X155380952Y-102256009D02*
X155952380Y-102256009D01*
X155952380Y-102779819D02*
X155952380Y-101779819D01*
X156333333Y-102113152D02*
X156857142Y-102113152D01*
X156857142Y-102113152D02*
X156333333Y-102779819D01*
X156333333Y-102779819D02*
X156857142Y-102779819D01*
X151508333Y-92629819D02*
X151175000Y-92153628D01*
X150936905Y-92629819D02*
X150936905Y-91629819D01*
X150936905Y-91629819D02*
X151317857Y-91629819D01*
X151317857Y-91629819D02*
X151413095Y-91677438D01*
X151413095Y-91677438D02*
X151460714Y-91725057D01*
X151460714Y-91725057D02*
X151508333Y-91820295D01*
X151508333Y-91820295D02*
X151508333Y-91963152D01*
X151508333Y-91963152D02*
X151460714Y-92058390D01*
X151460714Y-92058390D02*
X151413095Y-92106009D01*
X151413095Y-92106009D02*
X151317857Y-92153628D01*
X151317857Y-92153628D02*
X150936905Y-92153628D01*
X152365476Y-91629819D02*
X152175000Y-91629819D01*
X152175000Y-91629819D02*
X152079762Y-91677438D01*
X152079762Y-91677438D02*
X152032143Y-91725057D01*
X152032143Y-91725057D02*
X151936905Y-91867914D01*
X151936905Y-91867914D02*
X151889286Y-92058390D01*
X151889286Y-92058390D02*
X151889286Y-92439342D01*
X151889286Y-92439342D02*
X151936905Y-92534580D01*
X151936905Y-92534580D02*
X151984524Y-92582200D01*
X151984524Y-92582200D02*
X152079762Y-92629819D01*
X152079762Y-92629819D02*
X152270238Y-92629819D01*
X152270238Y-92629819D02*
X152365476Y-92582200D01*
X152365476Y-92582200D02*
X152413095Y-92534580D01*
X152413095Y-92534580D02*
X152460714Y-92439342D01*
X152460714Y-92439342D02*
X152460714Y-92201247D01*
X152460714Y-92201247D02*
X152413095Y-92106009D01*
X152413095Y-92106009D02*
X152365476Y-92058390D01*
X152365476Y-92058390D02*
X152270238Y-92010771D01*
X152270238Y-92010771D02*
X152079762Y-92010771D01*
X152079762Y-92010771D02*
X151984524Y-92058390D01*
X151984524Y-92058390D02*
X151936905Y-92106009D01*
X151936905Y-92106009D02*
X151889286Y-92201247D01*
X153359523Y-92579819D02*
X152788095Y-92579819D01*
X153073809Y-92579819D02*
X153073809Y-91579819D01*
X153073809Y-91579819D02*
X152978571Y-91722676D01*
X152978571Y-91722676D02*
X152883333Y-91817914D01*
X152883333Y-91817914D02*
X152788095Y-91865533D01*
X153978571Y-91579819D02*
X154073809Y-91579819D01*
X154073809Y-91579819D02*
X154169047Y-91627438D01*
X154169047Y-91627438D02*
X154216666Y-91675057D01*
X154216666Y-91675057D02*
X154264285Y-91770295D01*
X154264285Y-91770295D02*
X154311904Y-91960771D01*
X154311904Y-91960771D02*
X154311904Y-92198866D01*
X154311904Y-92198866D02*
X154264285Y-92389342D01*
X154264285Y-92389342D02*
X154216666Y-92484580D01*
X154216666Y-92484580D02*
X154169047Y-92532200D01*
X154169047Y-92532200D02*
X154073809Y-92579819D01*
X154073809Y-92579819D02*
X153978571Y-92579819D01*
X153978571Y-92579819D02*
X153883333Y-92532200D01*
X153883333Y-92532200D02*
X153835714Y-92484580D01*
X153835714Y-92484580D02*
X153788095Y-92389342D01*
X153788095Y-92389342D02*
X153740476Y-92198866D01*
X153740476Y-92198866D02*
X153740476Y-91960771D01*
X153740476Y-91960771D02*
X153788095Y-91770295D01*
X153788095Y-91770295D02*
X153835714Y-91675057D01*
X153835714Y-91675057D02*
X153883333Y-91627438D01*
X153883333Y-91627438D02*
X153978571Y-91579819D01*
X154740476Y-92579819D02*
X154740476Y-91579819D01*
X155311904Y-92579819D02*
X154883333Y-92008390D01*
X155311904Y-91579819D02*
X154740476Y-92151247D01*
X127957142Y-97284580D02*
X127909523Y-97332200D01*
X127909523Y-97332200D02*
X127766666Y-97379819D01*
X127766666Y-97379819D02*
X127671428Y-97379819D01*
X127671428Y-97379819D02*
X127528571Y-97332200D01*
X127528571Y-97332200D02*
X127433333Y-97236961D01*
X127433333Y-97236961D02*
X127385714Y-97141723D01*
X127385714Y-97141723D02*
X127338095Y-96951247D01*
X127338095Y-96951247D02*
X127338095Y-96808390D01*
X127338095Y-96808390D02*
X127385714Y-96617914D01*
X127385714Y-96617914D02*
X127433333Y-96522676D01*
X127433333Y-96522676D02*
X127528571Y-96427438D01*
X127528571Y-96427438D02*
X127671428Y-96379819D01*
X127671428Y-96379819D02*
X127766666Y-96379819D01*
X127766666Y-96379819D02*
X127909523Y-96427438D01*
X127909523Y-96427438D02*
X127957142Y-96475057D01*
X128909523Y-97379819D02*
X128338095Y-97379819D01*
X128623809Y-97379819D02*
X128623809Y-96379819D01*
X128623809Y-96379819D02*
X128528571Y-96522676D01*
X128528571Y-96522676D02*
X128433333Y-96617914D01*
X128433333Y-96617914D02*
X128338095Y-96665533D01*
X129766666Y-96379819D02*
X129576190Y-96379819D01*
X129576190Y-96379819D02*
X129480952Y-96427438D01*
X129480952Y-96427438D02*
X129433333Y-96475057D01*
X129433333Y-96475057D02*
X129338095Y-96617914D01*
X129338095Y-96617914D02*
X129290476Y-96808390D01*
X129290476Y-96808390D02*
X129290476Y-97189342D01*
X129290476Y-97189342D02*
X129338095Y-97284580D01*
X129338095Y-97284580D02*
X129385714Y-97332200D01*
X129385714Y-97332200D02*
X129480952Y-97379819D01*
X129480952Y-97379819D02*
X129671428Y-97379819D01*
X129671428Y-97379819D02*
X129766666Y-97332200D01*
X129766666Y-97332200D02*
X129814285Y-97284580D01*
X129814285Y-97284580D02*
X129861904Y-97189342D01*
X129861904Y-97189342D02*
X129861904Y-96951247D01*
X129861904Y-96951247D02*
X129814285Y-96856009D01*
X129814285Y-96856009D02*
X129766666Y-96808390D01*
X129766666Y-96808390D02*
X129671428Y-96760771D01*
X129671428Y-96760771D02*
X129480952Y-96760771D01*
X129480952Y-96760771D02*
X129385714Y-96808390D01*
X129385714Y-96808390D02*
X129338095Y-96856009D01*
X129338095Y-96856009D02*
X129290476Y-96951247D01*
X127723809Y-93963152D02*
X127723809Y-94629819D01*
X127485714Y-93582200D02*
X127247619Y-94296485D01*
X127247619Y-94296485D02*
X127866666Y-94296485D01*
X128247619Y-94534580D02*
X128295238Y-94582200D01*
X128295238Y-94582200D02*
X128247619Y-94629819D01*
X128247619Y-94629819D02*
X128200000Y-94582200D01*
X128200000Y-94582200D02*
X128247619Y-94534580D01*
X128247619Y-94534580D02*
X128247619Y-94629819D01*
X128628571Y-93629819D02*
X129295237Y-93629819D01*
X129295237Y-93629819D02*
X128866666Y-94629819D01*
X130104761Y-93963152D02*
X130104761Y-94629819D01*
X129676190Y-93963152D02*
X129676190Y-94486961D01*
X129676190Y-94486961D02*
X129723809Y-94582200D01*
X129723809Y-94582200D02*
X129819047Y-94629819D01*
X129819047Y-94629819D02*
X129961904Y-94629819D01*
X129961904Y-94629819D02*
X130057142Y-94582200D01*
X130057142Y-94582200D02*
X130104761Y-94534580D01*
X140383333Y-103584580D02*
X140335714Y-103632200D01*
X140335714Y-103632200D02*
X140192857Y-103679819D01*
X140192857Y-103679819D02*
X140097619Y-103679819D01*
X140097619Y-103679819D02*
X139954762Y-103632200D01*
X139954762Y-103632200D02*
X139859524Y-103536961D01*
X139859524Y-103536961D02*
X139811905Y-103441723D01*
X139811905Y-103441723D02*
X139764286Y-103251247D01*
X139764286Y-103251247D02*
X139764286Y-103108390D01*
X139764286Y-103108390D02*
X139811905Y-102917914D01*
X139811905Y-102917914D02*
X139859524Y-102822676D01*
X139859524Y-102822676D02*
X139954762Y-102727438D01*
X139954762Y-102727438D02*
X140097619Y-102679819D01*
X140097619Y-102679819D02*
X140192857Y-102679819D01*
X140192857Y-102679819D02*
X140335714Y-102727438D01*
X140335714Y-102727438D02*
X140383333Y-102775057D01*
X141240476Y-103013152D02*
X141240476Y-103679819D01*
X141002381Y-102632200D02*
X140764286Y-103346485D01*
X140764286Y-103346485D02*
X141383333Y-103346485D01*
X139907142Y-104829819D02*
X139335714Y-104829819D01*
X139621428Y-104829819D02*
X139621428Y-103829819D01*
X139621428Y-103829819D02*
X139526190Y-103972676D01*
X139526190Y-103972676D02*
X139430952Y-104067914D01*
X139430952Y-104067914D02*
X139335714Y-104115533D01*
X140526190Y-103829819D02*
X140621428Y-103829819D01*
X140621428Y-103829819D02*
X140716666Y-103877438D01*
X140716666Y-103877438D02*
X140764285Y-103925057D01*
X140764285Y-103925057D02*
X140811904Y-104020295D01*
X140811904Y-104020295D02*
X140859523Y-104210771D01*
X140859523Y-104210771D02*
X140859523Y-104448866D01*
X140859523Y-104448866D02*
X140811904Y-104639342D01*
X140811904Y-104639342D02*
X140764285Y-104734580D01*
X140764285Y-104734580D02*
X140716666Y-104782200D01*
X140716666Y-104782200D02*
X140621428Y-104829819D01*
X140621428Y-104829819D02*
X140526190Y-104829819D01*
X140526190Y-104829819D02*
X140430952Y-104782200D01*
X140430952Y-104782200D02*
X140383333Y-104734580D01*
X140383333Y-104734580D02*
X140335714Y-104639342D01*
X140335714Y-104639342D02*
X140288095Y-104448866D01*
X140288095Y-104448866D02*
X140288095Y-104210771D01*
X140288095Y-104210771D02*
X140335714Y-104020295D01*
X140335714Y-104020295D02*
X140383333Y-103925057D01*
X140383333Y-103925057D02*
X140430952Y-103877438D01*
X140430952Y-103877438D02*
X140526190Y-103829819D01*
X141288095Y-104163152D02*
X141288095Y-105163152D01*
X141288095Y-104210771D02*
X141383333Y-104163152D01*
X141383333Y-104163152D02*
X141573809Y-104163152D01*
X141573809Y-104163152D02*
X141669047Y-104210771D01*
X141669047Y-104210771D02*
X141716666Y-104258390D01*
X141716666Y-104258390D02*
X141764285Y-104353628D01*
X141764285Y-104353628D02*
X141764285Y-104639342D01*
X141764285Y-104639342D02*
X141716666Y-104734580D01*
X141716666Y-104734580D02*
X141669047Y-104782200D01*
X141669047Y-104782200D02*
X141573809Y-104829819D01*
X141573809Y-104829819D02*
X141383333Y-104829819D01*
X141383333Y-104829819D02*
X141288095Y-104782200D01*
X130759580Y-92542857D02*
X130807200Y-92590476D01*
X130807200Y-92590476D02*
X130854819Y-92733333D01*
X130854819Y-92733333D02*
X130854819Y-92828571D01*
X130854819Y-92828571D02*
X130807200Y-92971428D01*
X130807200Y-92971428D02*
X130711961Y-93066666D01*
X130711961Y-93066666D02*
X130616723Y-93114285D01*
X130616723Y-93114285D02*
X130426247Y-93161904D01*
X130426247Y-93161904D02*
X130283390Y-93161904D01*
X130283390Y-93161904D02*
X130092914Y-93114285D01*
X130092914Y-93114285D02*
X129997676Y-93066666D01*
X129997676Y-93066666D02*
X129902438Y-92971428D01*
X129902438Y-92971428D02*
X129854819Y-92828571D01*
X129854819Y-92828571D02*
X129854819Y-92733333D01*
X129854819Y-92733333D02*
X129902438Y-92590476D01*
X129902438Y-92590476D02*
X129950057Y-92542857D01*
X130854819Y-91590476D02*
X130854819Y-92161904D01*
X130854819Y-91876190D02*
X129854819Y-91876190D01*
X129854819Y-91876190D02*
X129997676Y-91971428D01*
X129997676Y-91971428D02*
X130092914Y-92066666D01*
X130092914Y-92066666D02*
X130140533Y-92161904D01*
X130188152Y-90733333D02*
X130854819Y-90733333D01*
X129807200Y-90971428D02*
X130521485Y-91209523D01*
X130521485Y-91209523D02*
X130521485Y-90590476D01*
X129900057Y-89927380D02*
X129852438Y-89879761D01*
X129852438Y-89879761D02*
X129804819Y-89784523D01*
X129804819Y-89784523D02*
X129804819Y-89546428D01*
X129804819Y-89546428D02*
X129852438Y-89451190D01*
X129852438Y-89451190D02*
X129900057Y-89403571D01*
X129900057Y-89403571D02*
X129995295Y-89355952D01*
X129995295Y-89355952D02*
X130090533Y-89355952D01*
X130090533Y-89355952D02*
X130233390Y-89403571D01*
X130233390Y-89403571D02*
X130804819Y-89974999D01*
X130804819Y-89974999D02*
X130804819Y-89355952D01*
X130709580Y-88927380D02*
X130757200Y-88879761D01*
X130757200Y-88879761D02*
X130804819Y-88927380D01*
X130804819Y-88927380D02*
X130757200Y-88974999D01*
X130757200Y-88974999D02*
X130709580Y-88927380D01*
X130709580Y-88927380D02*
X130804819Y-88927380D01*
X129900057Y-88498809D02*
X129852438Y-88451190D01*
X129852438Y-88451190D02*
X129804819Y-88355952D01*
X129804819Y-88355952D02*
X129804819Y-88117857D01*
X129804819Y-88117857D02*
X129852438Y-88022619D01*
X129852438Y-88022619D02*
X129900057Y-87975000D01*
X129900057Y-87975000D02*
X129995295Y-87927381D01*
X129995295Y-87927381D02*
X130090533Y-87927381D01*
X130090533Y-87927381D02*
X130233390Y-87975000D01*
X130233390Y-87975000D02*
X130804819Y-88546428D01*
X130804819Y-88546428D02*
X130804819Y-87927381D01*
X130138152Y-87070238D02*
X130804819Y-87070238D01*
X130138152Y-87498809D02*
X130661961Y-87498809D01*
X130661961Y-87498809D02*
X130757200Y-87451190D01*
X130757200Y-87451190D02*
X130804819Y-87355952D01*
X130804819Y-87355952D02*
X130804819Y-87213095D01*
X130804819Y-87213095D02*
X130757200Y-87117857D01*
X130757200Y-87117857D02*
X130709580Y-87070238D01*
X150508333Y-96034580D02*
X150460714Y-96082200D01*
X150460714Y-96082200D02*
X150317857Y-96129819D01*
X150317857Y-96129819D02*
X150222619Y-96129819D01*
X150222619Y-96129819D02*
X150079762Y-96082200D01*
X150079762Y-96082200D02*
X149984524Y-95986961D01*
X149984524Y-95986961D02*
X149936905Y-95891723D01*
X149936905Y-95891723D02*
X149889286Y-95701247D01*
X149889286Y-95701247D02*
X149889286Y-95558390D01*
X149889286Y-95558390D02*
X149936905Y-95367914D01*
X149936905Y-95367914D02*
X149984524Y-95272676D01*
X149984524Y-95272676D02*
X150079762Y-95177438D01*
X150079762Y-95177438D02*
X150222619Y-95129819D01*
X150222619Y-95129819D02*
X150317857Y-95129819D01*
X150317857Y-95129819D02*
X150460714Y-95177438D01*
X150460714Y-95177438D02*
X150508333Y-95225057D01*
X150889286Y-95225057D02*
X150936905Y-95177438D01*
X150936905Y-95177438D02*
X151032143Y-95129819D01*
X151032143Y-95129819D02*
X151270238Y-95129819D01*
X151270238Y-95129819D02*
X151365476Y-95177438D01*
X151365476Y-95177438D02*
X151413095Y-95225057D01*
X151413095Y-95225057D02*
X151460714Y-95320295D01*
X151460714Y-95320295D02*
X151460714Y-95415533D01*
X151460714Y-95415533D02*
X151413095Y-95558390D01*
X151413095Y-95558390D02*
X150841667Y-96129819D01*
X150841667Y-96129819D02*
X151460714Y-96129819D01*
X147682142Y-98429819D02*
X147110714Y-98429819D01*
X147396428Y-98429819D02*
X147396428Y-97429819D01*
X147396428Y-97429819D02*
X147301190Y-97572676D01*
X147301190Y-97572676D02*
X147205952Y-97667914D01*
X147205952Y-97667914D02*
X147110714Y-97715533D01*
X148253571Y-97858390D02*
X148158333Y-97810771D01*
X148158333Y-97810771D02*
X148110714Y-97763152D01*
X148110714Y-97763152D02*
X148063095Y-97667914D01*
X148063095Y-97667914D02*
X148063095Y-97620295D01*
X148063095Y-97620295D02*
X148110714Y-97525057D01*
X148110714Y-97525057D02*
X148158333Y-97477438D01*
X148158333Y-97477438D02*
X148253571Y-97429819D01*
X148253571Y-97429819D02*
X148444047Y-97429819D01*
X148444047Y-97429819D02*
X148539285Y-97477438D01*
X148539285Y-97477438D02*
X148586904Y-97525057D01*
X148586904Y-97525057D02*
X148634523Y-97620295D01*
X148634523Y-97620295D02*
X148634523Y-97667914D01*
X148634523Y-97667914D02*
X148586904Y-97763152D01*
X148586904Y-97763152D02*
X148539285Y-97810771D01*
X148539285Y-97810771D02*
X148444047Y-97858390D01*
X148444047Y-97858390D02*
X148253571Y-97858390D01*
X148253571Y-97858390D02*
X148158333Y-97906009D01*
X148158333Y-97906009D02*
X148110714Y-97953628D01*
X148110714Y-97953628D02*
X148063095Y-98048866D01*
X148063095Y-98048866D02*
X148063095Y-98239342D01*
X148063095Y-98239342D02*
X148110714Y-98334580D01*
X148110714Y-98334580D02*
X148158333Y-98382200D01*
X148158333Y-98382200D02*
X148253571Y-98429819D01*
X148253571Y-98429819D02*
X148444047Y-98429819D01*
X148444047Y-98429819D02*
X148539285Y-98382200D01*
X148539285Y-98382200D02*
X148586904Y-98334580D01*
X148586904Y-98334580D02*
X148634523Y-98239342D01*
X148634523Y-98239342D02*
X148634523Y-98048866D01*
X148634523Y-98048866D02*
X148586904Y-97953628D01*
X148586904Y-97953628D02*
X148539285Y-97906009D01*
X148539285Y-97906009D02*
X148444047Y-97858390D01*
X149063095Y-97763152D02*
X149063095Y-98763152D01*
X149063095Y-97810771D02*
X149158333Y-97763152D01*
X149158333Y-97763152D02*
X149348809Y-97763152D01*
X149348809Y-97763152D02*
X149444047Y-97810771D01*
X149444047Y-97810771D02*
X149491666Y-97858390D01*
X149491666Y-97858390D02*
X149539285Y-97953628D01*
X149539285Y-97953628D02*
X149539285Y-98239342D01*
X149539285Y-98239342D02*
X149491666Y-98334580D01*
X149491666Y-98334580D02*
X149444047Y-98382200D01*
X149444047Y-98382200D02*
X149348809Y-98429819D01*
X149348809Y-98429819D02*
X149158333Y-98429819D01*
X149158333Y-98429819D02*
X149063095Y-98382200D01*
X146234819Y-84433333D02*
X146949104Y-84433333D01*
X146949104Y-84433333D02*
X147091961Y-84480952D01*
X147091961Y-84480952D02*
X147187200Y-84576190D01*
X147187200Y-84576190D02*
X147234819Y-84719047D01*
X147234819Y-84719047D02*
X147234819Y-84814285D01*
X146330057Y-84004761D02*
X146282438Y-83957142D01*
X146282438Y-83957142D02*
X146234819Y-83861904D01*
X146234819Y-83861904D02*
X146234819Y-83623809D01*
X146234819Y-83623809D02*
X146282438Y-83528571D01*
X146282438Y-83528571D02*
X146330057Y-83480952D01*
X146330057Y-83480952D02*
X146425295Y-83433333D01*
X146425295Y-83433333D02*
X146520533Y-83433333D01*
X146520533Y-83433333D02*
X146663390Y-83480952D01*
X146663390Y-83480952D02*
X147234819Y-84052380D01*
X147234819Y-84052380D02*
X147234819Y-83433333D01*
X138629819Y-103391666D02*
X138629819Y-103867856D01*
X138629819Y-103867856D02*
X137629819Y-103867856D01*
X138629819Y-102534523D02*
X138629819Y-103105951D01*
X138629819Y-102820237D02*
X137629819Y-102820237D01*
X137629819Y-102820237D02*
X137772676Y-102915475D01*
X137772676Y-102915475D02*
X137867914Y-103010713D01*
X137867914Y-103010713D02*
X137915533Y-103105951D01*
X136863152Y-101901190D02*
X137529819Y-101901190D01*
X136482200Y-102139285D02*
X137196485Y-102377380D01*
X137196485Y-102377380D02*
X137196485Y-101758333D01*
X137434580Y-101377380D02*
X137482200Y-101329761D01*
X137482200Y-101329761D02*
X137529819Y-101377380D01*
X137529819Y-101377380D02*
X137482200Y-101424999D01*
X137482200Y-101424999D02*
X137434580Y-101377380D01*
X137434580Y-101377380D02*
X137529819Y-101377380D01*
X136529819Y-100996428D02*
X136529819Y-100329762D01*
X136529819Y-100329762D02*
X137529819Y-100758333D01*
X136863152Y-99948809D02*
X137529819Y-99948809D01*
X136958390Y-99948809D02*
X136910771Y-99901190D01*
X136910771Y-99901190D02*
X136863152Y-99805952D01*
X136863152Y-99805952D02*
X136863152Y-99663095D01*
X136863152Y-99663095D02*
X136910771Y-99567857D01*
X136910771Y-99567857D02*
X137006009Y-99520238D01*
X137006009Y-99520238D02*
X137529819Y-99520238D01*
X131607142Y-102459580D02*
X131559523Y-102507200D01*
X131559523Y-102507200D02*
X131416666Y-102554819D01*
X131416666Y-102554819D02*
X131321428Y-102554819D01*
X131321428Y-102554819D02*
X131178571Y-102507200D01*
X131178571Y-102507200D02*
X131083333Y-102411961D01*
X131083333Y-102411961D02*
X131035714Y-102316723D01*
X131035714Y-102316723D02*
X130988095Y-102126247D01*
X130988095Y-102126247D02*
X130988095Y-101983390D01*
X130988095Y-101983390D02*
X131035714Y-101792914D01*
X131035714Y-101792914D02*
X131083333Y-101697676D01*
X131083333Y-101697676D02*
X131178571Y-101602438D01*
X131178571Y-101602438D02*
X131321428Y-101554819D01*
X131321428Y-101554819D02*
X131416666Y-101554819D01*
X131416666Y-101554819D02*
X131559523Y-101602438D01*
X131559523Y-101602438D02*
X131607142Y-101650057D01*
X132559523Y-102554819D02*
X131988095Y-102554819D01*
X132273809Y-102554819D02*
X132273809Y-101554819D01*
X132273809Y-101554819D02*
X132178571Y-101697676D01*
X132178571Y-101697676D02*
X132083333Y-101792914D01*
X132083333Y-101792914D02*
X131988095Y-101840533D01*
X133178571Y-101554819D02*
X133273809Y-101554819D01*
X133273809Y-101554819D02*
X133369047Y-101602438D01*
X133369047Y-101602438D02*
X133416666Y-101650057D01*
X133416666Y-101650057D02*
X133464285Y-101745295D01*
X133464285Y-101745295D02*
X133511904Y-101935771D01*
X133511904Y-101935771D02*
X133511904Y-102173866D01*
X133511904Y-102173866D02*
X133464285Y-102364342D01*
X133464285Y-102364342D02*
X133416666Y-102459580D01*
X133416666Y-102459580D02*
X133369047Y-102507200D01*
X133369047Y-102507200D02*
X133273809Y-102554819D01*
X133273809Y-102554819D02*
X133178571Y-102554819D01*
X133178571Y-102554819D02*
X133083333Y-102507200D01*
X133083333Y-102507200D02*
X133035714Y-102459580D01*
X133035714Y-102459580D02*
X132988095Y-102364342D01*
X132988095Y-102364342D02*
X132940476Y-102173866D01*
X132940476Y-102173866D02*
X132940476Y-101935771D01*
X132940476Y-101935771D02*
X132988095Y-101745295D01*
X132988095Y-101745295D02*
X133035714Y-101650057D01*
X133035714Y-101650057D02*
X133083333Y-101602438D01*
X133083333Y-101602438D02*
X133178571Y-101554819D01*
X129733333Y-102529819D02*
X129161905Y-102529819D01*
X129447619Y-102529819D02*
X129447619Y-101529819D01*
X129447619Y-101529819D02*
X129352381Y-101672676D01*
X129352381Y-101672676D02*
X129257143Y-101767914D01*
X129257143Y-101767914D02*
X129161905Y-101815533D01*
X130590476Y-101863152D02*
X130590476Y-102529819D01*
X130161905Y-101863152D02*
X130161905Y-102386961D01*
X130161905Y-102386961D02*
X130209524Y-102482200D01*
X130209524Y-102482200D02*
X130304762Y-102529819D01*
X130304762Y-102529819D02*
X130447619Y-102529819D01*
X130447619Y-102529819D02*
X130542857Y-102482200D01*
X130542857Y-102482200D02*
X130590476Y-102434580D01*
X153909819Y-88133333D02*
X154624104Y-88133333D01*
X154624104Y-88133333D02*
X154766961Y-88180952D01*
X154766961Y-88180952D02*
X154862200Y-88276190D01*
X154862200Y-88276190D02*
X154909819Y-88419047D01*
X154909819Y-88419047D02*
X154909819Y-88514285D01*
X154909819Y-87133333D02*
X154909819Y-87704761D01*
X154909819Y-87419047D02*
X153909819Y-87419047D01*
X153909819Y-87419047D02*
X154052676Y-87514285D01*
X154052676Y-87514285D02*
X154147914Y-87609523D01*
X154147914Y-87609523D02*
X154195533Y-87704761D01*
X150395238Y-84827438D02*
X150300000Y-84779819D01*
X150300000Y-84779819D02*
X150157143Y-84779819D01*
X150157143Y-84779819D02*
X150014286Y-84827438D01*
X150014286Y-84827438D02*
X149919048Y-84922676D01*
X149919048Y-84922676D02*
X149871429Y-85017914D01*
X149871429Y-85017914D02*
X149823810Y-85208390D01*
X149823810Y-85208390D02*
X149823810Y-85351247D01*
X149823810Y-85351247D02*
X149871429Y-85541723D01*
X149871429Y-85541723D02*
X149919048Y-85636961D01*
X149919048Y-85636961D02*
X150014286Y-85732200D01*
X150014286Y-85732200D02*
X150157143Y-85779819D01*
X150157143Y-85779819D02*
X150252381Y-85779819D01*
X150252381Y-85779819D02*
X150395238Y-85732200D01*
X150395238Y-85732200D02*
X150442857Y-85684580D01*
X150442857Y-85684580D02*
X150442857Y-85351247D01*
X150442857Y-85351247D02*
X150252381Y-85351247D01*
X150871429Y-85779819D02*
X150871429Y-84779819D01*
X150871429Y-84779819D02*
X151252381Y-84779819D01*
X151252381Y-84779819D02*
X151347619Y-84827438D01*
X151347619Y-84827438D02*
X151395238Y-84875057D01*
X151395238Y-84875057D02*
X151442857Y-84970295D01*
X151442857Y-84970295D02*
X151442857Y-85113152D01*
X151442857Y-85113152D02*
X151395238Y-85208390D01*
X151395238Y-85208390D02*
X151347619Y-85256009D01*
X151347619Y-85256009D02*
X151252381Y-85303628D01*
X151252381Y-85303628D02*
X150871429Y-85303628D01*
X151871429Y-85779819D02*
X151871429Y-84779819D01*
X152538095Y-84779819D02*
X152728571Y-84779819D01*
X152728571Y-84779819D02*
X152823809Y-84827438D01*
X152823809Y-84827438D02*
X152919047Y-84922676D01*
X152919047Y-84922676D02*
X152966666Y-85113152D01*
X152966666Y-85113152D02*
X152966666Y-85446485D01*
X152966666Y-85446485D02*
X152919047Y-85636961D01*
X152919047Y-85636961D02*
X152823809Y-85732200D01*
X152823809Y-85732200D02*
X152728571Y-85779819D01*
X152728571Y-85779819D02*
X152538095Y-85779819D01*
X152538095Y-85779819D02*
X152442857Y-85732200D01*
X152442857Y-85732200D02*
X152347619Y-85636961D01*
X152347619Y-85636961D02*
X152300000Y-85446485D01*
X152300000Y-85446485D02*
X152300000Y-85113152D01*
X152300000Y-85113152D02*
X152347619Y-84922676D01*
X152347619Y-84922676D02*
X152442857Y-84827438D01*
X152442857Y-84827438D02*
X152538095Y-84779819D01*
X153347619Y-85732200D02*
X153442857Y-85779819D01*
X153442857Y-85779819D02*
X153633333Y-85779819D01*
X153633333Y-85779819D02*
X153728571Y-85732200D01*
X153728571Y-85732200D02*
X153776190Y-85636961D01*
X153776190Y-85636961D02*
X153776190Y-85589342D01*
X153776190Y-85589342D02*
X153728571Y-85494104D01*
X153728571Y-85494104D02*
X153633333Y-85446485D01*
X153633333Y-85446485D02*
X153490476Y-85446485D01*
X153490476Y-85446485D02*
X153395238Y-85398866D01*
X153395238Y-85398866D02*
X153347619Y-85303628D01*
X153347619Y-85303628D02*
X153347619Y-85256009D01*
X153347619Y-85256009D02*
X153395238Y-85160771D01*
X153395238Y-85160771D02*
X153490476Y-85113152D01*
X153490476Y-85113152D02*
X153633333Y-85113152D01*
X153633333Y-85113152D02*
X153728571Y-85160771D01*
X143807142Y-94984580D02*
X143759523Y-95032200D01*
X143759523Y-95032200D02*
X143616666Y-95079819D01*
X143616666Y-95079819D02*
X143521428Y-95079819D01*
X143521428Y-95079819D02*
X143378571Y-95032200D01*
X143378571Y-95032200D02*
X143283333Y-94936961D01*
X143283333Y-94936961D02*
X143235714Y-94841723D01*
X143235714Y-94841723D02*
X143188095Y-94651247D01*
X143188095Y-94651247D02*
X143188095Y-94508390D01*
X143188095Y-94508390D02*
X143235714Y-94317914D01*
X143235714Y-94317914D02*
X143283333Y-94222676D01*
X143283333Y-94222676D02*
X143378571Y-94127438D01*
X143378571Y-94127438D02*
X143521428Y-94079819D01*
X143521428Y-94079819D02*
X143616666Y-94079819D01*
X143616666Y-94079819D02*
X143759523Y-94127438D01*
X143759523Y-94127438D02*
X143807142Y-94175057D01*
X144759523Y-95079819D02*
X144188095Y-95079819D01*
X144473809Y-95079819D02*
X144473809Y-94079819D01*
X144473809Y-94079819D02*
X144378571Y-94222676D01*
X144378571Y-94222676D02*
X144283333Y-94317914D01*
X144283333Y-94317914D02*
X144188095Y-94365533D01*
X145711904Y-95079819D02*
X145140476Y-95079819D01*
X145426190Y-95079819D02*
X145426190Y-94079819D01*
X145426190Y-94079819D02*
X145330952Y-94222676D01*
X145330952Y-94222676D02*
X145235714Y-94317914D01*
X145235714Y-94317914D02*
X145140476Y-94365533D01*
X141130952Y-96354819D02*
X140559524Y-96354819D01*
X140845238Y-96354819D02*
X140845238Y-95354819D01*
X140845238Y-95354819D02*
X140750000Y-95497676D01*
X140750000Y-95497676D02*
X140654762Y-95592914D01*
X140654762Y-95592914D02*
X140559524Y-95640533D01*
X141750000Y-95354819D02*
X141845238Y-95354819D01*
X141845238Y-95354819D02*
X141940476Y-95402438D01*
X141940476Y-95402438D02*
X141988095Y-95450057D01*
X141988095Y-95450057D02*
X142035714Y-95545295D01*
X142035714Y-95545295D02*
X142083333Y-95735771D01*
X142083333Y-95735771D02*
X142083333Y-95973866D01*
X142083333Y-95973866D02*
X142035714Y-96164342D01*
X142035714Y-96164342D02*
X141988095Y-96259580D01*
X141988095Y-96259580D02*
X141940476Y-96307200D01*
X141940476Y-96307200D02*
X141845238Y-96354819D01*
X141845238Y-96354819D02*
X141750000Y-96354819D01*
X141750000Y-96354819D02*
X141654762Y-96307200D01*
X141654762Y-96307200D02*
X141607143Y-96259580D01*
X141607143Y-96259580D02*
X141559524Y-96164342D01*
X141559524Y-96164342D02*
X141511905Y-95973866D01*
X141511905Y-95973866D02*
X141511905Y-95735771D01*
X141511905Y-95735771D02*
X141559524Y-95545295D01*
X141559524Y-95545295D02*
X141607143Y-95450057D01*
X141607143Y-95450057D02*
X141654762Y-95402438D01*
X141654762Y-95402438D02*
X141750000Y-95354819D01*
X142702381Y-95354819D02*
X142797619Y-95354819D01*
X142797619Y-95354819D02*
X142892857Y-95402438D01*
X142892857Y-95402438D02*
X142940476Y-95450057D01*
X142940476Y-95450057D02*
X142988095Y-95545295D01*
X142988095Y-95545295D02*
X143035714Y-95735771D01*
X143035714Y-95735771D02*
X143035714Y-95973866D01*
X143035714Y-95973866D02*
X142988095Y-96164342D01*
X142988095Y-96164342D02*
X142940476Y-96259580D01*
X142940476Y-96259580D02*
X142892857Y-96307200D01*
X142892857Y-96307200D02*
X142797619Y-96354819D01*
X142797619Y-96354819D02*
X142702381Y-96354819D01*
X142702381Y-96354819D02*
X142607143Y-96307200D01*
X142607143Y-96307200D02*
X142559524Y-96259580D01*
X142559524Y-96259580D02*
X142511905Y-96164342D01*
X142511905Y-96164342D02*
X142464286Y-95973866D01*
X142464286Y-95973866D02*
X142464286Y-95735771D01*
X142464286Y-95735771D02*
X142511905Y-95545295D01*
X142511905Y-95545295D02*
X142559524Y-95450057D01*
X142559524Y-95450057D02*
X142607143Y-95402438D01*
X142607143Y-95402438D02*
X142702381Y-95354819D01*
X143464286Y-95688152D02*
X143464286Y-96354819D01*
X143464286Y-95783390D02*
X143511905Y-95735771D01*
X143511905Y-95735771D02*
X143607143Y-95688152D01*
X143607143Y-95688152D02*
X143750000Y-95688152D01*
X143750000Y-95688152D02*
X143845238Y-95735771D01*
X143845238Y-95735771D02*
X143892857Y-95831009D01*
X143892857Y-95831009D02*
X143892857Y-96354819D01*
X145433333Y-102254819D02*
X145100000Y-101778628D01*
X144861905Y-102254819D02*
X144861905Y-101254819D01*
X144861905Y-101254819D02*
X145242857Y-101254819D01*
X145242857Y-101254819D02*
X145338095Y-101302438D01*
X145338095Y-101302438D02*
X145385714Y-101350057D01*
X145385714Y-101350057D02*
X145433333Y-101445295D01*
X145433333Y-101445295D02*
X145433333Y-101588152D01*
X145433333Y-101588152D02*
X145385714Y-101683390D01*
X145385714Y-101683390D02*
X145338095Y-101731009D01*
X145338095Y-101731009D02*
X145242857Y-101778628D01*
X145242857Y-101778628D02*
X144861905Y-101778628D01*
X145814286Y-101350057D02*
X145861905Y-101302438D01*
X145861905Y-101302438D02*
X145957143Y-101254819D01*
X145957143Y-101254819D02*
X146195238Y-101254819D01*
X146195238Y-101254819D02*
X146290476Y-101302438D01*
X146290476Y-101302438D02*
X146338095Y-101350057D01*
X146338095Y-101350057D02*
X146385714Y-101445295D01*
X146385714Y-101445295D02*
X146385714Y-101540533D01*
X146385714Y-101540533D02*
X146338095Y-101683390D01*
X146338095Y-101683390D02*
X145766667Y-102254819D01*
X145766667Y-102254819D02*
X146385714Y-102254819D01*
X145102381Y-102479819D02*
X145197619Y-102479819D01*
X145197619Y-102479819D02*
X145292857Y-102527438D01*
X145292857Y-102527438D02*
X145340476Y-102575057D01*
X145340476Y-102575057D02*
X145388095Y-102670295D01*
X145388095Y-102670295D02*
X145435714Y-102860771D01*
X145435714Y-102860771D02*
X145435714Y-103098866D01*
X145435714Y-103098866D02*
X145388095Y-103289342D01*
X145388095Y-103289342D02*
X145340476Y-103384580D01*
X145340476Y-103384580D02*
X145292857Y-103432200D01*
X145292857Y-103432200D02*
X145197619Y-103479819D01*
X145197619Y-103479819D02*
X145102381Y-103479819D01*
X145102381Y-103479819D02*
X145007143Y-103432200D01*
X145007143Y-103432200D02*
X144959524Y-103384580D01*
X144959524Y-103384580D02*
X144911905Y-103289342D01*
X144911905Y-103289342D02*
X144864286Y-103098866D01*
X144864286Y-103098866D02*
X144864286Y-102860771D01*
X144864286Y-102860771D02*
X144911905Y-102670295D01*
X144911905Y-102670295D02*
X144959524Y-102575057D01*
X144959524Y-102575057D02*
X145007143Y-102527438D01*
X145007143Y-102527438D02*
X145102381Y-102479819D01*
X126859580Y-92567857D02*
X126907200Y-92615476D01*
X126907200Y-92615476D02*
X126954819Y-92758333D01*
X126954819Y-92758333D02*
X126954819Y-92853571D01*
X126954819Y-92853571D02*
X126907200Y-92996428D01*
X126907200Y-92996428D02*
X126811961Y-93091666D01*
X126811961Y-93091666D02*
X126716723Y-93139285D01*
X126716723Y-93139285D02*
X126526247Y-93186904D01*
X126526247Y-93186904D02*
X126383390Y-93186904D01*
X126383390Y-93186904D02*
X126192914Y-93139285D01*
X126192914Y-93139285D02*
X126097676Y-93091666D01*
X126097676Y-93091666D02*
X126002438Y-92996428D01*
X126002438Y-92996428D02*
X125954819Y-92853571D01*
X125954819Y-92853571D02*
X125954819Y-92758333D01*
X125954819Y-92758333D02*
X126002438Y-92615476D01*
X126002438Y-92615476D02*
X126050057Y-92567857D01*
X126954819Y-91615476D02*
X126954819Y-92186904D01*
X126954819Y-91901190D02*
X125954819Y-91901190D01*
X125954819Y-91901190D02*
X126097676Y-91996428D01*
X126097676Y-91996428D02*
X126192914Y-92091666D01*
X126192914Y-92091666D02*
X126240533Y-92186904D01*
X125954819Y-90710714D02*
X125954819Y-91186904D01*
X125954819Y-91186904D02*
X126431009Y-91234523D01*
X126431009Y-91234523D02*
X126383390Y-91186904D01*
X126383390Y-91186904D02*
X126335771Y-91091666D01*
X126335771Y-91091666D02*
X126335771Y-90853571D01*
X126335771Y-90853571D02*
X126383390Y-90758333D01*
X126383390Y-90758333D02*
X126431009Y-90710714D01*
X126431009Y-90710714D02*
X126526247Y-90663095D01*
X126526247Y-90663095D02*
X126764342Y-90663095D01*
X126764342Y-90663095D02*
X126859580Y-90710714D01*
X126859580Y-90710714D02*
X126907200Y-90758333D01*
X126907200Y-90758333D02*
X126954819Y-90853571D01*
X126954819Y-90853571D02*
X126954819Y-91091666D01*
X126954819Y-91091666D02*
X126907200Y-91186904D01*
X126907200Y-91186904D02*
X126859580Y-91234523D01*
X126263152Y-89476190D02*
X126929819Y-89476190D01*
X125882200Y-89714285D02*
X126596485Y-89952380D01*
X126596485Y-89952380D02*
X126596485Y-89333333D01*
X126834580Y-88952380D02*
X126882200Y-88904761D01*
X126882200Y-88904761D02*
X126929819Y-88952380D01*
X126929819Y-88952380D02*
X126882200Y-88999999D01*
X126882200Y-88999999D02*
X126834580Y-88952380D01*
X126834580Y-88952380D02*
X126929819Y-88952380D01*
X125929819Y-88571428D02*
X125929819Y-87904762D01*
X125929819Y-87904762D02*
X126929819Y-88333333D01*
X126263152Y-87095238D02*
X126929819Y-87095238D01*
X126263152Y-87523809D02*
X126786961Y-87523809D01*
X126786961Y-87523809D02*
X126882200Y-87476190D01*
X126882200Y-87476190D02*
X126929819Y-87380952D01*
X126929819Y-87380952D02*
X126929819Y-87238095D01*
X126929819Y-87238095D02*
X126882200Y-87142857D01*
X126882200Y-87142857D02*
X126834580Y-87095238D01*
X128582142Y-98484580D02*
X128534523Y-98532200D01*
X128534523Y-98532200D02*
X128391666Y-98579819D01*
X128391666Y-98579819D02*
X128296428Y-98579819D01*
X128296428Y-98579819D02*
X128153571Y-98532200D01*
X128153571Y-98532200D02*
X128058333Y-98436961D01*
X128058333Y-98436961D02*
X128010714Y-98341723D01*
X128010714Y-98341723D02*
X127963095Y-98151247D01*
X127963095Y-98151247D02*
X127963095Y-98008390D01*
X127963095Y-98008390D02*
X128010714Y-97817914D01*
X128010714Y-97817914D02*
X128058333Y-97722676D01*
X128058333Y-97722676D02*
X128153571Y-97627438D01*
X128153571Y-97627438D02*
X128296428Y-97579819D01*
X128296428Y-97579819D02*
X128391666Y-97579819D01*
X128391666Y-97579819D02*
X128534523Y-97627438D01*
X128534523Y-97627438D02*
X128582142Y-97675057D01*
X129534523Y-98579819D02*
X128963095Y-98579819D01*
X129248809Y-98579819D02*
X129248809Y-97579819D01*
X129248809Y-97579819D02*
X129153571Y-97722676D01*
X129153571Y-97722676D02*
X129058333Y-97817914D01*
X129058333Y-97817914D02*
X128963095Y-97865533D01*
X129915476Y-97675057D02*
X129963095Y-97627438D01*
X129963095Y-97627438D02*
X130058333Y-97579819D01*
X130058333Y-97579819D02*
X130296428Y-97579819D01*
X130296428Y-97579819D02*
X130391666Y-97627438D01*
X130391666Y-97627438D02*
X130439285Y-97675057D01*
X130439285Y-97675057D02*
X130486904Y-97770295D01*
X130486904Y-97770295D02*
X130486904Y-97865533D01*
X130486904Y-97865533D02*
X130439285Y-98008390D01*
X130439285Y-98008390D02*
X129867857Y-98579819D01*
X129867857Y-98579819D02*
X130486904Y-98579819D01*
X129533333Y-99754819D02*
X128961905Y-99754819D01*
X129247619Y-99754819D02*
X129247619Y-98754819D01*
X129247619Y-98754819D02*
X129152381Y-98897676D01*
X129152381Y-98897676D02*
X129057143Y-98992914D01*
X129057143Y-98992914D02*
X128961905Y-99040533D01*
X130390476Y-99088152D02*
X130390476Y-99754819D01*
X129961905Y-99088152D02*
X129961905Y-99611961D01*
X129961905Y-99611961D02*
X130009524Y-99707200D01*
X130009524Y-99707200D02*
X130104762Y-99754819D01*
X130104762Y-99754819D02*
X130247619Y-99754819D01*
X130247619Y-99754819D02*
X130342857Y-99707200D01*
X130342857Y-99707200D02*
X130390476Y-99659580D01*
X132183333Y-94629819D02*
X131707143Y-94629819D01*
X131707143Y-94629819D02*
X131707143Y-93629819D01*
X132469048Y-93725057D02*
X132516667Y-93677438D01*
X132516667Y-93677438D02*
X132611905Y-93629819D01*
X132611905Y-93629819D02*
X132850000Y-93629819D01*
X132850000Y-93629819D02*
X132945238Y-93677438D01*
X132945238Y-93677438D02*
X132992857Y-93725057D01*
X132992857Y-93725057D02*
X133040476Y-93820295D01*
X133040476Y-93820295D02*
X133040476Y-93915533D01*
X133040476Y-93915533D02*
X132992857Y-94058390D01*
X132992857Y-94058390D02*
X132421429Y-94629819D01*
X132421429Y-94629819D02*
X133040476Y-94629819D01*
X130197619Y-96475057D02*
X130245238Y-96427438D01*
X130245238Y-96427438D02*
X130340476Y-96379819D01*
X130340476Y-96379819D02*
X130578571Y-96379819D01*
X130578571Y-96379819D02*
X130673809Y-96427438D01*
X130673809Y-96427438D02*
X130721428Y-96475057D01*
X130721428Y-96475057D02*
X130769047Y-96570295D01*
X130769047Y-96570295D02*
X130769047Y-96665533D01*
X130769047Y-96665533D02*
X130721428Y-96808390D01*
X130721428Y-96808390D02*
X130150000Y-97379819D01*
X130150000Y-97379819D02*
X130769047Y-97379819D01*
X131197619Y-97284580D02*
X131245238Y-97332200D01*
X131245238Y-97332200D02*
X131197619Y-97379819D01*
X131197619Y-97379819D02*
X131150000Y-97332200D01*
X131150000Y-97332200D02*
X131197619Y-97284580D01*
X131197619Y-97284580D02*
X131197619Y-97379819D01*
X131626190Y-96475057D02*
X131673809Y-96427438D01*
X131673809Y-96427438D02*
X131769047Y-96379819D01*
X131769047Y-96379819D02*
X132007142Y-96379819D01*
X132007142Y-96379819D02*
X132102380Y-96427438D01*
X132102380Y-96427438D02*
X132149999Y-96475057D01*
X132149999Y-96475057D02*
X132197618Y-96570295D01*
X132197618Y-96570295D02*
X132197618Y-96665533D01*
X132197618Y-96665533D02*
X132149999Y-96808390D01*
X132149999Y-96808390D02*
X131578571Y-97379819D01*
X131578571Y-97379819D02*
X132197618Y-97379819D01*
X133054761Y-96713152D02*
X133054761Y-97379819D01*
X132626190Y-96713152D02*
X132626190Y-97236961D01*
X132626190Y-97236961D02*
X132673809Y-97332200D01*
X132673809Y-97332200D02*
X132769047Y-97379819D01*
X132769047Y-97379819D02*
X132911904Y-97379819D01*
X132911904Y-97379819D02*
X133007142Y-97332200D01*
X133007142Y-97332200D02*
X133054761Y-97284580D01*
X133233333Y-89734580D02*
X133185714Y-89782200D01*
X133185714Y-89782200D02*
X133042857Y-89829819D01*
X133042857Y-89829819D02*
X132947619Y-89829819D01*
X132947619Y-89829819D02*
X132804762Y-89782200D01*
X132804762Y-89782200D02*
X132709524Y-89686961D01*
X132709524Y-89686961D02*
X132661905Y-89591723D01*
X132661905Y-89591723D02*
X132614286Y-89401247D01*
X132614286Y-89401247D02*
X132614286Y-89258390D01*
X132614286Y-89258390D02*
X132661905Y-89067914D01*
X132661905Y-89067914D02*
X132709524Y-88972676D01*
X132709524Y-88972676D02*
X132804762Y-88877438D01*
X132804762Y-88877438D02*
X132947619Y-88829819D01*
X132947619Y-88829819D02*
X133042857Y-88829819D01*
X133042857Y-88829819D02*
X133185714Y-88877438D01*
X133185714Y-88877438D02*
X133233333Y-88925057D01*
X133709524Y-89829819D02*
X133900000Y-89829819D01*
X133900000Y-89829819D02*
X133995238Y-89782200D01*
X133995238Y-89782200D02*
X134042857Y-89734580D01*
X134042857Y-89734580D02*
X134138095Y-89591723D01*
X134138095Y-89591723D02*
X134185714Y-89401247D01*
X134185714Y-89401247D02*
X134185714Y-89020295D01*
X134185714Y-89020295D02*
X134138095Y-88925057D01*
X134138095Y-88925057D02*
X134090476Y-88877438D01*
X134090476Y-88877438D02*
X133995238Y-88829819D01*
X133995238Y-88829819D02*
X133804762Y-88829819D01*
X133804762Y-88829819D02*
X133709524Y-88877438D01*
X133709524Y-88877438D02*
X133661905Y-88925057D01*
X133661905Y-88925057D02*
X133614286Y-89020295D01*
X133614286Y-89020295D02*
X133614286Y-89258390D01*
X133614286Y-89258390D02*
X133661905Y-89353628D01*
X133661905Y-89353628D02*
X133709524Y-89401247D01*
X133709524Y-89401247D02*
X133804762Y-89448866D01*
X133804762Y-89448866D02*
X133995238Y-89448866D01*
X133995238Y-89448866D02*
X134090476Y-89401247D01*
X134090476Y-89401247D02*
X134138095Y-89353628D01*
X134138095Y-89353628D02*
X134185714Y-89258390D01*
X131583333Y-89954819D02*
X131011905Y-89954819D01*
X131297619Y-89954819D02*
X131297619Y-88954819D01*
X131297619Y-88954819D02*
X131202381Y-89097676D01*
X131202381Y-89097676D02*
X131107143Y-89192914D01*
X131107143Y-89192914D02*
X131011905Y-89240533D01*
X132440476Y-89288152D02*
X132440476Y-89954819D01*
X132011905Y-89288152D02*
X132011905Y-89811961D01*
X132011905Y-89811961D02*
X132059524Y-89907200D01*
X132059524Y-89907200D02*
X132154762Y-89954819D01*
X132154762Y-89954819D02*
X132297619Y-89954819D01*
X132297619Y-89954819D02*
X132392857Y-89907200D01*
X132392857Y-89907200D02*
X132440476Y-89859580D01*
X147332142Y-111884580D02*
X147284523Y-111932200D01*
X147284523Y-111932200D02*
X147141666Y-111979819D01*
X147141666Y-111979819D02*
X147046428Y-111979819D01*
X147046428Y-111979819D02*
X146903571Y-111932200D01*
X146903571Y-111932200D02*
X146808333Y-111836961D01*
X146808333Y-111836961D02*
X146760714Y-111741723D01*
X146760714Y-111741723D02*
X146713095Y-111551247D01*
X146713095Y-111551247D02*
X146713095Y-111408390D01*
X146713095Y-111408390D02*
X146760714Y-111217914D01*
X146760714Y-111217914D02*
X146808333Y-111122676D01*
X146808333Y-111122676D02*
X146903571Y-111027438D01*
X146903571Y-111027438D02*
X147046428Y-110979819D01*
X147046428Y-110979819D02*
X147141666Y-110979819D01*
X147141666Y-110979819D02*
X147284523Y-111027438D01*
X147284523Y-111027438D02*
X147332142Y-111075057D01*
X148284523Y-111979819D02*
X147713095Y-111979819D01*
X147998809Y-111979819D02*
X147998809Y-110979819D01*
X147998809Y-110979819D02*
X147903571Y-111122676D01*
X147903571Y-111122676D02*
X147808333Y-111217914D01*
X147808333Y-111217914D02*
X147713095Y-111265533D01*
X148617857Y-110979819D02*
X149284523Y-110979819D01*
X149284523Y-110979819D02*
X148855952Y-111979819D01*
X150185714Y-110879819D02*
X150280952Y-110879819D01*
X150280952Y-110879819D02*
X150376190Y-110927438D01*
X150376190Y-110927438D02*
X150423809Y-110975057D01*
X150423809Y-110975057D02*
X150471428Y-111070295D01*
X150471428Y-111070295D02*
X150519047Y-111260771D01*
X150519047Y-111260771D02*
X150519047Y-111498866D01*
X150519047Y-111498866D02*
X150471428Y-111689342D01*
X150471428Y-111689342D02*
X150423809Y-111784580D01*
X150423809Y-111784580D02*
X150376190Y-111832200D01*
X150376190Y-111832200D02*
X150280952Y-111879819D01*
X150280952Y-111879819D02*
X150185714Y-111879819D01*
X150185714Y-111879819D02*
X150090476Y-111832200D01*
X150090476Y-111832200D02*
X150042857Y-111784580D01*
X150042857Y-111784580D02*
X149995238Y-111689342D01*
X149995238Y-111689342D02*
X149947619Y-111498866D01*
X149947619Y-111498866D02*
X149947619Y-111260771D01*
X149947619Y-111260771D02*
X149995238Y-111070295D01*
X149995238Y-111070295D02*
X150042857Y-110975057D01*
X150042857Y-110975057D02*
X150090476Y-110927438D01*
X150090476Y-110927438D02*
X150185714Y-110879819D01*
X150947619Y-111784580D02*
X150995238Y-111832200D01*
X150995238Y-111832200D02*
X150947619Y-111879819D01*
X150947619Y-111879819D02*
X150900000Y-111832200D01*
X150900000Y-111832200D02*
X150947619Y-111784580D01*
X150947619Y-111784580D02*
X150947619Y-111879819D01*
X151328571Y-110879819D02*
X151947618Y-110879819D01*
X151947618Y-110879819D02*
X151614285Y-111260771D01*
X151614285Y-111260771D02*
X151757142Y-111260771D01*
X151757142Y-111260771D02*
X151852380Y-111308390D01*
X151852380Y-111308390D02*
X151899999Y-111356009D01*
X151899999Y-111356009D02*
X151947618Y-111451247D01*
X151947618Y-111451247D02*
X151947618Y-111689342D01*
X151947618Y-111689342D02*
X151899999Y-111784580D01*
X151899999Y-111784580D02*
X151852380Y-111832200D01*
X151852380Y-111832200D02*
X151757142Y-111879819D01*
X151757142Y-111879819D02*
X151471428Y-111879819D01*
X151471428Y-111879819D02*
X151376190Y-111832200D01*
X151376190Y-111832200D02*
X151328571Y-111784580D01*
X152376190Y-111213152D02*
X152376190Y-112213152D01*
X152376190Y-111260771D02*
X152471428Y-111213152D01*
X152471428Y-111213152D02*
X152661904Y-111213152D01*
X152661904Y-111213152D02*
X152757142Y-111260771D01*
X152757142Y-111260771D02*
X152804761Y-111308390D01*
X152804761Y-111308390D02*
X152852380Y-111403628D01*
X152852380Y-111403628D02*
X152852380Y-111689342D01*
X152852380Y-111689342D02*
X152804761Y-111784580D01*
X152804761Y-111784580D02*
X152757142Y-111832200D01*
X152757142Y-111832200D02*
X152661904Y-111879819D01*
X152661904Y-111879819D02*
X152471428Y-111879819D01*
X152471428Y-111879819D02*
X152376190Y-111832200D01*
X143608333Y-98584580D02*
X143560714Y-98632200D01*
X143560714Y-98632200D02*
X143417857Y-98679819D01*
X143417857Y-98679819D02*
X143322619Y-98679819D01*
X143322619Y-98679819D02*
X143179762Y-98632200D01*
X143179762Y-98632200D02*
X143084524Y-98536961D01*
X143084524Y-98536961D02*
X143036905Y-98441723D01*
X143036905Y-98441723D02*
X142989286Y-98251247D01*
X142989286Y-98251247D02*
X142989286Y-98108390D01*
X142989286Y-98108390D02*
X143036905Y-97917914D01*
X143036905Y-97917914D02*
X143084524Y-97822676D01*
X143084524Y-97822676D02*
X143179762Y-97727438D01*
X143179762Y-97727438D02*
X143322619Y-97679819D01*
X143322619Y-97679819D02*
X143417857Y-97679819D01*
X143417857Y-97679819D02*
X143560714Y-97727438D01*
X143560714Y-97727438D02*
X143608333Y-97775057D01*
X143941667Y-97679819D02*
X144608333Y-97679819D01*
X144608333Y-97679819D02*
X144179762Y-98679819D01*
X145233333Y-100979819D02*
X144661905Y-100979819D01*
X144947619Y-100979819D02*
X144947619Y-99979819D01*
X144947619Y-99979819D02*
X144852381Y-100122676D01*
X144852381Y-100122676D02*
X144757143Y-100217914D01*
X144757143Y-100217914D02*
X144661905Y-100265533D01*
X146090476Y-100313152D02*
X146090476Y-100979819D01*
X145661905Y-100313152D02*
X145661905Y-100836961D01*
X145661905Y-100836961D02*
X145709524Y-100932200D01*
X145709524Y-100932200D02*
X145804762Y-100979819D01*
X145804762Y-100979819D02*
X145947619Y-100979819D01*
X145947619Y-100979819D02*
X146042857Y-100932200D01*
X146042857Y-100932200D02*
X146090476Y-100884580D01*
X141458333Y-92329819D02*
X141125000Y-91853628D01*
X140886905Y-92329819D02*
X140886905Y-91329819D01*
X140886905Y-91329819D02*
X141267857Y-91329819D01*
X141267857Y-91329819D02*
X141363095Y-91377438D01*
X141363095Y-91377438D02*
X141410714Y-91425057D01*
X141410714Y-91425057D02*
X141458333Y-91520295D01*
X141458333Y-91520295D02*
X141458333Y-91663152D01*
X141458333Y-91663152D02*
X141410714Y-91758390D01*
X141410714Y-91758390D02*
X141363095Y-91806009D01*
X141363095Y-91806009D02*
X141267857Y-91853628D01*
X141267857Y-91853628D02*
X140886905Y-91853628D01*
X141791667Y-91329819D02*
X142410714Y-91329819D01*
X142410714Y-91329819D02*
X142077381Y-91710771D01*
X142077381Y-91710771D02*
X142220238Y-91710771D01*
X142220238Y-91710771D02*
X142315476Y-91758390D01*
X142315476Y-91758390D02*
X142363095Y-91806009D01*
X142363095Y-91806009D02*
X142410714Y-91901247D01*
X142410714Y-91901247D02*
X142410714Y-92139342D01*
X142410714Y-92139342D02*
X142363095Y-92234580D01*
X142363095Y-92234580D02*
X142315476Y-92282200D01*
X142315476Y-92282200D02*
X142220238Y-92329819D01*
X142220238Y-92329819D02*
X141934524Y-92329819D01*
X141934524Y-92329819D02*
X141839286Y-92282200D01*
X141839286Y-92282200D02*
X141791667Y-92234580D01*
X140484523Y-93654819D02*
X139913095Y-93654819D01*
X140198809Y-93654819D02*
X140198809Y-92654819D01*
X140198809Y-92654819D02*
X140103571Y-92797676D01*
X140103571Y-92797676D02*
X140008333Y-92892914D01*
X140008333Y-92892914D02*
X139913095Y-92940533D01*
X141103571Y-92654819D02*
X141198809Y-92654819D01*
X141198809Y-92654819D02*
X141294047Y-92702438D01*
X141294047Y-92702438D02*
X141341666Y-92750057D01*
X141341666Y-92750057D02*
X141389285Y-92845295D01*
X141389285Y-92845295D02*
X141436904Y-93035771D01*
X141436904Y-93035771D02*
X141436904Y-93273866D01*
X141436904Y-93273866D02*
X141389285Y-93464342D01*
X141389285Y-93464342D02*
X141341666Y-93559580D01*
X141341666Y-93559580D02*
X141294047Y-93607200D01*
X141294047Y-93607200D02*
X141198809Y-93654819D01*
X141198809Y-93654819D02*
X141103571Y-93654819D01*
X141103571Y-93654819D02*
X141008333Y-93607200D01*
X141008333Y-93607200D02*
X140960714Y-93559580D01*
X140960714Y-93559580D02*
X140913095Y-93464342D01*
X140913095Y-93464342D02*
X140865476Y-93273866D01*
X140865476Y-93273866D02*
X140865476Y-93035771D01*
X140865476Y-93035771D02*
X140913095Y-92845295D01*
X140913095Y-92845295D02*
X140960714Y-92750057D01*
X140960714Y-92750057D02*
X141008333Y-92702438D01*
X141008333Y-92702438D02*
X141103571Y-92654819D01*
X141865476Y-93654819D02*
X141865476Y-92654819D01*
X142436904Y-93654819D02*
X142008333Y-93083390D01*
X142436904Y-92654819D02*
X141865476Y-93226247D01*
X133204819Y-97586904D02*
X134014342Y-97586904D01*
X134014342Y-97586904D02*
X134109580Y-97539285D01*
X134109580Y-97539285D02*
X134157200Y-97491666D01*
X134157200Y-97491666D02*
X134204819Y-97396428D01*
X134204819Y-97396428D02*
X134204819Y-97205952D01*
X134204819Y-97205952D02*
X134157200Y-97110714D01*
X134157200Y-97110714D02*
X134109580Y-97063095D01*
X134109580Y-97063095D02*
X134014342Y-97015476D01*
X134014342Y-97015476D02*
X133204819Y-97015476D01*
X134204819Y-96015476D02*
X134204819Y-96586904D01*
X134204819Y-96301190D02*
X133204819Y-96301190D01*
X133204819Y-96301190D02*
X133347676Y-96396428D01*
X133347676Y-96396428D02*
X133442914Y-96491666D01*
X133442914Y-96491666D02*
X133490533Y-96586904D01*
X147357142Y-109934580D02*
X147309523Y-109982200D01*
X147309523Y-109982200D02*
X147166666Y-110029819D01*
X147166666Y-110029819D02*
X147071428Y-110029819D01*
X147071428Y-110029819D02*
X146928571Y-109982200D01*
X146928571Y-109982200D02*
X146833333Y-109886961D01*
X146833333Y-109886961D02*
X146785714Y-109791723D01*
X146785714Y-109791723D02*
X146738095Y-109601247D01*
X146738095Y-109601247D02*
X146738095Y-109458390D01*
X146738095Y-109458390D02*
X146785714Y-109267914D01*
X146785714Y-109267914D02*
X146833333Y-109172676D01*
X146833333Y-109172676D02*
X146928571Y-109077438D01*
X146928571Y-109077438D02*
X147071428Y-109029819D01*
X147071428Y-109029819D02*
X147166666Y-109029819D01*
X147166666Y-109029819D02*
X147309523Y-109077438D01*
X147309523Y-109077438D02*
X147357142Y-109125057D01*
X148309523Y-110029819D02*
X147738095Y-110029819D01*
X148023809Y-110029819D02*
X148023809Y-109029819D01*
X148023809Y-109029819D02*
X147928571Y-109172676D01*
X147928571Y-109172676D02*
X147833333Y-109267914D01*
X147833333Y-109267914D02*
X147738095Y-109315533D01*
X148785714Y-110029819D02*
X148976190Y-110029819D01*
X148976190Y-110029819D02*
X149071428Y-109982200D01*
X149071428Y-109982200D02*
X149119047Y-109934580D01*
X149119047Y-109934580D02*
X149214285Y-109791723D01*
X149214285Y-109791723D02*
X149261904Y-109601247D01*
X149261904Y-109601247D02*
X149261904Y-109220295D01*
X149261904Y-109220295D02*
X149214285Y-109125057D01*
X149214285Y-109125057D02*
X149166666Y-109077438D01*
X149166666Y-109077438D02*
X149071428Y-109029819D01*
X149071428Y-109029819D02*
X148880952Y-109029819D01*
X148880952Y-109029819D02*
X148785714Y-109077438D01*
X148785714Y-109077438D02*
X148738095Y-109125057D01*
X148738095Y-109125057D02*
X148690476Y-109220295D01*
X148690476Y-109220295D02*
X148690476Y-109458390D01*
X148690476Y-109458390D02*
X148738095Y-109553628D01*
X148738095Y-109553628D02*
X148785714Y-109601247D01*
X148785714Y-109601247D02*
X148880952Y-109648866D01*
X148880952Y-109648866D02*
X149071428Y-109648866D01*
X149071428Y-109648866D02*
X149166666Y-109601247D01*
X149166666Y-109601247D02*
X149214285Y-109553628D01*
X149214285Y-109553628D02*
X149261904Y-109458390D01*
X150235714Y-109004819D02*
X150330952Y-109004819D01*
X150330952Y-109004819D02*
X150426190Y-109052438D01*
X150426190Y-109052438D02*
X150473809Y-109100057D01*
X150473809Y-109100057D02*
X150521428Y-109195295D01*
X150521428Y-109195295D02*
X150569047Y-109385771D01*
X150569047Y-109385771D02*
X150569047Y-109623866D01*
X150569047Y-109623866D02*
X150521428Y-109814342D01*
X150521428Y-109814342D02*
X150473809Y-109909580D01*
X150473809Y-109909580D02*
X150426190Y-109957200D01*
X150426190Y-109957200D02*
X150330952Y-110004819D01*
X150330952Y-110004819D02*
X150235714Y-110004819D01*
X150235714Y-110004819D02*
X150140476Y-109957200D01*
X150140476Y-109957200D02*
X150092857Y-109909580D01*
X150092857Y-109909580D02*
X150045238Y-109814342D01*
X150045238Y-109814342D02*
X149997619Y-109623866D01*
X149997619Y-109623866D02*
X149997619Y-109385771D01*
X149997619Y-109385771D02*
X150045238Y-109195295D01*
X150045238Y-109195295D02*
X150092857Y-109100057D01*
X150092857Y-109100057D02*
X150140476Y-109052438D01*
X150140476Y-109052438D02*
X150235714Y-109004819D01*
X150997619Y-109909580D02*
X151045238Y-109957200D01*
X151045238Y-109957200D02*
X150997619Y-110004819D01*
X150997619Y-110004819D02*
X150950000Y-109957200D01*
X150950000Y-109957200D02*
X150997619Y-109909580D01*
X150997619Y-109909580D02*
X150997619Y-110004819D01*
X151426190Y-109100057D02*
X151473809Y-109052438D01*
X151473809Y-109052438D02*
X151569047Y-109004819D01*
X151569047Y-109004819D02*
X151807142Y-109004819D01*
X151807142Y-109004819D02*
X151902380Y-109052438D01*
X151902380Y-109052438D02*
X151949999Y-109100057D01*
X151949999Y-109100057D02*
X151997618Y-109195295D01*
X151997618Y-109195295D02*
X151997618Y-109290533D01*
X151997618Y-109290533D02*
X151949999Y-109433390D01*
X151949999Y-109433390D02*
X151378571Y-110004819D01*
X151378571Y-110004819D02*
X151997618Y-110004819D01*
X152426190Y-109338152D02*
X152426190Y-110338152D01*
X152426190Y-109385771D02*
X152521428Y-109338152D01*
X152521428Y-109338152D02*
X152711904Y-109338152D01*
X152711904Y-109338152D02*
X152807142Y-109385771D01*
X152807142Y-109385771D02*
X152854761Y-109433390D01*
X152854761Y-109433390D02*
X152902380Y-109528628D01*
X152902380Y-109528628D02*
X152902380Y-109814342D01*
X152902380Y-109814342D02*
X152854761Y-109909580D01*
X152854761Y-109909580D02*
X152807142Y-109957200D01*
X152807142Y-109957200D02*
X152711904Y-110004819D01*
X152711904Y-110004819D02*
X152521428Y-110004819D01*
X152521428Y-110004819D02*
X152426190Y-109957200D01*
X133682142Y-111784580D02*
X133634523Y-111832200D01*
X133634523Y-111832200D02*
X133491666Y-111879819D01*
X133491666Y-111879819D02*
X133396428Y-111879819D01*
X133396428Y-111879819D02*
X133253571Y-111832200D01*
X133253571Y-111832200D02*
X133158333Y-111736961D01*
X133158333Y-111736961D02*
X133110714Y-111641723D01*
X133110714Y-111641723D02*
X133063095Y-111451247D01*
X133063095Y-111451247D02*
X133063095Y-111308390D01*
X133063095Y-111308390D02*
X133110714Y-111117914D01*
X133110714Y-111117914D02*
X133158333Y-111022676D01*
X133158333Y-111022676D02*
X133253571Y-110927438D01*
X133253571Y-110927438D02*
X133396428Y-110879819D01*
X133396428Y-110879819D02*
X133491666Y-110879819D01*
X133491666Y-110879819D02*
X133634523Y-110927438D01*
X133634523Y-110927438D02*
X133682142Y-110975057D01*
X134634523Y-111879819D02*
X134063095Y-111879819D01*
X134348809Y-111879819D02*
X134348809Y-110879819D01*
X134348809Y-110879819D02*
X134253571Y-111022676D01*
X134253571Y-111022676D02*
X134158333Y-111117914D01*
X134158333Y-111117914D02*
X134063095Y-111165533D01*
X135205952Y-111308390D02*
X135110714Y-111260771D01*
X135110714Y-111260771D02*
X135063095Y-111213152D01*
X135063095Y-111213152D02*
X135015476Y-111117914D01*
X135015476Y-111117914D02*
X135015476Y-111070295D01*
X135015476Y-111070295D02*
X135063095Y-110975057D01*
X135063095Y-110975057D02*
X135110714Y-110927438D01*
X135110714Y-110927438D02*
X135205952Y-110879819D01*
X135205952Y-110879819D02*
X135396428Y-110879819D01*
X135396428Y-110879819D02*
X135491666Y-110927438D01*
X135491666Y-110927438D02*
X135539285Y-110975057D01*
X135539285Y-110975057D02*
X135586904Y-111070295D01*
X135586904Y-111070295D02*
X135586904Y-111117914D01*
X135586904Y-111117914D02*
X135539285Y-111213152D01*
X135539285Y-111213152D02*
X135491666Y-111260771D01*
X135491666Y-111260771D02*
X135396428Y-111308390D01*
X135396428Y-111308390D02*
X135205952Y-111308390D01*
X135205952Y-111308390D02*
X135110714Y-111356009D01*
X135110714Y-111356009D02*
X135063095Y-111403628D01*
X135063095Y-111403628D02*
X135015476Y-111498866D01*
X135015476Y-111498866D02*
X135015476Y-111689342D01*
X135015476Y-111689342D02*
X135063095Y-111784580D01*
X135063095Y-111784580D02*
X135110714Y-111832200D01*
X135110714Y-111832200D02*
X135205952Y-111879819D01*
X135205952Y-111879819D02*
X135396428Y-111879819D01*
X135396428Y-111879819D02*
X135491666Y-111832200D01*
X135491666Y-111832200D02*
X135539285Y-111784580D01*
X135539285Y-111784580D02*
X135586904Y-111689342D01*
X135586904Y-111689342D02*
X135586904Y-111498866D01*
X135586904Y-111498866D02*
X135539285Y-111403628D01*
X135539285Y-111403628D02*
X135491666Y-111356009D01*
X135491666Y-111356009D02*
X135396428Y-111308390D01*
X128634524Y-110854819D02*
X128729762Y-110854819D01*
X128729762Y-110854819D02*
X128825000Y-110902438D01*
X128825000Y-110902438D02*
X128872619Y-110950057D01*
X128872619Y-110950057D02*
X128920238Y-111045295D01*
X128920238Y-111045295D02*
X128967857Y-111235771D01*
X128967857Y-111235771D02*
X128967857Y-111473866D01*
X128967857Y-111473866D02*
X128920238Y-111664342D01*
X128920238Y-111664342D02*
X128872619Y-111759580D01*
X128872619Y-111759580D02*
X128825000Y-111807200D01*
X128825000Y-111807200D02*
X128729762Y-111854819D01*
X128729762Y-111854819D02*
X128634524Y-111854819D01*
X128634524Y-111854819D02*
X128539286Y-111807200D01*
X128539286Y-111807200D02*
X128491667Y-111759580D01*
X128491667Y-111759580D02*
X128444048Y-111664342D01*
X128444048Y-111664342D02*
X128396429Y-111473866D01*
X128396429Y-111473866D02*
X128396429Y-111235771D01*
X128396429Y-111235771D02*
X128444048Y-111045295D01*
X128444048Y-111045295D02*
X128491667Y-110950057D01*
X128491667Y-110950057D02*
X128539286Y-110902438D01*
X128539286Y-110902438D02*
X128634524Y-110854819D01*
X129396429Y-111759580D02*
X129444048Y-111807200D01*
X129444048Y-111807200D02*
X129396429Y-111854819D01*
X129396429Y-111854819D02*
X129348810Y-111807200D01*
X129348810Y-111807200D02*
X129396429Y-111759580D01*
X129396429Y-111759580D02*
X129396429Y-111854819D01*
X129777381Y-110854819D02*
X130396428Y-110854819D01*
X130396428Y-110854819D02*
X130063095Y-111235771D01*
X130063095Y-111235771D02*
X130205952Y-111235771D01*
X130205952Y-111235771D02*
X130301190Y-111283390D01*
X130301190Y-111283390D02*
X130348809Y-111331009D01*
X130348809Y-111331009D02*
X130396428Y-111426247D01*
X130396428Y-111426247D02*
X130396428Y-111664342D01*
X130396428Y-111664342D02*
X130348809Y-111759580D01*
X130348809Y-111759580D02*
X130301190Y-111807200D01*
X130301190Y-111807200D02*
X130205952Y-111854819D01*
X130205952Y-111854819D02*
X129920238Y-111854819D01*
X129920238Y-111854819D02*
X129825000Y-111807200D01*
X129825000Y-111807200D02*
X129777381Y-111759580D01*
X131253571Y-110854819D02*
X131063095Y-110854819D01*
X131063095Y-110854819D02*
X130967857Y-110902438D01*
X130967857Y-110902438D02*
X130920238Y-110950057D01*
X130920238Y-110950057D02*
X130825000Y-111092914D01*
X130825000Y-111092914D02*
X130777381Y-111283390D01*
X130777381Y-111283390D02*
X130777381Y-111664342D01*
X130777381Y-111664342D02*
X130825000Y-111759580D01*
X130825000Y-111759580D02*
X130872619Y-111807200D01*
X130872619Y-111807200D02*
X130967857Y-111854819D01*
X130967857Y-111854819D02*
X131158333Y-111854819D01*
X131158333Y-111854819D02*
X131253571Y-111807200D01*
X131253571Y-111807200D02*
X131301190Y-111759580D01*
X131301190Y-111759580D02*
X131348809Y-111664342D01*
X131348809Y-111664342D02*
X131348809Y-111426247D01*
X131348809Y-111426247D02*
X131301190Y-111331009D01*
X131301190Y-111331009D02*
X131253571Y-111283390D01*
X131253571Y-111283390D02*
X131158333Y-111235771D01*
X131158333Y-111235771D02*
X130967857Y-111235771D01*
X130967857Y-111235771D02*
X130872619Y-111283390D01*
X130872619Y-111283390D02*
X130825000Y-111331009D01*
X130825000Y-111331009D02*
X130777381Y-111426247D01*
X131777381Y-111188152D02*
X131777381Y-112188152D01*
X131777381Y-111235771D02*
X131872619Y-111188152D01*
X131872619Y-111188152D02*
X132063095Y-111188152D01*
X132063095Y-111188152D02*
X132158333Y-111235771D01*
X132158333Y-111235771D02*
X132205952Y-111283390D01*
X132205952Y-111283390D02*
X132253571Y-111378628D01*
X132253571Y-111378628D02*
X132253571Y-111664342D01*
X132253571Y-111664342D02*
X132205952Y-111759580D01*
X132205952Y-111759580D02*
X132158333Y-111807200D01*
X132158333Y-111807200D02*
X132063095Y-111854819D01*
X132063095Y-111854819D02*
X131872619Y-111854819D01*
X131872619Y-111854819D02*
X131777381Y-111807200D01*
X146508333Y-90909580D02*
X146460714Y-90957200D01*
X146460714Y-90957200D02*
X146317857Y-91004819D01*
X146317857Y-91004819D02*
X146222619Y-91004819D01*
X146222619Y-91004819D02*
X146079762Y-90957200D01*
X146079762Y-90957200D02*
X145984524Y-90861961D01*
X145984524Y-90861961D02*
X145936905Y-90766723D01*
X145936905Y-90766723D02*
X145889286Y-90576247D01*
X145889286Y-90576247D02*
X145889286Y-90433390D01*
X145889286Y-90433390D02*
X145936905Y-90242914D01*
X145936905Y-90242914D02*
X145984524Y-90147676D01*
X145984524Y-90147676D02*
X146079762Y-90052438D01*
X146079762Y-90052438D02*
X146222619Y-90004819D01*
X146222619Y-90004819D02*
X146317857Y-90004819D01*
X146317857Y-90004819D02*
X146460714Y-90052438D01*
X146460714Y-90052438D02*
X146508333Y-90100057D01*
X147460714Y-91004819D02*
X146889286Y-91004819D01*
X147175000Y-91004819D02*
X147175000Y-90004819D01*
X147175000Y-90004819D02*
X147079762Y-90147676D01*
X147079762Y-90147676D02*
X146984524Y-90242914D01*
X146984524Y-90242914D02*
X146889286Y-90290533D01*
X148857142Y-90929819D02*
X148285714Y-90929819D01*
X148571428Y-90929819D02*
X148571428Y-89929819D01*
X148571428Y-89929819D02*
X148476190Y-90072676D01*
X148476190Y-90072676D02*
X148380952Y-90167914D01*
X148380952Y-90167914D02*
X148285714Y-90215533D01*
X149428571Y-90358390D02*
X149333333Y-90310771D01*
X149333333Y-90310771D02*
X149285714Y-90263152D01*
X149285714Y-90263152D02*
X149238095Y-90167914D01*
X149238095Y-90167914D02*
X149238095Y-90120295D01*
X149238095Y-90120295D02*
X149285714Y-90025057D01*
X149285714Y-90025057D02*
X149333333Y-89977438D01*
X149333333Y-89977438D02*
X149428571Y-89929819D01*
X149428571Y-89929819D02*
X149619047Y-89929819D01*
X149619047Y-89929819D02*
X149714285Y-89977438D01*
X149714285Y-89977438D02*
X149761904Y-90025057D01*
X149761904Y-90025057D02*
X149809523Y-90120295D01*
X149809523Y-90120295D02*
X149809523Y-90167914D01*
X149809523Y-90167914D02*
X149761904Y-90263152D01*
X149761904Y-90263152D02*
X149714285Y-90310771D01*
X149714285Y-90310771D02*
X149619047Y-90358390D01*
X149619047Y-90358390D02*
X149428571Y-90358390D01*
X149428571Y-90358390D02*
X149333333Y-90406009D01*
X149333333Y-90406009D02*
X149285714Y-90453628D01*
X149285714Y-90453628D02*
X149238095Y-90548866D01*
X149238095Y-90548866D02*
X149238095Y-90739342D01*
X149238095Y-90739342D02*
X149285714Y-90834580D01*
X149285714Y-90834580D02*
X149333333Y-90882200D01*
X149333333Y-90882200D02*
X149428571Y-90929819D01*
X149428571Y-90929819D02*
X149619047Y-90929819D01*
X149619047Y-90929819D02*
X149714285Y-90882200D01*
X149714285Y-90882200D02*
X149761904Y-90834580D01*
X149761904Y-90834580D02*
X149809523Y-90739342D01*
X149809523Y-90739342D02*
X149809523Y-90548866D01*
X149809523Y-90548866D02*
X149761904Y-90453628D01*
X149761904Y-90453628D02*
X149714285Y-90406009D01*
X149714285Y-90406009D02*
X149619047Y-90358390D01*
X150238095Y-90263152D02*
X150238095Y-91263152D01*
X150238095Y-90310771D02*
X150333333Y-90263152D01*
X150333333Y-90263152D02*
X150523809Y-90263152D01*
X150523809Y-90263152D02*
X150619047Y-90310771D01*
X150619047Y-90310771D02*
X150666666Y-90358390D01*
X150666666Y-90358390D02*
X150714285Y-90453628D01*
X150714285Y-90453628D02*
X150714285Y-90739342D01*
X150714285Y-90739342D02*
X150666666Y-90834580D01*
X150666666Y-90834580D02*
X150619047Y-90882200D01*
X150619047Y-90882200D02*
X150523809Y-90929819D01*
X150523809Y-90929819D02*
X150333333Y-90929819D01*
X150333333Y-90929819D02*
X150238095Y-90882200D01*
X143133333Y-88729819D02*
X142800000Y-88253628D01*
X142561905Y-88729819D02*
X142561905Y-87729819D01*
X142561905Y-87729819D02*
X142942857Y-87729819D01*
X142942857Y-87729819D02*
X143038095Y-87777438D01*
X143038095Y-87777438D02*
X143085714Y-87825057D01*
X143085714Y-87825057D02*
X143133333Y-87920295D01*
X143133333Y-87920295D02*
X143133333Y-88063152D01*
X143133333Y-88063152D02*
X143085714Y-88158390D01*
X143085714Y-88158390D02*
X143038095Y-88206009D01*
X143038095Y-88206009D02*
X142942857Y-88253628D01*
X142942857Y-88253628D02*
X142561905Y-88253628D01*
X143990476Y-88063152D02*
X143990476Y-88729819D01*
X143752381Y-87682200D02*
X143514286Y-88396485D01*
X143514286Y-88396485D02*
X144133333Y-88396485D01*
X142913095Y-89238152D02*
X142913095Y-89904819D01*
X142675000Y-88857200D02*
X142436905Y-89571485D01*
X142436905Y-89571485D02*
X143055952Y-89571485D01*
X143341667Y-88904819D02*
X144008333Y-88904819D01*
X144008333Y-88904819D02*
X143579762Y-89904819D01*
X144579762Y-88904819D02*
X144675000Y-88904819D01*
X144675000Y-88904819D02*
X144770238Y-88952438D01*
X144770238Y-88952438D02*
X144817857Y-89000057D01*
X144817857Y-89000057D02*
X144865476Y-89095295D01*
X144865476Y-89095295D02*
X144913095Y-89285771D01*
X144913095Y-89285771D02*
X144913095Y-89523866D01*
X144913095Y-89523866D02*
X144865476Y-89714342D01*
X144865476Y-89714342D02*
X144817857Y-89809580D01*
X144817857Y-89809580D02*
X144770238Y-89857200D01*
X144770238Y-89857200D02*
X144675000Y-89904819D01*
X144675000Y-89904819D02*
X144579762Y-89904819D01*
X144579762Y-89904819D02*
X144484524Y-89857200D01*
X144484524Y-89857200D02*
X144436905Y-89809580D01*
X144436905Y-89809580D02*
X144389286Y-89714342D01*
X144389286Y-89714342D02*
X144341667Y-89523866D01*
X144341667Y-89523866D02*
X144341667Y-89285771D01*
X144341667Y-89285771D02*
X144389286Y-89095295D01*
X144389286Y-89095295D02*
X144436905Y-89000057D01*
X144436905Y-89000057D02*
X144484524Y-88952438D01*
X144484524Y-88952438D02*
X144579762Y-88904819D01*
X139433333Y-89134580D02*
X139385714Y-89182200D01*
X139385714Y-89182200D02*
X139242857Y-89229819D01*
X139242857Y-89229819D02*
X139147619Y-89229819D01*
X139147619Y-89229819D02*
X139004762Y-89182200D01*
X139004762Y-89182200D02*
X138909524Y-89086961D01*
X138909524Y-89086961D02*
X138861905Y-88991723D01*
X138861905Y-88991723D02*
X138814286Y-88801247D01*
X138814286Y-88801247D02*
X138814286Y-88658390D01*
X138814286Y-88658390D02*
X138861905Y-88467914D01*
X138861905Y-88467914D02*
X138909524Y-88372676D01*
X138909524Y-88372676D02*
X139004762Y-88277438D01*
X139004762Y-88277438D02*
X139147619Y-88229819D01*
X139147619Y-88229819D02*
X139242857Y-88229819D01*
X139242857Y-88229819D02*
X139385714Y-88277438D01*
X139385714Y-88277438D02*
X139433333Y-88325057D01*
X140004762Y-88658390D02*
X139909524Y-88610771D01*
X139909524Y-88610771D02*
X139861905Y-88563152D01*
X139861905Y-88563152D02*
X139814286Y-88467914D01*
X139814286Y-88467914D02*
X139814286Y-88420295D01*
X139814286Y-88420295D02*
X139861905Y-88325057D01*
X139861905Y-88325057D02*
X139909524Y-88277438D01*
X139909524Y-88277438D02*
X140004762Y-88229819D01*
X140004762Y-88229819D02*
X140195238Y-88229819D01*
X140195238Y-88229819D02*
X140290476Y-88277438D01*
X140290476Y-88277438D02*
X140338095Y-88325057D01*
X140338095Y-88325057D02*
X140385714Y-88420295D01*
X140385714Y-88420295D02*
X140385714Y-88467914D01*
X140385714Y-88467914D02*
X140338095Y-88563152D01*
X140338095Y-88563152D02*
X140290476Y-88610771D01*
X140290476Y-88610771D02*
X140195238Y-88658390D01*
X140195238Y-88658390D02*
X140004762Y-88658390D01*
X140004762Y-88658390D02*
X139909524Y-88706009D01*
X139909524Y-88706009D02*
X139861905Y-88753628D01*
X139861905Y-88753628D02*
X139814286Y-88848866D01*
X139814286Y-88848866D02*
X139814286Y-89039342D01*
X139814286Y-89039342D02*
X139861905Y-89134580D01*
X139861905Y-89134580D02*
X139909524Y-89182200D01*
X139909524Y-89182200D02*
X140004762Y-89229819D01*
X140004762Y-89229819D02*
X140195238Y-89229819D01*
X140195238Y-89229819D02*
X140290476Y-89182200D01*
X140290476Y-89182200D02*
X140338095Y-89134580D01*
X140338095Y-89134580D02*
X140385714Y-89039342D01*
X140385714Y-89039342D02*
X140385714Y-88848866D01*
X140385714Y-88848866D02*
X140338095Y-88753628D01*
X140338095Y-88753628D02*
X140290476Y-88706009D01*
X140290476Y-88706009D02*
X140195238Y-88658390D01*
X139430952Y-88004819D02*
X138859524Y-88004819D01*
X139145238Y-88004819D02*
X139145238Y-87004819D01*
X139145238Y-87004819D02*
X139050000Y-87147676D01*
X139050000Y-87147676D02*
X138954762Y-87242914D01*
X138954762Y-87242914D02*
X138859524Y-87290533D01*
X140050000Y-87004819D02*
X140145238Y-87004819D01*
X140145238Y-87004819D02*
X140240476Y-87052438D01*
X140240476Y-87052438D02*
X140288095Y-87100057D01*
X140288095Y-87100057D02*
X140335714Y-87195295D01*
X140335714Y-87195295D02*
X140383333Y-87385771D01*
X140383333Y-87385771D02*
X140383333Y-87623866D01*
X140383333Y-87623866D02*
X140335714Y-87814342D01*
X140335714Y-87814342D02*
X140288095Y-87909580D01*
X140288095Y-87909580D02*
X140240476Y-87957200D01*
X140240476Y-87957200D02*
X140145238Y-88004819D01*
X140145238Y-88004819D02*
X140050000Y-88004819D01*
X140050000Y-88004819D02*
X139954762Y-87957200D01*
X139954762Y-87957200D02*
X139907143Y-87909580D01*
X139907143Y-87909580D02*
X139859524Y-87814342D01*
X139859524Y-87814342D02*
X139811905Y-87623866D01*
X139811905Y-87623866D02*
X139811905Y-87385771D01*
X139811905Y-87385771D02*
X139859524Y-87195295D01*
X139859524Y-87195295D02*
X139907143Y-87100057D01*
X139907143Y-87100057D02*
X139954762Y-87052438D01*
X139954762Y-87052438D02*
X140050000Y-87004819D01*
X141002381Y-87004819D02*
X141097619Y-87004819D01*
X141097619Y-87004819D02*
X141192857Y-87052438D01*
X141192857Y-87052438D02*
X141240476Y-87100057D01*
X141240476Y-87100057D02*
X141288095Y-87195295D01*
X141288095Y-87195295D02*
X141335714Y-87385771D01*
X141335714Y-87385771D02*
X141335714Y-87623866D01*
X141335714Y-87623866D02*
X141288095Y-87814342D01*
X141288095Y-87814342D02*
X141240476Y-87909580D01*
X141240476Y-87909580D02*
X141192857Y-87957200D01*
X141192857Y-87957200D02*
X141097619Y-88004819D01*
X141097619Y-88004819D02*
X141002381Y-88004819D01*
X141002381Y-88004819D02*
X140907143Y-87957200D01*
X140907143Y-87957200D02*
X140859524Y-87909580D01*
X140859524Y-87909580D02*
X140811905Y-87814342D01*
X140811905Y-87814342D02*
X140764286Y-87623866D01*
X140764286Y-87623866D02*
X140764286Y-87385771D01*
X140764286Y-87385771D02*
X140811905Y-87195295D01*
X140811905Y-87195295D02*
X140859524Y-87100057D01*
X140859524Y-87100057D02*
X140907143Y-87052438D01*
X140907143Y-87052438D02*
X141002381Y-87004819D01*
X141764286Y-87338152D02*
X141764286Y-88004819D01*
X141764286Y-87433390D02*
X141811905Y-87385771D01*
X141811905Y-87385771D02*
X141907143Y-87338152D01*
X141907143Y-87338152D02*
X142050000Y-87338152D01*
X142050000Y-87338152D02*
X142145238Y-87385771D01*
X142145238Y-87385771D02*
X142192857Y-87481009D01*
X142192857Y-87481009D02*
X142192857Y-88004819D01*
X133233333Y-88084580D02*
X133185714Y-88132200D01*
X133185714Y-88132200D02*
X133042857Y-88179819D01*
X133042857Y-88179819D02*
X132947619Y-88179819D01*
X132947619Y-88179819D02*
X132804762Y-88132200D01*
X132804762Y-88132200D02*
X132709524Y-88036961D01*
X132709524Y-88036961D02*
X132661905Y-87941723D01*
X132661905Y-87941723D02*
X132614286Y-87751247D01*
X132614286Y-87751247D02*
X132614286Y-87608390D01*
X132614286Y-87608390D02*
X132661905Y-87417914D01*
X132661905Y-87417914D02*
X132709524Y-87322676D01*
X132709524Y-87322676D02*
X132804762Y-87227438D01*
X132804762Y-87227438D02*
X132947619Y-87179819D01*
X132947619Y-87179819D02*
X133042857Y-87179819D01*
X133042857Y-87179819D02*
X133185714Y-87227438D01*
X133185714Y-87227438D02*
X133233333Y-87275057D01*
X134138095Y-87179819D02*
X133661905Y-87179819D01*
X133661905Y-87179819D02*
X133614286Y-87656009D01*
X133614286Y-87656009D02*
X133661905Y-87608390D01*
X133661905Y-87608390D02*
X133757143Y-87560771D01*
X133757143Y-87560771D02*
X133995238Y-87560771D01*
X133995238Y-87560771D02*
X134090476Y-87608390D01*
X134090476Y-87608390D02*
X134138095Y-87656009D01*
X134138095Y-87656009D02*
X134185714Y-87751247D01*
X134185714Y-87751247D02*
X134185714Y-87989342D01*
X134185714Y-87989342D02*
X134138095Y-88084580D01*
X134138095Y-88084580D02*
X134090476Y-88132200D01*
X134090476Y-88132200D02*
X133995238Y-88179819D01*
X133995238Y-88179819D02*
X133757143Y-88179819D01*
X133757143Y-88179819D02*
X133661905Y-88132200D01*
X133661905Y-88132200D02*
X133614286Y-88084580D01*
X131723809Y-86263152D02*
X131723809Y-86929819D01*
X131485714Y-85882200D02*
X131247619Y-86596485D01*
X131247619Y-86596485D02*
X131866666Y-86596485D01*
X132247619Y-86834580D02*
X132295238Y-86882200D01*
X132295238Y-86882200D02*
X132247619Y-86929819D01*
X132247619Y-86929819D02*
X132200000Y-86882200D01*
X132200000Y-86882200D02*
X132247619Y-86834580D01*
X132247619Y-86834580D02*
X132247619Y-86929819D01*
X132628571Y-85929819D02*
X133295237Y-85929819D01*
X133295237Y-85929819D02*
X132866666Y-86929819D01*
X134104761Y-86263152D02*
X134104761Y-86929819D01*
X133676190Y-86263152D02*
X133676190Y-86786961D01*
X133676190Y-86786961D02*
X133723809Y-86882200D01*
X133723809Y-86882200D02*
X133819047Y-86929819D01*
X133819047Y-86929819D02*
X133961904Y-86929819D01*
X133961904Y-86929819D02*
X134057142Y-86882200D01*
X134057142Y-86882200D02*
X134104761Y-86834580D01*
X131658333Y-101179819D02*
X131325000Y-100703628D01*
X131086905Y-101179819D02*
X131086905Y-100179819D01*
X131086905Y-100179819D02*
X131467857Y-100179819D01*
X131467857Y-100179819D02*
X131563095Y-100227438D01*
X131563095Y-100227438D02*
X131610714Y-100275057D01*
X131610714Y-100275057D02*
X131658333Y-100370295D01*
X131658333Y-100370295D02*
X131658333Y-100513152D01*
X131658333Y-100513152D02*
X131610714Y-100608390D01*
X131610714Y-100608390D02*
X131563095Y-100656009D01*
X131563095Y-100656009D02*
X131467857Y-100703628D01*
X131467857Y-100703628D02*
X131086905Y-100703628D01*
X132563095Y-100179819D02*
X132086905Y-100179819D01*
X132086905Y-100179819D02*
X132039286Y-100656009D01*
X132039286Y-100656009D02*
X132086905Y-100608390D01*
X132086905Y-100608390D02*
X132182143Y-100560771D01*
X132182143Y-100560771D02*
X132420238Y-100560771D01*
X132420238Y-100560771D02*
X132515476Y-100608390D01*
X132515476Y-100608390D02*
X132563095Y-100656009D01*
X132563095Y-100656009D02*
X132610714Y-100751247D01*
X132610714Y-100751247D02*
X132610714Y-100989342D01*
X132610714Y-100989342D02*
X132563095Y-101084580D01*
X132563095Y-101084580D02*
X132515476Y-101132200D01*
X132515476Y-101132200D02*
X132420238Y-101179819D01*
X132420238Y-101179819D02*
X132182143Y-101179819D01*
X132182143Y-101179819D02*
X132086905Y-101132200D01*
X132086905Y-101132200D02*
X132039286Y-101084580D01*
X129113095Y-100275057D02*
X129160714Y-100227438D01*
X129160714Y-100227438D02*
X129255952Y-100179819D01*
X129255952Y-100179819D02*
X129494047Y-100179819D01*
X129494047Y-100179819D02*
X129589285Y-100227438D01*
X129589285Y-100227438D02*
X129636904Y-100275057D01*
X129636904Y-100275057D02*
X129684523Y-100370295D01*
X129684523Y-100370295D02*
X129684523Y-100465533D01*
X129684523Y-100465533D02*
X129636904Y-100608390D01*
X129636904Y-100608390D02*
X129065476Y-101179819D01*
X129065476Y-101179819D02*
X129684523Y-101179819D01*
X130065476Y-100275057D02*
X130113095Y-100227438D01*
X130113095Y-100227438D02*
X130208333Y-100179819D01*
X130208333Y-100179819D02*
X130446428Y-100179819D01*
X130446428Y-100179819D02*
X130541666Y-100227438D01*
X130541666Y-100227438D02*
X130589285Y-100275057D01*
X130589285Y-100275057D02*
X130636904Y-100370295D01*
X130636904Y-100370295D02*
X130636904Y-100465533D01*
X130636904Y-100465533D02*
X130589285Y-100608390D01*
X130589285Y-100608390D02*
X130017857Y-101179819D01*
X130017857Y-101179819D02*
X130636904Y-101179819D01*
X143808333Y-91154819D02*
X143475000Y-90678628D01*
X143236905Y-91154819D02*
X143236905Y-90154819D01*
X143236905Y-90154819D02*
X143617857Y-90154819D01*
X143617857Y-90154819D02*
X143713095Y-90202438D01*
X143713095Y-90202438D02*
X143760714Y-90250057D01*
X143760714Y-90250057D02*
X143808333Y-90345295D01*
X143808333Y-90345295D02*
X143808333Y-90488152D01*
X143808333Y-90488152D02*
X143760714Y-90583390D01*
X143760714Y-90583390D02*
X143713095Y-90631009D01*
X143713095Y-90631009D02*
X143617857Y-90678628D01*
X143617857Y-90678628D02*
X143236905Y-90678628D01*
X144760714Y-91154819D02*
X144189286Y-91154819D01*
X144475000Y-91154819D02*
X144475000Y-90154819D01*
X144475000Y-90154819D02*
X144379762Y-90297676D01*
X144379762Y-90297676D02*
X144284524Y-90392914D01*
X144284524Y-90392914D02*
X144189286Y-90440533D01*
X143261905Y-92855057D02*
X143309524Y-92807438D01*
X143309524Y-92807438D02*
X143404762Y-92759819D01*
X143404762Y-92759819D02*
X143642857Y-92759819D01*
X143642857Y-92759819D02*
X143738095Y-92807438D01*
X143738095Y-92807438D02*
X143785714Y-92855057D01*
X143785714Y-92855057D02*
X143833333Y-92950295D01*
X143833333Y-92950295D02*
X143833333Y-93045533D01*
X143833333Y-93045533D02*
X143785714Y-93188390D01*
X143785714Y-93188390D02*
X143214286Y-93759819D01*
X143214286Y-93759819D02*
X143833333Y-93759819D01*
X144214286Y-92855057D02*
X144261905Y-92807438D01*
X144261905Y-92807438D02*
X144357143Y-92759819D01*
X144357143Y-92759819D02*
X144595238Y-92759819D01*
X144595238Y-92759819D02*
X144690476Y-92807438D01*
X144690476Y-92807438D02*
X144738095Y-92855057D01*
X144738095Y-92855057D02*
X144785714Y-92950295D01*
X144785714Y-92950295D02*
X144785714Y-93045533D01*
X144785714Y-93045533D02*
X144738095Y-93188390D01*
X144738095Y-93188390D02*
X144166667Y-93759819D01*
X144166667Y-93759819D02*
X144785714Y-93759819D01*
X145404762Y-92759819D02*
X145500000Y-92759819D01*
X145500000Y-92759819D02*
X145595238Y-92807438D01*
X145595238Y-92807438D02*
X145642857Y-92855057D01*
X145642857Y-92855057D02*
X145690476Y-92950295D01*
X145690476Y-92950295D02*
X145738095Y-93140771D01*
X145738095Y-93140771D02*
X145738095Y-93378866D01*
X145738095Y-93378866D02*
X145690476Y-93569342D01*
X145690476Y-93569342D02*
X145642857Y-93664580D01*
X145642857Y-93664580D02*
X145595238Y-93712200D01*
X145595238Y-93712200D02*
X145500000Y-93759819D01*
X145500000Y-93759819D02*
X145404762Y-93759819D01*
X145404762Y-93759819D02*
X145309524Y-93712200D01*
X145309524Y-93712200D02*
X145261905Y-93664580D01*
X145261905Y-93664580D02*
X145214286Y-93569342D01*
X145214286Y-93569342D02*
X145166667Y-93378866D01*
X145166667Y-93378866D02*
X145166667Y-93140771D01*
X145166667Y-93140771D02*
X145214286Y-92950295D01*
X145214286Y-92950295D02*
X145261905Y-92855057D01*
X145261905Y-92855057D02*
X145309524Y-92807438D01*
X145309524Y-92807438D02*
X145404762Y-92759819D01*
D12*
%TO.C,Y1*%
X148850000Y-92825000D02*
X146550000Y-92825000D01*
X146550000Y-92825000D02*
X146550000Y-95525000D01*
%TO.C,C13*%
X134465000Y-92065580D02*
X134465000Y-91784420D01*
X135485000Y-92065580D02*
X135485000Y-91784420D01*
%TO.C,C3*%
X140409420Y-99690000D02*
X140690580Y-99690000D01*
X140409420Y-100710000D02*
X140690580Y-100710000D01*
%TO.C,C20*%
X138957836Y-109565000D02*
X138742164Y-109565000D01*
X138957836Y-110285000D02*
X138742164Y-110285000D01*
%TO.C,J3*%
X151645000Y-95645000D02*
X152975000Y-95645000D01*
X151645000Y-96975000D02*
X151645000Y-95645000D01*
X151645000Y-98245000D02*
X151645000Y-100845000D01*
X151645000Y-98245000D02*
X154305000Y-98245000D01*
X151645000Y-100845000D02*
X154305000Y-100845000D01*
X154305000Y-98245000D02*
X154305000Y-100845000D01*
%TO.C,FB1*%
X141690000Y-97937779D02*
X141690000Y-97612221D01*
X142710000Y-97937779D02*
X142710000Y-97612221D01*
%TO.C,C6*%
X132915000Y-92065580D02*
X132915000Y-91784420D01*
X133935000Y-92065580D02*
X133935000Y-91784420D01*
%TO.C,FB2*%
X149187221Y-99015000D02*
X149512779Y-99015000D01*
X149187221Y-100035000D02*
X149512779Y-100035000D01*
%TO.C,R6*%
X152587742Y-90152500D02*
X153062258Y-90152500D01*
X152587742Y-91197500D02*
X153062258Y-91197500D01*
%TO.C,C16*%
X129165580Y-94990000D02*
X128884420Y-94990000D01*
X129165580Y-96010000D02*
X128884420Y-96010000D01*
%TO.C,C4*%
X140409420Y-101240000D02*
X140690580Y-101240000D01*
X140409420Y-102260000D02*
X140690580Y-102260000D01*
%TO.C,C14*%
X136015000Y-92065580D02*
X136015000Y-91784420D01*
X137035000Y-92065580D02*
X137035000Y-91784420D01*
%TO.C,C2*%
X148134420Y-97035000D02*
X148415580Y-97035000D01*
X148134420Y-96015000D02*
X148415580Y-96015000D01*
%TO.C,J2*%
X135500000Y-82770000D02*
X135500000Y-85430000D01*
X143180000Y-82770000D02*
X135500000Y-82770000D01*
X143180000Y-82770000D02*
X143180000Y-85430000D01*
X143180000Y-85430000D02*
X135500000Y-85430000D01*
X144450000Y-82770000D02*
X145780000Y-82770000D01*
X145780000Y-82770000D02*
X145780000Y-84100000D01*
%TO.C,L1*%
X137690000Y-100774721D02*
X137690000Y-101100279D01*
X138710000Y-100774721D02*
X138710000Y-101100279D01*
%TO.C,C10*%
X135265580Y-101565000D02*
X134984420Y-101565000D01*
X135265580Y-102585000D02*
X134984420Y-102585000D01*
%TO.C,J1*%
X145715000Y-86470000D02*
X145715000Y-89130000D01*
X150855000Y-86470000D02*
X145715000Y-86470000D01*
X150855000Y-86470000D02*
X150855000Y-89130000D01*
X150855000Y-89130000D02*
X145715000Y-89130000D01*
X152125000Y-86470000D02*
X153455000Y-86470000D01*
X153455000Y-86470000D02*
X153455000Y-87800000D01*
%TO.C,C11*%
X144384420Y-96515000D02*
X144665580Y-96515000D01*
X144384420Y-97535000D02*
X144665580Y-97535000D01*
%TO.C,R2*%
X143602500Y-102087742D02*
X143602500Y-102562258D01*
X144647500Y-102087742D02*
X144647500Y-102562258D01*
%TO.C,C15*%
X131365000Y-92065580D02*
X131365000Y-91784420D01*
X132385000Y-92065580D02*
X132385000Y-91784420D01*
%TO.C,C12*%
X132765580Y-97865000D02*
X132484420Y-97865000D01*
X132765580Y-98885000D02*
X132484420Y-98885000D01*
%TO.C,L2*%
X132187221Y-94990000D02*
X132512779Y-94990000D01*
X132187221Y-96010000D02*
X132512779Y-96010000D01*
%TO.C,C9*%
X135765580Y-88915000D02*
X135484420Y-88915000D01*
X135765580Y-89935000D02*
X135484420Y-89935000D01*
%TO.C,C17*%
X141957836Y-111540000D02*
X141742164Y-111540000D01*
X141957836Y-112260000D02*
X141742164Y-112260000D01*
%TO.C,C7*%
X144384420Y-98815000D02*
X144665580Y-98815000D01*
X144384420Y-99835000D02*
X144665580Y-99835000D01*
%TO.C,R3*%
X139012742Y-91352500D02*
X139487258Y-91352500D01*
X139012742Y-92397500D02*
X139487258Y-92397500D01*
D13*
%TO.C,U1*%
X135155000Y-94655000D02*
X135155000Y-95477500D01*
X135155000Y-94655000D02*
X136477500Y-94655000D01*
X135155000Y-97945000D02*
X135155000Y-97122500D01*
X135155000Y-97945000D02*
X136477500Y-97945000D01*
X140445000Y-94655000D02*
X139122500Y-94655000D01*
X140445000Y-94655000D02*
X140445000Y-95477500D01*
X140445000Y-97945000D02*
X139122500Y-97945000D01*
X140445000Y-97945000D02*
X140445000Y-97122500D01*
D14*
X135700000Y-98235000D02*
G75*
G02*
X135500000Y-98235000I-100000J0D01*
G01*
X135500000Y-98235000D02*
G75*
G02*
X135700000Y-98235000I100000J0D01*
G01*
D12*
%TO.C,C19*%
X141957836Y-109565000D02*
X141742164Y-109565000D01*
X141957836Y-110285000D02*
X141742164Y-110285000D01*
%TO.C,C18*%
X138957836Y-111540000D02*
X138742164Y-111540000D01*
X138957836Y-112260000D02*
X138742164Y-112260000D01*
%TO.C,C1*%
X147409420Y-92385000D02*
X147690580Y-92385000D01*
X147409420Y-91365000D02*
X147690580Y-91365000D01*
%TO.C,R4*%
X140662742Y-89252500D02*
X141137258Y-89252500D01*
X140662742Y-90297500D02*
X141137258Y-90297500D01*
%TO.C,C8*%
X137440000Y-88840580D02*
X137440000Y-88559420D01*
X138460000Y-88840580D02*
X138460000Y-88559420D01*
%TO.C,C5*%
X135790580Y-87140000D02*
X135509420Y-87140000D01*
X135790580Y-88160000D02*
X135509420Y-88160000D01*
%TO.C,R5*%
X134887742Y-99777500D02*
X135362258Y-99777500D01*
X134887742Y-100822500D02*
X135362258Y-100822500D01*
%TO.C,R1*%
X144262742Y-91352500D02*
X144737258Y-91352500D01*
X144262742Y-92397500D02*
X144737258Y-92397500D01*
%TD*%
M02*
