%TF.GenerationSoftware,KiCad,Pcbnew,8.0.6-8.0.6-0~ubuntu20.04.1*%
%TF.CreationDate,2024-11-02T23:17:13+01:00*%
%TF.ProjectId,CYW43439,43595734-3334-4333-992e-6b696361645f,rev?*%
%TF.SameCoordinates,Original*%
%TF.FileFunction,Copper,L2,Bot*%
%TF.FilePolarity,Positive*%
%FSLAX46Y46*%
G04 Gerber Fmt 4.6, Leading zero omitted, Abs format (unit mm)*
G04 Created by KiCad (PCBNEW 8.0.6-8.0.6-0~ubuntu20.04.1) date 2024-11-02 23:17:13*
%MOMM*%
%LPD*%
G01*
G04 APERTURE LIST*
%TA.AperFunction,ComponentPad*%
%ADD10R,1.700000X1.700000*%
%TD*%
%TA.AperFunction,ComponentPad*%
%ADD11O,1.700000X1.700000*%
%TD*%
%TA.AperFunction,ViaPad*%
%ADD12C,0.400000*%
%TD*%
%TA.AperFunction,ViaPad*%
%ADD13C,0.300000*%
%TD*%
%TA.AperFunction,Conductor*%
%ADD14C,0.100000*%
%TD*%
G04 APERTURE END LIST*
D10*
%TO.P,J3,1,Pin_1*%
%TO.N,GND*%
X152975000Y-96975000D03*
D11*
%TO.P,J3,2,Pin_2*%
%TO.N,+3.3V*%
X152975000Y-99515000D03*
%TD*%
D10*
%TO.P,J2,1,Pin_1*%
%TO.N,WL_CLK*%
X144450000Y-84100000D03*
D11*
%TO.P,J2,2,Pin_2*%
%TO.N,WL_D*%
X141910000Y-84100000D03*
%TO.P,J2,3,Pin_3*%
%TO.N,WL_CS*%
X139370000Y-84100000D03*
%TO.P,J2,4,Pin_4*%
%TO.N,WL_ON*%
X136830000Y-84100000D03*
%TD*%
D10*
%TO.P,J1,1,Pin_1*%
%TO.N,WL_GPIO2*%
X152125000Y-87800000D03*
D11*
%TO.P,J1,2,Pin_2*%
%TO.N,WL_GPIO0*%
X149585000Y-87800000D03*
%TO.P,J1,3,Pin_3*%
%TO.N,WL_GPIO1*%
X147045000Y-87800000D03*
%TD*%
D12*
%TO.N,GND*%
X128925000Y-99175000D03*
X126175000Y-94600000D03*
X147000000Y-99525000D03*
X155225000Y-99950000D03*
X155200000Y-95200000D03*
X155175000Y-90275000D03*
X137025000Y-98775000D03*
X134925000Y-98750000D03*
X133825000Y-97300000D03*
X134925000Y-98000000D03*
X134925000Y-96600000D03*
X142750000Y-100775000D03*
X142825000Y-99675000D03*
X143400000Y-100100000D03*
X143900000Y-100575000D03*
X143150000Y-101225000D03*
X137800000Y-99300000D03*
X141425000Y-99275000D03*
X140825000Y-99275000D03*
X140225000Y-99300000D03*
X142225000Y-99675000D03*
X142225000Y-100600000D03*
X142250000Y-101175000D03*
X137250000Y-99900000D03*
X137225000Y-100500000D03*
X137200000Y-101175000D03*
X137200000Y-101850000D03*
X137225000Y-102550000D03*
X137850000Y-102575000D03*
X138475000Y-102575000D03*
X139200000Y-102600000D03*
X139925000Y-102600000D03*
X140675000Y-102600000D03*
X141425000Y-102600000D03*
X142225000Y-102600000D03*
X142225000Y-101875000D03*
X143150000Y-101875000D03*
X143150000Y-102600000D03*
X143150000Y-103275000D03*
X143150000Y-104000000D03*
X143900000Y-104000000D03*
X145075000Y-102075000D03*
X145100000Y-103000000D03*
X139625000Y-98800000D03*
X138375000Y-98800000D03*
X138375000Y-99300000D03*
X139625000Y-99300000D03*
X131850000Y-89900000D03*
X126100000Y-99075000D03*
X126225000Y-90475000D03*
X135575000Y-86400000D03*
X130675000Y-86500000D03*
X126350000Y-86450000D03*
X139175000Y-88550000D03*
X139175000Y-86775000D03*
X143800000Y-88300000D03*
X143900000Y-86700000D03*
X142350000Y-88450000D03*
X142325000Y-86700000D03*
X141150000Y-88425000D03*
X141150000Y-86775000D03*
X146025000Y-93175000D03*
X143550000Y-93200000D03*
X141900000Y-94975000D03*
X150300000Y-92550000D03*
X150875000Y-90000000D03*
X145000000Y-90150000D03*
X142300000Y-92800000D03*
X140975000Y-94100000D03*
X146050000Y-94875000D03*
X146225000Y-109250000D03*
X132575000Y-111825000D03*
X144725000Y-109300000D03*
X154925000Y-111450000D03*
X145600000Y-103650000D03*
X145150000Y-107250000D03*
X145300000Y-98150000D03*
X146300000Y-104425000D03*
X133475000Y-89925000D03*
X126425000Y-107275000D03*
X150750000Y-106975000D03*
X144075000Y-109925000D03*
X137050000Y-108025000D03*
X135975000Y-98000000D03*
X145500000Y-110050000D03*
X154925000Y-106900000D03*
X144700000Y-108675000D03*
X143675000Y-111825000D03*
X144300000Y-111225000D03*
X154875000Y-102875000D03*
X137075000Y-110450000D03*
X150275000Y-102025000D03*
X142900000Y-111100000D03*
X140368753Y-108019975D03*
X140175000Y-104950000D03*
X127075000Y-95500000D03*
X144675000Y-104475000D03*
X126425000Y-102700000D03*
X143475000Y-110500000D03*
X143525000Y-108025000D03*
X146350000Y-106300000D03*
X133275000Y-102025000D03*
X133975000Y-94350000D03*
X130775000Y-98400000D03*
X136000000Y-108675000D03*
X146350000Y-108125000D03*
X141425000Y-108025000D03*
X139200000Y-96700000D03*
X146350000Y-105350000D03*
X144675000Y-108025000D03*
X135975000Y-109350000D03*
X134950000Y-95100000D03*
X149200000Y-91825000D03*
X138025000Y-86975000D03*
X149625000Y-111950000D03*
X144900000Y-110650000D03*
X146350000Y-107225000D03*
X138150000Y-108025000D03*
X145150000Y-105375000D03*
X142425000Y-108025000D03*
X136475000Y-109925000D03*
X126500000Y-111700000D03*
X149975000Y-96525000D03*
X137675000Y-111075000D03*
X136000000Y-108025000D03*
X139275000Y-108025000D03*
X145150000Y-106325000D03*
X131175000Y-107075000D03*
D13*
%TO.N,WL_GPIO2*%
X139200000Y-95900000D03*
X140750000Y-96150000D03*
%TO.N,WL_GPIO1*%
X140525000Y-92950000D03*
X138200000Y-93091608D03*
%TO.N,WL_GPIO0*%
X139050000Y-93200000D03*
X140525000Y-93525000D03*
D12*
%TO.N,VOUT_3P3*%
X134550000Y-95875000D03*
X137200000Y-94000000D03*
X140675000Y-97500000D03*
%TO.N,VDDBAT*%
X141125000Y-97100000D03*
X137600000Y-93575000D03*
X134625000Y-93725000D03*
%TO.N,Net-(U1-BTFM_PLL_VDD)*%
X139650000Y-98075000D03*
X138000000Y-98075000D03*
%TD*%
D14*
%TO.N,Net-(U1-BTFM_PLL_VDD)*%
X139650000Y-98075000D02*
X138000000Y-98075000D01*
%TO.N,WL_GPIO2*%
X140750000Y-96150000D02*
X140500000Y-95900000D01*
X140500000Y-95900000D02*
X139200000Y-95900000D01*
%TO.N,WL_GPIO1*%
X138416608Y-92875000D02*
X140450000Y-92875000D01*
X138200000Y-93091608D02*
X138416608Y-92875000D01*
X140450000Y-92875000D02*
X140525000Y-92950000D01*
%TO.N,WL_GPIO0*%
X139050000Y-93200000D02*
X140200000Y-93200000D01*
X140200000Y-93200000D02*
X140525000Y-93525000D01*
%TO.N,VOUT_3P3*%
X134550000Y-95875000D02*
X134550000Y-94675000D01*
X139900000Y-94000000D02*
X137200000Y-94000000D01*
X134550000Y-94675000D02*
X135225000Y-94000000D01*
X140675000Y-96925000D02*
X141175000Y-96425000D01*
X141175000Y-95275000D02*
X139900000Y-94000000D01*
X140675000Y-97500000D02*
X140675000Y-96925000D01*
X141175000Y-96425000D02*
X141175000Y-95275000D01*
X135225000Y-94000000D02*
X137200000Y-94000000D01*
%TO.N,VDDBAT*%
X141375000Y-96850000D02*
X141125000Y-97100000D01*
X137600000Y-93575000D02*
X139775000Y-93575000D01*
X137600000Y-93575000D02*
X134775000Y-93575000D01*
X141375000Y-95175000D02*
X141375000Y-96850000D01*
X134775000Y-93575000D02*
X134625000Y-93725000D01*
X139775000Y-93575000D02*
X141375000Y-95175000D01*
%TD*%
%TA.AperFunction,Conductor*%
%TO.N,GND*%
G36*
X155560148Y-82464352D02*
G01*
X155574500Y-82499000D01*
X155574500Y-112250500D01*
X155560148Y-112285148D01*
X155525500Y-112299500D01*
X141899000Y-112299500D01*
X141864352Y-112285148D01*
X141850000Y-112250500D01*
X141850000Y-111595296D01*
X141864352Y-111560648D01*
X144350000Y-109075000D01*
X144350000Y-108325000D01*
X136350000Y-108325000D01*
X136350000Y-109075000D01*
X138835648Y-111560648D01*
X138850000Y-111595296D01*
X138850000Y-112250500D01*
X138835648Y-112285148D01*
X138801000Y-112299500D01*
X125824500Y-112299500D01*
X125789852Y-112285148D01*
X125775500Y-112250500D01*
X125775500Y-99514999D01*
X152019901Y-99514999D01*
X152019901Y-99515000D01*
X152038253Y-99701331D01*
X152038253Y-99701332D01*
X152092604Y-99880502D01*
X152180863Y-100045624D01*
X152180868Y-100045631D01*
X152243775Y-100122282D01*
X152299643Y-100190357D01*
X152382590Y-100258430D01*
X152444368Y-100309131D01*
X152444375Y-100309136D01*
X152609499Y-100397396D01*
X152788669Y-100451747D01*
X152975000Y-100470099D01*
X153161331Y-100451747D01*
X153340501Y-100397396D01*
X153505625Y-100309136D01*
X153650357Y-100190357D01*
X153769136Y-100045625D01*
X153857396Y-99880501D01*
X153911747Y-99701331D01*
X153930099Y-99515000D01*
X153911747Y-99328669D01*
X153857396Y-99149499D01*
X153769136Y-98984375D01*
X153769131Y-98984368D01*
X153718430Y-98922590D01*
X153650357Y-98839643D01*
X153582282Y-98783775D01*
X153505631Y-98720868D01*
X153505624Y-98720863D01*
X153340502Y-98632604D01*
X153161331Y-98578253D01*
X152975000Y-98559901D01*
X152788668Y-98578253D01*
X152788667Y-98578253D01*
X152609497Y-98632604D01*
X152444375Y-98720863D01*
X152444368Y-98720868D01*
X152299643Y-98839643D01*
X152180868Y-98984368D01*
X152180863Y-98984375D01*
X152092604Y-99149497D01*
X152038253Y-99328667D01*
X152038253Y-99328668D01*
X152019901Y-99514999D01*
X125775500Y-99514999D01*
X125775500Y-98075000D01*
X137694864Y-98075000D01*
X137713266Y-98179365D01*
X137766250Y-98271136D01*
X137766252Y-98271139D01*
X137847431Y-98339256D01*
X137947014Y-98375500D01*
X138052986Y-98375500D01*
X138152568Y-98339256D01*
X138233747Y-98271139D01*
X138233747Y-98271138D01*
X138233748Y-98271138D01*
X138245951Y-98250000D01*
X138275704Y-98227170D01*
X138288387Y-98225500D01*
X139361613Y-98225500D01*
X139396261Y-98239852D01*
X139404049Y-98250001D01*
X139416252Y-98271138D01*
X139416252Y-98271139D01*
X139497431Y-98339256D01*
X139597014Y-98375500D01*
X139702986Y-98375500D01*
X139802568Y-98339256D01*
X139883747Y-98271139D01*
X139883749Y-98271136D01*
X139936733Y-98179365D01*
X139936733Y-98179364D01*
X139936734Y-98179363D01*
X139955136Y-98075000D01*
X139936734Y-97970637D01*
X139936733Y-97970635D01*
X139936733Y-97970634D01*
X139883749Y-97878863D01*
X139883747Y-97878860D01*
X139802568Y-97810743D01*
X139702986Y-97774500D01*
X139597014Y-97774500D01*
X139497431Y-97810743D01*
X139416252Y-97878860D01*
X139416252Y-97878861D01*
X139404049Y-97899999D01*
X139374296Y-97922830D01*
X139361613Y-97924500D01*
X138288387Y-97924500D01*
X138253739Y-97910148D01*
X138245951Y-97899999D01*
X138233748Y-97878862D01*
X138233747Y-97878861D01*
X138233747Y-97878860D01*
X138152568Y-97810743D01*
X138052986Y-97774500D01*
X137947014Y-97774500D01*
X137847431Y-97810743D01*
X137766252Y-97878860D01*
X137766250Y-97878863D01*
X137713266Y-97970634D01*
X137694864Y-98075000D01*
X125775500Y-98075000D01*
X125775500Y-95875000D01*
X134244864Y-95875000D01*
X134263266Y-95979365D01*
X134316250Y-96071136D01*
X134316252Y-96071139D01*
X134397431Y-96139256D01*
X134497014Y-96175500D01*
X134602986Y-96175500D01*
X134702568Y-96139256D01*
X134783747Y-96071139D01*
X134783749Y-96071136D01*
X134836733Y-95979365D01*
X134836733Y-95979364D01*
X134836734Y-95979363D01*
X134855136Y-95875000D01*
X134836734Y-95770637D01*
X134836733Y-95770635D01*
X134836733Y-95770634D01*
X134783749Y-95678863D01*
X134783747Y-95678860D01*
X134718003Y-95623695D01*
X134700686Y-95590430D01*
X134700500Y-95586159D01*
X134700500Y-94757635D01*
X134714852Y-94722987D01*
X135272987Y-94164852D01*
X135307635Y-94150500D01*
X136911613Y-94150500D01*
X136946261Y-94164852D01*
X136954049Y-94175001D01*
X136966252Y-94196138D01*
X136966252Y-94196139D01*
X137047431Y-94264256D01*
X137147014Y-94300500D01*
X137252986Y-94300500D01*
X137352568Y-94264256D01*
X137433747Y-94196139D01*
X137433747Y-94196138D01*
X137433748Y-94196138D01*
X137445951Y-94175000D01*
X137475704Y-94152170D01*
X137488387Y-94150500D01*
X139817364Y-94150500D01*
X139852012Y-94164852D01*
X141010148Y-95322987D01*
X141024500Y-95357635D01*
X141024500Y-95910401D01*
X141010148Y-95945049D01*
X140975500Y-95959401D01*
X140948277Y-95951143D01*
X140857492Y-95890483D01*
X140750003Y-95869103D01*
X140750000Y-95869103D01*
X140718920Y-95875284D01*
X140682137Y-95867966D01*
X140674714Y-95861873D01*
X140585255Y-95772414D01*
X140585252Y-95772412D01*
X140552848Y-95758990D01*
X140529936Y-95749500D01*
X139456971Y-95749500D01*
X139422323Y-95735148D01*
X139416229Y-95727723D01*
X139398624Y-95701375D01*
X139307492Y-95640483D01*
X139200003Y-95619103D01*
X139199997Y-95619103D01*
X139092507Y-95640483D01*
X139001375Y-95701375D01*
X138940483Y-95792507D01*
X138919103Y-95899997D01*
X138919103Y-95900002D01*
X138940483Y-96007492D01*
X139001375Y-96098624D01*
X139061991Y-96139126D01*
X139092505Y-96159515D01*
X139092507Y-96159516D01*
X139199997Y-96180897D01*
X139200000Y-96180897D01*
X139200003Y-96180897D01*
X139307492Y-96159516D01*
X139307492Y-96159515D01*
X139307495Y-96159515D01*
X139398624Y-96098624D01*
X139416229Y-96072277D01*
X139447412Y-96051442D01*
X139456971Y-96050500D01*
X140417364Y-96050500D01*
X140452012Y-96064852D01*
X140461873Y-96074713D01*
X140476225Y-96109361D01*
X140475284Y-96118918D01*
X140469103Y-96149999D01*
X140469103Y-96150002D01*
X140490483Y-96257492D01*
X140551375Y-96348624D01*
X140572382Y-96362660D01*
X140642505Y-96409515D01*
X140642507Y-96409516D01*
X140749997Y-96430897D01*
X140750000Y-96430897D01*
X140750003Y-96430897D01*
X140849051Y-96411195D01*
X140885833Y-96418511D01*
X140906668Y-96449694D01*
X140899352Y-96486476D01*
X140893258Y-96493901D01*
X140547413Y-96839746D01*
X140533990Y-96872149D01*
X140533990Y-96872151D01*
X140524500Y-96895064D01*
X140524500Y-96895065D01*
X140524500Y-97211159D01*
X140510148Y-97245807D01*
X140506997Y-97248695D01*
X140441252Y-97303860D01*
X140441250Y-97303863D01*
X140388266Y-97395634D01*
X140369864Y-97500000D01*
X140388266Y-97604365D01*
X140441250Y-97696136D01*
X140441252Y-97696139D01*
X140522431Y-97764256D01*
X140622014Y-97800500D01*
X140727986Y-97800500D01*
X140827568Y-97764256D01*
X140908747Y-97696139D01*
X140908749Y-97696136D01*
X140961733Y-97604365D01*
X140961733Y-97604364D01*
X140961734Y-97604363D01*
X140980136Y-97500000D01*
X140969824Y-97441520D01*
X140977941Y-97404909D01*
X141009571Y-97384758D01*
X141034836Y-97386968D01*
X141072014Y-97400500D01*
X141072015Y-97400500D01*
X141177986Y-97400500D01*
X141277568Y-97364256D01*
X141358747Y-97296139D01*
X141358749Y-97296136D01*
X141411733Y-97204365D01*
X141411733Y-97204364D01*
X141411734Y-97204363D01*
X141430136Y-97100000D01*
X141420730Y-97046656D01*
X141428848Y-97010043D01*
X141434327Y-97003511D01*
X141502587Y-96935252D01*
X141515589Y-96903862D01*
X141525500Y-96879936D01*
X141525500Y-95145064D01*
X141514043Y-95117406D01*
X141502588Y-95089749D01*
X141135826Y-94722987D01*
X139860254Y-93447413D01*
X139860252Y-93447412D01*
X139853872Y-93444769D01*
X139827354Y-93418252D01*
X139827354Y-93380749D01*
X139853872Y-93354230D01*
X139872624Y-93350500D01*
X140117364Y-93350500D01*
X140152012Y-93364852D01*
X140236873Y-93449713D01*
X140251225Y-93484361D01*
X140250284Y-93493918D01*
X140244103Y-93524999D01*
X140244103Y-93525002D01*
X140265483Y-93632492D01*
X140326375Y-93723624D01*
X140386991Y-93764126D01*
X140417505Y-93784515D01*
X140417507Y-93784516D01*
X140524997Y-93805897D01*
X140525000Y-93805897D01*
X140525003Y-93805897D01*
X140632492Y-93784516D01*
X140632492Y-93784515D01*
X140632495Y-93784515D01*
X140723624Y-93723624D01*
X140784515Y-93632495D01*
X140786875Y-93620634D01*
X140805897Y-93525002D01*
X140805897Y-93524997D01*
X140784516Y-93417507D01*
X140723624Y-93326375D01*
X140669531Y-93290232D01*
X140651585Y-93278240D01*
X140630751Y-93247060D01*
X140638067Y-93210277D01*
X140651583Y-93196760D01*
X140723624Y-93148624D01*
X140784515Y-93057495D01*
X140786106Y-93049500D01*
X140805897Y-92950002D01*
X140805897Y-92949997D01*
X140784516Y-92842507D01*
X140777556Y-92832091D01*
X140763271Y-92810711D01*
X140723624Y-92751375D01*
X140632492Y-92690483D01*
X140525003Y-92669103D01*
X140524997Y-92669103D01*
X140417507Y-92690483D01*
X140378957Y-92716242D01*
X140351734Y-92724500D01*
X138386672Y-92724500D01*
X138363759Y-92733990D01*
X138344777Y-92741852D01*
X138331355Y-92747412D01*
X138275285Y-92803482D01*
X138240637Y-92817833D01*
X138231079Y-92816892D01*
X138200000Y-92810711D01*
X138199997Y-92810711D01*
X138092507Y-92832091D01*
X138001375Y-92892983D01*
X137940483Y-92984115D01*
X137919103Y-93091605D01*
X137919103Y-93091610D01*
X137940483Y-93199100D01*
X138001375Y-93290232D01*
X138032074Y-93310744D01*
X138068014Y-93334758D01*
X138088849Y-93365940D01*
X138081533Y-93402723D01*
X138050351Y-93423558D01*
X138040791Y-93424500D01*
X137888387Y-93424500D01*
X137853739Y-93410148D01*
X137845951Y-93399999D01*
X137833748Y-93378862D01*
X137833747Y-93378861D01*
X137833747Y-93378860D01*
X137752568Y-93310743D01*
X137652986Y-93274500D01*
X137547014Y-93274500D01*
X137447431Y-93310743D01*
X137366252Y-93378860D01*
X137366252Y-93378861D01*
X137362674Y-93385059D01*
X137354843Y-93398624D01*
X137354049Y-93399999D01*
X137324296Y-93422830D01*
X137311613Y-93424500D01*
X134745064Y-93424500D01*
X134745062Y-93424500D01*
X134745059Y-93424501D01*
X134731294Y-93430203D01*
X134695785Y-93430978D01*
X134677986Y-93424500D01*
X134572014Y-93424500D01*
X134472431Y-93460743D01*
X134391252Y-93528860D01*
X134391250Y-93528863D01*
X134338266Y-93620634D01*
X134319864Y-93725000D01*
X134338266Y-93829365D01*
X134391250Y-93921136D01*
X134391252Y-93921139D01*
X134472431Y-93989256D01*
X134572014Y-94025500D01*
X134677986Y-94025500D01*
X134777568Y-93989256D01*
X134858747Y-93921139D01*
X134858749Y-93921136D01*
X134911733Y-93829365D01*
X134911733Y-93829364D01*
X134911734Y-93829363D01*
X134922908Y-93765990D01*
X134943059Y-93734361D01*
X134971164Y-93725500D01*
X136926924Y-93725500D01*
X136961572Y-93739852D01*
X136975924Y-93774500D01*
X136966903Y-93799286D01*
X136968396Y-93800148D01*
X136954049Y-93824999D01*
X136924296Y-93847830D01*
X136911613Y-93849500D01*
X135195062Y-93849500D01*
X135155950Y-93865702D01*
X135139746Y-93872413D01*
X135139744Y-93872415D01*
X134422413Y-94589745D01*
X134422413Y-94589746D01*
X134408990Y-94622149D01*
X134408990Y-94622151D01*
X134399500Y-94645064D01*
X134399500Y-94645065D01*
X134399500Y-95586159D01*
X134385148Y-95620807D01*
X134381997Y-95623695D01*
X134316252Y-95678860D01*
X134316250Y-95678863D01*
X134263266Y-95770634D01*
X134244864Y-95875000D01*
X125775500Y-95875000D01*
X125775500Y-92209166D01*
X125784575Y-88594131D01*
X125786569Y-87799999D01*
X146089901Y-87799999D01*
X146089901Y-87800000D01*
X146108253Y-87986331D01*
X146108253Y-87986332D01*
X146162604Y-88165502D01*
X146250863Y-88330624D01*
X146250868Y-88330631D01*
X146313775Y-88407282D01*
X146369643Y-88475357D01*
X146452590Y-88543430D01*
X146514368Y-88594131D01*
X146514375Y-88594136D01*
X146679499Y-88682396D01*
X146858669Y-88736747D01*
X147045000Y-88755099D01*
X147231331Y-88736747D01*
X147410501Y-88682396D01*
X147575625Y-88594136D01*
X147720357Y-88475357D01*
X147839136Y-88330625D01*
X147927396Y-88165501D01*
X147981747Y-87986331D01*
X148000099Y-87800000D01*
X148000099Y-87799999D01*
X148629901Y-87799999D01*
X148629901Y-87800000D01*
X148648253Y-87986331D01*
X148648253Y-87986332D01*
X148702604Y-88165502D01*
X148790863Y-88330624D01*
X148790868Y-88330631D01*
X148853775Y-88407282D01*
X148909643Y-88475357D01*
X148992590Y-88543430D01*
X149054368Y-88594131D01*
X149054375Y-88594136D01*
X149219499Y-88682396D01*
X149398669Y-88736747D01*
X149585000Y-88755099D01*
X149771331Y-88736747D01*
X149950501Y-88682396D01*
X150115625Y-88594136D01*
X150260357Y-88475357D01*
X150379136Y-88330625D01*
X150467396Y-88165501D01*
X150521747Y-87986331D01*
X150540099Y-87800000D01*
X150521747Y-87613669D01*
X150467396Y-87434499D01*
X150379136Y-87269375D01*
X150379131Y-87269368D01*
X150328430Y-87207590D01*
X150260357Y-87124643D01*
X150192282Y-87068775D01*
X150115631Y-87005868D01*
X150115624Y-87005863D01*
X149992580Y-86940095D01*
X151174500Y-86940095D01*
X151174500Y-88659894D01*
X151174501Y-88659898D01*
X151180331Y-88689213D01*
X151180331Y-88689214D01*
X151180332Y-88689215D01*
X151180332Y-88689216D01*
X151202542Y-88722456D01*
X151202543Y-88722457D01*
X151235787Y-88744669D01*
X151265101Y-88750500D01*
X152984898Y-88750499D01*
X153014213Y-88744669D01*
X153047457Y-88722457D01*
X153069669Y-88689213D01*
X153075500Y-88659899D01*
X153075499Y-86940102D01*
X153069669Y-86910787D01*
X153069667Y-86910784D01*
X153069667Y-86910783D01*
X153047457Y-86877543D01*
X153014212Y-86855330D01*
X152984901Y-86849500D01*
X151265105Y-86849500D01*
X151265104Y-86849500D01*
X151265102Y-86849501D01*
X151235787Y-86855331D01*
X151235786Y-86855331D01*
X151235784Y-86855332D01*
X151235783Y-86855332D01*
X151202543Y-86877542D01*
X151180330Y-86910786D01*
X151180330Y-86910787D01*
X151174500Y-86940095D01*
X149992580Y-86940095D01*
X149950502Y-86917604D01*
X149771331Y-86863253D01*
X149585000Y-86844901D01*
X149398668Y-86863253D01*
X149398667Y-86863253D01*
X149219497Y-86917604D01*
X149054375Y-87005863D01*
X149054368Y-87005868D01*
X148909643Y-87124643D01*
X148790868Y-87269368D01*
X148790863Y-87269375D01*
X148702604Y-87434497D01*
X148648253Y-87613667D01*
X148648253Y-87613668D01*
X148629901Y-87799999D01*
X148000099Y-87799999D01*
X147981747Y-87613669D01*
X147927396Y-87434499D01*
X147839136Y-87269375D01*
X147839131Y-87269368D01*
X147788430Y-87207590D01*
X147720357Y-87124643D01*
X147652282Y-87068775D01*
X147575631Y-87005868D01*
X147575624Y-87005863D01*
X147410502Y-86917604D01*
X147231331Y-86863253D01*
X147045000Y-86844901D01*
X146858668Y-86863253D01*
X146858667Y-86863253D01*
X146679497Y-86917604D01*
X146514375Y-87005863D01*
X146514368Y-87005868D01*
X146369643Y-87124643D01*
X146250868Y-87269368D01*
X146250863Y-87269375D01*
X146162604Y-87434497D01*
X146108253Y-87613667D01*
X146108253Y-87613668D01*
X146089901Y-87799999D01*
X125786569Y-87799999D01*
X125795857Y-84099999D01*
X135874901Y-84099999D01*
X135874901Y-84100000D01*
X135893253Y-84286331D01*
X135893253Y-84286332D01*
X135947604Y-84465502D01*
X136035863Y-84630624D01*
X136035868Y-84630631D01*
X136098775Y-84707282D01*
X136154643Y-84775357D01*
X136237590Y-84843430D01*
X136299368Y-84894131D01*
X136299375Y-84894136D01*
X136464499Y-84982396D01*
X136643669Y-85036747D01*
X136830000Y-85055099D01*
X137016331Y-85036747D01*
X137195501Y-84982396D01*
X137360625Y-84894136D01*
X137505357Y-84775357D01*
X137624136Y-84630625D01*
X137712396Y-84465501D01*
X137766747Y-84286331D01*
X137785099Y-84100000D01*
X137785099Y-84099999D01*
X138414901Y-84099999D01*
X138414901Y-84100000D01*
X138433253Y-84286331D01*
X138433253Y-84286332D01*
X138487604Y-84465502D01*
X138575863Y-84630624D01*
X138575868Y-84630631D01*
X138638775Y-84707282D01*
X138694643Y-84775357D01*
X138777590Y-84843430D01*
X138839368Y-84894131D01*
X138839375Y-84894136D01*
X139004499Y-84982396D01*
X139183669Y-85036747D01*
X139370000Y-85055099D01*
X139556331Y-85036747D01*
X139735501Y-84982396D01*
X139900625Y-84894136D01*
X140045357Y-84775357D01*
X140164136Y-84630625D01*
X140252396Y-84465501D01*
X140306747Y-84286331D01*
X140325099Y-84100000D01*
X140325099Y-84099999D01*
X140954901Y-84099999D01*
X140954901Y-84100000D01*
X140973253Y-84286331D01*
X140973253Y-84286332D01*
X141027604Y-84465502D01*
X141115863Y-84630624D01*
X141115868Y-84630631D01*
X141178775Y-84707282D01*
X141234643Y-84775357D01*
X141317590Y-84843430D01*
X141379368Y-84894131D01*
X141379375Y-84894136D01*
X141544499Y-84982396D01*
X141723669Y-85036747D01*
X141910000Y-85055099D01*
X142096331Y-85036747D01*
X142275501Y-84982396D01*
X142440625Y-84894136D01*
X142585357Y-84775357D01*
X142704136Y-84630625D01*
X142792396Y-84465501D01*
X142846747Y-84286331D01*
X142865099Y-84100000D01*
X142846747Y-83913669D01*
X142792396Y-83734499D01*
X142704136Y-83569375D01*
X142704131Y-83569368D01*
X142653430Y-83507590D01*
X142585357Y-83424643D01*
X142517282Y-83368775D01*
X142440631Y-83305868D01*
X142440624Y-83305863D01*
X142317580Y-83240095D01*
X143499500Y-83240095D01*
X143499500Y-84959894D01*
X143499501Y-84959898D01*
X143505331Y-84989213D01*
X143505331Y-84989214D01*
X143505332Y-84989215D01*
X143505332Y-84989216D01*
X143527542Y-85022456D01*
X143527543Y-85022457D01*
X143560787Y-85044669D01*
X143590101Y-85050500D01*
X145309898Y-85050499D01*
X145339213Y-85044669D01*
X145372457Y-85022457D01*
X145394669Y-84989213D01*
X145400500Y-84959899D01*
X145400499Y-83240102D01*
X145394669Y-83210787D01*
X145394667Y-83210784D01*
X145394667Y-83210783D01*
X145372457Y-83177543D01*
X145339212Y-83155330D01*
X145309901Y-83149500D01*
X143590105Y-83149500D01*
X143590104Y-83149500D01*
X143590102Y-83149501D01*
X143560787Y-83155331D01*
X143560786Y-83155331D01*
X143560784Y-83155332D01*
X143560783Y-83155332D01*
X143527543Y-83177542D01*
X143505330Y-83210786D01*
X143505330Y-83210787D01*
X143499500Y-83240095D01*
X142317580Y-83240095D01*
X142275502Y-83217604D01*
X142096331Y-83163253D01*
X141910000Y-83144901D01*
X141723668Y-83163253D01*
X141723667Y-83163253D01*
X141544497Y-83217604D01*
X141379375Y-83305863D01*
X141379368Y-83305868D01*
X141234643Y-83424643D01*
X141115868Y-83569368D01*
X141115863Y-83569375D01*
X141027604Y-83734497D01*
X140973253Y-83913667D01*
X140973253Y-83913668D01*
X140954901Y-84099999D01*
X140325099Y-84099999D01*
X140306747Y-83913669D01*
X140252396Y-83734499D01*
X140164136Y-83569375D01*
X140164131Y-83569368D01*
X140113430Y-83507590D01*
X140045357Y-83424643D01*
X139977282Y-83368775D01*
X139900631Y-83305868D01*
X139900624Y-83305863D01*
X139735502Y-83217604D01*
X139556331Y-83163253D01*
X139370000Y-83144901D01*
X139183668Y-83163253D01*
X139183667Y-83163253D01*
X139004497Y-83217604D01*
X138839375Y-83305863D01*
X138839368Y-83305868D01*
X138694643Y-83424643D01*
X138575868Y-83569368D01*
X138575863Y-83569375D01*
X138487604Y-83734497D01*
X138433253Y-83913667D01*
X138433253Y-83913668D01*
X138414901Y-84099999D01*
X137785099Y-84099999D01*
X137766747Y-83913669D01*
X137712396Y-83734499D01*
X137624136Y-83569375D01*
X137624131Y-83569368D01*
X137573430Y-83507590D01*
X137505357Y-83424643D01*
X137437282Y-83368775D01*
X137360631Y-83305868D01*
X137360624Y-83305863D01*
X137195502Y-83217604D01*
X137016331Y-83163253D01*
X136830000Y-83144901D01*
X136643668Y-83163253D01*
X136643667Y-83163253D01*
X136464497Y-83217604D01*
X136299375Y-83305863D01*
X136299368Y-83305868D01*
X136154643Y-83424643D01*
X136035868Y-83569368D01*
X136035863Y-83569375D01*
X135947604Y-83734497D01*
X135893253Y-83913667D01*
X135893253Y-83913668D01*
X135874901Y-84099999D01*
X125795857Y-84099999D01*
X125799877Y-82498876D01*
X125814316Y-82464265D01*
X125848877Y-82450000D01*
X155525500Y-82450000D01*
X155560148Y-82464352D01*
G37*
%TD.AperFunction*%
%TD*%
M02*
